G04 #@! TF.GenerationSoftware,KiCad,Pcbnew,8.0.4*
G04 #@! TF.CreationDate,2024-11-14T12:53:51+07:00*
G04 #@! TF.ProjectId,Ver04,56657230-342e-46b6-9963-61645f706362,rev?*
G04 #@! TF.SameCoordinates,Original*
G04 #@! TF.FileFunction,Paste,Top*
G04 #@! TF.FilePolarity,Positive*
%FSLAX46Y46*%
G04 Gerber Fmt 4.6, Leading zero omitted, Abs format (unit mm)*
G04 Created by KiCad (PCBNEW 8.0.4) date 2024-11-14 12:53:51*
%MOMM*%
%LPD*%
G01*
G04 APERTURE LIST*
G04 Aperture macros list*
%AMRoundRect*
0 Rectangle with rounded corners*
0 $1 Rounding radius*
0 $2 $3 $4 $5 $6 $7 $8 $9 X,Y pos of 4 corners*
0 Add a 4 corners polygon primitive as box body*
4,1,4,$2,$3,$4,$5,$6,$7,$8,$9,$2,$3,0*
0 Add four circle primitives for the rounded corners*
1,1,$1+$1,$2,$3*
1,1,$1+$1,$4,$5*
1,1,$1+$1,$6,$7*
1,1,$1+$1,$8,$9*
0 Add four rect primitives between the rounded corners*
20,1,$1+$1,$2,$3,$4,$5,0*
20,1,$1+$1,$4,$5,$6,$7,0*
20,1,$1+$1,$6,$7,$8,$9,0*
20,1,$1+$1,$8,$9,$2,$3,0*%
G04 Aperture macros list end*
%ADD10RoundRect,0.250000X-0.450000X0.350000X-0.450000X-0.350000X0.450000X-0.350000X0.450000X0.350000X0*%
%ADD11RoundRect,0.250000X1.050000X0.550000X-1.050000X0.550000X-1.050000X-0.550000X1.050000X-0.550000X0*%
%ADD12RoundRect,0.250000X-0.350000X-0.450000X0.350000X-0.450000X0.350000X0.450000X-0.350000X0.450000X0*%
%ADD13RoundRect,0.250000X-0.625000X0.400000X-0.625000X-0.400000X0.625000X-0.400000X0.625000X0.400000X0*%
%ADD14RoundRect,0.243750X0.456250X-0.243750X0.456250X0.243750X-0.456250X0.243750X-0.456250X-0.243750X0*%
%ADD15R,1.500000X2.000000*%
%ADD16R,3.800000X2.000000*%
%ADD17RoundRect,0.250000X1.500000X0.900000X-1.500000X0.900000X-1.500000X-0.900000X1.500000X-0.900000X0*%
%ADD18R,0.250000X1.100000*%
%ADD19RoundRect,0.250000X0.450000X-0.350000X0.450000X0.350000X-0.450000X0.350000X-0.450000X-0.350000X0*%
%ADD20R,0.900000X1.700000*%
%ADD21RoundRect,0.250000X-1.050000X-0.550000X1.050000X-0.550000X1.050000X0.550000X-1.050000X0.550000X0*%
%ADD22R,0.900000X2.000000*%
%ADD23R,2.000000X0.900000*%
%ADD24R,5.000000X5.000000*%
%ADD25R,2.000000X0.500000*%
%ADD26R,1.700000X2.000000*%
%ADD27RoundRect,0.250000X-0.475000X0.250000X-0.475000X-0.250000X0.475000X-0.250000X0.475000X0.250000X0*%
%ADD28R,1.600000X0.700000*%
%ADD29R,2.200000X1.200000*%
%ADD30R,1.400000X1.600000*%
%ADD31R,1.400000X1.200000*%
%ADD32RoundRect,0.042000X0.258000X-0.943000X0.258000X0.943000X-0.258000X0.943000X-0.258000X-0.943000X0*%
%ADD33RoundRect,0.250000X-0.450000X0.262500X-0.450000X-0.262500X0.450000X-0.262500X0.450000X0.262500X0*%
G04 APERTURE END LIST*
D10*
X67500000Y-115800000D03*
X67500000Y-117800000D03*
X82500000Y-115800000D03*
X82500000Y-117800000D03*
D11*
X48800000Y-98300000D03*
X45200000Y-98300000D03*
D10*
X72500000Y-71800000D03*
X72500000Y-73800000D03*
D12*
X44400000Y-49400000D03*
X46400000Y-49400000D03*
D13*
X69700000Y-46450000D03*
X69700000Y-49550000D03*
D12*
X60100000Y-49400000D03*
X62100000Y-49400000D03*
D14*
X72500000Y-122037500D03*
X72500000Y-120162500D03*
D15*
X77600000Y-85050000D03*
X75300000Y-85050000D03*
D16*
X75300000Y-91350000D03*
D15*
X73000000Y-85050000D03*
D12*
X96500000Y-46500000D03*
X98500000Y-46500000D03*
D17*
X98300000Y-54200000D03*
X92900000Y-54200000D03*
D12*
X64800000Y-46500000D03*
X66800000Y-46500000D03*
D18*
X46200000Y-65350000D03*
X46700000Y-65350000D03*
X47200000Y-65350000D03*
X47700000Y-65350000D03*
X48200000Y-65350000D03*
X48200000Y-61050000D03*
X47700000Y-61050000D03*
X47200000Y-61050000D03*
X46700000Y-61050000D03*
X46200000Y-61050000D03*
D19*
X77500000Y-73800000D03*
X77500000Y-71800000D03*
D20*
X88400000Y-77600000D03*
X91800000Y-77600000D03*
D13*
X88800000Y-46450000D03*
X88800000Y-49550000D03*
D21*
X73300000Y-95700000D03*
X76900000Y-95700000D03*
D12*
X91800000Y-46500000D03*
X93800000Y-46500000D03*
D14*
X82500000Y-122037500D03*
X82500000Y-120162500D03*
D17*
X66600000Y-54200000D03*
X61200000Y-54200000D03*
D13*
X85500000Y-46450000D03*
X85500000Y-49550000D03*
D12*
X80500000Y-46500000D03*
X82500000Y-46500000D03*
D14*
X77500000Y-77837500D03*
X77500000Y-75962500D03*
D22*
X99655000Y-82200000D03*
X98385000Y-82200000D03*
X97115000Y-82200000D03*
X95845000Y-82200000D03*
X94575000Y-82200000D03*
X93305000Y-82200000D03*
X92035000Y-82200000D03*
X90765000Y-82200000D03*
X89495000Y-82200000D03*
X88225000Y-82200000D03*
X86955000Y-82200000D03*
X85685000Y-82200000D03*
X84415000Y-82200000D03*
X83145000Y-82200000D03*
D23*
X82145000Y-84985000D03*
X82145000Y-86255000D03*
X82145000Y-87525000D03*
X82145000Y-88795000D03*
X82145000Y-90065000D03*
X82145000Y-91335000D03*
X82145000Y-92605000D03*
X82145000Y-93875000D03*
X82145000Y-95145000D03*
X82145000Y-96415000D03*
D22*
X83145000Y-99200000D03*
X84415000Y-99200000D03*
X85685000Y-99200000D03*
X86955000Y-99200000D03*
X88225000Y-99200000D03*
X89495000Y-99200000D03*
X90765000Y-99200000D03*
X92035000Y-99200000D03*
X93305000Y-99200000D03*
X94575000Y-99200000D03*
X95845000Y-99200000D03*
X97115000Y-99200000D03*
X98385000Y-99200000D03*
X99655000Y-99200000D03*
D24*
X92155000Y-89700000D03*
D13*
X54000000Y-46450000D03*
X54000000Y-49550000D03*
D12*
X96500000Y-49400000D03*
X98500000Y-49400000D03*
X75800000Y-46500000D03*
X77800000Y-46500000D03*
D25*
X101400000Y-66000000D03*
X101400000Y-65200000D03*
X101400000Y-64400000D03*
X101400000Y-63600000D03*
X101400000Y-62800000D03*
D26*
X101500000Y-68850000D03*
X106950000Y-68850000D03*
X101500000Y-59950000D03*
X106950000Y-59950000D03*
D13*
X72900000Y-46450000D03*
X72900000Y-49550000D03*
D14*
X77500000Y-122037500D03*
X77500000Y-120162500D03*
D27*
X105800000Y-76950000D03*
X105800000Y-78850000D03*
D12*
X44400000Y-46500000D03*
X46400000Y-46500000D03*
D13*
X101400000Y-46450000D03*
X101400000Y-49550000D03*
D12*
X49100000Y-49400000D03*
X51100000Y-49400000D03*
D14*
X72500000Y-77837500D03*
X72500000Y-75962500D03*
D28*
X95478145Y-107784968D03*
X95478145Y-108884968D03*
X95478145Y-109984968D03*
X95478145Y-111084968D03*
X95478145Y-112184968D03*
X95478145Y-113284968D03*
X95478145Y-114384968D03*
X95478145Y-115484968D03*
X95478145Y-116584968D03*
D29*
X105578145Y-102284968D03*
D30*
X95978145Y-103184968D03*
D29*
X105578145Y-117784968D03*
D31*
X95978145Y-117784968D03*
D12*
X60100000Y-46500000D03*
X62100000Y-46500000D03*
X80500000Y-49400000D03*
X82500000Y-49400000D03*
X49100000Y-46500000D03*
X51100000Y-46500000D03*
D32*
X51590000Y-66375000D03*
X52860000Y-66375000D03*
X54130000Y-66375000D03*
X55400000Y-66375000D03*
X56670000Y-66375000D03*
X57940000Y-66375000D03*
X59210000Y-66375000D03*
X59210000Y-61425000D03*
X57940000Y-61425000D03*
X56670000Y-61425000D03*
X55400000Y-61425000D03*
X54130000Y-61425000D03*
X52860000Y-61425000D03*
X51590000Y-61425000D03*
D13*
X104600000Y-46450000D03*
X104600000Y-49550000D03*
D12*
X64800000Y-49400000D03*
X66800000Y-49400000D03*
D17*
X82300000Y-54200000D03*
X76900000Y-54200000D03*
D12*
X75800000Y-49400000D03*
X77800000Y-49400000D03*
X91800000Y-49400000D03*
X93800000Y-49400000D03*
D20*
X97100000Y-77600000D03*
X93700000Y-77600000D03*
D10*
X77500000Y-115800000D03*
X77500000Y-117800000D03*
D17*
X50900000Y-54200000D03*
X45500000Y-54200000D03*
D14*
X67500000Y-122037500D03*
X67500000Y-120162500D03*
D13*
X57200000Y-46450000D03*
X57200000Y-49550000D03*
D10*
X72500000Y-115800000D03*
X72500000Y-117800000D03*
D33*
X103000000Y-76987500D03*
X103000000Y-78812500D03*
M02*
