%TF.GenerationSoftware,KiCad,Pcbnew,8.0.4*%
%TF.CreationDate,2024-11-12T11:54:51+07:00*%
%TF.ProjectId,Ver04,56657230-342e-46b6-9963-61645f706362,rev?*%
%TF.SameCoordinates,Original*%
%TF.FileFunction,Drillmap*%
%TF.FilePolarity,Positive*%
%FSLAX45Y45*%
G04 Gerber Fmt 4.5, Leading zero omitted, Abs format (unit mm)*
G04 Created by KiCad (PCBNEW 8.0.4) date 2024-11-12 11:54:51*
%MOMM*%
%LPD*%
G01*
G04 APERTURE LIST*
%ADD10C,0.200000*%
%ADD11C,0.100000*%
%ADD12C,0.110000*%
%ADD13C,0.130000*%
%ADD14C,0.140000*%
%ADD15C,0.150000*%
G04 APERTURE END LIST*
D10*
X4000000Y-3500000D02*
X11000000Y-3500000D01*
X11000000Y-15500000D01*
X4000000Y-15500000D01*
X4000000Y-3500000D01*
D11*
X4520000Y-5940000D02*
X4560000Y-5980000D01*
X4560000Y-5940000D02*
X4520000Y-5980000D01*
X4620000Y-5890000D02*
X4660000Y-5930000D01*
X4660000Y-5890000D02*
X4620000Y-5930000D01*
X4710000Y-9070000D02*
X4750000Y-9110000D01*
X4750000Y-9070000D02*
X4710000Y-9110000D01*
X4760000Y-5830000D02*
X4800000Y-5870000D01*
X4800000Y-5830000D02*
X4760000Y-5870000D01*
X4940000Y-6210000D02*
X4980000Y-6250000D01*
X4980000Y-6210000D02*
X4940000Y-6250000D01*
X5500000Y-5400000D02*
X5540000Y-5440000D01*
X5540000Y-5400000D02*
X5500000Y-5440000D01*
X5520000Y-5920000D02*
X5560000Y-5960000D01*
X5560000Y-5920000D02*
X5520000Y-5960000D01*
X5520000Y-6820000D02*
X5560000Y-6860000D01*
X5560000Y-6820000D02*
X5520000Y-6860000D01*
X5880000Y-10510000D02*
X5920000Y-10550000D01*
X5920000Y-10510000D02*
X5880000Y-10550000D01*
X5920000Y-11920000D02*
X5960000Y-11960000D01*
X5960000Y-11920000D02*
X5920000Y-11960000D01*
X6320000Y-10780000D02*
X6360000Y-10820000D01*
X6360000Y-10780000D02*
X6320000Y-10820000D01*
X6340000Y-10080000D02*
X6380000Y-10120000D01*
X6380000Y-10080000D02*
X6340000Y-10120000D01*
X6350000Y-11230000D02*
X6390000Y-11270000D01*
X6390000Y-11230000D02*
X6350000Y-11270000D01*
X6480000Y-13720000D02*
X6520000Y-13760000D01*
X6520000Y-13720000D02*
X6480000Y-13760000D01*
X6740000Y-11040000D02*
X6780000Y-11080000D01*
X6780000Y-11040000D02*
X6740000Y-11080000D01*
X6740000Y-11410000D02*
X6780000Y-11450000D01*
X6780000Y-11410000D02*
X6740000Y-11450000D01*
X6960000Y-13650000D02*
X7000000Y-13690000D01*
X7000000Y-13650000D02*
X6960000Y-13690000D01*
X7190000Y-13720000D02*
X7230000Y-13760000D01*
X7230000Y-13720000D02*
X7190000Y-13760000D01*
X7280000Y-11280000D02*
X7320000Y-11320000D01*
X7320000Y-11280000D02*
X7280000Y-11320000D01*
X7320000Y-11880000D02*
X7360000Y-11920000D01*
X7360000Y-11880000D02*
X7320000Y-11920000D01*
X7660000Y-11050000D02*
X7700000Y-11090000D01*
X7700000Y-11050000D02*
X7660000Y-11090000D01*
X7740000Y-10800000D02*
X7780000Y-10840000D01*
X7780000Y-10800000D02*
X7740000Y-10840000D01*
X7760000Y-10540000D02*
X7800000Y-10580000D01*
X7800000Y-10540000D02*
X7760000Y-10580000D01*
X7840000Y-7930000D02*
X7880000Y-7970000D01*
X7880000Y-7930000D02*
X7840000Y-7970000D01*
X8180000Y-7110000D02*
X8220000Y-7150000D01*
X8220000Y-7110000D02*
X8180000Y-7150000D01*
X8280000Y-8000000D02*
X8320000Y-8040000D01*
X8320000Y-8000000D02*
X8280000Y-8040000D01*
X8360000Y-5780000D02*
X8400000Y-5820000D01*
X8400000Y-5780000D02*
X8360000Y-5820000D01*
X8360000Y-6240000D02*
X8400000Y-6280000D01*
X8400000Y-6240000D02*
X8360000Y-6280000D01*
X8390000Y-7110000D02*
X8430000Y-7150000D01*
X8430000Y-7110000D02*
X8390000Y-7150000D01*
X8390000Y-7600000D02*
X8430000Y-7640000D01*
X8430000Y-7600000D02*
X8390000Y-7640000D01*
X8420000Y-10110000D02*
X8460000Y-10150000D01*
X8460000Y-10110000D02*
X8420000Y-10150000D01*
X8550000Y-7600000D02*
X8590000Y-7640000D01*
X8590000Y-7600000D02*
X8550000Y-7640000D01*
X8550000Y-8020000D02*
X8590000Y-8060000D01*
X8590000Y-8020000D02*
X8550000Y-8060000D01*
X8550000Y-10110000D02*
X8590000Y-10150000D01*
X8590000Y-10110000D02*
X8550000Y-10150000D01*
X8670000Y-10110000D02*
X8710000Y-10150000D01*
X8710000Y-10110000D02*
X8670000Y-10150000D01*
X8670000Y-11670000D02*
X8710000Y-11710000D01*
X8710000Y-11670000D02*
X8670000Y-11710000D01*
X8680000Y-8020000D02*
X8720000Y-8060000D01*
X8720000Y-8020000D02*
X8680000Y-8060000D01*
X8810000Y-8020000D02*
X8850000Y-8060000D01*
X8850000Y-8020000D02*
X8810000Y-8060000D01*
X8930000Y-8020000D02*
X8970000Y-8060000D01*
X8970000Y-8020000D02*
X8930000Y-8060000D01*
X8930000Y-10110000D02*
X8970000Y-10150000D01*
X8970000Y-10110000D02*
X8930000Y-10150000D01*
X8930000Y-11198497D02*
X8970000Y-11238497D01*
X8970000Y-11198497D02*
X8930000Y-11238497D01*
X8930000Y-11670000D02*
X8970000Y-11710000D01*
X8970000Y-11670000D02*
X8930000Y-11710000D01*
X9050000Y-9690000D02*
X9090000Y-9730000D01*
X9090000Y-9690000D02*
X9050000Y-9730000D01*
X9060000Y-8020000D02*
X9100000Y-8060000D01*
X9100000Y-8020000D02*
X9060000Y-8060000D01*
X9060000Y-10110000D02*
X9100000Y-10150000D01*
X9100000Y-10110000D02*
X9060000Y-10150000D01*
X9060000Y-11420000D02*
X9100000Y-11460000D01*
X9100000Y-11420000D02*
X9060000Y-11460000D01*
X9310000Y-9690000D02*
X9350000Y-9730000D01*
X9350000Y-9690000D02*
X9310000Y-9730000D01*
X9440000Y-8000000D02*
X9480000Y-8040000D01*
X9480000Y-8000000D02*
X9440000Y-8040000D01*
X9570000Y-8000000D02*
X9610000Y-8040000D01*
X9610000Y-8000000D02*
X9570000Y-8040000D01*
X9610000Y-9040000D02*
X9650000Y-9080000D01*
X9650000Y-9040000D02*
X9610000Y-9080000D01*
X9690000Y-9690000D02*
X9730000Y-9730000D01*
X9730000Y-9690000D02*
X9690000Y-9730000D01*
X9770000Y-9040000D02*
X9810000Y-9080000D01*
X9810000Y-9040000D02*
X9770000Y-9080000D01*
X9810000Y-5700000D02*
X9850000Y-5740000D01*
X9850000Y-5700000D02*
X9810000Y-5740000D01*
X9890000Y-6040000D02*
X9930000Y-6080000D01*
X9930000Y-6040000D02*
X9890000Y-6080000D01*
X9890000Y-6170000D02*
X9930000Y-6210000D01*
X9930000Y-6170000D02*
X9890000Y-6210000D01*
X9890000Y-6420000D02*
X9930000Y-6460000D01*
X9930000Y-6420000D02*
X9890000Y-6460000D01*
X9890000Y-6550000D02*
X9930000Y-6590000D01*
X9930000Y-6550000D02*
X9890000Y-6590000D01*
X10460000Y-9700000D02*
X10500000Y-9740000D01*
X10500000Y-9700000D02*
X10460000Y-9740000D01*
X10560000Y-7330000D02*
X10600000Y-7370000D01*
X10600000Y-7330000D02*
X10560000Y-7370000D01*
X5830000Y-12720000D02*
G75*
G02*
X5770000Y-12720000I-30000J0D01*
G01*
X5770000Y-12720000D02*
G75*
G02*
X5830000Y-12720000I30000J0D01*
G01*
X6110000Y-7920000D02*
G75*
G02*
X6050000Y-7920000I-30000J0D01*
G01*
X6050000Y-7920000D02*
G75*
G02*
X6110000Y-7920000I30000J0D01*
G01*
X6890000Y-12720000D02*
G75*
G02*
X6830000Y-12720000I-30000J0D01*
G01*
X6830000Y-12720000D02*
G75*
G02*
X6890000Y-12720000I30000J0D01*
G01*
X7010000Y-15240000D02*
G75*
G02*
X6950000Y-15240000I-30000J0D01*
G01*
X6950000Y-15240000D02*
G75*
G02*
X7010000Y-15240000I30000J0D01*
G01*
X7280000Y-12420000D02*
G75*
G02*
X7220000Y-12420000I-30000J0D01*
G01*
X7220000Y-12420000D02*
G75*
G02*
X7280000Y-12420000I30000J0D01*
G01*
X7330000Y-8250000D02*
G75*
G02*
X7270000Y-8250000I-30000J0D01*
G01*
X7270000Y-8250000D02*
G75*
G02*
X7330000Y-8250000I30000J0D01*
G01*
X7520000Y-7180000D02*
G75*
G02*
X7460000Y-7180000I-30000J0D01*
G01*
X7460000Y-7180000D02*
G75*
G02*
X7520000Y-7180000I30000J0D01*
G01*
X7530000Y-6920000D02*
G75*
G02*
X7470000Y-6920000I-30000J0D01*
G01*
X7470000Y-6920000D02*
G75*
G02*
X7530000Y-6920000I30000J0D01*
G01*
X7630000Y-8170000D02*
G75*
G02*
X7570000Y-8170000I-30000J0D01*
G01*
X7570000Y-8170000D02*
G75*
G02*
X7630000Y-8170000I30000J0D01*
G01*
X7660000Y-10220000D02*
G75*
G02*
X7600000Y-10220000I-30000J0D01*
G01*
X7600000Y-10220000D02*
G75*
G02*
X7660000Y-10220000I30000J0D01*
G01*
X8010000Y-12810000D02*
G75*
G02*
X7950000Y-12810000I-30000J0D01*
G01*
X7950000Y-12810000D02*
G75*
G02*
X8010000Y-12810000I30000J0D01*
G01*
X8360000Y-12340000D02*
G75*
G02*
X8300000Y-12340000I-30000J0D01*
G01*
X8300000Y-12340000D02*
G75*
G02*
X8360000Y-12340000I30000J0D01*
G01*
X8600000Y-11330000D02*
G75*
G02*
X8540000Y-11330000I-30000J0D01*
G01*
X8540000Y-11330000D02*
G75*
G02*
X8600000Y-11330000I30000J0D01*
G01*
X9230000Y-11110000D02*
G75*
G02*
X9170000Y-11110000I-30000J0D01*
G01*
X9170000Y-11110000D02*
G75*
G02*
X9230000Y-11110000I30000J0D01*
G01*
X9240000Y-8460000D02*
G75*
G02*
X9180000Y-8460000I-30000J0D01*
G01*
X9180000Y-8460000D02*
G75*
G02*
X9240000Y-8460000I30000J0D01*
G01*
X9930000Y-7460000D02*
G75*
G02*
X9870000Y-7460000I-30000J0D01*
G01*
X9870000Y-7460000D02*
G75*
G02*
X9930000Y-7460000I30000J0D01*
G01*
X10450000Y-5700000D02*
G75*
G02*
X10390000Y-5700000I-30000J0D01*
G01*
X10390000Y-5700000D02*
G75*
G02*
X10450000Y-5700000I30000J0D01*
G01*
X4710000Y-14230000D02*
X4710000Y-14310000D01*
X4670000Y-14270000D02*
X4750000Y-14270000D01*
X5210000Y-14230000D02*
X5210000Y-14310000D01*
X5170000Y-14270000D02*
X5250000Y-14270000D01*
X5587700Y-9055900D02*
X5587700Y-9135900D01*
X5547700Y-9095900D02*
X5627700Y-9095900D01*
X6349700Y-9055900D02*
X6349700Y-9135900D01*
X6309700Y-9095900D02*
X6389700Y-9095900D01*
X6599000Y-10240000D02*
X6599000Y-10320000D01*
X6559000Y-10280000D02*
X6639000Y-10280000D01*
X7120000Y-5908000D02*
X7120000Y-5988000D01*
X7080000Y-5948000D02*
X7160000Y-5948000D01*
X7120000Y-6670000D02*
X7120000Y-6750000D01*
X7080000Y-6710000D02*
X7160000Y-6710000D01*
X7361000Y-10240000D02*
X7361000Y-10320000D01*
X7321000Y-10280000D02*
X7401000Y-10280000D01*
X7374000Y-5908000D02*
X7374000Y-5988000D01*
X7334000Y-5948000D02*
X7414000Y-5948000D01*
X7374000Y-6670000D02*
X7374000Y-6750000D01*
X7334000Y-6710000D02*
X7414000Y-6710000D01*
X7628000Y-5908000D02*
X7628000Y-5988000D01*
X7588000Y-5948000D02*
X7668000Y-5948000D01*
X7628000Y-6670000D02*
X7628000Y-6750000D01*
X7588000Y-6710000D02*
X7668000Y-6710000D01*
X7882000Y-5908000D02*
X7882000Y-5988000D01*
X7842000Y-5948000D02*
X7922000Y-5948000D01*
X7882000Y-6670000D02*
X7882000Y-6750000D01*
X7842000Y-6710000D02*
X7922000Y-6710000D01*
X7950000Y-10519000D02*
X7950000Y-10599000D01*
X7910000Y-10559000D02*
X7990000Y-10559000D01*
X7950000Y-11281000D02*
X7950000Y-11361000D01*
X7910000Y-11321000D02*
X7990000Y-11321000D01*
X4455356Y-10445356D02*
X4455356Y-10374644D01*
X4384644Y-10374644D01*
X4384644Y-10445356D01*
X4455356Y-10445356D01*
X5055356Y-13805356D02*
X5055356Y-13734644D01*
X4984644Y-13734644D01*
X4984644Y-13805356D01*
X5055356Y-13805356D01*
X5655356Y-13805356D02*
X5655356Y-13734644D01*
X5584644Y-13734644D01*
X5584644Y-13805356D01*
X5655356Y-13805356D01*
X6255356Y-10445356D02*
X6255356Y-10374644D01*
X6184644Y-10374644D01*
X6184644Y-10445356D01*
X6255356Y-10445356D01*
D12*
X9080500Y-12308500D02*
X9135500Y-12253500D01*
X9080500Y-12198500D01*
X9025500Y-12253500D01*
X9080500Y-12308500D01*
X9080500Y-14340500D02*
X9135500Y-14285500D01*
X9080500Y-14230500D01*
X9025500Y-14285500D01*
X9080500Y-14340500D01*
X9334500Y-12308500D02*
X9389500Y-12253500D01*
X9334500Y-12198500D01*
X9279500Y-12253500D01*
X9334500Y-12308500D01*
X9334500Y-14340500D02*
X9389500Y-14285500D01*
X9334500Y-14230500D01*
X9279500Y-14285500D01*
X9334500Y-14340500D01*
X9588500Y-12308500D02*
X9643500Y-12253500D01*
X9588500Y-12198500D01*
X9533500Y-12253500D01*
X9588500Y-12308500D01*
X9588500Y-14340500D02*
X9643500Y-14285500D01*
X9588500Y-14230500D01*
X9533500Y-14285500D01*
X9588500Y-14340500D01*
X9842500Y-12308500D02*
X9897500Y-12253500D01*
X9842500Y-12198500D01*
X9787500Y-12253500D01*
X9842500Y-12308500D01*
X9842500Y-14340500D02*
X9897500Y-14285500D01*
X9842500Y-14230500D01*
X9787500Y-14285500D01*
X9842500Y-14340500D01*
X10096500Y-12308500D02*
X10151500Y-12253500D01*
X10096500Y-12198500D01*
X10041500Y-12253500D01*
X10096500Y-12308500D01*
X10096500Y-14340500D02*
X10151500Y-14285500D01*
X10096500Y-14230500D01*
X10041500Y-14285500D01*
X10096500Y-14340500D01*
X10350500Y-12308500D02*
X10405500Y-12253500D01*
X10350500Y-12198500D01*
X10295500Y-12253500D01*
X10350500Y-12308500D01*
X10350500Y-14340500D02*
X10405500Y-14285500D01*
X10350500Y-14230500D01*
X10295500Y-14285500D01*
X10350500Y-14340500D01*
D13*
X4913909Y-8235000D02*
X5043909Y-8365000D01*
X5043909Y-8235000D02*
X4913909Y-8365000D01*
X5043909Y-8300000D02*
G75*
G02*
X4913909Y-8300000I-65000J0D01*
G01*
X4913909Y-8300000D02*
G75*
G02*
X5043909Y-8300000I65000J0D01*
G01*
X6913909Y-8235000D02*
X7043909Y-8365000D01*
X7043909Y-8235000D02*
X6913909Y-8365000D01*
X7043909Y-8300000D02*
G75*
G02*
X6913909Y-8300000I-65000J0D01*
G01*
X6913909Y-8300000D02*
G75*
G02*
X7043909Y-8300000I65000J0D01*
G01*
D14*
X4636000Y-4107750D02*
X4776000Y-4247750D01*
X4776000Y-4107750D02*
X4636000Y-4247750D01*
X4706000Y-4107750D02*
X4706000Y-4247750D01*
X4636000Y-4177750D02*
X4776000Y-4177750D01*
X4636000Y-14742250D02*
X4776000Y-14882250D01*
X4776000Y-14742250D02*
X4636000Y-14882250D01*
X4706000Y-14742250D02*
X4706000Y-14882250D01*
X4636000Y-14812250D02*
X4776000Y-14812250D01*
X5144000Y-4107750D02*
X5284000Y-4247750D01*
X5284000Y-4107750D02*
X5144000Y-4247750D01*
X5214000Y-4107750D02*
X5214000Y-4247750D01*
X5144000Y-4177750D02*
X5284000Y-4177750D01*
X5144000Y-14742250D02*
X5284000Y-14882250D01*
X5284000Y-14742250D02*
X5144000Y-14882250D01*
X5214000Y-14742250D02*
X5214000Y-14882250D01*
X5144000Y-14812250D02*
X5284000Y-14812250D01*
X5652000Y-4107750D02*
X5792000Y-4247750D01*
X5792000Y-4107750D02*
X5652000Y-4247750D01*
X5722000Y-4107750D02*
X5722000Y-4247750D01*
X5652000Y-4177750D02*
X5792000Y-4177750D01*
X5652000Y-14742250D02*
X5792000Y-14882250D01*
X5792000Y-14742250D02*
X5652000Y-14882250D01*
X5722000Y-14742250D02*
X5722000Y-14882250D01*
X5652000Y-14812250D02*
X5792000Y-14812250D01*
X6160000Y-4107750D02*
X6300000Y-4247750D01*
X6300000Y-4107750D02*
X6160000Y-4247750D01*
X6230000Y-4107750D02*
X6230000Y-4247750D01*
X6160000Y-4177750D02*
X6300000Y-4177750D01*
X6160000Y-14742250D02*
X6300000Y-14882250D01*
X6300000Y-14742250D02*
X6160000Y-14882250D01*
X6230000Y-14742250D02*
X6230000Y-14882250D01*
X6160000Y-14812250D02*
X6300000Y-14812250D01*
X6668000Y-4107750D02*
X6808000Y-4247750D01*
X6808000Y-4107750D02*
X6668000Y-4247750D01*
X6738000Y-4107750D02*
X6738000Y-4247750D01*
X6668000Y-4177750D02*
X6808000Y-4177750D01*
X6668000Y-14742250D02*
X6808000Y-14882250D01*
X6808000Y-14742250D02*
X6668000Y-14882250D01*
X6738000Y-14742250D02*
X6738000Y-14882250D01*
X6668000Y-14812250D02*
X6808000Y-14812250D01*
X7176000Y-4107750D02*
X7316000Y-4247750D01*
X7316000Y-4107750D02*
X7176000Y-4247750D01*
X7246000Y-4107750D02*
X7246000Y-4247750D01*
X7176000Y-4177750D02*
X7316000Y-4177750D01*
X7176000Y-14742250D02*
X7316000Y-14882250D01*
X7316000Y-14742250D02*
X7176000Y-14882250D01*
X7246000Y-14742250D02*
X7246000Y-14882250D01*
X7176000Y-14812250D02*
X7316000Y-14812250D01*
X7684000Y-4107750D02*
X7824000Y-4247750D01*
X7824000Y-4107750D02*
X7684000Y-4247750D01*
X7754000Y-4107750D02*
X7754000Y-4247750D01*
X7684000Y-4177750D02*
X7824000Y-4177750D01*
X7684000Y-14742250D02*
X7824000Y-14882250D01*
X7824000Y-14742250D02*
X7684000Y-14882250D01*
X7754000Y-14742250D02*
X7754000Y-14882250D01*
X7684000Y-14812250D02*
X7824000Y-14812250D01*
X8192000Y-4107750D02*
X8332000Y-4247750D01*
X8332000Y-4107750D02*
X8192000Y-4247750D01*
X8262000Y-4107750D02*
X8262000Y-4247750D01*
X8192000Y-4177750D02*
X8332000Y-4177750D01*
X8192000Y-14742250D02*
X8332000Y-14882250D01*
X8332000Y-14742250D02*
X8192000Y-14882250D01*
X8262000Y-14742250D02*
X8262000Y-14882250D01*
X8192000Y-14812250D02*
X8332000Y-14812250D01*
X8700000Y-4107750D02*
X8840000Y-4247750D01*
X8840000Y-4107750D02*
X8700000Y-4247750D01*
X8770000Y-4107750D02*
X8770000Y-4247750D01*
X8700000Y-4177750D02*
X8840000Y-4177750D01*
X8700000Y-14742250D02*
X8840000Y-14882250D01*
X8840000Y-14742250D02*
X8700000Y-14882250D01*
X8770000Y-14742250D02*
X8770000Y-14882250D01*
X8700000Y-14812250D02*
X8840000Y-14812250D01*
X9208000Y-4107750D02*
X9348000Y-4247750D01*
X9348000Y-4107750D02*
X9208000Y-4247750D01*
X9278000Y-4107750D02*
X9278000Y-4247750D01*
X9208000Y-4177750D02*
X9348000Y-4177750D01*
X9208000Y-14742250D02*
X9348000Y-14882250D01*
X9348000Y-14742250D02*
X9208000Y-14882250D01*
X9278000Y-14742250D02*
X9278000Y-14882250D01*
X9208000Y-14812250D02*
X9348000Y-14812250D01*
X9716000Y-4107750D02*
X9856000Y-4247750D01*
X9856000Y-4107750D02*
X9716000Y-4247750D01*
X9786000Y-4107750D02*
X9786000Y-4247750D01*
X9716000Y-4177750D02*
X9856000Y-4177750D01*
X9716000Y-14742250D02*
X9856000Y-14882250D01*
X9856000Y-14742250D02*
X9716000Y-14882250D01*
X9786000Y-14742250D02*
X9786000Y-14882250D01*
X9716000Y-14812250D02*
X9856000Y-14812250D01*
X10224000Y-4107750D02*
X10364000Y-4247750D01*
X10364000Y-4107750D02*
X10224000Y-4247750D01*
X10294000Y-4107750D02*
X10294000Y-4247750D01*
X10224000Y-4177750D02*
X10364000Y-4177750D01*
X10224000Y-14742250D02*
X10364000Y-14882250D01*
X10364000Y-14742250D02*
X10224000Y-14882250D01*
X10294000Y-14742250D02*
X10294000Y-14882250D01*
X10224000Y-14812250D02*
X10364000Y-14812250D01*
D15*
X10671500Y-12549500D02*
X10821500Y-12699500D01*
X10821500Y-12549500D02*
X10671500Y-12699500D01*
X10799534Y-12677533D02*
X10799534Y-12571466D01*
X10693467Y-12571466D01*
X10693467Y-12677533D01*
X10799534Y-12677533D01*
X10671500Y-13840300D02*
X10821500Y-13990300D01*
X10821500Y-13840300D02*
X10671500Y-13990300D01*
X10799534Y-13968333D02*
X10799534Y-13862266D01*
X10693467Y-13862266D01*
X10693467Y-13968333D01*
X10799534Y-13968333D01*
D10*
X4250777Y-15821484D02*
X4250777Y-15621484D01*
X4250777Y-15621484D02*
X4298396Y-15621484D01*
X4298396Y-15621484D02*
X4326967Y-15631008D01*
X4326967Y-15631008D02*
X4346015Y-15650055D01*
X4346015Y-15650055D02*
X4355539Y-15669103D01*
X4355539Y-15669103D02*
X4365063Y-15707198D01*
X4365063Y-15707198D02*
X4365063Y-15735769D01*
X4365063Y-15735769D02*
X4355539Y-15773865D01*
X4355539Y-15773865D02*
X4346015Y-15792912D01*
X4346015Y-15792912D02*
X4326967Y-15811960D01*
X4326967Y-15811960D02*
X4298396Y-15821484D01*
X4298396Y-15821484D02*
X4250777Y-15821484D01*
X4450777Y-15821484D02*
X4450777Y-15688150D01*
X4450777Y-15726246D02*
X4460301Y-15707198D01*
X4460301Y-15707198D02*
X4469824Y-15697674D01*
X4469824Y-15697674D02*
X4488872Y-15688150D01*
X4488872Y-15688150D02*
X4507920Y-15688150D01*
X4574586Y-15821484D02*
X4574586Y-15688150D01*
X4574586Y-15621484D02*
X4565063Y-15631008D01*
X4565063Y-15631008D02*
X4574586Y-15640531D01*
X4574586Y-15640531D02*
X4584110Y-15631008D01*
X4584110Y-15631008D02*
X4574586Y-15621484D01*
X4574586Y-15621484D02*
X4574586Y-15640531D01*
X4698396Y-15821484D02*
X4679348Y-15811960D01*
X4679348Y-15811960D02*
X4669824Y-15792912D01*
X4669824Y-15792912D02*
X4669824Y-15621484D01*
X4803158Y-15821484D02*
X4784110Y-15811960D01*
X4784110Y-15811960D02*
X4774586Y-15792912D01*
X4774586Y-15792912D02*
X4774586Y-15621484D01*
X5031729Y-15821484D02*
X5031729Y-15621484D01*
X5031729Y-15621484D02*
X5098396Y-15764341D01*
X5098396Y-15764341D02*
X5165063Y-15621484D01*
X5165063Y-15621484D02*
X5165063Y-15821484D01*
X5346015Y-15821484D02*
X5346015Y-15716722D01*
X5346015Y-15716722D02*
X5336491Y-15697674D01*
X5336491Y-15697674D02*
X5317444Y-15688150D01*
X5317444Y-15688150D02*
X5279348Y-15688150D01*
X5279348Y-15688150D02*
X5260301Y-15697674D01*
X5346015Y-15811960D02*
X5326967Y-15821484D01*
X5326967Y-15821484D02*
X5279348Y-15821484D01*
X5279348Y-15821484D02*
X5260301Y-15811960D01*
X5260301Y-15811960D02*
X5250777Y-15792912D01*
X5250777Y-15792912D02*
X5250777Y-15773865D01*
X5250777Y-15773865D02*
X5260301Y-15754817D01*
X5260301Y-15754817D02*
X5279348Y-15745293D01*
X5279348Y-15745293D02*
X5326967Y-15745293D01*
X5326967Y-15745293D02*
X5346015Y-15735769D01*
X5441253Y-15688150D02*
X5441253Y-15888150D01*
X5441253Y-15697674D02*
X5460301Y-15688150D01*
X5460301Y-15688150D02*
X5498396Y-15688150D01*
X5498396Y-15688150D02*
X5517444Y-15697674D01*
X5517444Y-15697674D02*
X5526967Y-15707198D01*
X5526967Y-15707198D02*
X5536491Y-15726246D01*
X5536491Y-15726246D02*
X5536491Y-15783388D01*
X5536491Y-15783388D02*
X5526967Y-15802436D01*
X5526967Y-15802436D02*
X5517444Y-15811960D01*
X5517444Y-15811960D02*
X5498396Y-15821484D01*
X5498396Y-15821484D02*
X5460301Y-15821484D01*
X5460301Y-15821484D02*
X5441253Y-15811960D01*
X5622205Y-15802436D02*
X5631729Y-15811960D01*
X5631729Y-15811960D02*
X5622205Y-15821484D01*
X5622205Y-15821484D02*
X5612682Y-15811960D01*
X5612682Y-15811960D02*
X5622205Y-15802436D01*
X5622205Y-15802436D02*
X5622205Y-15821484D01*
X5622205Y-15697674D02*
X5631729Y-15707198D01*
X5631729Y-15707198D02*
X5622205Y-15716722D01*
X5622205Y-15716722D02*
X5612682Y-15707198D01*
X5612682Y-15707198D02*
X5622205Y-15697674D01*
X5622205Y-15697674D02*
X5622205Y-15716722D01*
D11*
X3950000Y-16130000D02*
X3990000Y-16170000D01*
X3990000Y-16130000D02*
X3950000Y-16170000D01*
D10*
X4288872Y-16041484D02*
X4307920Y-16041484D01*
X4307920Y-16041484D02*
X4326967Y-16051008D01*
X4326967Y-16051008D02*
X4336491Y-16060531D01*
X4336491Y-16060531D02*
X4346015Y-16079579D01*
X4346015Y-16079579D02*
X4355539Y-16117674D01*
X4355539Y-16117674D02*
X4355539Y-16165293D01*
X4355539Y-16165293D02*
X4346015Y-16203388D01*
X4346015Y-16203388D02*
X4336491Y-16222436D01*
X4336491Y-16222436D02*
X4326967Y-16231960D01*
X4326967Y-16231960D02*
X4307920Y-16241484D01*
X4307920Y-16241484D02*
X4288872Y-16241484D01*
X4288872Y-16241484D02*
X4269824Y-16231960D01*
X4269824Y-16231960D02*
X4260301Y-16222436D01*
X4260301Y-16222436D02*
X4250777Y-16203388D01*
X4250777Y-16203388D02*
X4241253Y-16165293D01*
X4241253Y-16165293D02*
X4241253Y-16117674D01*
X4241253Y-16117674D02*
X4250777Y-16079579D01*
X4250777Y-16079579D02*
X4260301Y-16060531D01*
X4260301Y-16060531D02*
X4269824Y-16051008D01*
X4269824Y-16051008D02*
X4288872Y-16041484D01*
X4441253Y-16222436D02*
X4450777Y-16231960D01*
X4450777Y-16231960D02*
X4441253Y-16241484D01*
X4441253Y-16241484D02*
X4431729Y-16231960D01*
X4431729Y-16231960D02*
X4441253Y-16222436D01*
X4441253Y-16222436D02*
X4441253Y-16241484D01*
X4622205Y-16108150D02*
X4622205Y-16241484D01*
X4574586Y-16031960D02*
X4526967Y-16174817D01*
X4526967Y-16174817D02*
X4650777Y-16174817D01*
X4765063Y-16041484D02*
X4784110Y-16041484D01*
X4784110Y-16041484D02*
X4803158Y-16051008D01*
X4803158Y-16051008D02*
X4812682Y-16060531D01*
X4812682Y-16060531D02*
X4822205Y-16079579D01*
X4822205Y-16079579D02*
X4831729Y-16117674D01*
X4831729Y-16117674D02*
X4831729Y-16165293D01*
X4831729Y-16165293D02*
X4822205Y-16203388D01*
X4822205Y-16203388D02*
X4812682Y-16222436D01*
X4812682Y-16222436D02*
X4803158Y-16231960D01*
X4803158Y-16231960D02*
X4784110Y-16241484D01*
X4784110Y-16241484D02*
X4765063Y-16241484D01*
X4765063Y-16241484D02*
X4746015Y-16231960D01*
X4746015Y-16231960D02*
X4736491Y-16222436D01*
X4736491Y-16222436D02*
X4726967Y-16203388D01*
X4726967Y-16203388D02*
X4717444Y-16165293D01*
X4717444Y-16165293D02*
X4717444Y-16117674D01*
X4717444Y-16117674D02*
X4726967Y-16079579D01*
X4726967Y-16079579D02*
X4736491Y-16060531D01*
X4736491Y-16060531D02*
X4746015Y-16051008D01*
X4746015Y-16051008D02*
X4765063Y-16041484D01*
X4955539Y-16041484D02*
X4974586Y-16041484D01*
X4974586Y-16041484D02*
X4993634Y-16051008D01*
X4993634Y-16051008D02*
X5003158Y-16060531D01*
X5003158Y-16060531D02*
X5012682Y-16079579D01*
X5012682Y-16079579D02*
X5022205Y-16117674D01*
X5022205Y-16117674D02*
X5022205Y-16165293D01*
X5022205Y-16165293D02*
X5012682Y-16203388D01*
X5012682Y-16203388D02*
X5003158Y-16222436D01*
X5003158Y-16222436D02*
X4993634Y-16231960D01*
X4993634Y-16231960D02*
X4974586Y-16241484D01*
X4974586Y-16241484D02*
X4955539Y-16241484D01*
X4955539Y-16241484D02*
X4936491Y-16231960D01*
X4936491Y-16231960D02*
X4926967Y-16222436D01*
X4926967Y-16222436D02*
X4917444Y-16203388D01*
X4917444Y-16203388D02*
X4907920Y-16165293D01*
X4907920Y-16165293D02*
X4907920Y-16117674D01*
X4907920Y-16117674D02*
X4917444Y-16079579D01*
X4917444Y-16079579D02*
X4926967Y-16060531D01*
X4926967Y-16060531D02*
X4936491Y-16051008D01*
X4936491Y-16051008D02*
X4955539Y-16041484D01*
X5107920Y-16241484D02*
X5107920Y-16108150D01*
X5107920Y-16127198D02*
X5117444Y-16117674D01*
X5117444Y-16117674D02*
X5136491Y-16108150D01*
X5136491Y-16108150D02*
X5165063Y-16108150D01*
X5165063Y-16108150D02*
X5184110Y-16117674D01*
X5184110Y-16117674D02*
X5193634Y-16136722D01*
X5193634Y-16136722D02*
X5193634Y-16241484D01*
X5193634Y-16136722D02*
X5203158Y-16117674D01*
X5203158Y-16117674D02*
X5222205Y-16108150D01*
X5222205Y-16108150D02*
X5250777Y-16108150D01*
X5250777Y-16108150D02*
X5269825Y-16117674D01*
X5269825Y-16117674D02*
X5279348Y-16136722D01*
X5279348Y-16136722D02*
X5279348Y-16241484D01*
X5374586Y-16241484D02*
X5374586Y-16108150D01*
X5374586Y-16127198D02*
X5384110Y-16117674D01*
X5384110Y-16117674D02*
X5403158Y-16108150D01*
X5403158Y-16108150D02*
X5431729Y-16108150D01*
X5431729Y-16108150D02*
X5450777Y-16117674D01*
X5450777Y-16117674D02*
X5460301Y-16136722D01*
X5460301Y-16136722D02*
X5460301Y-16241484D01*
X5460301Y-16136722D02*
X5469825Y-16117674D01*
X5469825Y-16117674D02*
X5488872Y-16108150D01*
X5488872Y-16108150D02*
X5517444Y-16108150D01*
X5517444Y-16108150D02*
X5536491Y-16117674D01*
X5536491Y-16117674D02*
X5546015Y-16136722D01*
X5546015Y-16136722D02*
X5546015Y-16241484D01*
X5936491Y-16031960D02*
X5765063Y-16289103D01*
X6193634Y-16041484D02*
X6212682Y-16041484D01*
X6212682Y-16041484D02*
X6231729Y-16051008D01*
X6231729Y-16051008D02*
X6241253Y-16060531D01*
X6241253Y-16060531D02*
X6250777Y-16079579D01*
X6250777Y-16079579D02*
X6260301Y-16117674D01*
X6260301Y-16117674D02*
X6260301Y-16165293D01*
X6260301Y-16165293D02*
X6250777Y-16203388D01*
X6250777Y-16203388D02*
X6241253Y-16222436D01*
X6241253Y-16222436D02*
X6231729Y-16231960D01*
X6231729Y-16231960D02*
X6212682Y-16241484D01*
X6212682Y-16241484D02*
X6193634Y-16241484D01*
X6193634Y-16241484D02*
X6174586Y-16231960D01*
X6174586Y-16231960D02*
X6165063Y-16222436D01*
X6165063Y-16222436D02*
X6155539Y-16203388D01*
X6155539Y-16203388D02*
X6146015Y-16165293D01*
X6146015Y-16165293D02*
X6146015Y-16117674D01*
X6146015Y-16117674D02*
X6155539Y-16079579D01*
X6155539Y-16079579D02*
X6165063Y-16060531D01*
X6165063Y-16060531D02*
X6174586Y-16051008D01*
X6174586Y-16051008D02*
X6193634Y-16041484D01*
X6346015Y-16222436D02*
X6355539Y-16231960D01*
X6355539Y-16231960D02*
X6346015Y-16241484D01*
X6346015Y-16241484D02*
X6336491Y-16231960D01*
X6336491Y-16231960D02*
X6346015Y-16222436D01*
X6346015Y-16222436D02*
X6346015Y-16241484D01*
X6479348Y-16041484D02*
X6498396Y-16041484D01*
X6498396Y-16041484D02*
X6517444Y-16051008D01*
X6517444Y-16051008D02*
X6526967Y-16060531D01*
X6526967Y-16060531D02*
X6536491Y-16079579D01*
X6536491Y-16079579D02*
X6546015Y-16117674D01*
X6546015Y-16117674D02*
X6546015Y-16165293D01*
X6546015Y-16165293D02*
X6536491Y-16203388D01*
X6536491Y-16203388D02*
X6526967Y-16222436D01*
X6526967Y-16222436D02*
X6517444Y-16231960D01*
X6517444Y-16231960D02*
X6498396Y-16241484D01*
X6498396Y-16241484D02*
X6479348Y-16241484D01*
X6479348Y-16241484D02*
X6460301Y-16231960D01*
X6460301Y-16231960D02*
X6450777Y-16222436D01*
X6450777Y-16222436D02*
X6441253Y-16203388D01*
X6441253Y-16203388D02*
X6431729Y-16165293D01*
X6431729Y-16165293D02*
X6431729Y-16117674D01*
X6431729Y-16117674D02*
X6441253Y-16079579D01*
X6441253Y-16079579D02*
X6450777Y-16060531D01*
X6450777Y-16060531D02*
X6460301Y-16051008D01*
X6460301Y-16051008D02*
X6479348Y-16041484D01*
X6736491Y-16241484D02*
X6622206Y-16241484D01*
X6679348Y-16241484D02*
X6679348Y-16041484D01*
X6679348Y-16041484D02*
X6660301Y-16070055D01*
X6660301Y-16070055D02*
X6641253Y-16089103D01*
X6641253Y-16089103D02*
X6622206Y-16098627D01*
X6917444Y-16041484D02*
X6822206Y-16041484D01*
X6822206Y-16041484D02*
X6812682Y-16136722D01*
X6812682Y-16136722D02*
X6822206Y-16127198D01*
X6822206Y-16127198D02*
X6841253Y-16117674D01*
X6841253Y-16117674D02*
X6888872Y-16117674D01*
X6888872Y-16117674D02*
X6907920Y-16127198D01*
X6907920Y-16127198D02*
X6917444Y-16136722D01*
X6917444Y-16136722D02*
X6926967Y-16155769D01*
X6926967Y-16155769D02*
X6926967Y-16203388D01*
X6926967Y-16203388D02*
X6917444Y-16222436D01*
X6917444Y-16222436D02*
X6907920Y-16231960D01*
X6907920Y-16231960D02*
X6888872Y-16241484D01*
X6888872Y-16241484D02*
X6841253Y-16241484D01*
X6841253Y-16241484D02*
X6822206Y-16231960D01*
X6822206Y-16231960D02*
X6812682Y-16222436D01*
X6993634Y-16041484D02*
X7126967Y-16041484D01*
X7126967Y-16041484D02*
X7041253Y-16241484D01*
X7193634Y-16041484D02*
X7193634Y-16079579D01*
X7269825Y-16041484D02*
X7269825Y-16079579D01*
X7565063Y-16317674D02*
X7555539Y-16308150D01*
X7555539Y-16308150D02*
X7536491Y-16279579D01*
X7536491Y-16279579D02*
X7526968Y-16260531D01*
X7526968Y-16260531D02*
X7517444Y-16231960D01*
X7517444Y-16231960D02*
X7507920Y-16184341D01*
X7507920Y-16184341D02*
X7507920Y-16146246D01*
X7507920Y-16146246D02*
X7517444Y-16098627D01*
X7517444Y-16098627D02*
X7526968Y-16070055D01*
X7526968Y-16070055D02*
X7536491Y-16051008D01*
X7536491Y-16051008D02*
X7555539Y-16022436D01*
X7555539Y-16022436D02*
X7565063Y-16012912D01*
X7736491Y-16041484D02*
X7641253Y-16041484D01*
X7641253Y-16041484D02*
X7631729Y-16136722D01*
X7631729Y-16136722D02*
X7641253Y-16127198D01*
X7641253Y-16127198D02*
X7660301Y-16117674D01*
X7660301Y-16117674D02*
X7707920Y-16117674D01*
X7707920Y-16117674D02*
X7726968Y-16127198D01*
X7726968Y-16127198D02*
X7736491Y-16136722D01*
X7736491Y-16136722D02*
X7746015Y-16155769D01*
X7746015Y-16155769D02*
X7746015Y-16203388D01*
X7746015Y-16203388D02*
X7736491Y-16222436D01*
X7736491Y-16222436D02*
X7726968Y-16231960D01*
X7726968Y-16231960D02*
X7707920Y-16241484D01*
X7707920Y-16241484D02*
X7660301Y-16241484D01*
X7660301Y-16241484D02*
X7641253Y-16231960D01*
X7641253Y-16231960D02*
X7631729Y-16222436D01*
X7841253Y-16241484D02*
X7879348Y-16241484D01*
X7879348Y-16241484D02*
X7898396Y-16231960D01*
X7898396Y-16231960D02*
X7907920Y-16222436D01*
X7907920Y-16222436D02*
X7926968Y-16193865D01*
X7926968Y-16193865D02*
X7936491Y-16155769D01*
X7936491Y-16155769D02*
X7936491Y-16079579D01*
X7936491Y-16079579D02*
X7926968Y-16060531D01*
X7926968Y-16060531D02*
X7917444Y-16051008D01*
X7917444Y-16051008D02*
X7898396Y-16041484D01*
X7898396Y-16041484D02*
X7860301Y-16041484D01*
X7860301Y-16041484D02*
X7841253Y-16051008D01*
X7841253Y-16051008D02*
X7831729Y-16060531D01*
X7831729Y-16060531D02*
X7822206Y-16079579D01*
X7822206Y-16079579D02*
X7822206Y-16127198D01*
X7822206Y-16127198D02*
X7831729Y-16146246D01*
X7831729Y-16146246D02*
X7841253Y-16155769D01*
X7841253Y-16155769D02*
X7860301Y-16165293D01*
X7860301Y-16165293D02*
X7898396Y-16165293D01*
X7898396Y-16165293D02*
X7917444Y-16155769D01*
X7917444Y-16155769D02*
X7926968Y-16146246D01*
X7926968Y-16146246D02*
X7936491Y-16127198D01*
X8174587Y-16241484D02*
X8174587Y-16041484D01*
X8260301Y-16241484D02*
X8260301Y-16136722D01*
X8260301Y-16136722D02*
X8250777Y-16117674D01*
X8250777Y-16117674D02*
X8231730Y-16108150D01*
X8231730Y-16108150D02*
X8203158Y-16108150D01*
X8203158Y-16108150D02*
X8184110Y-16117674D01*
X8184110Y-16117674D02*
X8174587Y-16127198D01*
X8384110Y-16241484D02*
X8365063Y-16231960D01*
X8365063Y-16231960D02*
X8355539Y-16222436D01*
X8355539Y-16222436D02*
X8346015Y-16203388D01*
X8346015Y-16203388D02*
X8346015Y-16146246D01*
X8346015Y-16146246D02*
X8355539Y-16127198D01*
X8355539Y-16127198D02*
X8365063Y-16117674D01*
X8365063Y-16117674D02*
X8384110Y-16108150D01*
X8384110Y-16108150D02*
X8412682Y-16108150D01*
X8412682Y-16108150D02*
X8431730Y-16117674D01*
X8431730Y-16117674D02*
X8441253Y-16127198D01*
X8441253Y-16127198D02*
X8450777Y-16146246D01*
X8450777Y-16146246D02*
X8450777Y-16203388D01*
X8450777Y-16203388D02*
X8441253Y-16222436D01*
X8441253Y-16222436D02*
X8431730Y-16231960D01*
X8431730Y-16231960D02*
X8412682Y-16241484D01*
X8412682Y-16241484D02*
X8384110Y-16241484D01*
X8565063Y-16241484D02*
X8546015Y-16231960D01*
X8546015Y-16231960D02*
X8536492Y-16212912D01*
X8536492Y-16212912D02*
X8536492Y-16041484D01*
X8717444Y-16231960D02*
X8698396Y-16241484D01*
X8698396Y-16241484D02*
X8660301Y-16241484D01*
X8660301Y-16241484D02*
X8641253Y-16231960D01*
X8641253Y-16231960D02*
X8631730Y-16212912D01*
X8631730Y-16212912D02*
X8631730Y-16136722D01*
X8631730Y-16136722D02*
X8641253Y-16117674D01*
X8641253Y-16117674D02*
X8660301Y-16108150D01*
X8660301Y-16108150D02*
X8698396Y-16108150D01*
X8698396Y-16108150D02*
X8717444Y-16117674D01*
X8717444Y-16117674D02*
X8726968Y-16136722D01*
X8726968Y-16136722D02*
X8726968Y-16155769D01*
X8726968Y-16155769D02*
X8631730Y-16174817D01*
X8803158Y-16231960D02*
X8822206Y-16241484D01*
X8822206Y-16241484D02*
X8860301Y-16241484D01*
X8860301Y-16241484D02*
X8879349Y-16231960D01*
X8879349Y-16231960D02*
X8888873Y-16212912D01*
X8888873Y-16212912D02*
X8888873Y-16203388D01*
X8888873Y-16203388D02*
X8879349Y-16184341D01*
X8879349Y-16184341D02*
X8860301Y-16174817D01*
X8860301Y-16174817D02*
X8831730Y-16174817D01*
X8831730Y-16174817D02*
X8812682Y-16165293D01*
X8812682Y-16165293D02*
X8803158Y-16146246D01*
X8803158Y-16146246D02*
X8803158Y-16136722D01*
X8803158Y-16136722D02*
X8812682Y-16117674D01*
X8812682Y-16117674D02*
X8831730Y-16108150D01*
X8831730Y-16108150D02*
X8860301Y-16108150D01*
X8860301Y-16108150D02*
X8879349Y-16117674D01*
X8955539Y-16317674D02*
X8965063Y-16308150D01*
X8965063Y-16308150D02*
X8984111Y-16279579D01*
X8984111Y-16279579D02*
X8993634Y-16260531D01*
X8993634Y-16260531D02*
X9003158Y-16231960D01*
X9003158Y-16231960D02*
X9012682Y-16184341D01*
X9012682Y-16184341D02*
X9012682Y-16146246D01*
X9012682Y-16146246D02*
X9003158Y-16098627D01*
X9003158Y-16098627D02*
X8993634Y-16070055D01*
X8993634Y-16070055D02*
X8984111Y-16051008D01*
X8984111Y-16051008D02*
X8965063Y-16022436D01*
X8965063Y-16022436D02*
X8955539Y-16012912D01*
D11*
X3990000Y-16414000D02*
G75*
G02*
X3930000Y-16414000I-30000J0D01*
G01*
X3930000Y-16414000D02*
G75*
G02*
X3990000Y-16414000I30000J0D01*
G01*
D10*
X4288872Y-16305484D02*
X4307920Y-16305484D01*
X4307920Y-16305484D02*
X4326967Y-16315008D01*
X4326967Y-16315008D02*
X4336491Y-16324531D01*
X4336491Y-16324531D02*
X4346015Y-16343579D01*
X4346015Y-16343579D02*
X4355539Y-16381674D01*
X4355539Y-16381674D02*
X4355539Y-16429293D01*
X4355539Y-16429293D02*
X4346015Y-16467388D01*
X4346015Y-16467388D02*
X4336491Y-16486436D01*
X4336491Y-16486436D02*
X4326967Y-16495960D01*
X4326967Y-16495960D02*
X4307920Y-16505484D01*
X4307920Y-16505484D02*
X4288872Y-16505484D01*
X4288872Y-16505484D02*
X4269824Y-16495960D01*
X4269824Y-16495960D02*
X4260301Y-16486436D01*
X4260301Y-16486436D02*
X4250777Y-16467388D01*
X4250777Y-16467388D02*
X4241253Y-16429293D01*
X4241253Y-16429293D02*
X4241253Y-16381674D01*
X4241253Y-16381674D02*
X4250777Y-16343579D01*
X4250777Y-16343579D02*
X4260301Y-16324531D01*
X4260301Y-16324531D02*
X4269824Y-16315008D01*
X4269824Y-16315008D02*
X4288872Y-16305484D01*
X4441253Y-16486436D02*
X4450777Y-16495960D01*
X4450777Y-16495960D02*
X4441253Y-16505484D01*
X4441253Y-16505484D02*
X4431729Y-16495960D01*
X4431729Y-16495960D02*
X4441253Y-16486436D01*
X4441253Y-16486436D02*
X4441253Y-16505484D01*
X4622205Y-16305484D02*
X4584110Y-16305484D01*
X4584110Y-16305484D02*
X4565063Y-16315008D01*
X4565063Y-16315008D02*
X4555539Y-16324531D01*
X4555539Y-16324531D02*
X4536491Y-16353103D01*
X4536491Y-16353103D02*
X4526967Y-16391198D01*
X4526967Y-16391198D02*
X4526967Y-16467388D01*
X4526967Y-16467388D02*
X4536491Y-16486436D01*
X4536491Y-16486436D02*
X4546015Y-16495960D01*
X4546015Y-16495960D02*
X4565063Y-16505484D01*
X4565063Y-16505484D02*
X4603158Y-16505484D01*
X4603158Y-16505484D02*
X4622205Y-16495960D01*
X4622205Y-16495960D02*
X4631729Y-16486436D01*
X4631729Y-16486436D02*
X4641253Y-16467388D01*
X4641253Y-16467388D02*
X4641253Y-16419769D01*
X4641253Y-16419769D02*
X4631729Y-16400722D01*
X4631729Y-16400722D02*
X4622205Y-16391198D01*
X4622205Y-16391198D02*
X4603158Y-16381674D01*
X4603158Y-16381674D02*
X4565063Y-16381674D01*
X4565063Y-16381674D02*
X4546015Y-16391198D01*
X4546015Y-16391198D02*
X4536491Y-16400722D01*
X4536491Y-16400722D02*
X4526967Y-16419769D01*
X4765063Y-16305484D02*
X4784110Y-16305484D01*
X4784110Y-16305484D02*
X4803158Y-16315008D01*
X4803158Y-16315008D02*
X4812682Y-16324531D01*
X4812682Y-16324531D02*
X4822205Y-16343579D01*
X4822205Y-16343579D02*
X4831729Y-16381674D01*
X4831729Y-16381674D02*
X4831729Y-16429293D01*
X4831729Y-16429293D02*
X4822205Y-16467388D01*
X4822205Y-16467388D02*
X4812682Y-16486436D01*
X4812682Y-16486436D02*
X4803158Y-16495960D01*
X4803158Y-16495960D02*
X4784110Y-16505484D01*
X4784110Y-16505484D02*
X4765063Y-16505484D01*
X4765063Y-16505484D02*
X4746015Y-16495960D01*
X4746015Y-16495960D02*
X4736491Y-16486436D01*
X4736491Y-16486436D02*
X4726967Y-16467388D01*
X4726967Y-16467388D02*
X4717444Y-16429293D01*
X4717444Y-16429293D02*
X4717444Y-16381674D01*
X4717444Y-16381674D02*
X4726967Y-16343579D01*
X4726967Y-16343579D02*
X4736491Y-16324531D01*
X4736491Y-16324531D02*
X4746015Y-16315008D01*
X4746015Y-16315008D02*
X4765063Y-16305484D01*
X4955539Y-16305484D02*
X4974586Y-16305484D01*
X4974586Y-16305484D02*
X4993634Y-16315008D01*
X4993634Y-16315008D02*
X5003158Y-16324531D01*
X5003158Y-16324531D02*
X5012682Y-16343579D01*
X5012682Y-16343579D02*
X5022205Y-16381674D01*
X5022205Y-16381674D02*
X5022205Y-16429293D01*
X5022205Y-16429293D02*
X5012682Y-16467388D01*
X5012682Y-16467388D02*
X5003158Y-16486436D01*
X5003158Y-16486436D02*
X4993634Y-16495960D01*
X4993634Y-16495960D02*
X4974586Y-16505484D01*
X4974586Y-16505484D02*
X4955539Y-16505484D01*
X4955539Y-16505484D02*
X4936491Y-16495960D01*
X4936491Y-16495960D02*
X4926967Y-16486436D01*
X4926967Y-16486436D02*
X4917444Y-16467388D01*
X4917444Y-16467388D02*
X4907920Y-16429293D01*
X4907920Y-16429293D02*
X4907920Y-16381674D01*
X4907920Y-16381674D02*
X4917444Y-16343579D01*
X4917444Y-16343579D02*
X4926967Y-16324531D01*
X4926967Y-16324531D02*
X4936491Y-16315008D01*
X4936491Y-16315008D02*
X4955539Y-16305484D01*
X5107920Y-16505484D02*
X5107920Y-16372150D01*
X5107920Y-16391198D02*
X5117444Y-16381674D01*
X5117444Y-16381674D02*
X5136491Y-16372150D01*
X5136491Y-16372150D02*
X5165063Y-16372150D01*
X5165063Y-16372150D02*
X5184110Y-16381674D01*
X5184110Y-16381674D02*
X5193634Y-16400722D01*
X5193634Y-16400722D02*
X5193634Y-16505484D01*
X5193634Y-16400722D02*
X5203158Y-16381674D01*
X5203158Y-16381674D02*
X5222205Y-16372150D01*
X5222205Y-16372150D02*
X5250777Y-16372150D01*
X5250777Y-16372150D02*
X5269825Y-16381674D01*
X5269825Y-16381674D02*
X5279348Y-16400722D01*
X5279348Y-16400722D02*
X5279348Y-16505484D01*
X5374586Y-16505484D02*
X5374586Y-16372150D01*
X5374586Y-16391198D02*
X5384110Y-16381674D01*
X5384110Y-16381674D02*
X5403158Y-16372150D01*
X5403158Y-16372150D02*
X5431729Y-16372150D01*
X5431729Y-16372150D02*
X5450777Y-16381674D01*
X5450777Y-16381674D02*
X5460301Y-16400722D01*
X5460301Y-16400722D02*
X5460301Y-16505484D01*
X5460301Y-16400722D02*
X5469825Y-16381674D01*
X5469825Y-16381674D02*
X5488872Y-16372150D01*
X5488872Y-16372150D02*
X5517444Y-16372150D01*
X5517444Y-16372150D02*
X5536491Y-16381674D01*
X5536491Y-16381674D02*
X5546015Y-16400722D01*
X5546015Y-16400722D02*
X5546015Y-16505484D01*
X5936491Y-16295960D02*
X5765063Y-16553103D01*
X6193634Y-16305484D02*
X6212682Y-16305484D01*
X6212682Y-16305484D02*
X6231729Y-16315008D01*
X6231729Y-16315008D02*
X6241253Y-16324531D01*
X6241253Y-16324531D02*
X6250777Y-16343579D01*
X6250777Y-16343579D02*
X6260301Y-16381674D01*
X6260301Y-16381674D02*
X6260301Y-16429293D01*
X6260301Y-16429293D02*
X6250777Y-16467388D01*
X6250777Y-16467388D02*
X6241253Y-16486436D01*
X6241253Y-16486436D02*
X6231729Y-16495960D01*
X6231729Y-16495960D02*
X6212682Y-16505484D01*
X6212682Y-16505484D02*
X6193634Y-16505484D01*
X6193634Y-16505484D02*
X6174586Y-16495960D01*
X6174586Y-16495960D02*
X6165063Y-16486436D01*
X6165063Y-16486436D02*
X6155539Y-16467388D01*
X6155539Y-16467388D02*
X6146015Y-16429293D01*
X6146015Y-16429293D02*
X6146015Y-16381674D01*
X6146015Y-16381674D02*
X6155539Y-16343579D01*
X6155539Y-16343579D02*
X6165063Y-16324531D01*
X6165063Y-16324531D02*
X6174586Y-16315008D01*
X6174586Y-16315008D02*
X6193634Y-16305484D01*
X6346015Y-16486436D02*
X6355539Y-16495960D01*
X6355539Y-16495960D02*
X6346015Y-16505484D01*
X6346015Y-16505484D02*
X6336491Y-16495960D01*
X6336491Y-16495960D02*
X6346015Y-16486436D01*
X6346015Y-16486436D02*
X6346015Y-16505484D01*
X6479348Y-16305484D02*
X6498396Y-16305484D01*
X6498396Y-16305484D02*
X6517444Y-16315008D01*
X6517444Y-16315008D02*
X6526967Y-16324531D01*
X6526967Y-16324531D02*
X6536491Y-16343579D01*
X6536491Y-16343579D02*
X6546015Y-16381674D01*
X6546015Y-16381674D02*
X6546015Y-16429293D01*
X6546015Y-16429293D02*
X6536491Y-16467388D01*
X6536491Y-16467388D02*
X6526967Y-16486436D01*
X6526967Y-16486436D02*
X6517444Y-16495960D01*
X6517444Y-16495960D02*
X6498396Y-16505484D01*
X6498396Y-16505484D02*
X6479348Y-16505484D01*
X6479348Y-16505484D02*
X6460301Y-16495960D01*
X6460301Y-16495960D02*
X6450777Y-16486436D01*
X6450777Y-16486436D02*
X6441253Y-16467388D01*
X6441253Y-16467388D02*
X6431729Y-16429293D01*
X6431729Y-16429293D02*
X6431729Y-16381674D01*
X6431729Y-16381674D02*
X6441253Y-16343579D01*
X6441253Y-16343579D02*
X6450777Y-16324531D01*
X6450777Y-16324531D02*
X6460301Y-16315008D01*
X6460301Y-16315008D02*
X6479348Y-16305484D01*
X6622206Y-16324531D02*
X6631729Y-16315008D01*
X6631729Y-16315008D02*
X6650777Y-16305484D01*
X6650777Y-16305484D02*
X6698396Y-16305484D01*
X6698396Y-16305484D02*
X6717444Y-16315008D01*
X6717444Y-16315008D02*
X6726967Y-16324531D01*
X6726967Y-16324531D02*
X6736491Y-16343579D01*
X6736491Y-16343579D02*
X6736491Y-16362627D01*
X6736491Y-16362627D02*
X6726967Y-16391198D01*
X6726967Y-16391198D02*
X6612682Y-16505484D01*
X6612682Y-16505484D02*
X6736491Y-16505484D01*
X6803158Y-16305484D02*
X6926967Y-16305484D01*
X6926967Y-16305484D02*
X6860301Y-16381674D01*
X6860301Y-16381674D02*
X6888872Y-16381674D01*
X6888872Y-16381674D02*
X6907920Y-16391198D01*
X6907920Y-16391198D02*
X6917444Y-16400722D01*
X6917444Y-16400722D02*
X6926967Y-16419769D01*
X6926967Y-16419769D02*
X6926967Y-16467388D01*
X6926967Y-16467388D02*
X6917444Y-16486436D01*
X6917444Y-16486436D02*
X6907920Y-16495960D01*
X6907920Y-16495960D02*
X6888872Y-16505484D01*
X6888872Y-16505484D02*
X6831729Y-16505484D01*
X6831729Y-16505484D02*
X6812682Y-16495960D01*
X6812682Y-16495960D02*
X6803158Y-16486436D01*
X7098396Y-16305484D02*
X7060301Y-16305484D01*
X7060301Y-16305484D02*
X7041253Y-16315008D01*
X7041253Y-16315008D02*
X7031729Y-16324531D01*
X7031729Y-16324531D02*
X7012682Y-16353103D01*
X7012682Y-16353103D02*
X7003158Y-16391198D01*
X7003158Y-16391198D02*
X7003158Y-16467388D01*
X7003158Y-16467388D02*
X7012682Y-16486436D01*
X7012682Y-16486436D02*
X7022206Y-16495960D01*
X7022206Y-16495960D02*
X7041253Y-16505484D01*
X7041253Y-16505484D02*
X7079348Y-16505484D01*
X7079348Y-16505484D02*
X7098396Y-16495960D01*
X7098396Y-16495960D02*
X7107920Y-16486436D01*
X7107920Y-16486436D02*
X7117444Y-16467388D01*
X7117444Y-16467388D02*
X7117444Y-16419769D01*
X7117444Y-16419769D02*
X7107920Y-16400722D01*
X7107920Y-16400722D02*
X7098396Y-16391198D01*
X7098396Y-16391198D02*
X7079348Y-16381674D01*
X7079348Y-16381674D02*
X7041253Y-16381674D01*
X7041253Y-16381674D02*
X7022206Y-16391198D01*
X7022206Y-16391198D02*
X7012682Y-16400722D01*
X7012682Y-16400722D02*
X7003158Y-16419769D01*
X7193634Y-16305484D02*
X7193634Y-16343579D01*
X7269825Y-16305484D02*
X7269825Y-16343579D01*
X7565063Y-16581674D02*
X7555539Y-16572150D01*
X7555539Y-16572150D02*
X7536491Y-16543579D01*
X7536491Y-16543579D02*
X7526968Y-16524531D01*
X7526968Y-16524531D02*
X7517444Y-16495960D01*
X7517444Y-16495960D02*
X7507920Y-16448341D01*
X7507920Y-16448341D02*
X7507920Y-16410246D01*
X7507920Y-16410246D02*
X7517444Y-16362627D01*
X7517444Y-16362627D02*
X7526968Y-16334055D01*
X7526968Y-16334055D02*
X7536491Y-16315008D01*
X7536491Y-16315008D02*
X7555539Y-16286436D01*
X7555539Y-16286436D02*
X7565063Y-16276912D01*
X7746015Y-16505484D02*
X7631729Y-16505484D01*
X7688872Y-16505484D02*
X7688872Y-16305484D01*
X7688872Y-16305484D02*
X7669825Y-16334055D01*
X7669825Y-16334055D02*
X7650777Y-16353103D01*
X7650777Y-16353103D02*
X7631729Y-16362627D01*
X7812682Y-16305484D02*
X7946015Y-16305484D01*
X7946015Y-16305484D02*
X7860301Y-16505484D01*
X8174587Y-16505484D02*
X8174587Y-16305484D01*
X8260301Y-16505484D02*
X8260301Y-16400722D01*
X8260301Y-16400722D02*
X8250777Y-16381674D01*
X8250777Y-16381674D02*
X8231730Y-16372150D01*
X8231730Y-16372150D02*
X8203158Y-16372150D01*
X8203158Y-16372150D02*
X8184110Y-16381674D01*
X8184110Y-16381674D02*
X8174587Y-16391198D01*
X8384110Y-16505484D02*
X8365063Y-16495960D01*
X8365063Y-16495960D02*
X8355539Y-16486436D01*
X8355539Y-16486436D02*
X8346015Y-16467388D01*
X8346015Y-16467388D02*
X8346015Y-16410246D01*
X8346015Y-16410246D02*
X8355539Y-16391198D01*
X8355539Y-16391198D02*
X8365063Y-16381674D01*
X8365063Y-16381674D02*
X8384110Y-16372150D01*
X8384110Y-16372150D02*
X8412682Y-16372150D01*
X8412682Y-16372150D02*
X8431730Y-16381674D01*
X8431730Y-16381674D02*
X8441253Y-16391198D01*
X8441253Y-16391198D02*
X8450777Y-16410246D01*
X8450777Y-16410246D02*
X8450777Y-16467388D01*
X8450777Y-16467388D02*
X8441253Y-16486436D01*
X8441253Y-16486436D02*
X8431730Y-16495960D01*
X8431730Y-16495960D02*
X8412682Y-16505484D01*
X8412682Y-16505484D02*
X8384110Y-16505484D01*
X8565063Y-16505484D02*
X8546015Y-16495960D01*
X8546015Y-16495960D02*
X8536492Y-16476912D01*
X8536492Y-16476912D02*
X8536492Y-16305484D01*
X8717444Y-16495960D02*
X8698396Y-16505484D01*
X8698396Y-16505484D02*
X8660301Y-16505484D01*
X8660301Y-16505484D02*
X8641253Y-16495960D01*
X8641253Y-16495960D02*
X8631730Y-16476912D01*
X8631730Y-16476912D02*
X8631730Y-16400722D01*
X8631730Y-16400722D02*
X8641253Y-16381674D01*
X8641253Y-16381674D02*
X8660301Y-16372150D01*
X8660301Y-16372150D02*
X8698396Y-16372150D01*
X8698396Y-16372150D02*
X8717444Y-16381674D01*
X8717444Y-16381674D02*
X8726968Y-16400722D01*
X8726968Y-16400722D02*
X8726968Y-16419769D01*
X8726968Y-16419769D02*
X8631730Y-16438817D01*
X8803158Y-16495960D02*
X8822206Y-16505484D01*
X8822206Y-16505484D02*
X8860301Y-16505484D01*
X8860301Y-16505484D02*
X8879349Y-16495960D01*
X8879349Y-16495960D02*
X8888873Y-16476912D01*
X8888873Y-16476912D02*
X8888873Y-16467388D01*
X8888873Y-16467388D02*
X8879349Y-16448341D01*
X8879349Y-16448341D02*
X8860301Y-16438817D01*
X8860301Y-16438817D02*
X8831730Y-16438817D01*
X8831730Y-16438817D02*
X8812682Y-16429293D01*
X8812682Y-16429293D02*
X8803158Y-16410246D01*
X8803158Y-16410246D02*
X8803158Y-16400722D01*
X8803158Y-16400722D02*
X8812682Y-16381674D01*
X8812682Y-16381674D02*
X8831730Y-16372150D01*
X8831730Y-16372150D02*
X8860301Y-16372150D01*
X8860301Y-16372150D02*
X8879349Y-16381674D01*
X8955539Y-16581674D02*
X8965063Y-16572150D01*
X8965063Y-16572150D02*
X8984111Y-16543579D01*
X8984111Y-16543579D02*
X8993634Y-16524531D01*
X8993634Y-16524531D02*
X9003158Y-16495960D01*
X9003158Y-16495960D02*
X9012682Y-16448341D01*
X9012682Y-16448341D02*
X9012682Y-16410246D01*
X9012682Y-16410246D02*
X9003158Y-16362627D01*
X9003158Y-16362627D02*
X8993634Y-16334055D01*
X8993634Y-16334055D02*
X8984111Y-16315008D01*
X8984111Y-16315008D02*
X8965063Y-16286436D01*
X8965063Y-16286436D02*
X8955539Y-16276912D01*
D11*
X3950000Y-16638000D02*
X3950000Y-16718000D01*
X3910000Y-16678000D02*
X3990000Y-16678000D01*
D10*
X4288872Y-16569484D02*
X4307920Y-16569484D01*
X4307920Y-16569484D02*
X4326967Y-16579008D01*
X4326967Y-16579008D02*
X4336491Y-16588531D01*
X4336491Y-16588531D02*
X4346015Y-16607579D01*
X4346015Y-16607579D02*
X4355539Y-16645674D01*
X4355539Y-16645674D02*
X4355539Y-16693293D01*
X4355539Y-16693293D02*
X4346015Y-16731388D01*
X4346015Y-16731388D02*
X4336491Y-16750436D01*
X4336491Y-16750436D02*
X4326967Y-16759960D01*
X4326967Y-16759960D02*
X4307920Y-16769484D01*
X4307920Y-16769484D02*
X4288872Y-16769484D01*
X4288872Y-16769484D02*
X4269824Y-16759960D01*
X4269824Y-16759960D02*
X4260301Y-16750436D01*
X4260301Y-16750436D02*
X4250777Y-16731388D01*
X4250777Y-16731388D02*
X4241253Y-16693293D01*
X4241253Y-16693293D02*
X4241253Y-16645674D01*
X4241253Y-16645674D02*
X4250777Y-16607579D01*
X4250777Y-16607579D02*
X4260301Y-16588531D01*
X4260301Y-16588531D02*
X4269824Y-16579008D01*
X4269824Y-16579008D02*
X4288872Y-16569484D01*
X4441253Y-16750436D02*
X4450777Y-16759960D01*
X4450777Y-16759960D02*
X4441253Y-16769484D01*
X4441253Y-16769484D02*
X4431729Y-16759960D01*
X4431729Y-16759960D02*
X4441253Y-16750436D01*
X4441253Y-16750436D02*
X4441253Y-16769484D01*
X4565063Y-16655198D02*
X4546015Y-16645674D01*
X4546015Y-16645674D02*
X4536491Y-16636150D01*
X4536491Y-16636150D02*
X4526967Y-16617103D01*
X4526967Y-16617103D02*
X4526967Y-16607579D01*
X4526967Y-16607579D02*
X4536491Y-16588531D01*
X4536491Y-16588531D02*
X4546015Y-16579008D01*
X4546015Y-16579008D02*
X4565063Y-16569484D01*
X4565063Y-16569484D02*
X4603158Y-16569484D01*
X4603158Y-16569484D02*
X4622205Y-16579008D01*
X4622205Y-16579008D02*
X4631729Y-16588531D01*
X4631729Y-16588531D02*
X4641253Y-16607579D01*
X4641253Y-16607579D02*
X4641253Y-16617103D01*
X4641253Y-16617103D02*
X4631729Y-16636150D01*
X4631729Y-16636150D02*
X4622205Y-16645674D01*
X4622205Y-16645674D02*
X4603158Y-16655198D01*
X4603158Y-16655198D02*
X4565063Y-16655198D01*
X4565063Y-16655198D02*
X4546015Y-16664722D01*
X4546015Y-16664722D02*
X4536491Y-16674246D01*
X4536491Y-16674246D02*
X4526967Y-16693293D01*
X4526967Y-16693293D02*
X4526967Y-16731388D01*
X4526967Y-16731388D02*
X4536491Y-16750436D01*
X4536491Y-16750436D02*
X4546015Y-16759960D01*
X4546015Y-16759960D02*
X4565063Y-16769484D01*
X4565063Y-16769484D02*
X4603158Y-16769484D01*
X4603158Y-16769484D02*
X4622205Y-16759960D01*
X4622205Y-16759960D02*
X4631729Y-16750436D01*
X4631729Y-16750436D02*
X4641253Y-16731388D01*
X4641253Y-16731388D02*
X4641253Y-16693293D01*
X4641253Y-16693293D02*
X4631729Y-16674246D01*
X4631729Y-16674246D02*
X4622205Y-16664722D01*
X4622205Y-16664722D02*
X4603158Y-16655198D01*
X4765063Y-16569484D02*
X4784110Y-16569484D01*
X4784110Y-16569484D02*
X4803158Y-16579008D01*
X4803158Y-16579008D02*
X4812682Y-16588531D01*
X4812682Y-16588531D02*
X4822205Y-16607579D01*
X4822205Y-16607579D02*
X4831729Y-16645674D01*
X4831729Y-16645674D02*
X4831729Y-16693293D01*
X4831729Y-16693293D02*
X4822205Y-16731388D01*
X4822205Y-16731388D02*
X4812682Y-16750436D01*
X4812682Y-16750436D02*
X4803158Y-16759960D01*
X4803158Y-16759960D02*
X4784110Y-16769484D01*
X4784110Y-16769484D02*
X4765063Y-16769484D01*
X4765063Y-16769484D02*
X4746015Y-16759960D01*
X4746015Y-16759960D02*
X4736491Y-16750436D01*
X4736491Y-16750436D02*
X4726967Y-16731388D01*
X4726967Y-16731388D02*
X4717444Y-16693293D01*
X4717444Y-16693293D02*
X4717444Y-16645674D01*
X4717444Y-16645674D02*
X4726967Y-16607579D01*
X4726967Y-16607579D02*
X4736491Y-16588531D01*
X4736491Y-16588531D02*
X4746015Y-16579008D01*
X4746015Y-16579008D02*
X4765063Y-16569484D01*
X4955539Y-16569484D02*
X4974586Y-16569484D01*
X4974586Y-16569484D02*
X4993634Y-16579008D01*
X4993634Y-16579008D02*
X5003158Y-16588531D01*
X5003158Y-16588531D02*
X5012682Y-16607579D01*
X5012682Y-16607579D02*
X5022205Y-16645674D01*
X5022205Y-16645674D02*
X5022205Y-16693293D01*
X5022205Y-16693293D02*
X5012682Y-16731388D01*
X5012682Y-16731388D02*
X5003158Y-16750436D01*
X5003158Y-16750436D02*
X4993634Y-16759960D01*
X4993634Y-16759960D02*
X4974586Y-16769484D01*
X4974586Y-16769484D02*
X4955539Y-16769484D01*
X4955539Y-16769484D02*
X4936491Y-16759960D01*
X4936491Y-16759960D02*
X4926967Y-16750436D01*
X4926967Y-16750436D02*
X4917444Y-16731388D01*
X4917444Y-16731388D02*
X4907920Y-16693293D01*
X4907920Y-16693293D02*
X4907920Y-16645674D01*
X4907920Y-16645674D02*
X4917444Y-16607579D01*
X4917444Y-16607579D02*
X4926967Y-16588531D01*
X4926967Y-16588531D02*
X4936491Y-16579008D01*
X4936491Y-16579008D02*
X4955539Y-16569484D01*
X5107920Y-16769484D02*
X5107920Y-16636150D01*
X5107920Y-16655198D02*
X5117444Y-16645674D01*
X5117444Y-16645674D02*
X5136491Y-16636150D01*
X5136491Y-16636150D02*
X5165063Y-16636150D01*
X5165063Y-16636150D02*
X5184110Y-16645674D01*
X5184110Y-16645674D02*
X5193634Y-16664722D01*
X5193634Y-16664722D02*
X5193634Y-16769484D01*
X5193634Y-16664722D02*
X5203158Y-16645674D01*
X5203158Y-16645674D02*
X5222205Y-16636150D01*
X5222205Y-16636150D02*
X5250777Y-16636150D01*
X5250777Y-16636150D02*
X5269825Y-16645674D01*
X5269825Y-16645674D02*
X5279348Y-16664722D01*
X5279348Y-16664722D02*
X5279348Y-16769484D01*
X5374586Y-16769484D02*
X5374586Y-16636150D01*
X5374586Y-16655198D02*
X5384110Y-16645674D01*
X5384110Y-16645674D02*
X5403158Y-16636150D01*
X5403158Y-16636150D02*
X5431729Y-16636150D01*
X5431729Y-16636150D02*
X5450777Y-16645674D01*
X5450777Y-16645674D02*
X5460301Y-16664722D01*
X5460301Y-16664722D02*
X5460301Y-16769484D01*
X5460301Y-16664722D02*
X5469825Y-16645674D01*
X5469825Y-16645674D02*
X5488872Y-16636150D01*
X5488872Y-16636150D02*
X5517444Y-16636150D01*
X5517444Y-16636150D02*
X5536491Y-16645674D01*
X5536491Y-16645674D02*
X5546015Y-16664722D01*
X5546015Y-16664722D02*
X5546015Y-16769484D01*
X5936491Y-16559960D02*
X5765063Y-16817103D01*
X6193634Y-16569484D02*
X6212682Y-16569484D01*
X6212682Y-16569484D02*
X6231729Y-16579008D01*
X6231729Y-16579008D02*
X6241253Y-16588531D01*
X6241253Y-16588531D02*
X6250777Y-16607579D01*
X6250777Y-16607579D02*
X6260301Y-16645674D01*
X6260301Y-16645674D02*
X6260301Y-16693293D01*
X6260301Y-16693293D02*
X6250777Y-16731388D01*
X6250777Y-16731388D02*
X6241253Y-16750436D01*
X6241253Y-16750436D02*
X6231729Y-16759960D01*
X6231729Y-16759960D02*
X6212682Y-16769484D01*
X6212682Y-16769484D02*
X6193634Y-16769484D01*
X6193634Y-16769484D02*
X6174586Y-16759960D01*
X6174586Y-16759960D02*
X6165063Y-16750436D01*
X6165063Y-16750436D02*
X6155539Y-16731388D01*
X6155539Y-16731388D02*
X6146015Y-16693293D01*
X6146015Y-16693293D02*
X6146015Y-16645674D01*
X6146015Y-16645674D02*
X6155539Y-16607579D01*
X6155539Y-16607579D02*
X6165063Y-16588531D01*
X6165063Y-16588531D02*
X6174586Y-16579008D01*
X6174586Y-16579008D02*
X6193634Y-16569484D01*
X6346015Y-16750436D02*
X6355539Y-16759960D01*
X6355539Y-16759960D02*
X6346015Y-16769484D01*
X6346015Y-16769484D02*
X6336491Y-16759960D01*
X6336491Y-16759960D02*
X6346015Y-16750436D01*
X6346015Y-16750436D02*
X6346015Y-16769484D01*
X6479348Y-16569484D02*
X6498396Y-16569484D01*
X6498396Y-16569484D02*
X6517444Y-16579008D01*
X6517444Y-16579008D02*
X6526967Y-16588531D01*
X6526967Y-16588531D02*
X6536491Y-16607579D01*
X6536491Y-16607579D02*
X6546015Y-16645674D01*
X6546015Y-16645674D02*
X6546015Y-16693293D01*
X6546015Y-16693293D02*
X6536491Y-16731388D01*
X6536491Y-16731388D02*
X6526967Y-16750436D01*
X6526967Y-16750436D02*
X6517444Y-16759960D01*
X6517444Y-16759960D02*
X6498396Y-16769484D01*
X6498396Y-16769484D02*
X6479348Y-16769484D01*
X6479348Y-16769484D02*
X6460301Y-16759960D01*
X6460301Y-16759960D02*
X6450777Y-16750436D01*
X6450777Y-16750436D02*
X6441253Y-16731388D01*
X6441253Y-16731388D02*
X6431729Y-16693293D01*
X6431729Y-16693293D02*
X6431729Y-16645674D01*
X6431729Y-16645674D02*
X6441253Y-16607579D01*
X6441253Y-16607579D02*
X6450777Y-16588531D01*
X6450777Y-16588531D02*
X6460301Y-16579008D01*
X6460301Y-16579008D02*
X6479348Y-16569484D01*
X6612682Y-16569484D02*
X6736491Y-16569484D01*
X6736491Y-16569484D02*
X6669825Y-16645674D01*
X6669825Y-16645674D02*
X6698396Y-16645674D01*
X6698396Y-16645674D02*
X6717444Y-16655198D01*
X6717444Y-16655198D02*
X6726967Y-16664722D01*
X6726967Y-16664722D02*
X6736491Y-16683769D01*
X6736491Y-16683769D02*
X6736491Y-16731388D01*
X6736491Y-16731388D02*
X6726967Y-16750436D01*
X6726967Y-16750436D02*
X6717444Y-16759960D01*
X6717444Y-16759960D02*
X6698396Y-16769484D01*
X6698396Y-16769484D02*
X6641253Y-16769484D01*
X6641253Y-16769484D02*
X6622206Y-16759960D01*
X6622206Y-16759960D02*
X6612682Y-16750436D01*
X6926967Y-16769484D02*
X6812682Y-16769484D01*
X6869825Y-16769484D02*
X6869825Y-16569484D01*
X6869825Y-16569484D02*
X6850777Y-16598055D01*
X6850777Y-16598055D02*
X6831729Y-16617103D01*
X6831729Y-16617103D02*
X6812682Y-16626627D01*
X7107920Y-16569484D02*
X7012682Y-16569484D01*
X7012682Y-16569484D02*
X7003158Y-16664722D01*
X7003158Y-16664722D02*
X7012682Y-16655198D01*
X7012682Y-16655198D02*
X7031729Y-16645674D01*
X7031729Y-16645674D02*
X7079348Y-16645674D01*
X7079348Y-16645674D02*
X7098396Y-16655198D01*
X7098396Y-16655198D02*
X7107920Y-16664722D01*
X7107920Y-16664722D02*
X7117444Y-16683769D01*
X7117444Y-16683769D02*
X7117444Y-16731388D01*
X7117444Y-16731388D02*
X7107920Y-16750436D01*
X7107920Y-16750436D02*
X7098396Y-16759960D01*
X7098396Y-16759960D02*
X7079348Y-16769484D01*
X7079348Y-16769484D02*
X7031729Y-16769484D01*
X7031729Y-16769484D02*
X7012682Y-16759960D01*
X7012682Y-16759960D02*
X7003158Y-16750436D01*
X7193634Y-16569484D02*
X7193634Y-16607579D01*
X7269825Y-16569484D02*
X7269825Y-16607579D01*
X7565063Y-16845674D02*
X7555539Y-16836150D01*
X7555539Y-16836150D02*
X7536491Y-16807579D01*
X7536491Y-16807579D02*
X7526968Y-16788531D01*
X7526968Y-16788531D02*
X7517444Y-16759960D01*
X7517444Y-16759960D02*
X7507920Y-16712341D01*
X7507920Y-16712341D02*
X7507920Y-16674246D01*
X7507920Y-16674246D02*
X7517444Y-16626627D01*
X7517444Y-16626627D02*
X7526968Y-16598055D01*
X7526968Y-16598055D02*
X7536491Y-16579008D01*
X7536491Y-16579008D02*
X7555539Y-16550436D01*
X7555539Y-16550436D02*
X7565063Y-16540912D01*
X7746015Y-16769484D02*
X7631729Y-16769484D01*
X7688872Y-16769484D02*
X7688872Y-16569484D01*
X7688872Y-16569484D02*
X7669825Y-16598055D01*
X7669825Y-16598055D02*
X7650777Y-16617103D01*
X7650777Y-16617103D02*
X7631729Y-16626627D01*
X7917444Y-16569484D02*
X7879348Y-16569484D01*
X7879348Y-16569484D02*
X7860301Y-16579008D01*
X7860301Y-16579008D02*
X7850777Y-16588531D01*
X7850777Y-16588531D02*
X7831729Y-16617103D01*
X7831729Y-16617103D02*
X7822206Y-16655198D01*
X7822206Y-16655198D02*
X7822206Y-16731388D01*
X7822206Y-16731388D02*
X7831729Y-16750436D01*
X7831729Y-16750436D02*
X7841253Y-16759960D01*
X7841253Y-16759960D02*
X7860301Y-16769484D01*
X7860301Y-16769484D02*
X7898396Y-16769484D01*
X7898396Y-16769484D02*
X7917444Y-16759960D01*
X7917444Y-16759960D02*
X7926968Y-16750436D01*
X7926968Y-16750436D02*
X7936491Y-16731388D01*
X7936491Y-16731388D02*
X7936491Y-16683769D01*
X7936491Y-16683769D02*
X7926968Y-16664722D01*
X7926968Y-16664722D02*
X7917444Y-16655198D01*
X7917444Y-16655198D02*
X7898396Y-16645674D01*
X7898396Y-16645674D02*
X7860301Y-16645674D01*
X7860301Y-16645674D02*
X7841253Y-16655198D01*
X7841253Y-16655198D02*
X7831729Y-16664722D01*
X7831729Y-16664722D02*
X7822206Y-16683769D01*
X8174587Y-16769484D02*
X8174587Y-16569484D01*
X8260301Y-16769484D02*
X8260301Y-16664722D01*
X8260301Y-16664722D02*
X8250777Y-16645674D01*
X8250777Y-16645674D02*
X8231730Y-16636150D01*
X8231730Y-16636150D02*
X8203158Y-16636150D01*
X8203158Y-16636150D02*
X8184110Y-16645674D01*
X8184110Y-16645674D02*
X8174587Y-16655198D01*
X8384110Y-16769484D02*
X8365063Y-16759960D01*
X8365063Y-16759960D02*
X8355539Y-16750436D01*
X8355539Y-16750436D02*
X8346015Y-16731388D01*
X8346015Y-16731388D02*
X8346015Y-16674246D01*
X8346015Y-16674246D02*
X8355539Y-16655198D01*
X8355539Y-16655198D02*
X8365063Y-16645674D01*
X8365063Y-16645674D02*
X8384110Y-16636150D01*
X8384110Y-16636150D02*
X8412682Y-16636150D01*
X8412682Y-16636150D02*
X8431730Y-16645674D01*
X8431730Y-16645674D02*
X8441253Y-16655198D01*
X8441253Y-16655198D02*
X8450777Y-16674246D01*
X8450777Y-16674246D02*
X8450777Y-16731388D01*
X8450777Y-16731388D02*
X8441253Y-16750436D01*
X8441253Y-16750436D02*
X8431730Y-16759960D01*
X8431730Y-16759960D02*
X8412682Y-16769484D01*
X8412682Y-16769484D02*
X8384110Y-16769484D01*
X8565063Y-16769484D02*
X8546015Y-16759960D01*
X8546015Y-16759960D02*
X8536492Y-16740912D01*
X8536492Y-16740912D02*
X8536492Y-16569484D01*
X8717444Y-16759960D02*
X8698396Y-16769484D01*
X8698396Y-16769484D02*
X8660301Y-16769484D01*
X8660301Y-16769484D02*
X8641253Y-16759960D01*
X8641253Y-16759960D02*
X8631730Y-16740912D01*
X8631730Y-16740912D02*
X8631730Y-16664722D01*
X8631730Y-16664722D02*
X8641253Y-16645674D01*
X8641253Y-16645674D02*
X8660301Y-16636150D01*
X8660301Y-16636150D02*
X8698396Y-16636150D01*
X8698396Y-16636150D02*
X8717444Y-16645674D01*
X8717444Y-16645674D02*
X8726968Y-16664722D01*
X8726968Y-16664722D02*
X8726968Y-16683769D01*
X8726968Y-16683769D02*
X8631730Y-16702817D01*
X8803158Y-16759960D02*
X8822206Y-16769484D01*
X8822206Y-16769484D02*
X8860301Y-16769484D01*
X8860301Y-16769484D02*
X8879349Y-16759960D01*
X8879349Y-16759960D02*
X8888873Y-16740912D01*
X8888873Y-16740912D02*
X8888873Y-16731388D01*
X8888873Y-16731388D02*
X8879349Y-16712341D01*
X8879349Y-16712341D02*
X8860301Y-16702817D01*
X8860301Y-16702817D02*
X8831730Y-16702817D01*
X8831730Y-16702817D02*
X8812682Y-16693293D01*
X8812682Y-16693293D02*
X8803158Y-16674246D01*
X8803158Y-16674246D02*
X8803158Y-16664722D01*
X8803158Y-16664722D02*
X8812682Y-16645674D01*
X8812682Y-16645674D02*
X8831730Y-16636150D01*
X8831730Y-16636150D02*
X8860301Y-16636150D01*
X8860301Y-16636150D02*
X8879349Y-16645674D01*
X8955539Y-16845674D02*
X8965063Y-16836150D01*
X8965063Y-16836150D02*
X8984111Y-16807579D01*
X8984111Y-16807579D02*
X8993634Y-16788531D01*
X8993634Y-16788531D02*
X9003158Y-16759960D01*
X9003158Y-16759960D02*
X9012682Y-16712341D01*
X9012682Y-16712341D02*
X9012682Y-16674246D01*
X9012682Y-16674246D02*
X9003158Y-16626627D01*
X9003158Y-16626627D02*
X8993634Y-16598055D01*
X8993634Y-16598055D02*
X8984111Y-16579008D01*
X8984111Y-16579008D02*
X8965063Y-16550436D01*
X8965063Y-16550436D02*
X8955539Y-16540912D01*
D11*
X3975356Y-16977356D02*
X3975356Y-16906644D01*
X3904644Y-16906644D01*
X3904644Y-16977356D01*
X3975356Y-16977356D01*
D10*
X4355539Y-17033484D02*
X4241253Y-17033484D01*
X4298396Y-17033484D02*
X4298396Y-16833484D01*
X4298396Y-16833484D02*
X4279348Y-16862055D01*
X4279348Y-16862055D02*
X4260301Y-16881103D01*
X4260301Y-16881103D02*
X4241253Y-16890627D01*
X4441253Y-17014436D02*
X4450777Y-17023960D01*
X4450777Y-17023960D02*
X4441253Y-17033484D01*
X4441253Y-17033484D02*
X4431729Y-17023960D01*
X4431729Y-17023960D02*
X4441253Y-17014436D01*
X4441253Y-17014436D02*
X4441253Y-17033484D01*
X4574586Y-16833484D02*
X4593634Y-16833484D01*
X4593634Y-16833484D02*
X4612682Y-16843008D01*
X4612682Y-16843008D02*
X4622205Y-16852531D01*
X4622205Y-16852531D02*
X4631729Y-16871579D01*
X4631729Y-16871579D02*
X4641253Y-16909674D01*
X4641253Y-16909674D02*
X4641253Y-16957293D01*
X4641253Y-16957293D02*
X4631729Y-16995389D01*
X4631729Y-16995389D02*
X4622205Y-17014436D01*
X4622205Y-17014436D02*
X4612682Y-17023960D01*
X4612682Y-17023960D02*
X4593634Y-17033484D01*
X4593634Y-17033484D02*
X4574586Y-17033484D01*
X4574586Y-17033484D02*
X4555539Y-17023960D01*
X4555539Y-17023960D02*
X4546015Y-17014436D01*
X4546015Y-17014436D02*
X4536491Y-16995389D01*
X4536491Y-16995389D02*
X4526967Y-16957293D01*
X4526967Y-16957293D02*
X4526967Y-16909674D01*
X4526967Y-16909674D02*
X4536491Y-16871579D01*
X4536491Y-16871579D02*
X4546015Y-16852531D01*
X4546015Y-16852531D02*
X4555539Y-16843008D01*
X4555539Y-16843008D02*
X4574586Y-16833484D01*
X4765063Y-16833484D02*
X4784110Y-16833484D01*
X4784110Y-16833484D02*
X4803158Y-16843008D01*
X4803158Y-16843008D02*
X4812682Y-16852531D01*
X4812682Y-16852531D02*
X4822205Y-16871579D01*
X4822205Y-16871579D02*
X4831729Y-16909674D01*
X4831729Y-16909674D02*
X4831729Y-16957293D01*
X4831729Y-16957293D02*
X4822205Y-16995389D01*
X4822205Y-16995389D02*
X4812682Y-17014436D01*
X4812682Y-17014436D02*
X4803158Y-17023960D01*
X4803158Y-17023960D02*
X4784110Y-17033484D01*
X4784110Y-17033484D02*
X4765063Y-17033484D01*
X4765063Y-17033484D02*
X4746015Y-17023960D01*
X4746015Y-17023960D02*
X4736491Y-17014436D01*
X4736491Y-17014436D02*
X4726967Y-16995389D01*
X4726967Y-16995389D02*
X4717444Y-16957293D01*
X4717444Y-16957293D02*
X4717444Y-16909674D01*
X4717444Y-16909674D02*
X4726967Y-16871579D01*
X4726967Y-16871579D02*
X4736491Y-16852531D01*
X4736491Y-16852531D02*
X4746015Y-16843008D01*
X4746015Y-16843008D02*
X4765063Y-16833484D01*
X4955539Y-16833484D02*
X4974586Y-16833484D01*
X4974586Y-16833484D02*
X4993634Y-16843008D01*
X4993634Y-16843008D02*
X5003158Y-16852531D01*
X5003158Y-16852531D02*
X5012682Y-16871579D01*
X5012682Y-16871579D02*
X5022205Y-16909674D01*
X5022205Y-16909674D02*
X5022205Y-16957293D01*
X5022205Y-16957293D02*
X5012682Y-16995389D01*
X5012682Y-16995389D02*
X5003158Y-17014436D01*
X5003158Y-17014436D02*
X4993634Y-17023960D01*
X4993634Y-17023960D02*
X4974586Y-17033484D01*
X4974586Y-17033484D02*
X4955539Y-17033484D01*
X4955539Y-17033484D02*
X4936491Y-17023960D01*
X4936491Y-17023960D02*
X4926967Y-17014436D01*
X4926967Y-17014436D02*
X4917444Y-16995389D01*
X4917444Y-16995389D02*
X4907920Y-16957293D01*
X4907920Y-16957293D02*
X4907920Y-16909674D01*
X4907920Y-16909674D02*
X4917444Y-16871579D01*
X4917444Y-16871579D02*
X4926967Y-16852531D01*
X4926967Y-16852531D02*
X4936491Y-16843008D01*
X4936491Y-16843008D02*
X4955539Y-16833484D01*
X5107920Y-17033484D02*
X5107920Y-16900150D01*
X5107920Y-16919198D02*
X5117444Y-16909674D01*
X5117444Y-16909674D02*
X5136491Y-16900150D01*
X5136491Y-16900150D02*
X5165063Y-16900150D01*
X5165063Y-16900150D02*
X5184110Y-16909674D01*
X5184110Y-16909674D02*
X5193634Y-16928722D01*
X5193634Y-16928722D02*
X5193634Y-17033484D01*
X5193634Y-16928722D02*
X5203158Y-16909674D01*
X5203158Y-16909674D02*
X5222205Y-16900150D01*
X5222205Y-16900150D02*
X5250777Y-16900150D01*
X5250777Y-16900150D02*
X5269825Y-16909674D01*
X5269825Y-16909674D02*
X5279348Y-16928722D01*
X5279348Y-16928722D02*
X5279348Y-17033484D01*
X5374586Y-17033484D02*
X5374586Y-16900150D01*
X5374586Y-16919198D02*
X5384110Y-16909674D01*
X5384110Y-16909674D02*
X5403158Y-16900150D01*
X5403158Y-16900150D02*
X5431729Y-16900150D01*
X5431729Y-16900150D02*
X5450777Y-16909674D01*
X5450777Y-16909674D02*
X5460301Y-16928722D01*
X5460301Y-16928722D02*
X5460301Y-17033484D01*
X5460301Y-16928722D02*
X5469825Y-16909674D01*
X5469825Y-16909674D02*
X5488872Y-16900150D01*
X5488872Y-16900150D02*
X5517444Y-16900150D01*
X5517444Y-16900150D02*
X5536491Y-16909674D01*
X5536491Y-16909674D02*
X5546015Y-16928722D01*
X5546015Y-16928722D02*
X5546015Y-17033484D01*
X5936491Y-16823960D02*
X5765063Y-17081103D01*
X6193634Y-16833484D02*
X6212682Y-16833484D01*
X6212682Y-16833484D02*
X6231729Y-16843008D01*
X6231729Y-16843008D02*
X6241253Y-16852531D01*
X6241253Y-16852531D02*
X6250777Y-16871579D01*
X6250777Y-16871579D02*
X6260301Y-16909674D01*
X6260301Y-16909674D02*
X6260301Y-16957293D01*
X6260301Y-16957293D02*
X6250777Y-16995389D01*
X6250777Y-16995389D02*
X6241253Y-17014436D01*
X6241253Y-17014436D02*
X6231729Y-17023960D01*
X6231729Y-17023960D02*
X6212682Y-17033484D01*
X6212682Y-17033484D02*
X6193634Y-17033484D01*
X6193634Y-17033484D02*
X6174586Y-17023960D01*
X6174586Y-17023960D02*
X6165063Y-17014436D01*
X6165063Y-17014436D02*
X6155539Y-16995389D01*
X6155539Y-16995389D02*
X6146015Y-16957293D01*
X6146015Y-16957293D02*
X6146015Y-16909674D01*
X6146015Y-16909674D02*
X6155539Y-16871579D01*
X6155539Y-16871579D02*
X6165063Y-16852531D01*
X6165063Y-16852531D02*
X6174586Y-16843008D01*
X6174586Y-16843008D02*
X6193634Y-16833484D01*
X6346015Y-17014436D02*
X6355539Y-17023960D01*
X6355539Y-17023960D02*
X6346015Y-17033484D01*
X6346015Y-17033484D02*
X6336491Y-17023960D01*
X6336491Y-17023960D02*
X6346015Y-17014436D01*
X6346015Y-17014436D02*
X6346015Y-17033484D01*
X6479348Y-16833484D02*
X6498396Y-16833484D01*
X6498396Y-16833484D02*
X6517444Y-16843008D01*
X6517444Y-16843008D02*
X6526967Y-16852531D01*
X6526967Y-16852531D02*
X6536491Y-16871579D01*
X6536491Y-16871579D02*
X6546015Y-16909674D01*
X6546015Y-16909674D02*
X6546015Y-16957293D01*
X6546015Y-16957293D02*
X6536491Y-16995389D01*
X6536491Y-16995389D02*
X6526967Y-17014436D01*
X6526967Y-17014436D02*
X6517444Y-17023960D01*
X6517444Y-17023960D02*
X6498396Y-17033484D01*
X6498396Y-17033484D02*
X6479348Y-17033484D01*
X6479348Y-17033484D02*
X6460301Y-17023960D01*
X6460301Y-17023960D02*
X6450777Y-17014436D01*
X6450777Y-17014436D02*
X6441253Y-16995389D01*
X6441253Y-16995389D02*
X6431729Y-16957293D01*
X6431729Y-16957293D02*
X6431729Y-16909674D01*
X6431729Y-16909674D02*
X6441253Y-16871579D01*
X6441253Y-16871579D02*
X6450777Y-16852531D01*
X6450777Y-16852531D02*
X6460301Y-16843008D01*
X6460301Y-16843008D02*
X6479348Y-16833484D01*
X6612682Y-16833484D02*
X6736491Y-16833484D01*
X6736491Y-16833484D02*
X6669825Y-16909674D01*
X6669825Y-16909674D02*
X6698396Y-16909674D01*
X6698396Y-16909674D02*
X6717444Y-16919198D01*
X6717444Y-16919198D02*
X6726967Y-16928722D01*
X6726967Y-16928722D02*
X6736491Y-16947770D01*
X6736491Y-16947770D02*
X6736491Y-16995389D01*
X6736491Y-16995389D02*
X6726967Y-17014436D01*
X6726967Y-17014436D02*
X6717444Y-17023960D01*
X6717444Y-17023960D02*
X6698396Y-17033484D01*
X6698396Y-17033484D02*
X6641253Y-17033484D01*
X6641253Y-17033484D02*
X6622206Y-17023960D01*
X6622206Y-17023960D02*
X6612682Y-17014436D01*
X6831729Y-17033484D02*
X6869825Y-17033484D01*
X6869825Y-17033484D02*
X6888872Y-17023960D01*
X6888872Y-17023960D02*
X6898396Y-17014436D01*
X6898396Y-17014436D02*
X6917444Y-16985865D01*
X6917444Y-16985865D02*
X6926967Y-16947770D01*
X6926967Y-16947770D02*
X6926967Y-16871579D01*
X6926967Y-16871579D02*
X6917444Y-16852531D01*
X6917444Y-16852531D02*
X6907920Y-16843008D01*
X6907920Y-16843008D02*
X6888872Y-16833484D01*
X6888872Y-16833484D02*
X6850777Y-16833484D01*
X6850777Y-16833484D02*
X6831729Y-16843008D01*
X6831729Y-16843008D02*
X6822206Y-16852531D01*
X6822206Y-16852531D02*
X6812682Y-16871579D01*
X6812682Y-16871579D02*
X6812682Y-16919198D01*
X6812682Y-16919198D02*
X6822206Y-16938246D01*
X6822206Y-16938246D02*
X6831729Y-16947770D01*
X6831729Y-16947770D02*
X6850777Y-16957293D01*
X6850777Y-16957293D02*
X6888872Y-16957293D01*
X6888872Y-16957293D02*
X6907920Y-16947770D01*
X6907920Y-16947770D02*
X6917444Y-16938246D01*
X6917444Y-16938246D02*
X6926967Y-16919198D01*
X7098396Y-16900150D02*
X7098396Y-17033484D01*
X7050777Y-16823960D02*
X7003158Y-16966817D01*
X7003158Y-16966817D02*
X7126967Y-16966817D01*
X7193634Y-16833484D02*
X7193634Y-16871579D01*
X7269825Y-16833484D02*
X7269825Y-16871579D01*
X7565063Y-17109674D02*
X7555539Y-17100150D01*
X7555539Y-17100150D02*
X7536491Y-17071579D01*
X7536491Y-17071579D02*
X7526968Y-17052531D01*
X7526968Y-17052531D02*
X7517444Y-17023960D01*
X7517444Y-17023960D02*
X7507920Y-16976341D01*
X7507920Y-16976341D02*
X7507920Y-16938246D01*
X7507920Y-16938246D02*
X7517444Y-16890627D01*
X7517444Y-16890627D02*
X7526968Y-16862055D01*
X7526968Y-16862055D02*
X7536491Y-16843008D01*
X7536491Y-16843008D02*
X7555539Y-16814436D01*
X7555539Y-16814436D02*
X7565063Y-16804912D01*
X7726968Y-16900150D02*
X7726968Y-17033484D01*
X7679348Y-16823960D02*
X7631729Y-16966817D01*
X7631729Y-16966817D02*
X7755539Y-16966817D01*
X7984110Y-17033484D02*
X7984110Y-16833484D01*
X8069825Y-17033484D02*
X8069825Y-16928722D01*
X8069825Y-16928722D02*
X8060301Y-16909674D01*
X8060301Y-16909674D02*
X8041253Y-16900150D01*
X8041253Y-16900150D02*
X8012682Y-16900150D01*
X8012682Y-16900150D02*
X7993634Y-16909674D01*
X7993634Y-16909674D02*
X7984110Y-16919198D01*
X8193634Y-17033484D02*
X8174587Y-17023960D01*
X8174587Y-17023960D02*
X8165063Y-17014436D01*
X8165063Y-17014436D02*
X8155539Y-16995389D01*
X8155539Y-16995389D02*
X8155539Y-16938246D01*
X8155539Y-16938246D02*
X8165063Y-16919198D01*
X8165063Y-16919198D02*
X8174587Y-16909674D01*
X8174587Y-16909674D02*
X8193634Y-16900150D01*
X8193634Y-16900150D02*
X8222206Y-16900150D01*
X8222206Y-16900150D02*
X8241253Y-16909674D01*
X8241253Y-16909674D02*
X8250777Y-16919198D01*
X8250777Y-16919198D02*
X8260301Y-16938246D01*
X8260301Y-16938246D02*
X8260301Y-16995389D01*
X8260301Y-16995389D02*
X8250777Y-17014436D01*
X8250777Y-17014436D02*
X8241253Y-17023960D01*
X8241253Y-17023960D02*
X8222206Y-17033484D01*
X8222206Y-17033484D02*
X8193634Y-17033484D01*
X8374587Y-17033484D02*
X8355539Y-17023960D01*
X8355539Y-17023960D02*
X8346015Y-17004912D01*
X8346015Y-17004912D02*
X8346015Y-16833484D01*
X8526968Y-17023960D02*
X8507920Y-17033484D01*
X8507920Y-17033484D02*
X8469825Y-17033484D01*
X8469825Y-17033484D02*
X8450777Y-17023960D01*
X8450777Y-17023960D02*
X8441253Y-17004912D01*
X8441253Y-17004912D02*
X8441253Y-16928722D01*
X8441253Y-16928722D02*
X8450777Y-16909674D01*
X8450777Y-16909674D02*
X8469825Y-16900150D01*
X8469825Y-16900150D02*
X8507920Y-16900150D01*
X8507920Y-16900150D02*
X8526968Y-16909674D01*
X8526968Y-16909674D02*
X8536492Y-16928722D01*
X8536492Y-16928722D02*
X8536492Y-16947770D01*
X8536492Y-16947770D02*
X8441253Y-16966817D01*
X8612682Y-17023960D02*
X8631730Y-17033484D01*
X8631730Y-17033484D02*
X8669825Y-17033484D01*
X8669825Y-17033484D02*
X8688873Y-17023960D01*
X8688873Y-17023960D02*
X8698396Y-17004912D01*
X8698396Y-17004912D02*
X8698396Y-16995389D01*
X8698396Y-16995389D02*
X8688873Y-16976341D01*
X8688873Y-16976341D02*
X8669825Y-16966817D01*
X8669825Y-16966817D02*
X8641253Y-16966817D01*
X8641253Y-16966817D02*
X8622206Y-16957293D01*
X8622206Y-16957293D02*
X8612682Y-16938246D01*
X8612682Y-16938246D02*
X8612682Y-16928722D01*
X8612682Y-16928722D02*
X8622206Y-16909674D01*
X8622206Y-16909674D02*
X8641253Y-16900150D01*
X8641253Y-16900150D02*
X8669825Y-16900150D01*
X8669825Y-16900150D02*
X8688873Y-16909674D01*
X8765063Y-17109674D02*
X8774587Y-17100150D01*
X8774587Y-17100150D02*
X8793634Y-17071579D01*
X8793634Y-17071579D02*
X8803158Y-17052531D01*
X8803158Y-17052531D02*
X8812682Y-17023960D01*
X8812682Y-17023960D02*
X8822206Y-16976341D01*
X8822206Y-16976341D02*
X8822206Y-16938246D01*
X8822206Y-16938246D02*
X8812682Y-16890627D01*
X8812682Y-16890627D02*
X8803158Y-16862055D01*
X8803158Y-16862055D02*
X8793634Y-16843008D01*
X8793634Y-16843008D02*
X8774587Y-16814436D01*
X8774587Y-16814436D02*
X8765063Y-16804912D01*
D12*
X3935000Y-17261000D02*
X3990000Y-17206000D01*
X3935000Y-17151000D01*
X3880000Y-17206000D01*
X3935000Y-17261000D01*
D10*
X4355539Y-17297484D02*
X4241253Y-17297484D01*
X4298396Y-17297484D02*
X4298396Y-17097484D01*
X4298396Y-17097484D02*
X4279348Y-17126055D01*
X4279348Y-17126055D02*
X4260301Y-17145103D01*
X4260301Y-17145103D02*
X4241253Y-17154627D01*
X4441253Y-17278436D02*
X4450777Y-17287960D01*
X4450777Y-17287960D02*
X4441253Y-17297484D01*
X4441253Y-17297484D02*
X4431729Y-17287960D01*
X4431729Y-17287960D02*
X4441253Y-17278436D01*
X4441253Y-17278436D02*
X4441253Y-17297484D01*
X4641253Y-17297484D02*
X4526967Y-17297484D01*
X4584110Y-17297484D02*
X4584110Y-17097484D01*
X4584110Y-17097484D02*
X4565063Y-17126055D01*
X4565063Y-17126055D02*
X4546015Y-17145103D01*
X4546015Y-17145103D02*
X4526967Y-17154627D01*
X4765063Y-17097484D02*
X4784110Y-17097484D01*
X4784110Y-17097484D02*
X4803158Y-17107008D01*
X4803158Y-17107008D02*
X4812682Y-17116531D01*
X4812682Y-17116531D02*
X4822205Y-17135579D01*
X4822205Y-17135579D02*
X4831729Y-17173674D01*
X4831729Y-17173674D02*
X4831729Y-17221293D01*
X4831729Y-17221293D02*
X4822205Y-17259389D01*
X4822205Y-17259389D02*
X4812682Y-17278436D01*
X4812682Y-17278436D02*
X4803158Y-17287960D01*
X4803158Y-17287960D02*
X4784110Y-17297484D01*
X4784110Y-17297484D02*
X4765063Y-17297484D01*
X4765063Y-17297484D02*
X4746015Y-17287960D01*
X4746015Y-17287960D02*
X4736491Y-17278436D01*
X4736491Y-17278436D02*
X4726967Y-17259389D01*
X4726967Y-17259389D02*
X4717444Y-17221293D01*
X4717444Y-17221293D02*
X4717444Y-17173674D01*
X4717444Y-17173674D02*
X4726967Y-17135579D01*
X4726967Y-17135579D02*
X4736491Y-17116531D01*
X4736491Y-17116531D02*
X4746015Y-17107008D01*
X4746015Y-17107008D02*
X4765063Y-17097484D01*
X4955539Y-17097484D02*
X4974586Y-17097484D01*
X4974586Y-17097484D02*
X4993634Y-17107008D01*
X4993634Y-17107008D02*
X5003158Y-17116531D01*
X5003158Y-17116531D02*
X5012682Y-17135579D01*
X5012682Y-17135579D02*
X5022205Y-17173674D01*
X5022205Y-17173674D02*
X5022205Y-17221293D01*
X5022205Y-17221293D02*
X5012682Y-17259389D01*
X5012682Y-17259389D02*
X5003158Y-17278436D01*
X5003158Y-17278436D02*
X4993634Y-17287960D01*
X4993634Y-17287960D02*
X4974586Y-17297484D01*
X4974586Y-17297484D02*
X4955539Y-17297484D01*
X4955539Y-17297484D02*
X4936491Y-17287960D01*
X4936491Y-17287960D02*
X4926967Y-17278436D01*
X4926967Y-17278436D02*
X4917444Y-17259389D01*
X4917444Y-17259389D02*
X4907920Y-17221293D01*
X4907920Y-17221293D02*
X4907920Y-17173674D01*
X4907920Y-17173674D02*
X4917444Y-17135579D01*
X4917444Y-17135579D02*
X4926967Y-17116531D01*
X4926967Y-17116531D02*
X4936491Y-17107008D01*
X4936491Y-17107008D02*
X4955539Y-17097484D01*
X5107920Y-17297484D02*
X5107920Y-17164150D01*
X5107920Y-17183198D02*
X5117444Y-17173674D01*
X5117444Y-17173674D02*
X5136491Y-17164150D01*
X5136491Y-17164150D02*
X5165063Y-17164150D01*
X5165063Y-17164150D02*
X5184110Y-17173674D01*
X5184110Y-17173674D02*
X5193634Y-17192722D01*
X5193634Y-17192722D02*
X5193634Y-17297484D01*
X5193634Y-17192722D02*
X5203158Y-17173674D01*
X5203158Y-17173674D02*
X5222205Y-17164150D01*
X5222205Y-17164150D02*
X5250777Y-17164150D01*
X5250777Y-17164150D02*
X5269825Y-17173674D01*
X5269825Y-17173674D02*
X5279348Y-17192722D01*
X5279348Y-17192722D02*
X5279348Y-17297484D01*
X5374586Y-17297484D02*
X5374586Y-17164150D01*
X5374586Y-17183198D02*
X5384110Y-17173674D01*
X5384110Y-17173674D02*
X5403158Y-17164150D01*
X5403158Y-17164150D02*
X5431729Y-17164150D01*
X5431729Y-17164150D02*
X5450777Y-17173674D01*
X5450777Y-17173674D02*
X5460301Y-17192722D01*
X5460301Y-17192722D02*
X5460301Y-17297484D01*
X5460301Y-17192722D02*
X5469825Y-17173674D01*
X5469825Y-17173674D02*
X5488872Y-17164150D01*
X5488872Y-17164150D02*
X5517444Y-17164150D01*
X5517444Y-17164150D02*
X5536491Y-17173674D01*
X5536491Y-17173674D02*
X5546015Y-17192722D01*
X5546015Y-17192722D02*
X5546015Y-17297484D01*
X5936491Y-17087960D02*
X5765063Y-17345103D01*
X6193634Y-17097484D02*
X6212682Y-17097484D01*
X6212682Y-17097484D02*
X6231729Y-17107008D01*
X6231729Y-17107008D02*
X6241253Y-17116531D01*
X6241253Y-17116531D02*
X6250777Y-17135579D01*
X6250777Y-17135579D02*
X6260301Y-17173674D01*
X6260301Y-17173674D02*
X6260301Y-17221293D01*
X6260301Y-17221293D02*
X6250777Y-17259389D01*
X6250777Y-17259389D02*
X6241253Y-17278436D01*
X6241253Y-17278436D02*
X6231729Y-17287960D01*
X6231729Y-17287960D02*
X6212682Y-17297484D01*
X6212682Y-17297484D02*
X6193634Y-17297484D01*
X6193634Y-17297484D02*
X6174586Y-17287960D01*
X6174586Y-17287960D02*
X6165063Y-17278436D01*
X6165063Y-17278436D02*
X6155539Y-17259389D01*
X6155539Y-17259389D02*
X6146015Y-17221293D01*
X6146015Y-17221293D02*
X6146015Y-17173674D01*
X6146015Y-17173674D02*
X6155539Y-17135579D01*
X6155539Y-17135579D02*
X6165063Y-17116531D01*
X6165063Y-17116531D02*
X6174586Y-17107008D01*
X6174586Y-17107008D02*
X6193634Y-17097484D01*
X6346015Y-17278436D02*
X6355539Y-17287960D01*
X6355539Y-17287960D02*
X6346015Y-17297484D01*
X6346015Y-17297484D02*
X6336491Y-17287960D01*
X6336491Y-17287960D02*
X6346015Y-17278436D01*
X6346015Y-17278436D02*
X6346015Y-17297484D01*
X6479348Y-17097484D02*
X6498396Y-17097484D01*
X6498396Y-17097484D02*
X6517444Y-17107008D01*
X6517444Y-17107008D02*
X6526967Y-17116531D01*
X6526967Y-17116531D02*
X6536491Y-17135579D01*
X6536491Y-17135579D02*
X6546015Y-17173674D01*
X6546015Y-17173674D02*
X6546015Y-17221293D01*
X6546015Y-17221293D02*
X6536491Y-17259389D01*
X6536491Y-17259389D02*
X6526967Y-17278436D01*
X6526967Y-17278436D02*
X6517444Y-17287960D01*
X6517444Y-17287960D02*
X6498396Y-17297484D01*
X6498396Y-17297484D02*
X6479348Y-17297484D01*
X6479348Y-17297484D02*
X6460301Y-17287960D01*
X6460301Y-17287960D02*
X6450777Y-17278436D01*
X6450777Y-17278436D02*
X6441253Y-17259389D01*
X6441253Y-17259389D02*
X6431729Y-17221293D01*
X6431729Y-17221293D02*
X6431729Y-17173674D01*
X6431729Y-17173674D02*
X6441253Y-17135579D01*
X6441253Y-17135579D02*
X6450777Y-17116531D01*
X6450777Y-17116531D02*
X6460301Y-17107008D01*
X6460301Y-17107008D02*
X6479348Y-17097484D01*
X6717444Y-17164150D02*
X6717444Y-17297484D01*
X6669825Y-17087960D02*
X6622206Y-17230817D01*
X6622206Y-17230817D02*
X6746015Y-17230817D01*
X6803158Y-17097484D02*
X6926967Y-17097484D01*
X6926967Y-17097484D02*
X6860301Y-17173674D01*
X6860301Y-17173674D02*
X6888872Y-17173674D01*
X6888872Y-17173674D02*
X6907920Y-17183198D01*
X6907920Y-17183198D02*
X6917444Y-17192722D01*
X6917444Y-17192722D02*
X6926967Y-17211770D01*
X6926967Y-17211770D02*
X6926967Y-17259389D01*
X6926967Y-17259389D02*
X6917444Y-17278436D01*
X6917444Y-17278436D02*
X6907920Y-17287960D01*
X6907920Y-17287960D02*
X6888872Y-17297484D01*
X6888872Y-17297484D02*
X6831729Y-17297484D01*
X6831729Y-17297484D02*
X6812682Y-17287960D01*
X6812682Y-17287960D02*
X6803158Y-17278436D01*
X6993634Y-17097484D02*
X7117444Y-17097484D01*
X7117444Y-17097484D02*
X7050777Y-17173674D01*
X7050777Y-17173674D02*
X7079348Y-17173674D01*
X7079348Y-17173674D02*
X7098396Y-17183198D01*
X7098396Y-17183198D02*
X7107920Y-17192722D01*
X7107920Y-17192722D02*
X7117444Y-17211770D01*
X7117444Y-17211770D02*
X7117444Y-17259389D01*
X7117444Y-17259389D02*
X7107920Y-17278436D01*
X7107920Y-17278436D02*
X7098396Y-17287960D01*
X7098396Y-17287960D02*
X7079348Y-17297484D01*
X7079348Y-17297484D02*
X7022206Y-17297484D01*
X7022206Y-17297484D02*
X7003158Y-17287960D01*
X7003158Y-17287960D02*
X6993634Y-17278436D01*
X7193634Y-17097484D02*
X7193634Y-17135579D01*
X7269825Y-17097484D02*
X7269825Y-17135579D01*
X7565063Y-17373674D02*
X7555539Y-17364150D01*
X7555539Y-17364150D02*
X7536491Y-17335579D01*
X7536491Y-17335579D02*
X7526968Y-17316531D01*
X7526968Y-17316531D02*
X7517444Y-17287960D01*
X7517444Y-17287960D02*
X7507920Y-17240341D01*
X7507920Y-17240341D02*
X7507920Y-17202246D01*
X7507920Y-17202246D02*
X7517444Y-17154627D01*
X7517444Y-17154627D02*
X7526968Y-17126055D01*
X7526968Y-17126055D02*
X7536491Y-17107008D01*
X7536491Y-17107008D02*
X7555539Y-17078436D01*
X7555539Y-17078436D02*
X7565063Y-17068912D01*
X7746015Y-17297484D02*
X7631729Y-17297484D01*
X7688872Y-17297484D02*
X7688872Y-17097484D01*
X7688872Y-17097484D02*
X7669825Y-17126055D01*
X7669825Y-17126055D02*
X7650777Y-17145103D01*
X7650777Y-17145103D02*
X7631729Y-17154627D01*
X7822206Y-17116531D02*
X7831729Y-17107008D01*
X7831729Y-17107008D02*
X7850777Y-17097484D01*
X7850777Y-17097484D02*
X7898396Y-17097484D01*
X7898396Y-17097484D02*
X7917444Y-17107008D01*
X7917444Y-17107008D02*
X7926968Y-17116531D01*
X7926968Y-17116531D02*
X7936491Y-17135579D01*
X7936491Y-17135579D02*
X7936491Y-17154627D01*
X7936491Y-17154627D02*
X7926968Y-17183198D01*
X7926968Y-17183198D02*
X7812682Y-17297484D01*
X7812682Y-17297484D02*
X7936491Y-17297484D01*
X8174587Y-17297484D02*
X8174587Y-17097484D01*
X8260301Y-17297484D02*
X8260301Y-17192722D01*
X8260301Y-17192722D02*
X8250777Y-17173674D01*
X8250777Y-17173674D02*
X8231730Y-17164150D01*
X8231730Y-17164150D02*
X8203158Y-17164150D01*
X8203158Y-17164150D02*
X8184110Y-17173674D01*
X8184110Y-17173674D02*
X8174587Y-17183198D01*
X8384110Y-17297484D02*
X8365063Y-17287960D01*
X8365063Y-17287960D02*
X8355539Y-17278436D01*
X8355539Y-17278436D02*
X8346015Y-17259389D01*
X8346015Y-17259389D02*
X8346015Y-17202246D01*
X8346015Y-17202246D02*
X8355539Y-17183198D01*
X8355539Y-17183198D02*
X8365063Y-17173674D01*
X8365063Y-17173674D02*
X8384110Y-17164150D01*
X8384110Y-17164150D02*
X8412682Y-17164150D01*
X8412682Y-17164150D02*
X8431730Y-17173674D01*
X8431730Y-17173674D02*
X8441253Y-17183198D01*
X8441253Y-17183198D02*
X8450777Y-17202246D01*
X8450777Y-17202246D02*
X8450777Y-17259389D01*
X8450777Y-17259389D02*
X8441253Y-17278436D01*
X8441253Y-17278436D02*
X8431730Y-17287960D01*
X8431730Y-17287960D02*
X8412682Y-17297484D01*
X8412682Y-17297484D02*
X8384110Y-17297484D01*
X8565063Y-17297484D02*
X8546015Y-17287960D01*
X8546015Y-17287960D02*
X8536492Y-17268912D01*
X8536492Y-17268912D02*
X8536492Y-17097484D01*
X8717444Y-17287960D02*
X8698396Y-17297484D01*
X8698396Y-17297484D02*
X8660301Y-17297484D01*
X8660301Y-17297484D02*
X8641253Y-17287960D01*
X8641253Y-17287960D02*
X8631730Y-17268912D01*
X8631730Y-17268912D02*
X8631730Y-17192722D01*
X8631730Y-17192722D02*
X8641253Y-17173674D01*
X8641253Y-17173674D02*
X8660301Y-17164150D01*
X8660301Y-17164150D02*
X8698396Y-17164150D01*
X8698396Y-17164150D02*
X8717444Y-17173674D01*
X8717444Y-17173674D02*
X8726968Y-17192722D01*
X8726968Y-17192722D02*
X8726968Y-17211770D01*
X8726968Y-17211770D02*
X8631730Y-17230817D01*
X8803158Y-17287960D02*
X8822206Y-17297484D01*
X8822206Y-17297484D02*
X8860301Y-17297484D01*
X8860301Y-17297484D02*
X8879349Y-17287960D01*
X8879349Y-17287960D02*
X8888873Y-17268912D01*
X8888873Y-17268912D02*
X8888873Y-17259389D01*
X8888873Y-17259389D02*
X8879349Y-17240341D01*
X8879349Y-17240341D02*
X8860301Y-17230817D01*
X8860301Y-17230817D02*
X8831730Y-17230817D01*
X8831730Y-17230817D02*
X8812682Y-17221293D01*
X8812682Y-17221293D02*
X8803158Y-17202246D01*
X8803158Y-17202246D02*
X8803158Y-17192722D01*
X8803158Y-17192722D02*
X8812682Y-17173674D01*
X8812682Y-17173674D02*
X8831730Y-17164150D01*
X8831730Y-17164150D02*
X8860301Y-17164150D01*
X8860301Y-17164150D02*
X8879349Y-17173674D01*
X8955539Y-17373674D02*
X8965063Y-17364150D01*
X8965063Y-17364150D02*
X8984111Y-17335579D01*
X8984111Y-17335579D02*
X8993634Y-17316531D01*
X8993634Y-17316531D02*
X9003158Y-17287960D01*
X9003158Y-17287960D02*
X9012682Y-17240341D01*
X9012682Y-17240341D02*
X9012682Y-17202246D01*
X9012682Y-17202246D02*
X9003158Y-17154627D01*
X9003158Y-17154627D02*
X8993634Y-17126055D01*
X8993634Y-17126055D02*
X8984111Y-17107008D01*
X8984111Y-17107008D02*
X8965063Y-17078436D01*
X8965063Y-17078436D02*
X8955539Y-17068912D01*
D13*
X3860000Y-17405000D02*
X3990000Y-17535000D01*
X3990000Y-17405000D02*
X3860000Y-17535000D01*
X3990000Y-17470000D02*
G75*
G02*
X3860000Y-17470000I-65000J0D01*
G01*
X3860000Y-17470000D02*
G75*
G02*
X3990000Y-17470000I65000J0D01*
G01*
D10*
X4355539Y-17561484D02*
X4241253Y-17561484D01*
X4298396Y-17561484D02*
X4298396Y-17361484D01*
X4298396Y-17361484D02*
X4279348Y-17390055D01*
X4279348Y-17390055D02*
X4260301Y-17409103D01*
X4260301Y-17409103D02*
X4241253Y-17418627D01*
X4441253Y-17542436D02*
X4450777Y-17551960D01*
X4450777Y-17551960D02*
X4441253Y-17561484D01*
X4441253Y-17561484D02*
X4431729Y-17551960D01*
X4431729Y-17551960D02*
X4441253Y-17542436D01*
X4441253Y-17542436D02*
X4441253Y-17561484D01*
X4517444Y-17361484D02*
X4641253Y-17361484D01*
X4641253Y-17361484D02*
X4574586Y-17437674D01*
X4574586Y-17437674D02*
X4603158Y-17437674D01*
X4603158Y-17437674D02*
X4622205Y-17447198D01*
X4622205Y-17447198D02*
X4631729Y-17456722D01*
X4631729Y-17456722D02*
X4641253Y-17475770D01*
X4641253Y-17475770D02*
X4641253Y-17523389D01*
X4641253Y-17523389D02*
X4631729Y-17542436D01*
X4631729Y-17542436D02*
X4622205Y-17551960D01*
X4622205Y-17551960D02*
X4603158Y-17561484D01*
X4603158Y-17561484D02*
X4546015Y-17561484D01*
X4546015Y-17561484D02*
X4526967Y-17551960D01*
X4526967Y-17551960D02*
X4517444Y-17542436D01*
X4765063Y-17361484D02*
X4784110Y-17361484D01*
X4784110Y-17361484D02*
X4803158Y-17371008D01*
X4803158Y-17371008D02*
X4812682Y-17380531D01*
X4812682Y-17380531D02*
X4822205Y-17399579D01*
X4822205Y-17399579D02*
X4831729Y-17437674D01*
X4831729Y-17437674D02*
X4831729Y-17485293D01*
X4831729Y-17485293D02*
X4822205Y-17523389D01*
X4822205Y-17523389D02*
X4812682Y-17542436D01*
X4812682Y-17542436D02*
X4803158Y-17551960D01*
X4803158Y-17551960D02*
X4784110Y-17561484D01*
X4784110Y-17561484D02*
X4765063Y-17561484D01*
X4765063Y-17561484D02*
X4746015Y-17551960D01*
X4746015Y-17551960D02*
X4736491Y-17542436D01*
X4736491Y-17542436D02*
X4726967Y-17523389D01*
X4726967Y-17523389D02*
X4717444Y-17485293D01*
X4717444Y-17485293D02*
X4717444Y-17437674D01*
X4717444Y-17437674D02*
X4726967Y-17399579D01*
X4726967Y-17399579D02*
X4736491Y-17380531D01*
X4736491Y-17380531D02*
X4746015Y-17371008D01*
X4746015Y-17371008D02*
X4765063Y-17361484D01*
X4955539Y-17361484D02*
X4974586Y-17361484D01*
X4974586Y-17361484D02*
X4993634Y-17371008D01*
X4993634Y-17371008D02*
X5003158Y-17380531D01*
X5003158Y-17380531D02*
X5012682Y-17399579D01*
X5012682Y-17399579D02*
X5022205Y-17437674D01*
X5022205Y-17437674D02*
X5022205Y-17485293D01*
X5022205Y-17485293D02*
X5012682Y-17523389D01*
X5012682Y-17523389D02*
X5003158Y-17542436D01*
X5003158Y-17542436D02*
X4993634Y-17551960D01*
X4993634Y-17551960D02*
X4974586Y-17561484D01*
X4974586Y-17561484D02*
X4955539Y-17561484D01*
X4955539Y-17561484D02*
X4936491Y-17551960D01*
X4936491Y-17551960D02*
X4926967Y-17542436D01*
X4926967Y-17542436D02*
X4917444Y-17523389D01*
X4917444Y-17523389D02*
X4907920Y-17485293D01*
X4907920Y-17485293D02*
X4907920Y-17437674D01*
X4907920Y-17437674D02*
X4917444Y-17399579D01*
X4917444Y-17399579D02*
X4926967Y-17380531D01*
X4926967Y-17380531D02*
X4936491Y-17371008D01*
X4936491Y-17371008D02*
X4955539Y-17361484D01*
X5107920Y-17561484D02*
X5107920Y-17428150D01*
X5107920Y-17447198D02*
X5117444Y-17437674D01*
X5117444Y-17437674D02*
X5136491Y-17428150D01*
X5136491Y-17428150D02*
X5165063Y-17428150D01*
X5165063Y-17428150D02*
X5184110Y-17437674D01*
X5184110Y-17437674D02*
X5193634Y-17456722D01*
X5193634Y-17456722D02*
X5193634Y-17561484D01*
X5193634Y-17456722D02*
X5203158Y-17437674D01*
X5203158Y-17437674D02*
X5222205Y-17428150D01*
X5222205Y-17428150D02*
X5250777Y-17428150D01*
X5250777Y-17428150D02*
X5269825Y-17437674D01*
X5269825Y-17437674D02*
X5279348Y-17456722D01*
X5279348Y-17456722D02*
X5279348Y-17561484D01*
X5374586Y-17561484D02*
X5374586Y-17428150D01*
X5374586Y-17447198D02*
X5384110Y-17437674D01*
X5384110Y-17437674D02*
X5403158Y-17428150D01*
X5403158Y-17428150D02*
X5431729Y-17428150D01*
X5431729Y-17428150D02*
X5450777Y-17437674D01*
X5450777Y-17437674D02*
X5460301Y-17456722D01*
X5460301Y-17456722D02*
X5460301Y-17561484D01*
X5460301Y-17456722D02*
X5469825Y-17437674D01*
X5469825Y-17437674D02*
X5488872Y-17428150D01*
X5488872Y-17428150D02*
X5517444Y-17428150D01*
X5517444Y-17428150D02*
X5536491Y-17437674D01*
X5536491Y-17437674D02*
X5546015Y-17456722D01*
X5546015Y-17456722D02*
X5546015Y-17561484D01*
X5936491Y-17351960D02*
X5765063Y-17609103D01*
X6193634Y-17361484D02*
X6212682Y-17361484D01*
X6212682Y-17361484D02*
X6231729Y-17371008D01*
X6231729Y-17371008D02*
X6241253Y-17380531D01*
X6241253Y-17380531D02*
X6250777Y-17399579D01*
X6250777Y-17399579D02*
X6260301Y-17437674D01*
X6260301Y-17437674D02*
X6260301Y-17485293D01*
X6260301Y-17485293D02*
X6250777Y-17523389D01*
X6250777Y-17523389D02*
X6241253Y-17542436D01*
X6241253Y-17542436D02*
X6231729Y-17551960D01*
X6231729Y-17551960D02*
X6212682Y-17561484D01*
X6212682Y-17561484D02*
X6193634Y-17561484D01*
X6193634Y-17561484D02*
X6174586Y-17551960D01*
X6174586Y-17551960D02*
X6165063Y-17542436D01*
X6165063Y-17542436D02*
X6155539Y-17523389D01*
X6155539Y-17523389D02*
X6146015Y-17485293D01*
X6146015Y-17485293D02*
X6146015Y-17437674D01*
X6146015Y-17437674D02*
X6155539Y-17399579D01*
X6155539Y-17399579D02*
X6165063Y-17380531D01*
X6165063Y-17380531D02*
X6174586Y-17371008D01*
X6174586Y-17371008D02*
X6193634Y-17361484D01*
X6346015Y-17542436D02*
X6355539Y-17551960D01*
X6355539Y-17551960D02*
X6346015Y-17561484D01*
X6346015Y-17561484D02*
X6336491Y-17551960D01*
X6336491Y-17551960D02*
X6346015Y-17542436D01*
X6346015Y-17542436D02*
X6346015Y-17561484D01*
X6479348Y-17361484D02*
X6498396Y-17361484D01*
X6498396Y-17361484D02*
X6517444Y-17371008D01*
X6517444Y-17371008D02*
X6526967Y-17380531D01*
X6526967Y-17380531D02*
X6536491Y-17399579D01*
X6536491Y-17399579D02*
X6546015Y-17437674D01*
X6546015Y-17437674D02*
X6546015Y-17485293D01*
X6546015Y-17485293D02*
X6536491Y-17523389D01*
X6536491Y-17523389D02*
X6526967Y-17542436D01*
X6526967Y-17542436D02*
X6517444Y-17551960D01*
X6517444Y-17551960D02*
X6498396Y-17561484D01*
X6498396Y-17561484D02*
X6479348Y-17561484D01*
X6479348Y-17561484D02*
X6460301Y-17551960D01*
X6460301Y-17551960D02*
X6450777Y-17542436D01*
X6450777Y-17542436D02*
X6441253Y-17523389D01*
X6441253Y-17523389D02*
X6431729Y-17485293D01*
X6431729Y-17485293D02*
X6431729Y-17437674D01*
X6431729Y-17437674D02*
X6441253Y-17399579D01*
X6441253Y-17399579D02*
X6450777Y-17380531D01*
X6450777Y-17380531D02*
X6460301Y-17371008D01*
X6460301Y-17371008D02*
X6479348Y-17361484D01*
X6726967Y-17361484D02*
X6631729Y-17361484D01*
X6631729Y-17361484D02*
X6622206Y-17456722D01*
X6622206Y-17456722D02*
X6631729Y-17447198D01*
X6631729Y-17447198D02*
X6650777Y-17437674D01*
X6650777Y-17437674D02*
X6698396Y-17437674D01*
X6698396Y-17437674D02*
X6717444Y-17447198D01*
X6717444Y-17447198D02*
X6726967Y-17456722D01*
X6726967Y-17456722D02*
X6736491Y-17475770D01*
X6736491Y-17475770D02*
X6736491Y-17523389D01*
X6736491Y-17523389D02*
X6726967Y-17542436D01*
X6726967Y-17542436D02*
X6717444Y-17551960D01*
X6717444Y-17551960D02*
X6698396Y-17561484D01*
X6698396Y-17561484D02*
X6650777Y-17561484D01*
X6650777Y-17561484D02*
X6631729Y-17551960D01*
X6631729Y-17551960D02*
X6622206Y-17542436D01*
X6926967Y-17561484D02*
X6812682Y-17561484D01*
X6869825Y-17561484D02*
X6869825Y-17361484D01*
X6869825Y-17361484D02*
X6850777Y-17390055D01*
X6850777Y-17390055D02*
X6831729Y-17409103D01*
X6831729Y-17409103D02*
X6812682Y-17418627D01*
X7003158Y-17380531D02*
X7012682Y-17371008D01*
X7012682Y-17371008D02*
X7031729Y-17361484D01*
X7031729Y-17361484D02*
X7079348Y-17361484D01*
X7079348Y-17361484D02*
X7098396Y-17371008D01*
X7098396Y-17371008D02*
X7107920Y-17380531D01*
X7107920Y-17380531D02*
X7117444Y-17399579D01*
X7117444Y-17399579D02*
X7117444Y-17418627D01*
X7117444Y-17418627D02*
X7107920Y-17447198D01*
X7107920Y-17447198D02*
X6993634Y-17561484D01*
X6993634Y-17561484D02*
X7117444Y-17561484D01*
X7193634Y-17361484D02*
X7193634Y-17399579D01*
X7269825Y-17361484D02*
X7269825Y-17399579D01*
X7565063Y-17637674D02*
X7555539Y-17628150D01*
X7555539Y-17628150D02*
X7536491Y-17599579D01*
X7536491Y-17599579D02*
X7526968Y-17580531D01*
X7526968Y-17580531D02*
X7517444Y-17551960D01*
X7517444Y-17551960D02*
X7507920Y-17504341D01*
X7507920Y-17504341D02*
X7507920Y-17466246D01*
X7507920Y-17466246D02*
X7517444Y-17418627D01*
X7517444Y-17418627D02*
X7526968Y-17390055D01*
X7526968Y-17390055D02*
X7536491Y-17371008D01*
X7536491Y-17371008D02*
X7555539Y-17342436D01*
X7555539Y-17342436D02*
X7565063Y-17332912D01*
X7631729Y-17380531D02*
X7641253Y-17371008D01*
X7641253Y-17371008D02*
X7660301Y-17361484D01*
X7660301Y-17361484D02*
X7707920Y-17361484D01*
X7707920Y-17361484D02*
X7726968Y-17371008D01*
X7726968Y-17371008D02*
X7736491Y-17380531D01*
X7736491Y-17380531D02*
X7746015Y-17399579D01*
X7746015Y-17399579D02*
X7746015Y-17418627D01*
X7746015Y-17418627D02*
X7736491Y-17447198D01*
X7736491Y-17447198D02*
X7622206Y-17561484D01*
X7622206Y-17561484D02*
X7746015Y-17561484D01*
X7984110Y-17561484D02*
X7984110Y-17361484D01*
X8069825Y-17561484D02*
X8069825Y-17456722D01*
X8069825Y-17456722D02*
X8060301Y-17437674D01*
X8060301Y-17437674D02*
X8041253Y-17428150D01*
X8041253Y-17428150D02*
X8012682Y-17428150D01*
X8012682Y-17428150D02*
X7993634Y-17437674D01*
X7993634Y-17437674D02*
X7984110Y-17447198D01*
X8193634Y-17561484D02*
X8174587Y-17551960D01*
X8174587Y-17551960D02*
X8165063Y-17542436D01*
X8165063Y-17542436D02*
X8155539Y-17523389D01*
X8155539Y-17523389D02*
X8155539Y-17466246D01*
X8155539Y-17466246D02*
X8165063Y-17447198D01*
X8165063Y-17447198D02*
X8174587Y-17437674D01*
X8174587Y-17437674D02*
X8193634Y-17428150D01*
X8193634Y-17428150D02*
X8222206Y-17428150D01*
X8222206Y-17428150D02*
X8241253Y-17437674D01*
X8241253Y-17437674D02*
X8250777Y-17447198D01*
X8250777Y-17447198D02*
X8260301Y-17466246D01*
X8260301Y-17466246D02*
X8260301Y-17523389D01*
X8260301Y-17523389D02*
X8250777Y-17542436D01*
X8250777Y-17542436D02*
X8241253Y-17551960D01*
X8241253Y-17551960D02*
X8222206Y-17561484D01*
X8222206Y-17561484D02*
X8193634Y-17561484D01*
X8374587Y-17561484D02*
X8355539Y-17551960D01*
X8355539Y-17551960D02*
X8346015Y-17532912D01*
X8346015Y-17532912D02*
X8346015Y-17361484D01*
X8526968Y-17551960D02*
X8507920Y-17561484D01*
X8507920Y-17561484D02*
X8469825Y-17561484D01*
X8469825Y-17561484D02*
X8450777Y-17551960D01*
X8450777Y-17551960D02*
X8441253Y-17532912D01*
X8441253Y-17532912D02*
X8441253Y-17456722D01*
X8441253Y-17456722D02*
X8450777Y-17437674D01*
X8450777Y-17437674D02*
X8469825Y-17428150D01*
X8469825Y-17428150D02*
X8507920Y-17428150D01*
X8507920Y-17428150D02*
X8526968Y-17437674D01*
X8526968Y-17437674D02*
X8536492Y-17456722D01*
X8536492Y-17456722D02*
X8536492Y-17475770D01*
X8536492Y-17475770D02*
X8441253Y-17494817D01*
X8612682Y-17551960D02*
X8631730Y-17561484D01*
X8631730Y-17561484D02*
X8669825Y-17561484D01*
X8669825Y-17561484D02*
X8688873Y-17551960D01*
X8688873Y-17551960D02*
X8698396Y-17532912D01*
X8698396Y-17532912D02*
X8698396Y-17523389D01*
X8698396Y-17523389D02*
X8688873Y-17504341D01*
X8688873Y-17504341D02*
X8669825Y-17494817D01*
X8669825Y-17494817D02*
X8641253Y-17494817D01*
X8641253Y-17494817D02*
X8622206Y-17485293D01*
X8622206Y-17485293D02*
X8612682Y-17466246D01*
X8612682Y-17466246D02*
X8612682Y-17456722D01*
X8612682Y-17456722D02*
X8622206Y-17437674D01*
X8622206Y-17437674D02*
X8641253Y-17428150D01*
X8641253Y-17428150D02*
X8669825Y-17428150D01*
X8669825Y-17428150D02*
X8688873Y-17437674D01*
X8765063Y-17637674D02*
X8774587Y-17628150D01*
X8774587Y-17628150D02*
X8793634Y-17599579D01*
X8793634Y-17599579D02*
X8803158Y-17580531D01*
X8803158Y-17580531D02*
X8812682Y-17551960D01*
X8812682Y-17551960D02*
X8822206Y-17504341D01*
X8822206Y-17504341D02*
X8822206Y-17466246D01*
X8822206Y-17466246D02*
X8812682Y-17418627D01*
X8812682Y-17418627D02*
X8803158Y-17390055D01*
X8803158Y-17390055D02*
X8793634Y-17371008D01*
X8793634Y-17371008D02*
X8774587Y-17342436D01*
X8774587Y-17342436D02*
X8765063Y-17332912D01*
D14*
X3850000Y-17664000D02*
X3990000Y-17804000D01*
X3990000Y-17664000D02*
X3850000Y-17804000D01*
X3920000Y-17664000D02*
X3920000Y-17804000D01*
X3850000Y-17734000D02*
X3990000Y-17734000D01*
D10*
X4355539Y-17825484D02*
X4241253Y-17825484D01*
X4298396Y-17825484D02*
X4298396Y-17625484D01*
X4298396Y-17625484D02*
X4279348Y-17654055D01*
X4279348Y-17654055D02*
X4260301Y-17673103D01*
X4260301Y-17673103D02*
X4241253Y-17682627D01*
X4441253Y-17806436D02*
X4450777Y-17815960D01*
X4450777Y-17815960D02*
X4441253Y-17825484D01*
X4441253Y-17825484D02*
X4431729Y-17815960D01*
X4431729Y-17815960D02*
X4441253Y-17806436D01*
X4441253Y-17806436D02*
X4441253Y-17825484D01*
X4622205Y-17692150D02*
X4622205Y-17825484D01*
X4574586Y-17615960D02*
X4526967Y-17758817D01*
X4526967Y-17758817D02*
X4650777Y-17758817D01*
X4765063Y-17625484D02*
X4784110Y-17625484D01*
X4784110Y-17625484D02*
X4803158Y-17635008D01*
X4803158Y-17635008D02*
X4812682Y-17644531D01*
X4812682Y-17644531D02*
X4822205Y-17663579D01*
X4822205Y-17663579D02*
X4831729Y-17701674D01*
X4831729Y-17701674D02*
X4831729Y-17749293D01*
X4831729Y-17749293D02*
X4822205Y-17787389D01*
X4822205Y-17787389D02*
X4812682Y-17806436D01*
X4812682Y-17806436D02*
X4803158Y-17815960D01*
X4803158Y-17815960D02*
X4784110Y-17825484D01*
X4784110Y-17825484D02*
X4765063Y-17825484D01*
X4765063Y-17825484D02*
X4746015Y-17815960D01*
X4746015Y-17815960D02*
X4736491Y-17806436D01*
X4736491Y-17806436D02*
X4726967Y-17787389D01*
X4726967Y-17787389D02*
X4717444Y-17749293D01*
X4717444Y-17749293D02*
X4717444Y-17701674D01*
X4717444Y-17701674D02*
X4726967Y-17663579D01*
X4726967Y-17663579D02*
X4736491Y-17644531D01*
X4736491Y-17644531D02*
X4746015Y-17635008D01*
X4746015Y-17635008D02*
X4765063Y-17625484D01*
X4955539Y-17625484D02*
X4974586Y-17625484D01*
X4974586Y-17625484D02*
X4993634Y-17635008D01*
X4993634Y-17635008D02*
X5003158Y-17644531D01*
X5003158Y-17644531D02*
X5012682Y-17663579D01*
X5012682Y-17663579D02*
X5022205Y-17701674D01*
X5022205Y-17701674D02*
X5022205Y-17749293D01*
X5022205Y-17749293D02*
X5012682Y-17787389D01*
X5012682Y-17787389D02*
X5003158Y-17806436D01*
X5003158Y-17806436D02*
X4993634Y-17815960D01*
X4993634Y-17815960D02*
X4974586Y-17825484D01*
X4974586Y-17825484D02*
X4955539Y-17825484D01*
X4955539Y-17825484D02*
X4936491Y-17815960D01*
X4936491Y-17815960D02*
X4926967Y-17806436D01*
X4926967Y-17806436D02*
X4917444Y-17787389D01*
X4917444Y-17787389D02*
X4907920Y-17749293D01*
X4907920Y-17749293D02*
X4907920Y-17701674D01*
X4907920Y-17701674D02*
X4917444Y-17663579D01*
X4917444Y-17663579D02*
X4926967Y-17644531D01*
X4926967Y-17644531D02*
X4936491Y-17635008D01*
X4936491Y-17635008D02*
X4955539Y-17625484D01*
X5107920Y-17825484D02*
X5107920Y-17692150D01*
X5107920Y-17711198D02*
X5117444Y-17701674D01*
X5117444Y-17701674D02*
X5136491Y-17692150D01*
X5136491Y-17692150D02*
X5165063Y-17692150D01*
X5165063Y-17692150D02*
X5184110Y-17701674D01*
X5184110Y-17701674D02*
X5193634Y-17720722D01*
X5193634Y-17720722D02*
X5193634Y-17825484D01*
X5193634Y-17720722D02*
X5203158Y-17701674D01*
X5203158Y-17701674D02*
X5222205Y-17692150D01*
X5222205Y-17692150D02*
X5250777Y-17692150D01*
X5250777Y-17692150D02*
X5269825Y-17701674D01*
X5269825Y-17701674D02*
X5279348Y-17720722D01*
X5279348Y-17720722D02*
X5279348Y-17825484D01*
X5374586Y-17825484D02*
X5374586Y-17692150D01*
X5374586Y-17711198D02*
X5384110Y-17701674D01*
X5384110Y-17701674D02*
X5403158Y-17692150D01*
X5403158Y-17692150D02*
X5431729Y-17692150D01*
X5431729Y-17692150D02*
X5450777Y-17701674D01*
X5450777Y-17701674D02*
X5460301Y-17720722D01*
X5460301Y-17720722D02*
X5460301Y-17825484D01*
X5460301Y-17720722D02*
X5469825Y-17701674D01*
X5469825Y-17701674D02*
X5488872Y-17692150D01*
X5488872Y-17692150D02*
X5517444Y-17692150D01*
X5517444Y-17692150D02*
X5536491Y-17701674D01*
X5536491Y-17701674D02*
X5546015Y-17720722D01*
X5546015Y-17720722D02*
X5546015Y-17825484D01*
X5936491Y-17615960D02*
X5765063Y-17873103D01*
X6193634Y-17625484D02*
X6212682Y-17625484D01*
X6212682Y-17625484D02*
X6231729Y-17635008D01*
X6231729Y-17635008D02*
X6241253Y-17644531D01*
X6241253Y-17644531D02*
X6250777Y-17663579D01*
X6250777Y-17663579D02*
X6260301Y-17701674D01*
X6260301Y-17701674D02*
X6260301Y-17749293D01*
X6260301Y-17749293D02*
X6250777Y-17787389D01*
X6250777Y-17787389D02*
X6241253Y-17806436D01*
X6241253Y-17806436D02*
X6231729Y-17815960D01*
X6231729Y-17815960D02*
X6212682Y-17825484D01*
X6212682Y-17825484D02*
X6193634Y-17825484D01*
X6193634Y-17825484D02*
X6174586Y-17815960D01*
X6174586Y-17815960D02*
X6165063Y-17806436D01*
X6165063Y-17806436D02*
X6155539Y-17787389D01*
X6155539Y-17787389D02*
X6146015Y-17749293D01*
X6146015Y-17749293D02*
X6146015Y-17701674D01*
X6146015Y-17701674D02*
X6155539Y-17663579D01*
X6155539Y-17663579D02*
X6165063Y-17644531D01*
X6165063Y-17644531D02*
X6174586Y-17635008D01*
X6174586Y-17635008D02*
X6193634Y-17625484D01*
X6346015Y-17806436D02*
X6355539Y-17815960D01*
X6355539Y-17815960D02*
X6346015Y-17825484D01*
X6346015Y-17825484D02*
X6336491Y-17815960D01*
X6336491Y-17815960D02*
X6346015Y-17806436D01*
X6346015Y-17806436D02*
X6346015Y-17825484D01*
X6479348Y-17625484D02*
X6498396Y-17625484D01*
X6498396Y-17625484D02*
X6517444Y-17635008D01*
X6517444Y-17635008D02*
X6526967Y-17644531D01*
X6526967Y-17644531D02*
X6536491Y-17663579D01*
X6536491Y-17663579D02*
X6546015Y-17701674D01*
X6546015Y-17701674D02*
X6546015Y-17749293D01*
X6546015Y-17749293D02*
X6536491Y-17787389D01*
X6536491Y-17787389D02*
X6526967Y-17806436D01*
X6526967Y-17806436D02*
X6517444Y-17815960D01*
X6517444Y-17815960D02*
X6498396Y-17825484D01*
X6498396Y-17825484D02*
X6479348Y-17825484D01*
X6479348Y-17825484D02*
X6460301Y-17815960D01*
X6460301Y-17815960D02*
X6450777Y-17806436D01*
X6450777Y-17806436D02*
X6441253Y-17787389D01*
X6441253Y-17787389D02*
X6431729Y-17749293D01*
X6431729Y-17749293D02*
X6431729Y-17701674D01*
X6431729Y-17701674D02*
X6441253Y-17663579D01*
X6441253Y-17663579D02*
X6450777Y-17644531D01*
X6450777Y-17644531D02*
X6460301Y-17635008D01*
X6460301Y-17635008D02*
X6479348Y-17625484D01*
X6726967Y-17625484D02*
X6631729Y-17625484D01*
X6631729Y-17625484D02*
X6622206Y-17720722D01*
X6622206Y-17720722D02*
X6631729Y-17711198D01*
X6631729Y-17711198D02*
X6650777Y-17701674D01*
X6650777Y-17701674D02*
X6698396Y-17701674D01*
X6698396Y-17701674D02*
X6717444Y-17711198D01*
X6717444Y-17711198D02*
X6726967Y-17720722D01*
X6726967Y-17720722D02*
X6736491Y-17739770D01*
X6736491Y-17739770D02*
X6736491Y-17787389D01*
X6736491Y-17787389D02*
X6726967Y-17806436D01*
X6726967Y-17806436D02*
X6717444Y-17815960D01*
X6717444Y-17815960D02*
X6698396Y-17825484D01*
X6698396Y-17825484D02*
X6650777Y-17825484D01*
X6650777Y-17825484D02*
X6631729Y-17815960D01*
X6631729Y-17815960D02*
X6622206Y-17806436D01*
X6917444Y-17625484D02*
X6822206Y-17625484D01*
X6822206Y-17625484D02*
X6812682Y-17720722D01*
X6812682Y-17720722D02*
X6822206Y-17711198D01*
X6822206Y-17711198D02*
X6841253Y-17701674D01*
X6841253Y-17701674D02*
X6888872Y-17701674D01*
X6888872Y-17701674D02*
X6907920Y-17711198D01*
X6907920Y-17711198D02*
X6917444Y-17720722D01*
X6917444Y-17720722D02*
X6926967Y-17739770D01*
X6926967Y-17739770D02*
X6926967Y-17787389D01*
X6926967Y-17787389D02*
X6917444Y-17806436D01*
X6917444Y-17806436D02*
X6907920Y-17815960D01*
X6907920Y-17815960D02*
X6888872Y-17825484D01*
X6888872Y-17825484D02*
X6841253Y-17825484D01*
X6841253Y-17825484D02*
X6822206Y-17815960D01*
X6822206Y-17815960D02*
X6812682Y-17806436D01*
X7117444Y-17825484D02*
X7003158Y-17825484D01*
X7060301Y-17825484D02*
X7060301Y-17625484D01*
X7060301Y-17625484D02*
X7041253Y-17654055D01*
X7041253Y-17654055D02*
X7022206Y-17673103D01*
X7022206Y-17673103D02*
X7003158Y-17682627D01*
X7193634Y-17625484D02*
X7193634Y-17663579D01*
X7269825Y-17625484D02*
X7269825Y-17663579D01*
X7565063Y-17901674D02*
X7555539Y-17892150D01*
X7555539Y-17892150D02*
X7536491Y-17863579D01*
X7536491Y-17863579D02*
X7526968Y-17844531D01*
X7526968Y-17844531D02*
X7517444Y-17815960D01*
X7517444Y-17815960D02*
X7507920Y-17768341D01*
X7507920Y-17768341D02*
X7507920Y-17730246D01*
X7507920Y-17730246D02*
X7517444Y-17682627D01*
X7517444Y-17682627D02*
X7526968Y-17654055D01*
X7526968Y-17654055D02*
X7536491Y-17635008D01*
X7536491Y-17635008D02*
X7555539Y-17606436D01*
X7555539Y-17606436D02*
X7565063Y-17596912D01*
X7631729Y-17644531D02*
X7641253Y-17635008D01*
X7641253Y-17635008D02*
X7660301Y-17625484D01*
X7660301Y-17625484D02*
X7707920Y-17625484D01*
X7707920Y-17625484D02*
X7726968Y-17635008D01*
X7726968Y-17635008D02*
X7736491Y-17644531D01*
X7736491Y-17644531D02*
X7746015Y-17663579D01*
X7746015Y-17663579D02*
X7746015Y-17682627D01*
X7746015Y-17682627D02*
X7736491Y-17711198D01*
X7736491Y-17711198D02*
X7622206Y-17825484D01*
X7622206Y-17825484D02*
X7746015Y-17825484D01*
X7917444Y-17692150D02*
X7917444Y-17825484D01*
X7869825Y-17615960D02*
X7822206Y-17758817D01*
X7822206Y-17758817D02*
X7946015Y-17758817D01*
X8174587Y-17825484D02*
X8174587Y-17625484D01*
X8260301Y-17825484D02*
X8260301Y-17720722D01*
X8260301Y-17720722D02*
X8250777Y-17701674D01*
X8250777Y-17701674D02*
X8231730Y-17692150D01*
X8231730Y-17692150D02*
X8203158Y-17692150D01*
X8203158Y-17692150D02*
X8184110Y-17701674D01*
X8184110Y-17701674D02*
X8174587Y-17711198D01*
X8384110Y-17825484D02*
X8365063Y-17815960D01*
X8365063Y-17815960D02*
X8355539Y-17806436D01*
X8355539Y-17806436D02*
X8346015Y-17787389D01*
X8346015Y-17787389D02*
X8346015Y-17730246D01*
X8346015Y-17730246D02*
X8355539Y-17711198D01*
X8355539Y-17711198D02*
X8365063Y-17701674D01*
X8365063Y-17701674D02*
X8384110Y-17692150D01*
X8384110Y-17692150D02*
X8412682Y-17692150D01*
X8412682Y-17692150D02*
X8431730Y-17701674D01*
X8431730Y-17701674D02*
X8441253Y-17711198D01*
X8441253Y-17711198D02*
X8450777Y-17730246D01*
X8450777Y-17730246D02*
X8450777Y-17787389D01*
X8450777Y-17787389D02*
X8441253Y-17806436D01*
X8441253Y-17806436D02*
X8431730Y-17815960D01*
X8431730Y-17815960D02*
X8412682Y-17825484D01*
X8412682Y-17825484D02*
X8384110Y-17825484D01*
X8565063Y-17825484D02*
X8546015Y-17815960D01*
X8546015Y-17815960D02*
X8536492Y-17796912D01*
X8536492Y-17796912D02*
X8536492Y-17625484D01*
X8717444Y-17815960D02*
X8698396Y-17825484D01*
X8698396Y-17825484D02*
X8660301Y-17825484D01*
X8660301Y-17825484D02*
X8641253Y-17815960D01*
X8641253Y-17815960D02*
X8631730Y-17796912D01*
X8631730Y-17796912D02*
X8631730Y-17720722D01*
X8631730Y-17720722D02*
X8641253Y-17701674D01*
X8641253Y-17701674D02*
X8660301Y-17692150D01*
X8660301Y-17692150D02*
X8698396Y-17692150D01*
X8698396Y-17692150D02*
X8717444Y-17701674D01*
X8717444Y-17701674D02*
X8726968Y-17720722D01*
X8726968Y-17720722D02*
X8726968Y-17739770D01*
X8726968Y-17739770D02*
X8631730Y-17758817D01*
X8803158Y-17815960D02*
X8822206Y-17825484D01*
X8822206Y-17825484D02*
X8860301Y-17825484D01*
X8860301Y-17825484D02*
X8879349Y-17815960D01*
X8879349Y-17815960D02*
X8888873Y-17796912D01*
X8888873Y-17796912D02*
X8888873Y-17787389D01*
X8888873Y-17787389D02*
X8879349Y-17768341D01*
X8879349Y-17768341D02*
X8860301Y-17758817D01*
X8860301Y-17758817D02*
X8831730Y-17758817D01*
X8831730Y-17758817D02*
X8812682Y-17749293D01*
X8812682Y-17749293D02*
X8803158Y-17730246D01*
X8803158Y-17730246D02*
X8803158Y-17720722D01*
X8803158Y-17720722D02*
X8812682Y-17701674D01*
X8812682Y-17701674D02*
X8831730Y-17692150D01*
X8831730Y-17692150D02*
X8860301Y-17692150D01*
X8860301Y-17692150D02*
X8879349Y-17701674D01*
X8955539Y-17901674D02*
X8965063Y-17892150D01*
X8965063Y-17892150D02*
X8984111Y-17863579D01*
X8984111Y-17863579D02*
X8993634Y-17844531D01*
X8993634Y-17844531D02*
X9003158Y-17815960D01*
X9003158Y-17815960D02*
X9012682Y-17768341D01*
X9012682Y-17768341D02*
X9012682Y-17730246D01*
X9012682Y-17730246D02*
X9003158Y-17682627D01*
X9003158Y-17682627D02*
X8993634Y-17654055D01*
X8993634Y-17654055D02*
X8984111Y-17635008D01*
X8984111Y-17635008D02*
X8965063Y-17606436D01*
X8965063Y-17606436D02*
X8955539Y-17596912D01*
D15*
X3840000Y-17923000D02*
X3990000Y-18073000D01*
X3990000Y-17923000D02*
X3840000Y-18073000D01*
X3968033Y-18051034D02*
X3968033Y-17944967D01*
X3861966Y-17944967D01*
X3861966Y-18051034D01*
X3968033Y-18051034D01*
D10*
X4355539Y-18089484D02*
X4241253Y-18089484D01*
X4298396Y-18089484D02*
X4298396Y-17889484D01*
X4298396Y-17889484D02*
X4279348Y-17918055D01*
X4279348Y-17918055D02*
X4260301Y-17937103D01*
X4260301Y-17937103D02*
X4241253Y-17946627D01*
X4441253Y-18070436D02*
X4450777Y-18079960D01*
X4450777Y-18079960D02*
X4441253Y-18089484D01*
X4441253Y-18089484D02*
X4431729Y-18079960D01*
X4431729Y-18079960D02*
X4441253Y-18070436D01*
X4441253Y-18070436D02*
X4441253Y-18089484D01*
X4631729Y-17889484D02*
X4536491Y-17889484D01*
X4536491Y-17889484D02*
X4526967Y-17984722D01*
X4526967Y-17984722D02*
X4536491Y-17975198D01*
X4536491Y-17975198D02*
X4555539Y-17965674D01*
X4555539Y-17965674D02*
X4603158Y-17965674D01*
X4603158Y-17965674D02*
X4622205Y-17975198D01*
X4622205Y-17975198D02*
X4631729Y-17984722D01*
X4631729Y-17984722D02*
X4641253Y-18003770D01*
X4641253Y-18003770D02*
X4641253Y-18051389D01*
X4641253Y-18051389D02*
X4631729Y-18070436D01*
X4631729Y-18070436D02*
X4622205Y-18079960D01*
X4622205Y-18079960D02*
X4603158Y-18089484D01*
X4603158Y-18089484D02*
X4555539Y-18089484D01*
X4555539Y-18089484D02*
X4536491Y-18079960D01*
X4536491Y-18079960D02*
X4526967Y-18070436D01*
X4765063Y-17889484D02*
X4784110Y-17889484D01*
X4784110Y-17889484D02*
X4803158Y-17899008D01*
X4803158Y-17899008D02*
X4812682Y-17908531D01*
X4812682Y-17908531D02*
X4822205Y-17927579D01*
X4822205Y-17927579D02*
X4831729Y-17965674D01*
X4831729Y-17965674D02*
X4831729Y-18013293D01*
X4831729Y-18013293D02*
X4822205Y-18051389D01*
X4822205Y-18051389D02*
X4812682Y-18070436D01*
X4812682Y-18070436D02*
X4803158Y-18079960D01*
X4803158Y-18079960D02*
X4784110Y-18089484D01*
X4784110Y-18089484D02*
X4765063Y-18089484D01*
X4765063Y-18089484D02*
X4746015Y-18079960D01*
X4746015Y-18079960D02*
X4736491Y-18070436D01*
X4736491Y-18070436D02*
X4726967Y-18051389D01*
X4726967Y-18051389D02*
X4717444Y-18013293D01*
X4717444Y-18013293D02*
X4717444Y-17965674D01*
X4717444Y-17965674D02*
X4726967Y-17927579D01*
X4726967Y-17927579D02*
X4736491Y-17908531D01*
X4736491Y-17908531D02*
X4746015Y-17899008D01*
X4746015Y-17899008D02*
X4765063Y-17889484D01*
X4955539Y-17889484D02*
X4974586Y-17889484D01*
X4974586Y-17889484D02*
X4993634Y-17899008D01*
X4993634Y-17899008D02*
X5003158Y-17908531D01*
X5003158Y-17908531D02*
X5012682Y-17927579D01*
X5012682Y-17927579D02*
X5022205Y-17965674D01*
X5022205Y-17965674D02*
X5022205Y-18013293D01*
X5022205Y-18013293D02*
X5012682Y-18051389D01*
X5012682Y-18051389D02*
X5003158Y-18070436D01*
X5003158Y-18070436D02*
X4993634Y-18079960D01*
X4993634Y-18079960D02*
X4974586Y-18089484D01*
X4974586Y-18089484D02*
X4955539Y-18089484D01*
X4955539Y-18089484D02*
X4936491Y-18079960D01*
X4936491Y-18079960D02*
X4926967Y-18070436D01*
X4926967Y-18070436D02*
X4917444Y-18051389D01*
X4917444Y-18051389D02*
X4907920Y-18013293D01*
X4907920Y-18013293D02*
X4907920Y-17965674D01*
X4907920Y-17965674D02*
X4917444Y-17927579D01*
X4917444Y-17927579D02*
X4926967Y-17908531D01*
X4926967Y-17908531D02*
X4936491Y-17899008D01*
X4936491Y-17899008D02*
X4955539Y-17889484D01*
X5107920Y-18089484D02*
X5107920Y-17956150D01*
X5107920Y-17975198D02*
X5117444Y-17965674D01*
X5117444Y-17965674D02*
X5136491Y-17956150D01*
X5136491Y-17956150D02*
X5165063Y-17956150D01*
X5165063Y-17956150D02*
X5184110Y-17965674D01*
X5184110Y-17965674D02*
X5193634Y-17984722D01*
X5193634Y-17984722D02*
X5193634Y-18089484D01*
X5193634Y-17984722D02*
X5203158Y-17965674D01*
X5203158Y-17965674D02*
X5222205Y-17956150D01*
X5222205Y-17956150D02*
X5250777Y-17956150D01*
X5250777Y-17956150D02*
X5269825Y-17965674D01*
X5269825Y-17965674D02*
X5279348Y-17984722D01*
X5279348Y-17984722D02*
X5279348Y-18089484D01*
X5374586Y-18089484D02*
X5374586Y-17956150D01*
X5374586Y-17975198D02*
X5384110Y-17965674D01*
X5384110Y-17965674D02*
X5403158Y-17956150D01*
X5403158Y-17956150D02*
X5431729Y-17956150D01*
X5431729Y-17956150D02*
X5450777Y-17965674D01*
X5450777Y-17965674D02*
X5460301Y-17984722D01*
X5460301Y-17984722D02*
X5460301Y-18089484D01*
X5460301Y-17984722D02*
X5469825Y-17965674D01*
X5469825Y-17965674D02*
X5488872Y-17956150D01*
X5488872Y-17956150D02*
X5517444Y-17956150D01*
X5517444Y-17956150D02*
X5536491Y-17965674D01*
X5536491Y-17965674D02*
X5546015Y-17984722D01*
X5546015Y-17984722D02*
X5546015Y-18089484D01*
X5936491Y-17879960D02*
X5765063Y-18137103D01*
X6193634Y-17889484D02*
X6212682Y-17889484D01*
X6212682Y-17889484D02*
X6231729Y-17899008D01*
X6231729Y-17899008D02*
X6241253Y-17908531D01*
X6241253Y-17908531D02*
X6250777Y-17927579D01*
X6250777Y-17927579D02*
X6260301Y-17965674D01*
X6260301Y-17965674D02*
X6260301Y-18013293D01*
X6260301Y-18013293D02*
X6250777Y-18051389D01*
X6250777Y-18051389D02*
X6241253Y-18070436D01*
X6241253Y-18070436D02*
X6231729Y-18079960D01*
X6231729Y-18079960D02*
X6212682Y-18089484D01*
X6212682Y-18089484D02*
X6193634Y-18089484D01*
X6193634Y-18089484D02*
X6174586Y-18079960D01*
X6174586Y-18079960D02*
X6165063Y-18070436D01*
X6165063Y-18070436D02*
X6155539Y-18051389D01*
X6155539Y-18051389D02*
X6146015Y-18013293D01*
X6146015Y-18013293D02*
X6146015Y-17965674D01*
X6146015Y-17965674D02*
X6155539Y-17927579D01*
X6155539Y-17927579D02*
X6165063Y-17908531D01*
X6165063Y-17908531D02*
X6174586Y-17899008D01*
X6174586Y-17899008D02*
X6193634Y-17889484D01*
X6346015Y-18070436D02*
X6355539Y-18079960D01*
X6355539Y-18079960D02*
X6346015Y-18089484D01*
X6346015Y-18089484D02*
X6336491Y-18079960D01*
X6336491Y-18079960D02*
X6346015Y-18070436D01*
X6346015Y-18070436D02*
X6346015Y-18089484D01*
X6479348Y-17889484D02*
X6498396Y-17889484D01*
X6498396Y-17889484D02*
X6517444Y-17899008D01*
X6517444Y-17899008D02*
X6526967Y-17908531D01*
X6526967Y-17908531D02*
X6536491Y-17927579D01*
X6536491Y-17927579D02*
X6546015Y-17965674D01*
X6546015Y-17965674D02*
X6546015Y-18013293D01*
X6546015Y-18013293D02*
X6536491Y-18051389D01*
X6536491Y-18051389D02*
X6526967Y-18070436D01*
X6526967Y-18070436D02*
X6517444Y-18079960D01*
X6517444Y-18079960D02*
X6498396Y-18089484D01*
X6498396Y-18089484D02*
X6479348Y-18089484D01*
X6479348Y-18089484D02*
X6460301Y-18079960D01*
X6460301Y-18079960D02*
X6450777Y-18070436D01*
X6450777Y-18070436D02*
X6441253Y-18051389D01*
X6441253Y-18051389D02*
X6431729Y-18013293D01*
X6431729Y-18013293D02*
X6431729Y-17965674D01*
X6431729Y-17965674D02*
X6441253Y-17927579D01*
X6441253Y-17927579D02*
X6450777Y-17908531D01*
X6450777Y-17908531D02*
X6460301Y-17899008D01*
X6460301Y-17899008D02*
X6479348Y-17889484D01*
X6726967Y-17889484D02*
X6631729Y-17889484D01*
X6631729Y-17889484D02*
X6622206Y-17984722D01*
X6622206Y-17984722D02*
X6631729Y-17975198D01*
X6631729Y-17975198D02*
X6650777Y-17965674D01*
X6650777Y-17965674D02*
X6698396Y-17965674D01*
X6698396Y-17965674D02*
X6717444Y-17975198D01*
X6717444Y-17975198D02*
X6726967Y-17984722D01*
X6726967Y-17984722D02*
X6736491Y-18003770D01*
X6736491Y-18003770D02*
X6736491Y-18051389D01*
X6736491Y-18051389D02*
X6726967Y-18070436D01*
X6726967Y-18070436D02*
X6717444Y-18079960D01*
X6717444Y-18079960D02*
X6698396Y-18089484D01*
X6698396Y-18089484D02*
X6650777Y-18089484D01*
X6650777Y-18089484D02*
X6631729Y-18079960D01*
X6631729Y-18079960D02*
X6622206Y-18070436D01*
X6831729Y-18089484D02*
X6869825Y-18089484D01*
X6869825Y-18089484D02*
X6888872Y-18079960D01*
X6888872Y-18079960D02*
X6898396Y-18070436D01*
X6898396Y-18070436D02*
X6917444Y-18041865D01*
X6917444Y-18041865D02*
X6926967Y-18003770D01*
X6926967Y-18003770D02*
X6926967Y-17927579D01*
X6926967Y-17927579D02*
X6917444Y-17908531D01*
X6917444Y-17908531D02*
X6907920Y-17899008D01*
X6907920Y-17899008D02*
X6888872Y-17889484D01*
X6888872Y-17889484D02*
X6850777Y-17889484D01*
X6850777Y-17889484D02*
X6831729Y-17899008D01*
X6831729Y-17899008D02*
X6822206Y-17908531D01*
X6822206Y-17908531D02*
X6812682Y-17927579D01*
X6812682Y-17927579D02*
X6812682Y-17975198D01*
X6812682Y-17975198D02*
X6822206Y-17994246D01*
X6822206Y-17994246D02*
X6831729Y-18003770D01*
X6831729Y-18003770D02*
X6850777Y-18013293D01*
X6850777Y-18013293D02*
X6888872Y-18013293D01*
X6888872Y-18013293D02*
X6907920Y-18003770D01*
X6907920Y-18003770D02*
X6917444Y-17994246D01*
X6917444Y-17994246D02*
X6926967Y-17975198D01*
X7117444Y-18089484D02*
X7003158Y-18089484D01*
X7060301Y-18089484D02*
X7060301Y-17889484D01*
X7060301Y-17889484D02*
X7041253Y-17918055D01*
X7041253Y-17918055D02*
X7022206Y-17937103D01*
X7022206Y-17937103D02*
X7003158Y-17946627D01*
X7193634Y-17889484D02*
X7193634Y-17927579D01*
X7269825Y-17889484D02*
X7269825Y-17927579D01*
X7565063Y-18165674D02*
X7555539Y-18156150D01*
X7555539Y-18156150D02*
X7536491Y-18127579D01*
X7536491Y-18127579D02*
X7526968Y-18108531D01*
X7526968Y-18108531D02*
X7517444Y-18079960D01*
X7517444Y-18079960D02*
X7507920Y-18032341D01*
X7507920Y-18032341D02*
X7507920Y-17994246D01*
X7507920Y-17994246D02*
X7517444Y-17946627D01*
X7517444Y-17946627D02*
X7526968Y-17918055D01*
X7526968Y-17918055D02*
X7536491Y-17899008D01*
X7536491Y-17899008D02*
X7555539Y-17870436D01*
X7555539Y-17870436D02*
X7565063Y-17860912D01*
X7631729Y-17908531D02*
X7641253Y-17899008D01*
X7641253Y-17899008D02*
X7660301Y-17889484D01*
X7660301Y-17889484D02*
X7707920Y-17889484D01*
X7707920Y-17889484D02*
X7726968Y-17899008D01*
X7726968Y-17899008D02*
X7736491Y-17908531D01*
X7736491Y-17908531D02*
X7746015Y-17927579D01*
X7746015Y-17927579D02*
X7746015Y-17946627D01*
X7746015Y-17946627D02*
X7736491Y-17975198D01*
X7736491Y-17975198D02*
X7622206Y-18089484D01*
X7622206Y-18089484D02*
X7746015Y-18089484D01*
X7984110Y-18089484D02*
X7984110Y-17889484D01*
X8069825Y-18089484D02*
X8069825Y-17984722D01*
X8069825Y-17984722D02*
X8060301Y-17965674D01*
X8060301Y-17965674D02*
X8041253Y-17956150D01*
X8041253Y-17956150D02*
X8012682Y-17956150D01*
X8012682Y-17956150D02*
X7993634Y-17965674D01*
X7993634Y-17965674D02*
X7984110Y-17975198D01*
X8193634Y-18089484D02*
X8174587Y-18079960D01*
X8174587Y-18079960D02*
X8165063Y-18070436D01*
X8165063Y-18070436D02*
X8155539Y-18051389D01*
X8155539Y-18051389D02*
X8155539Y-17994246D01*
X8155539Y-17994246D02*
X8165063Y-17975198D01*
X8165063Y-17975198D02*
X8174587Y-17965674D01*
X8174587Y-17965674D02*
X8193634Y-17956150D01*
X8193634Y-17956150D02*
X8222206Y-17956150D01*
X8222206Y-17956150D02*
X8241253Y-17965674D01*
X8241253Y-17965674D02*
X8250777Y-17975198D01*
X8250777Y-17975198D02*
X8260301Y-17994246D01*
X8260301Y-17994246D02*
X8260301Y-18051389D01*
X8260301Y-18051389D02*
X8250777Y-18070436D01*
X8250777Y-18070436D02*
X8241253Y-18079960D01*
X8241253Y-18079960D02*
X8222206Y-18089484D01*
X8222206Y-18089484D02*
X8193634Y-18089484D01*
X8374587Y-18089484D02*
X8355539Y-18079960D01*
X8355539Y-18079960D02*
X8346015Y-18060912D01*
X8346015Y-18060912D02*
X8346015Y-17889484D01*
X8526968Y-18079960D02*
X8507920Y-18089484D01*
X8507920Y-18089484D02*
X8469825Y-18089484D01*
X8469825Y-18089484D02*
X8450777Y-18079960D01*
X8450777Y-18079960D02*
X8441253Y-18060912D01*
X8441253Y-18060912D02*
X8441253Y-17984722D01*
X8441253Y-17984722D02*
X8450777Y-17965674D01*
X8450777Y-17965674D02*
X8469825Y-17956150D01*
X8469825Y-17956150D02*
X8507920Y-17956150D01*
X8507920Y-17956150D02*
X8526968Y-17965674D01*
X8526968Y-17965674D02*
X8536492Y-17984722D01*
X8536492Y-17984722D02*
X8536492Y-18003770D01*
X8536492Y-18003770D02*
X8441253Y-18022817D01*
X8612682Y-18079960D02*
X8631730Y-18089484D01*
X8631730Y-18089484D02*
X8669825Y-18089484D01*
X8669825Y-18089484D02*
X8688873Y-18079960D01*
X8688873Y-18079960D02*
X8698396Y-18060912D01*
X8698396Y-18060912D02*
X8698396Y-18051389D01*
X8698396Y-18051389D02*
X8688873Y-18032341D01*
X8688873Y-18032341D02*
X8669825Y-18022817D01*
X8669825Y-18022817D02*
X8641253Y-18022817D01*
X8641253Y-18022817D02*
X8622206Y-18013293D01*
X8622206Y-18013293D02*
X8612682Y-17994246D01*
X8612682Y-17994246D02*
X8612682Y-17984722D01*
X8612682Y-17984722D02*
X8622206Y-17965674D01*
X8622206Y-17965674D02*
X8641253Y-17956150D01*
X8641253Y-17956150D02*
X8669825Y-17956150D01*
X8669825Y-17956150D02*
X8688873Y-17965674D01*
X8765063Y-18165674D02*
X8774587Y-18156150D01*
X8774587Y-18156150D02*
X8793634Y-18127579D01*
X8793634Y-18127579D02*
X8803158Y-18108531D01*
X8803158Y-18108531D02*
X8812682Y-18079960D01*
X8812682Y-18079960D02*
X8822206Y-18032341D01*
X8822206Y-18032341D02*
X8822206Y-17994246D01*
X8822206Y-17994246D02*
X8812682Y-17946627D01*
X8812682Y-17946627D02*
X8803158Y-17918055D01*
X8803158Y-17918055D02*
X8793634Y-17899008D01*
X8793634Y-17899008D02*
X8774587Y-17870436D01*
X8774587Y-17870436D02*
X8765063Y-17860912D01*
M02*
