M48
; DRILL file {KiCad 8.0.4} date 2024-11-12T11:54:45+0700
; FORMAT={-:-/ absolute / metric / decimal}
; #@! TF.CreationDate,2024-11-12T11:54:45+07:00
; #@! TF.GenerationSoftware,Kicad,Pcbnew,8.0.4
; #@! TF.FileFunction,Plated,1,2,PTH
FMAT,2
METRIC
; #@! TA.AperFunction,Plated,PTH,ViaDrill
T1C0.400
; #@! TA.AperFunction,Plated,PTH,ViaDrill
T2C0.600
; #@! TA.AperFunction,Plated,PTH,ComponentDrill
T3C0.800
; #@! TA.AperFunction,Plated,PTH,ComponentDrill
T4C1.000
; #@! TA.AperFunction,Plated,PTH,ComponentDrill
T5C1.100
; #@! TA.AperFunction,Plated,PTH,ComponentDrill
T6C1.300
; #@! TA.AperFunction,Plated,PTH,ComponentDrill
T7C1.400
; #@! TA.AperFunction,Plated,PTH,ComponentDrill
T8C1.500
%
G90
G05
T1
X45.4Y-59.6
X46.4Y-59.1
X47.3Y-90.9
X47.8Y-58.5
X49.6Y-62.3
X55.2Y-54.2
X55.4Y-59.4
X55.4Y-68.4
X59.0Y-105.3
X59.4Y-119.4
X63.4Y-108.0
X63.6Y-101.0
X63.7Y-112.5
X65.0Y-137.4
X67.6Y-110.6
X67.6Y-114.3
X69.8Y-136.7
X72.1Y-137.4
X73.0Y-113.0
X73.4Y-119.0
X76.8Y-110.7
X77.6Y-108.2
X77.8Y-105.6
X78.6Y-79.5
X82.0Y-71.3
X83.0Y-80.2
X83.8Y-58.0
X83.8Y-62.6
X84.1Y-71.3
X84.1Y-76.2
X84.4Y-101.3
X85.7Y-76.2
X85.7Y-80.4
X85.7Y-101.3
X86.9Y-101.3
X86.9Y-116.9
X87.0Y-80.4
X88.3Y-80.4
X89.5Y-80.4
X89.5Y-101.3
X89.5Y-112.185
X89.5Y-116.9
X90.7Y-97.1
X90.8Y-80.4
X90.8Y-101.3
X90.8Y-114.4
X93.3Y-97.1
X94.6Y-80.2
X95.9Y-80.2
X96.3Y-90.6
X97.1Y-97.1
X97.9Y-90.6
X98.3Y-57.2
X99.1Y-60.6
X99.1Y-61.9
X99.1Y-64.4
X99.1Y-65.7
X104.8Y-97.2
X105.8Y-73.5
T2
X58.0Y-127.2
X60.8Y-79.2
X68.6Y-127.2
X69.8Y-152.4
X72.5Y-124.2
X73.0Y-82.5
X74.9Y-71.8
X75.0Y-69.2
X76.0Y-81.7
X76.3Y-102.2
X79.8Y-128.1
X83.3Y-123.4
X85.7Y-113.3
X92.0Y-111.1
X92.1Y-84.6
X99.0Y-74.6
X104.2Y-57.0
T3
X47.1Y-142.7
X52.1Y-142.7
X55.877Y-90.959
X63.497Y-90.959
X65.99Y-102.8
X71.2Y-59.48
X71.2Y-67.1
X73.61Y-102.8
X73.74Y-59.48
X73.74Y-67.1
X76.28Y-59.48
X76.28Y-67.1
X78.82Y-59.48
X78.82Y-67.1
X79.5Y-105.59
X79.5Y-113.21
T4
X44.2Y-104.1
X50.2Y-137.7
X56.2Y-137.7
X62.2Y-104.1
T5
X90.805Y-122.535
X90.805Y-142.855
X93.345Y-122.535
X93.345Y-142.855
X95.885Y-122.535
X95.885Y-142.855
X98.425Y-122.535
X98.425Y-142.855
X100.965Y-122.535
X100.965Y-142.855
X103.505Y-122.535
X103.505Y-142.855
T6
X49.789Y-83.0
X69.789Y-83.0
T7
X47.06Y-41.777
X47.06Y-148.123
X52.14Y-41.777
X52.14Y-148.123
X57.22Y-41.777
X57.22Y-148.123
X62.3Y-41.777
X62.3Y-148.123
X67.38Y-41.777
X67.38Y-148.123
X72.46Y-41.777
X72.46Y-148.123
X77.54Y-41.777
X77.54Y-148.123
X82.62Y-41.777
X82.62Y-148.123
X87.7Y-41.777
X87.7Y-148.123
X92.78Y-41.777
X92.78Y-148.123
X97.86Y-41.777
X97.86Y-148.123
X102.94Y-41.777
X102.94Y-148.123
T8
X107.465Y-126.245
X107.465Y-139.153
M30
