G04 #@! TF.GenerationSoftware,KiCad,Pcbnew,8.0.4*
G04 #@! TF.CreationDate,2024-11-14T12:53:51+07:00*
G04 #@! TF.ProjectId,Ver04,56657230-342e-46b6-9963-61645f706362,rev?*
G04 #@! TF.SameCoordinates,Original*
G04 #@! TF.FileFunction,Legend,Bot*
G04 #@! TF.FilePolarity,Positive*
%FSLAX46Y46*%
G04 Gerber Fmt 4.6, Leading zero omitted, Abs format (unit mm)*
G04 Created by KiCad (PCBNEW 8.0.4) date 2024-11-14 12:53:51*
%MOMM*%
%LPD*%
G01*
G04 APERTURE LIST*
G04 Aperture macros list*
%AMRoundRect*
0 Rectangle with rounded corners*
0 $1 Rounding radius*
0 $2 $3 $4 $5 $6 $7 $8 $9 X,Y pos of 4 corners*
0 Add a 4 corners polygon primitive as box body*
4,1,4,$2,$3,$4,$5,$6,$7,$8,$9,$2,$3,0*
0 Add four circle primitives for the rounded corners*
1,1,$1+$1,$2,$3*
1,1,$1+$1,$4,$5*
1,1,$1+$1,$6,$7*
1,1,$1+$1,$8,$9*
0 Add four rect primitives between the rounded corners*
20,1,$1+$1,$2,$3,$4,$5,0*
20,1,$1+$1,$4,$5,$6,$7,0*
20,1,$1+$1,$6,$7,$8,$9,0*
20,1,$1+$1,$8,$9,$2,$3,0*%
G04 Aperture macros list end*
%ADD10C,0.150000*%
%ADD11C,0.120000*%
%ADD12C,0.127000*%
%ADD13C,0.200000*%
%ADD14C,0.400000*%
%ADD15C,0.203200*%
%ADD16R,1.600000X1.600000*%
%ADD17O,1.600000X1.600000*%
%ADD18R,2.100000X2.100000*%
%ADD19C,2.100000*%
%ADD20C,2.200000*%
%ADD21C,3.200000*%
%ADD22C,1.000000*%
%ADD23RoundRect,0.102000X0.750000X-0.750000X0.750000X0.750000X-0.750000X0.750000X-0.750000X-0.750000X0*%
%ADD24C,1.704000*%
%ADD25RoundRect,0.249999X-0.790001X-1.550001X0.790001X-1.550001X0.790001X1.550001X-0.790001X1.550001X0*%
%ADD26O,2.080000X3.600000*%
%ADD27C,0.900000*%
%ADD28RoundRect,0.249999X0.790001X1.550001X-0.790001X1.550001X-0.790001X-1.550001X0.790001X-1.550001X0*%
%ADD29C,1.600000*%
%ADD30RoundRect,0.250000X-1.450000X0.400000X-1.450000X-0.400000X1.450000X-0.400000X1.450000X0.400000X0*%
%ADD31RoundRect,0.250000X-0.450000X0.350000X-0.450000X-0.350000X0.450000X-0.350000X0.450000X0.350000X0*%
%ADD32RoundRect,0.250000X0.450000X-0.262500X0.450000X0.262500X-0.450000X0.262500X-0.450000X-0.262500X0*%
%ADD33RoundRect,0.250000X-0.625000X0.400000X-0.625000X-0.400000X0.625000X-0.400000X0.625000X0.400000X0*%
%ADD34RoundRect,0.250000X0.250000X0.475000X-0.250000X0.475000X-0.250000X-0.475000X0.250000X-0.475000X0*%
%ADD35RoundRect,0.150000X-0.150000X0.825000X-0.150000X-0.825000X0.150000X-0.825000X0.150000X0.825000X0*%
%ADD36RoundRect,0.250000X0.262500X0.450000X-0.262500X0.450000X-0.262500X-0.450000X0.262500X-0.450000X0*%
%ADD37RoundRect,0.150000X-0.150000X0.587500X-0.150000X-0.587500X0.150000X-0.587500X0.150000X0.587500X0*%
%ADD38RoundRect,0.250000X0.350000X0.450000X-0.350000X0.450000X-0.350000X-0.450000X0.350000X-0.450000X0*%
%ADD39RoundRect,0.250000X-0.450000X0.262500X-0.450000X-0.262500X0.450000X-0.262500X0.450000X0.262500X0*%
%ADD40RoundRect,0.150000X0.850000X0.150000X-0.850000X0.150000X-0.850000X-0.150000X0.850000X-0.150000X0*%
%ADD41RoundRect,0.041300X-0.253700X0.983700X-0.253700X-0.983700X0.253700X-0.983700X0.253700X0.983700X0*%
%ADD42R,1.780000X1.500000*%
%ADD43R,2.200000X0.600000*%
%ADD44RoundRect,0.250000X-0.475000X0.337500X-0.475000X-0.337500X0.475000X-0.337500X0.475000X0.337500X0*%
%ADD45RoundRect,0.200000X0.750000X0.200000X-0.750000X0.200000X-0.750000X-0.200000X0.750000X-0.200000X0*%
%ADD46RoundRect,0.250000X0.625000X-0.400000X0.625000X0.400000X-0.625000X0.400000X-0.625000X-0.400000X0*%
%ADD47RoundRect,0.250000X0.450000X-0.350000X0.450000X0.350000X-0.450000X0.350000X-0.450000X-0.350000X0*%
%ADD48RoundRect,0.150000X0.825000X0.150000X-0.825000X0.150000X-0.825000X-0.150000X0.825000X-0.150000X0*%
%ADD49RoundRect,0.250000X-0.337500X-0.475000X0.337500X-0.475000X0.337500X0.475000X-0.337500X0.475000X0*%
%ADD50RoundRect,0.250000X0.475000X-0.337500X0.475000X0.337500X-0.475000X0.337500X-0.475000X-0.337500X0*%
G04 APERTURE END LIST*
D10*
X44233333Y-144254819D02*
X44233333Y-144969104D01*
X44233333Y-144969104D02*
X44280952Y-145111961D01*
X44280952Y-145111961D02*
X44376190Y-145207200D01*
X44376190Y-145207200D02*
X44519047Y-145254819D01*
X44519047Y-145254819D02*
X44614285Y-145254819D01*
X43852380Y-144254819D02*
X43233333Y-144254819D01*
X43233333Y-144254819D02*
X43566666Y-144635771D01*
X43566666Y-144635771D02*
X43423809Y-144635771D01*
X43423809Y-144635771D02*
X43328571Y-144683390D01*
X43328571Y-144683390D02*
X43280952Y-144731009D01*
X43280952Y-144731009D02*
X43233333Y-144826247D01*
X43233333Y-144826247D02*
X43233333Y-145064342D01*
X43233333Y-145064342D02*
X43280952Y-145159580D01*
X43280952Y-145159580D02*
X43328571Y-145207200D01*
X43328571Y-145207200D02*
X43423809Y-145254819D01*
X43423809Y-145254819D02*
X43709523Y-145254819D01*
X43709523Y-145254819D02*
X43804761Y-145207200D01*
X43804761Y-145207200D02*
X43852380Y-145159580D01*
X67609523Y-137406009D02*
X67942856Y-137406009D01*
X67942856Y-137929819D02*
X67942856Y-136929819D01*
X67942856Y-136929819D02*
X67466666Y-136929819D01*
X66561904Y-137929819D02*
X67133332Y-137929819D01*
X66847618Y-137929819D02*
X66847618Y-136929819D01*
X66847618Y-136929819D02*
X66942856Y-137072676D01*
X66942856Y-137072676D02*
X67038094Y-137167914D01*
X67038094Y-137167914D02*
X67133332Y-137215533D01*
X65942856Y-136929819D02*
X65847618Y-136929819D01*
X65847618Y-136929819D02*
X65752380Y-136977438D01*
X65752380Y-136977438D02*
X65704761Y-137025057D01*
X65704761Y-137025057D02*
X65657142Y-137120295D01*
X65657142Y-137120295D02*
X65609523Y-137310771D01*
X65609523Y-137310771D02*
X65609523Y-137548866D01*
X65609523Y-137548866D02*
X65657142Y-137739342D01*
X65657142Y-137739342D02*
X65704761Y-137834580D01*
X65704761Y-137834580D02*
X65752380Y-137882200D01*
X65752380Y-137882200D02*
X65847618Y-137929819D01*
X65847618Y-137929819D02*
X65942856Y-137929819D01*
X65942856Y-137929819D02*
X66038094Y-137882200D01*
X66038094Y-137882200D02*
X66085713Y-137834580D01*
X66085713Y-137834580D02*
X66133332Y-137739342D01*
X66133332Y-137739342D02*
X66180951Y-137548866D01*
X66180951Y-137548866D02*
X66180951Y-137310771D01*
X66180951Y-137310771D02*
X66133332Y-137120295D01*
X66133332Y-137120295D02*
X66085713Y-137025057D01*
X66085713Y-137025057D02*
X66038094Y-136977438D01*
X66038094Y-136977438D02*
X65942856Y-136929819D01*
X77709523Y-137406009D02*
X78042856Y-137406009D01*
X78042856Y-137929819D02*
X78042856Y-136929819D01*
X78042856Y-136929819D02*
X77566666Y-136929819D01*
X76661904Y-137929819D02*
X77233332Y-137929819D01*
X76947618Y-137929819D02*
X76947618Y-136929819D01*
X76947618Y-136929819D02*
X77042856Y-137072676D01*
X77042856Y-137072676D02*
X77138094Y-137167914D01*
X77138094Y-137167914D02*
X77233332Y-137215533D01*
X76280951Y-137025057D02*
X76233332Y-136977438D01*
X76233332Y-136977438D02*
X76138094Y-136929819D01*
X76138094Y-136929819D02*
X75899999Y-136929819D01*
X75899999Y-136929819D02*
X75804761Y-136977438D01*
X75804761Y-136977438D02*
X75757142Y-137025057D01*
X75757142Y-137025057D02*
X75709523Y-137120295D01*
X75709523Y-137120295D02*
X75709523Y-137215533D01*
X75709523Y-137215533D02*
X75757142Y-137358390D01*
X75757142Y-137358390D02*
X76328570Y-137929819D01*
X76328570Y-137929819D02*
X75709523Y-137929819D01*
X64804819Y-116157142D02*
X64328628Y-115823809D01*
X64804819Y-115585714D02*
X63804819Y-115585714D01*
X63804819Y-115585714D02*
X63804819Y-115966666D01*
X63804819Y-115966666D02*
X63852438Y-116061904D01*
X63852438Y-116061904D02*
X63900057Y-116109523D01*
X63900057Y-116109523D02*
X63995295Y-116157142D01*
X63995295Y-116157142D02*
X64138152Y-116157142D01*
X64138152Y-116157142D02*
X64233390Y-116109523D01*
X64233390Y-116109523D02*
X64281009Y-116061904D01*
X64281009Y-116061904D02*
X64328628Y-115966666D01*
X64328628Y-115966666D02*
X64328628Y-115585714D01*
X64138152Y-117014285D02*
X64804819Y-117014285D01*
X63757200Y-116776190D02*
X64471485Y-116538095D01*
X64471485Y-116538095D02*
X64471485Y-117157142D01*
X64804819Y-118061904D02*
X64804819Y-117490476D01*
X64804819Y-117776190D02*
X63804819Y-117776190D01*
X63804819Y-117776190D02*
X63947676Y-117680952D01*
X63947676Y-117680952D02*
X64042914Y-117585714D01*
X64042914Y-117585714D02*
X64090533Y-117490476D01*
X69066666Y-72442319D02*
X69399999Y-71966128D01*
X69638094Y-72442319D02*
X69638094Y-71442319D01*
X69638094Y-71442319D02*
X69257142Y-71442319D01*
X69257142Y-71442319D02*
X69161904Y-71489938D01*
X69161904Y-71489938D02*
X69114285Y-71537557D01*
X69114285Y-71537557D02*
X69066666Y-71632795D01*
X69066666Y-71632795D02*
X69066666Y-71775652D01*
X69066666Y-71775652D02*
X69114285Y-71870890D01*
X69114285Y-71870890D02*
X69161904Y-71918509D01*
X69161904Y-71918509D02*
X69257142Y-71966128D01*
X69257142Y-71966128D02*
X69638094Y-71966128D01*
X68161904Y-71442319D02*
X68638094Y-71442319D01*
X68638094Y-71442319D02*
X68685713Y-71918509D01*
X68685713Y-71918509D02*
X68638094Y-71870890D01*
X68638094Y-71870890D02*
X68542856Y-71823271D01*
X68542856Y-71823271D02*
X68304761Y-71823271D01*
X68304761Y-71823271D02*
X68209523Y-71870890D01*
X68209523Y-71870890D02*
X68161904Y-71918509D01*
X68161904Y-71918509D02*
X68114285Y-72013747D01*
X68114285Y-72013747D02*
X68114285Y-72251842D01*
X68114285Y-72251842D02*
X68161904Y-72347080D01*
X68161904Y-72347080D02*
X68209523Y-72394700D01*
X68209523Y-72394700D02*
X68304761Y-72442319D01*
X68304761Y-72442319D02*
X68542856Y-72442319D01*
X68542856Y-72442319D02*
X68638094Y-72394700D01*
X68638094Y-72394700D02*
X68685713Y-72347080D01*
X75634819Y-133557142D02*
X75158628Y-133223809D01*
X75634819Y-132985714D02*
X74634819Y-132985714D01*
X74634819Y-132985714D02*
X74634819Y-133366666D01*
X74634819Y-133366666D02*
X74682438Y-133461904D01*
X74682438Y-133461904D02*
X74730057Y-133509523D01*
X74730057Y-133509523D02*
X74825295Y-133557142D01*
X74825295Y-133557142D02*
X74968152Y-133557142D01*
X74968152Y-133557142D02*
X75063390Y-133509523D01*
X75063390Y-133509523D02*
X75111009Y-133461904D01*
X75111009Y-133461904D02*
X75158628Y-133366666D01*
X75158628Y-133366666D02*
X75158628Y-132985714D01*
X74968152Y-134414285D02*
X75634819Y-134414285D01*
X74587200Y-134176190D02*
X75301485Y-133938095D01*
X75301485Y-133938095D02*
X75301485Y-134557142D01*
X75063390Y-135080952D02*
X75015771Y-134985714D01*
X75015771Y-134985714D02*
X74968152Y-134938095D01*
X74968152Y-134938095D02*
X74872914Y-134890476D01*
X74872914Y-134890476D02*
X74825295Y-134890476D01*
X74825295Y-134890476D02*
X74730057Y-134938095D01*
X74730057Y-134938095D02*
X74682438Y-134985714D01*
X74682438Y-134985714D02*
X74634819Y-135080952D01*
X74634819Y-135080952D02*
X74634819Y-135271428D01*
X74634819Y-135271428D02*
X74682438Y-135366666D01*
X74682438Y-135366666D02*
X74730057Y-135414285D01*
X74730057Y-135414285D02*
X74825295Y-135461904D01*
X74825295Y-135461904D02*
X74872914Y-135461904D01*
X74872914Y-135461904D02*
X74968152Y-135414285D01*
X74968152Y-135414285D02*
X75015771Y-135366666D01*
X75015771Y-135366666D02*
X75063390Y-135271428D01*
X75063390Y-135271428D02*
X75063390Y-135080952D01*
X75063390Y-135080952D02*
X75111009Y-134985714D01*
X75111009Y-134985714D02*
X75158628Y-134938095D01*
X75158628Y-134938095D02*
X75253866Y-134890476D01*
X75253866Y-134890476D02*
X75444342Y-134890476D01*
X75444342Y-134890476D02*
X75539580Y-134938095D01*
X75539580Y-134938095D02*
X75587200Y-134985714D01*
X75587200Y-134985714D02*
X75634819Y-135080952D01*
X75634819Y-135080952D02*
X75634819Y-135271428D01*
X75634819Y-135271428D02*
X75587200Y-135366666D01*
X75587200Y-135366666D02*
X75539580Y-135414285D01*
X75539580Y-135414285D02*
X75444342Y-135461904D01*
X75444342Y-135461904D02*
X75253866Y-135461904D01*
X75253866Y-135461904D02*
X75158628Y-135414285D01*
X75158628Y-135414285D02*
X75111009Y-135366666D01*
X75111009Y-135366666D02*
X75063390Y-135271428D01*
X81954819Y-107785714D02*
X80954819Y-107785714D01*
X80954819Y-107785714D02*
X80954819Y-108023809D01*
X80954819Y-108023809D02*
X81002438Y-108166666D01*
X81002438Y-108166666D02*
X81097676Y-108261904D01*
X81097676Y-108261904D02*
X81192914Y-108309523D01*
X81192914Y-108309523D02*
X81383390Y-108357142D01*
X81383390Y-108357142D02*
X81526247Y-108357142D01*
X81526247Y-108357142D02*
X81716723Y-108309523D01*
X81716723Y-108309523D02*
X81811961Y-108261904D01*
X81811961Y-108261904D02*
X81907200Y-108166666D01*
X81907200Y-108166666D02*
X81954819Y-108023809D01*
X81954819Y-108023809D02*
X81954819Y-107785714D01*
X81954819Y-109309523D02*
X81954819Y-108738095D01*
X81954819Y-109023809D02*
X80954819Y-109023809D01*
X80954819Y-109023809D02*
X81097676Y-108928571D01*
X81097676Y-108928571D02*
X81192914Y-108833333D01*
X81192914Y-108833333D02*
X81240533Y-108738095D01*
X80954819Y-109642857D02*
X80954819Y-110261904D01*
X80954819Y-110261904D02*
X81335771Y-109928571D01*
X81335771Y-109928571D02*
X81335771Y-110071428D01*
X81335771Y-110071428D02*
X81383390Y-110166666D01*
X81383390Y-110166666D02*
X81431009Y-110214285D01*
X81431009Y-110214285D02*
X81526247Y-110261904D01*
X81526247Y-110261904D02*
X81764342Y-110261904D01*
X81764342Y-110261904D02*
X81859580Y-110214285D01*
X81859580Y-110214285D02*
X81907200Y-110166666D01*
X81907200Y-110166666D02*
X81954819Y-110071428D01*
X81954819Y-110071428D02*
X81954819Y-109785714D01*
X81954819Y-109785714D02*
X81907200Y-109690476D01*
X81907200Y-109690476D02*
X81859580Y-109642857D01*
X81854819Y-105328095D02*
X80854819Y-105328095D01*
X81854819Y-105899523D02*
X81283390Y-105470952D01*
X80854819Y-105899523D02*
X81426247Y-105328095D01*
X62409523Y-137331009D02*
X62742856Y-137331009D01*
X62742856Y-137854819D02*
X62742856Y-136854819D01*
X62742856Y-136854819D02*
X62266666Y-136854819D01*
X61361904Y-137854819D02*
X61933332Y-137854819D01*
X61647618Y-137854819D02*
X61647618Y-136854819D01*
X61647618Y-136854819D02*
X61742856Y-136997676D01*
X61742856Y-136997676D02*
X61838094Y-137092914D01*
X61838094Y-137092914D02*
X61933332Y-137140533D01*
X60409523Y-137854819D02*
X60980951Y-137854819D01*
X60695237Y-137854819D02*
X60695237Y-136854819D01*
X60695237Y-136854819D02*
X60790475Y-136997676D01*
X60790475Y-136997676D02*
X60885713Y-137092914D01*
X60885713Y-137092914D02*
X60980951Y-137140533D01*
X58831666Y-86924580D02*
X58879285Y-86972200D01*
X58879285Y-86972200D02*
X59022142Y-87019819D01*
X59022142Y-87019819D02*
X59117380Y-87019819D01*
X59117380Y-87019819D02*
X59260237Y-86972200D01*
X59260237Y-86972200D02*
X59355475Y-86876961D01*
X59355475Y-86876961D02*
X59403094Y-86781723D01*
X59403094Y-86781723D02*
X59450713Y-86591247D01*
X59450713Y-86591247D02*
X59450713Y-86448390D01*
X59450713Y-86448390D02*
X59403094Y-86257914D01*
X59403094Y-86257914D02*
X59355475Y-86162676D01*
X59355475Y-86162676D02*
X59260237Y-86067438D01*
X59260237Y-86067438D02*
X59117380Y-86019819D01*
X59117380Y-86019819D02*
X59022142Y-86019819D01*
X59022142Y-86019819D02*
X58879285Y-86067438D01*
X58879285Y-86067438D02*
X58831666Y-86115057D01*
X57926904Y-86019819D02*
X58403094Y-86019819D01*
X58403094Y-86019819D02*
X58450713Y-86496009D01*
X58450713Y-86496009D02*
X58403094Y-86448390D01*
X58403094Y-86448390D02*
X58307856Y-86400771D01*
X58307856Y-86400771D02*
X58069761Y-86400771D01*
X58069761Y-86400771D02*
X57974523Y-86448390D01*
X57974523Y-86448390D02*
X57926904Y-86496009D01*
X57926904Y-86496009D02*
X57879285Y-86591247D01*
X57879285Y-86591247D02*
X57879285Y-86829342D01*
X57879285Y-86829342D02*
X57926904Y-86924580D01*
X57926904Y-86924580D02*
X57974523Y-86972200D01*
X57974523Y-86972200D02*
X58069761Y-87019819D01*
X58069761Y-87019819D02*
X58307856Y-87019819D01*
X58307856Y-87019819D02*
X58403094Y-86972200D01*
X58403094Y-86972200D02*
X58450713Y-86924580D01*
X57654819Y-120161905D02*
X58464342Y-120161905D01*
X58464342Y-120161905D02*
X58559580Y-120209524D01*
X58559580Y-120209524D02*
X58607200Y-120257143D01*
X58607200Y-120257143D02*
X58654819Y-120352381D01*
X58654819Y-120352381D02*
X58654819Y-120542857D01*
X58654819Y-120542857D02*
X58607200Y-120638095D01*
X58607200Y-120638095D02*
X58559580Y-120685714D01*
X58559580Y-120685714D02*
X58464342Y-120733333D01*
X58464342Y-120733333D02*
X57654819Y-120733333D01*
X58654819Y-121733333D02*
X58654819Y-121161905D01*
X58654819Y-121447619D02*
X57654819Y-121447619D01*
X57654819Y-121447619D02*
X57797676Y-121352381D01*
X57797676Y-121352381D02*
X57892914Y-121257143D01*
X57892914Y-121257143D02*
X57940533Y-121161905D01*
X57988152Y-122590476D02*
X58654819Y-122590476D01*
X57607200Y-122352381D02*
X58321485Y-122114286D01*
X58321485Y-122114286D02*
X58321485Y-122733333D01*
X102954819Y-138247142D02*
X102478628Y-137913809D01*
X102954819Y-137675714D02*
X101954819Y-137675714D01*
X101954819Y-137675714D02*
X101954819Y-138056666D01*
X101954819Y-138056666D02*
X102002438Y-138151904D01*
X102002438Y-138151904D02*
X102050057Y-138199523D01*
X102050057Y-138199523D02*
X102145295Y-138247142D01*
X102145295Y-138247142D02*
X102288152Y-138247142D01*
X102288152Y-138247142D02*
X102383390Y-138199523D01*
X102383390Y-138199523D02*
X102431009Y-138151904D01*
X102431009Y-138151904D02*
X102478628Y-138056666D01*
X102478628Y-138056666D02*
X102478628Y-137675714D01*
X101954819Y-138580476D02*
X101954819Y-139199523D01*
X101954819Y-139199523D02*
X102335771Y-138866190D01*
X102335771Y-138866190D02*
X102335771Y-139009047D01*
X102335771Y-139009047D02*
X102383390Y-139104285D01*
X102383390Y-139104285D02*
X102431009Y-139151904D01*
X102431009Y-139151904D02*
X102526247Y-139199523D01*
X102526247Y-139199523D02*
X102764342Y-139199523D01*
X102764342Y-139199523D02*
X102859580Y-139151904D01*
X102859580Y-139151904D02*
X102907200Y-139104285D01*
X102907200Y-139104285D02*
X102954819Y-139009047D01*
X102954819Y-139009047D02*
X102954819Y-138723333D01*
X102954819Y-138723333D02*
X102907200Y-138628095D01*
X102907200Y-138628095D02*
X102859580Y-138580476D01*
X102288152Y-140056666D02*
X102954819Y-140056666D01*
X101907200Y-139818571D02*
X102621485Y-139580476D01*
X102621485Y-139580476D02*
X102621485Y-140199523D01*
X62726666Y-87037819D02*
X63059999Y-86561628D01*
X63298094Y-87037819D02*
X63298094Y-86037819D01*
X63298094Y-86037819D02*
X62917142Y-86037819D01*
X62917142Y-86037819D02*
X62821904Y-86085438D01*
X62821904Y-86085438D02*
X62774285Y-86133057D01*
X62774285Y-86133057D02*
X62726666Y-86228295D01*
X62726666Y-86228295D02*
X62726666Y-86371152D01*
X62726666Y-86371152D02*
X62774285Y-86466390D01*
X62774285Y-86466390D02*
X62821904Y-86514009D01*
X62821904Y-86514009D02*
X62917142Y-86561628D01*
X62917142Y-86561628D02*
X63298094Y-86561628D01*
X62155237Y-86466390D02*
X62250475Y-86418771D01*
X62250475Y-86418771D02*
X62298094Y-86371152D01*
X62298094Y-86371152D02*
X62345713Y-86275914D01*
X62345713Y-86275914D02*
X62345713Y-86228295D01*
X62345713Y-86228295D02*
X62298094Y-86133057D01*
X62298094Y-86133057D02*
X62250475Y-86085438D01*
X62250475Y-86085438D02*
X62155237Y-86037819D01*
X62155237Y-86037819D02*
X61964761Y-86037819D01*
X61964761Y-86037819D02*
X61869523Y-86085438D01*
X61869523Y-86085438D02*
X61821904Y-86133057D01*
X61821904Y-86133057D02*
X61774285Y-86228295D01*
X61774285Y-86228295D02*
X61774285Y-86275914D01*
X61774285Y-86275914D02*
X61821904Y-86371152D01*
X61821904Y-86371152D02*
X61869523Y-86418771D01*
X61869523Y-86418771D02*
X61964761Y-86466390D01*
X61964761Y-86466390D02*
X62155237Y-86466390D01*
X62155237Y-86466390D02*
X62250475Y-86514009D01*
X62250475Y-86514009D02*
X62298094Y-86561628D01*
X62298094Y-86561628D02*
X62345713Y-86656866D01*
X62345713Y-86656866D02*
X62345713Y-86847342D01*
X62345713Y-86847342D02*
X62298094Y-86942580D01*
X62298094Y-86942580D02*
X62250475Y-86990200D01*
X62250475Y-86990200D02*
X62155237Y-87037819D01*
X62155237Y-87037819D02*
X61964761Y-87037819D01*
X61964761Y-87037819D02*
X61869523Y-86990200D01*
X61869523Y-86990200D02*
X61821904Y-86942580D01*
X61821904Y-86942580D02*
X61774285Y-86847342D01*
X61774285Y-86847342D02*
X61774285Y-86656866D01*
X61774285Y-86656866D02*
X61821904Y-86561628D01*
X61821904Y-86561628D02*
X61869523Y-86514009D01*
X61869523Y-86514009D02*
X61964761Y-86466390D01*
X66366666Y-72454819D02*
X66699999Y-71978628D01*
X66938094Y-72454819D02*
X66938094Y-71454819D01*
X66938094Y-71454819D02*
X66557142Y-71454819D01*
X66557142Y-71454819D02*
X66461904Y-71502438D01*
X66461904Y-71502438D02*
X66414285Y-71550057D01*
X66414285Y-71550057D02*
X66366666Y-71645295D01*
X66366666Y-71645295D02*
X66366666Y-71788152D01*
X66366666Y-71788152D02*
X66414285Y-71883390D01*
X66414285Y-71883390D02*
X66461904Y-71931009D01*
X66461904Y-71931009D02*
X66557142Y-71978628D01*
X66557142Y-71978628D02*
X66938094Y-71978628D01*
X65509523Y-71454819D02*
X65699999Y-71454819D01*
X65699999Y-71454819D02*
X65795237Y-71502438D01*
X65795237Y-71502438D02*
X65842856Y-71550057D01*
X65842856Y-71550057D02*
X65938094Y-71692914D01*
X65938094Y-71692914D02*
X65985713Y-71883390D01*
X65985713Y-71883390D02*
X65985713Y-72264342D01*
X65985713Y-72264342D02*
X65938094Y-72359580D01*
X65938094Y-72359580D02*
X65890475Y-72407200D01*
X65890475Y-72407200D02*
X65795237Y-72454819D01*
X65795237Y-72454819D02*
X65604761Y-72454819D01*
X65604761Y-72454819D02*
X65509523Y-72407200D01*
X65509523Y-72407200D02*
X65461904Y-72359580D01*
X65461904Y-72359580D02*
X65414285Y-72264342D01*
X65414285Y-72264342D02*
X65414285Y-72026247D01*
X65414285Y-72026247D02*
X65461904Y-71931009D01*
X65461904Y-71931009D02*
X65509523Y-71883390D01*
X65509523Y-71883390D02*
X65604761Y-71835771D01*
X65604761Y-71835771D02*
X65795237Y-71835771D01*
X65795237Y-71835771D02*
X65890475Y-71883390D01*
X65890475Y-71883390D02*
X65938094Y-71931009D01*
X65938094Y-71931009D02*
X65985713Y-72026247D01*
X73714285Y-132654819D02*
X73714285Y-131654819D01*
X73714285Y-131654819D02*
X73476190Y-131654819D01*
X73476190Y-131654819D02*
X73333333Y-131702438D01*
X73333333Y-131702438D02*
X73238095Y-131797676D01*
X73238095Y-131797676D02*
X73190476Y-131892914D01*
X73190476Y-131892914D02*
X73142857Y-132083390D01*
X73142857Y-132083390D02*
X73142857Y-132226247D01*
X73142857Y-132226247D02*
X73190476Y-132416723D01*
X73190476Y-132416723D02*
X73238095Y-132511961D01*
X73238095Y-132511961D02*
X73333333Y-132607200D01*
X73333333Y-132607200D02*
X73476190Y-132654819D01*
X73476190Y-132654819D02*
X73714285Y-132654819D01*
X72190476Y-132654819D02*
X72761904Y-132654819D01*
X72476190Y-132654819D02*
X72476190Y-131654819D01*
X72476190Y-131654819D02*
X72571428Y-131797676D01*
X72571428Y-131797676D02*
X72666666Y-131892914D01*
X72666666Y-131892914D02*
X72761904Y-131940533D01*
X71285714Y-131654819D02*
X71761904Y-131654819D01*
X71761904Y-131654819D02*
X71809523Y-132131009D01*
X71809523Y-132131009D02*
X71761904Y-132083390D01*
X71761904Y-132083390D02*
X71666666Y-132035771D01*
X71666666Y-132035771D02*
X71428571Y-132035771D01*
X71428571Y-132035771D02*
X71333333Y-132083390D01*
X71333333Y-132083390D02*
X71285714Y-132131009D01*
X71285714Y-132131009D02*
X71238095Y-132226247D01*
X71238095Y-132226247D02*
X71238095Y-132464342D01*
X71238095Y-132464342D02*
X71285714Y-132559580D01*
X71285714Y-132559580D02*
X71333333Y-132607200D01*
X71333333Y-132607200D02*
X71428571Y-132654819D01*
X71428571Y-132654819D02*
X71666666Y-132654819D01*
X71666666Y-132654819D02*
X71761904Y-132607200D01*
X71761904Y-132607200D02*
X71809523Y-132559580D01*
X72742857Y-128704819D02*
X73076190Y-128228628D01*
X73314285Y-128704819D02*
X73314285Y-127704819D01*
X73314285Y-127704819D02*
X72933333Y-127704819D01*
X72933333Y-127704819D02*
X72838095Y-127752438D01*
X72838095Y-127752438D02*
X72790476Y-127800057D01*
X72790476Y-127800057D02*
X72742857Y-127895295D01*
X72742857Y-127895295D02*
X72742857Y-128038152D01*
X72742857Y-128038152D02*
X72790476Y-128133390D01*
X72790476Y-128133390D02*
X72838095Y-128181009D01*
X72838095Y-128181009D02*
X72933333Y-128228628D01*
X72933333Y-128228628D02*
X73314285Y-128228628D01*
X71885714Y-128038152D02*
X71885714Y-128704819D01*
X72123809Y-127657200D02*
X72361904Y-128371485D01*
X72361904Y-128371485D02*
X71742857Y-128371485D01*
X71457142Y-127704819D02*
X70790476Y-127704819D01*
X70790476Y-127704819D02*
X71219047Y-128704819D01*
X90554819Y-63157142D02*
X90078628Y-62823809D01*
X90554819Y-62585714D02*
X89554819Y-62585714D01*
X89554819Y-62585714D02*
X89554819Y-62966666D01*
X89554819Y-62966666D02*
X89602438Y-63061904D01*
X89602438Y-63061904D02*
X89650057Y-63109523D01*
X89650057Y-63109523D02*
X89745295Y-63157142D01*
X89745295Y-63157142D02*
X89888152Y-63157142D01*
X89888152Y-63157142D02*
X89983390Y-63109523D01*
X89983390Y-63109523D02*
X90031009Y-63061904D01*
X90031009Y-63061904D02*
X90078628Y-62966666D01*
X90078628Y-62966666D02*
X90078628Y-62585714D01*
X89554819Y-64061904D02*
X89554819Y-63585714D01*
X89554819Y-63585714D02*
X90031009Y-63538095D01*
X90031009Y-63538095D02*
X89983390Y-63585714D01*
X89983390Y-63585714D02*
X89935771Y-63680952D01*
X89935771Y-63680952D02*
X89935771Y-63919047D01*
X89935771Y-63919047D02*
X89983390Y-64014285D01*
X89983390Y-64014285D02*
X90031009Y-64061904D01*
X90031009Y-64061904D02*
X90126247Y-64109523D01*
X90126247Y-64109523D02*
X90364342Y-64109523D01*
X90364342Y-64109523D02*
X90459580Y-64061904D01*
X90459580Y-64061904D02*
X90507200Y-64014285D01*
X90507200Y-64014285D02*
X90554819Y-63919047D01*
X90554819Y-63919047D02*
X90554819Y-63680952D01*
X90554819Y-63680952D02*
X90507200Y-63585714D01*
X90507200Y-63585714D02*
X90459580Y-63538095D01*
X89650057Y-64490476D02*
X89602438Y-64538095D01*
X89602438Y-64538095D02*
X89554819Y-64633333D01*
X89554819Y-64633333D02*
X89554819Y-64871428D01*
X89554819Y-64871428D02*
X89602438Y-64966666D01*
X89602438Y-64966666D02*
X89650057Y-65014285D01*
X89650057Y-65014285D02*
X89745295Y-65061904D01*
X89745295Y-65061904D02*
X89840533Y-65061904D01*
X89840533Y-65061904D02*
X89983390Y-65014285D01*
X89983390Y-65014285D02*
X90554819Y-64442857D01*
X90554819Y-64442857D02*
X90554819Y-65061904D01*
X76742857Y-104404819D02*
X77076190Y-103928628D01*
X77314285Y-104404819D02*
X77314285Y-103404819D01*
X77314285Y-103404819D02*
X76933333Y-103404819D01*
X76933333Y-103404819D02*
X76838095Y-103452438D01*
X76838095Y-103452438D02*
X76790476Y-103500057D01*
X76790476Y-103500057D02*
X76742857Y-103595295D01*
X76742857Y-103595295D02*
X76742857Y-103738152D01*
X76742857Y-103738152D02*
X76790476Y-103833390D01*
X76790476Y-103833390D02*
X76838095Y-103881009D01*
X76838095Y-103881009D02*
X76933333Y-103928628D01*
X76933333Y-103928628D02*
X77314285Y-103928628D01*
X75838095Y-103404819D02*
X76314285Y-103404819D01*
X76314285Y-103404819D02*
X76361904Y-103881009D01*
X76361904Y-103881009D02*
X76314285Y-103833390D01*
X76314285Y-103833390D02*
X76219047Y-103785771D01*
X76219047Y-103785771D02*
X75980952Y-103785771D01*
X75980952Y-103785771D02*
X75885714Y-103833390D01*
X75885714Y-103833390D02*
X75838095Y-103881009D01*
X75838095Y-103881009D02*
X75790476Y-103976247D01*
X75790476Y-103976247D02*
X75790476Y-104214342D01*
X75790476Y-104214342D02*
X75838095Y-104309580D01*
X75838095Y-104309580D02*
X75885714Y-104357200D01*
X75885714Y-104357200D02*
X75980952Y-104404819D01*
X75980952Y-104404819D02*
X76219047Y-104404819D01*
X76219047Y-104404819D02*
X76314285Y-104357200D01*
X76314285Y-104357200D02*
X76361904Y-104309580D01*
X74838095Y-104404819D02*
X75409523Y-104404819D01*
X75123809Y-104404819D02*
X75123809Y-103404819D01*
X75123809Y-103404819D02*
X75219047Y-103547676D01*
X75219047Y-103547676D02*
X75314285Y-103642914D01*
X75314285Y-103642914D02*
X75409523Y-103690533D01*
X49542857Y-72554819D02*
X49876190Y-72078628D01*
X50114285Y-72554819D02*
X50114285Y-71554819D01*
X50114285Y-71554819D02*
X49733333Y-71554819D01*
X49733333Y-71554819D02*
X49638095Y-71602438D01*
X49638095Y-71602438D02*
X49590476Y-71650057D01*
X49590476Y-71650057D02*
X49542857Y-71745295D01*
X49542857Y-71745295D02*
X49542857Y-71888152D01*
X49542857Y-71888152D02*
X49590476Y-71983390D01*
X49590476Y-71983390D02*
X49638095Y-72031009D01*
X49638095Y-72031009D02*
X49733333Y-72078628D01*
X49733333Y-72078628D02*
X50114285Y-72078628D01*
X48590476Y-72554819D02*
X49161904Y-72554819D01*
X48876190Y-72554819D02*
X48876190Y-71554819D01*
X48876190Y-71554819D02*
X48971428Y-71697676D01*
X48971428Y-71697676D02*
X49066666Y-71792914D01*
X49066666Y-71792914D02*
X49161904Y-71840533D01*
X47971428Y-71554819D02*
X47876190Y-71554819D01*
X47876190Y-71554819D02*
X47780952Y-71602438D01*
X47780952Y-71602438D02*
X47733333Y-71650057D01*
X47733333Y-71650057D02*
X47685714Y-71745295D01*
X47685714Y-71745295D02*
X47638095Y-71935771D01*
X47638095Y-71935771D02*
X47638095Y-72173866D01*
X47638095Y-72173866D02*
X47685714Y-72364342D01*
X47685714Y-72364342D02*
X47733333Y-72459580D01*
X47733333Y-72459580D02*
X47780952Y-72507200D01*
X47780952Y-72507200D02*
X47876190Y-72554819D01*
X47876190Y-72554819D02*
X47971428Y-72554819D01*
X47971428Y-72554819D02*
X48066666Y-72507200D01*
X48066666Y-72507200D02*
X48114285Y-72459580D01*
X48114285Y-72459580D02*
X48161904Y-72364342D01*
X48161904Y-72364342D02*
X48209523Y-72173866D01*
X48209523Y-72173866D02*
X48209523Y-71935771D01*
X48209523Y-71935771D02*
X48161904Y-71745295D01*
X48161904Y-71745295D02*
X48114285Y-71650057D01*
X48114285Y-71650057D02*
X48066666Y-71602438D01*
X48066666Y-71602438D02*
X47971428Y-71554819D01*
X95738094Y-57354819D02*
X95738094Y-58164342D01*
X95738094Y-58164342D02*
X95690475Y-58259580D01*
X95690475Y-58259580D02*
X95642856Y-58307200D01*
X95642856Y-58307200D02*
X95547618Y-58354819D01*
X95547618Y-58354819D02*
X95357142Y-58354819D01*
X95357142Y-58354819D02*
X95261904Y-58307200D01*
X95261904Y-58307200D02*
X95214285Y-58259580D01*
X95214285Y-58259580D02*
X95166666Y-58164342D01*
X95166666Y-58164342D02*
X95166666Y-57354819D01*
X94166666Y-58354819D02*
X94738094Y-58354819D01*
X94452380Y-58354819D02*
X94452380Y-57354819D01*
X94452380Y-57354819D02*
X94547618Y-57497676D01*
X94547618Y-57497676D02*
X94642856Y-57592914D01*
X94642856Y-57592914D02*
X94738094Y-57640533D01*
X93547618Y-57354819D02*
X93452380Y-57354819D01*
X93452380Y-57354819D02*
X93357142Y-57402438D01*
X93357142Y-57402438D02*
X93309523Y-57450057D01*
X93309523Y-57450057D02*
X93261904Y-57545295D01*
X93261904Y-57545295D02*
X93214285Y-57735771D01*
X93214285Y-57735771D02*
X93214285Y-57973866D01*
X93214285Y-57973866D02*
X93261904Y-58164342D01*
X93261904Y-58164342D02*
X93309523Y-58259580D01*
X93309523Y-58259580D02*
X93357142Y-58307200D01*
X93357142Y-58307200D02*
X93452380Y-58354819D01*
X93452380Y-58354819D02*
X93547618Y-58354819D01*
X93547618Y-58354819D02*
X93642856Y-58307200D01*
X93642856Y-58307200D02*
X93690475Y-58259580D01*
X93690475Y-58259580D02*
X93738094Y-58164342D01*
X93738094Y-58164342D02*
X93785713Y-57973866D01*
X93785713Y-57973866D02*
X93785713Y-57735771D01*
X93785713Y-57735771D02*
X93738094Y-57545295D01*
X93738094Y-57545295D02*
X93690475Y-57450057D01*
X93690475Y-57450057D02*
X93642856Y-57402438D01*
X93642856Y-57402438D02*
X93547618Y-57354819D01*
X76054819Y-116157142D02*
X75578628Y-115823809D01*
X76054819Y-115585714D02*
X75054819Y-115585714D01*
X75054819Y-115585714D02*
X75054819Y-115966666D01*
X75054819Y-115966666D02*
X75102438Y-116061904D01*
X75102438Y-116061904D02*
X75150057Y-116109523D01*
X75150057Y-116109523D02*
X75245295Y-116157142D01*
X75245295Y-116157142D02*
X75388152Y-116157142D01*
X75388152Y-116157142D02*
X75483390Y-116109523D01*
X75483390Y-116109523D02*
X75531009Y-116061904D01*
X75531009Y-116061904D02*
X75578628Y-115966666D01*
X75578628Y-115966666D02*
X75578628Y-115585714D01*
X75388152Y-117014285D02*
X76054819Y-117014285D01*
X75007200Y-116776190D02*
X75721485Y-116538095D01*
X75721485Y-116538095D02*
X75721485Y-117157142D01*
X75054819Y-118014285D02*
X75054819Y-117538095D01*
X75054819Y-117538095D02*
X75531009Y-117490476D01*
X75531009Y-117490476D02*
X75483390Y-117538095D01*
X75483390Y-117538095D02*
X75435771Y-117633333D01*
X75435771Y-117633333D02*
X75435771Y-117871428D01*
X75435771Y-117871428D02*
X75483390Y-117966666D01*
X75483390Y-117966666D02*
X75531009Y-118014285D01*
X75531009Y-118014285D02*
X75626247Y-118061904D01*
X75626247Y-118061904D02*
X75864342Y-118061904D01*
X75864342Y-118061904D02*
X75959580Y-118014285D01*
X75959580Y-118014285D02*
X76007200Y-117966666D01*
X76007200Y-117966666D02*
X76054819Y-117871428D01*
X76054819Y-117871428D02*
X76054819Y-117633333D01*
X76054819Y-117633333D02*
X76007200Y-117538095D01*
X76007200Y-117538095D02*
X75959580Y-117490476D01*
X96254819Y-138257142D02*
X95778628Y-137923809D01*
X96254819Y-137685714D02*
X95254819Y-137685714D01*
X95254819Y-137685714D02*
X95254819Y-138066666D01*
X95254819Y-138066666D02*
X95302438Y-138161904D01*
X95302438Y-138161904D02*
X95350057Y-138209523D01*
X95350057Y-138209523D02*
X95445295Y-138257142D01*
X95445295Y-138257142D02*
X95588152Y-138257142D01*
X95588152Y-138257142D02*
X95683390Y-138209523D01*
X95683390Y-138209523D02*
X95731009Y-138161904D01*
X95731009Y-138161904D02*
X95778628Y-138066666D01*
X95778628Y-138066666D02*
X95778628Y-137685714D01*
X95254819Y-138590476D02*
X95254819Y-139209523D01*
X95254819Y-139209523D02*
X95635771Y-138876190D01*
X95635771Y-138876190D02*
X95635771Y-139019047D01*
X95635771Y-139019047D02*
X95683390Y-139114285D01*
X95683390Y-139114285D02*
X95731009Y-139161904D01*
X95731009Y-139161904D02*
X95826247Y-139209523D01*
X95826247Y-139209523D02*
X96064342Y-139209523D01*
X96064342Y-139209523D02*
X96159580Y-139161904D01*
X96159580Y-139161904D02*
X96207200Y-139114285D01*
X96207200Y-139114285D02*
X96254819Y-139019047D01*
X96254819Y-139019047D02*
X96254819Y-138733333D01*
X96254819Y-138733333D02*
X96207200Y-138638095D01*
X96207200Y-138638095D02*
X96159580Y-138590476D01*
X95350057Y-139590476D02*
X95302438Y-139638095D01*
X95302438Y-139638095D02*
X95254819Y-139733333D01*
X95254819Y-139733333D02*
X95254819Y-139971428D01*
X95254819Y-139971428D02*
X95302438Y-140066666D01*
X95302438Y-140066666D02*
X95350057Y-140114285D01*
X95350057Y-140114285D02*
X95445295Y-140161904D01*
X95445295Y-140161904D02*
X95540533Y-140161904D01*
X95540533Y-140161904D02*
X95683390Y-140114285D01*
X95683390Y-140114285D02*
X96254819Y-139542857D01*
X96254819Y-139542857D02*
X96254819Y-140161904D01*
X66714285Y-132654819D02*
X66714285Y-131654819D01*
X66714285Y-131654819D02*
X66476190Y-131654819D01*
X66476190Y-131654819D02*
X66333333Y-131702438D01*
X66333333Y-131702438D02*
X66238095Y-131797676D01*
X66238095Y-131797676D02*
X66190476Y-131892914D01*
X66190476Y-131892914D02*
X66142857Y-132083390D01*
X66142857Y-132083390D02*
X66142857Y-132226247D01*
X66142857Y-132226247D02*
X66190476Y-132416723D01*
X66190476Y-132416723D02*
X66238095Y-132511961D01*
X66238095Y-132511961D02*
X66333333Y-132607200D01*
X66333333Y-132607200D02*
X66476190Y-132654819D01*
X66476190Y-132654819D02*
X66714285Y-132654819D01*
X65190476Y-132654819D02*
X65761904Y-132654819D01*
X65476190Y-132654819D02*
X65476190Y-131654819D01*
X65476190Y-131654819D02*
X65571428Y-131797676D01*
X65571428Y-131797676D02*
X65666666Y-131892914D01*
X65666666Y-131892914D02*
X65761904Y-131940533D01*
X64333333Y-131988152D02*
X64333333Y-132654819D01*
X64571428Y-131607200D02*
X64809523Y-132321485D01*
X64809523Y-132321485D02*
X64190476Y-132321485D01*
X43253581Y-79556305D02*
X44064699Y-79556305D01*
X44064699Y-79556305D02*
X44160125Y-79604017D01*
X44160125Y-79604017D02*
X44207838Y-79651730D01*
X44207838Y-79651730D02*
X44255550Y-79747156D01*
X44255550Y-79747156D02*
X44255550Y-79938007D01*
X44255550Y-79938007D02*
X44207838Y-80033433D01*
X44207838Y-80033433D02*
X44160125Y-80081145D01*
X44160125Y-80081145D02*
X44064699Y-80128858D01*
X44064699Y-80128858D02*
X43253581Y-80128858D01*
X43253581Y-80510561D02*
X43253581Y-81130827D01*
X43253581Y-81130827D02*
X43635284Y-80796838D01*
X43635284Y-80796838D02*
X43635284Y-80939976D01*
X43635284Y-80939976D02*
X43682997Y-81035402D01*
X43682997Y-81035402D02*
X43730709Y-81083115D01*
X43730709Y-81083115D02*
X43826135Y-81130827D01*
X43826135Y-81130827D02*
X44064699Y-81130827D01*
X44064699Y-81130827D02*
X44160125Y-81083115D01*
X44160125Y-81083115D02*
X44207838Y-81035402D01*
X44207838Y-81035402D02*
X44255550Y-80939976D01*
X44255550Y-80939976D02*
X44255550Y-80653699D01*
X44255550Y-80653699D02*
X44207838Y-80558274D01*
X44207838Y-80558274D02*
X44160125Y-80510561D01*
X85254819Y-130038095D02*
X86064342Y-130038095D01*
X86064342Y-130038095D02*
X86159580Y-130085714D01*
X86159580Y-130085714D02*
X86207200Y-130133333D01*
X86207200Y-130133333D02*
X86254819Y-130228571D01*
X86254819Y-130228571D02*
X86254819Y-130419047D01*
X86254819Y-130419047D02*
X86207200Y-130514285D01*
X86207200Y-130514285D02*
X86159580Y-130561904D01*
X86159580Y-130561904D02*
X86064342Y-130609523D01*
X86064342Y-130609523D02*
X85254819Y-130609523D01*
X85254819Y-131561904D02*
X85254819Y-131085714D01*
X85254819Y-131085714D02*
X85731009Y-131038095D01*
X85731009Y-131038095D02*
X85683390Y-131085714D01*
X85683390Y-131085714D02*
X85635771Y-131180952D01*
X85635771Y-131180952D02*
X85635771Y-131419047D01*
X85635771Y-131419047D02*
X85683390Y-131514285D01*
X85683390Y-131514285D02*
X85731009Y-131561904D01*
X85731009Y-131561904D02*
X85826247Y-131609523D01*
X85826247Y-131609523D02*
X86064342Y-131609523D01*
X86064342Y-131609523D02*
X86159580Y-131561904D01*
X86159580Y-131561904D02*
X86207200Y-131514285D01*
X86207200Y-131514285D02*
X86254819Y-131419047D01*
X86254819Y-131419047D02*
X86254819Y-131180952D01*
X86254819Y-131180952D02*
X86207200Y-131085714D01*
X86207200Y-131085714D02*
X86159580Y-131038095D01*
X58828666Y-83483580D02*
X58876285Y-83531200D01*
X58876285Y-83531200D02*
X59019142Y-83578819D01*
X59019142Y-83578819D02*
X59114380Y-83578819D01*
X59114380Y-83578819D02*
X59257237Y-83531200D01*
X59257237Y-83531200D02*
X59352475Y-83435961D01*
X59352475Y-83435961D02*
X59400094Y-83340723D01*
X59400094Y-83340723D02*
X59447713Y-83150247D01*
X59447713Y-83150247D02*
X59447713Y-83007390D01*
X59447713Y-83007390D02*
X59400094Y-82816914D01*
X59400094Y-82816914D02*
X59352475Y-82721676D01*
X59352475Y-82721676D02*
X59257237Y-82626438D01*
X59257237Y-82626438D02*
X59114380Y-82578819D01*
X59114380Y-82578819D02*
X59019142Y-82578819D01*
X59019142Y-82578819D02*
X58876285Y-82626438D01*
X58876285Y-82626438D02*
X58828666Y-82674057D01*
X57971523Y-82912152D02*
X57971523Y-83578819D01*
X58209618Y-82531200D02*
X58447713Y-83245485D01*
X58447713Y-83245485D02*
X57828666Y-83245485D01*
X86174819Y-138257142D02*
X85698628Y-137923809D01*
X86174819Y-137685714D02*
X85174819Y-137685714D01*
X85174819Y-137685714D02*
X85174819Y-138066666D01*
X85174819Y-138066666D02*
X85222438Y-138161904D01*
X85222438Y-138161904D02*
X85270057Y-138209523D01*
X85270057Y-138209523D02*
X85365295Y-138257142D01*
X85365295Y-138257142D02*
X85508152Y-138257142D01*
X85508152Y-138257142D02*
X85603390Y-138209523D01*
X85603390Y-138209523D02*
X85651009Y-138161904D01*
X85651009Y-138161904D02*
X85698628Y-138066666D01*
X85698628Y-138066666D02*
X85698628Y-137685714D01*
X85270057Y-138638095D02*
X85222438Y-138685714D01*
X85222438Y-138685714D02*
X85174819Y-138780952D01*
X85174819Y-138780952D02*
X85174819Y-139019047D01*
X85174819Y-139019047D02*
X85222438Y-139114285D01*
X85222438Y-139114285D02*
X85270057Y-139161904D01*
X85270057Y-139161904D02*
X85365295Y-139209523D01*
X85365295Y-139209523D02*
X85460533Y-139209523D01*
X85460533Y-139209523D02*
X85603390Y-139161904D01*
X85603390Y-139161904D02*
X86174819Y-138590476D01*
X86174819Y-138590476D02*
X86174819Y-139209523D01*
X85174819Y-139542857D02*
X85174819Y-140209523D01*
X85174819Y-140209523D02*
X86174819Y-139780952D01*
X63666666Y-72454819D02*
X63999999Y-71978628D01*
X64238094Y-72454819D02*
X64238094Y-71454819D01*
X64238094Y-71454819D02*
X63857142Y-71454819D01*
X63857142Y-71454819D02*
X63761904Y-71502438D01*
X63761904Y-71502438D02*
X63714285Y-71550057D01*
X63714285Y-71550057D02*
X63666666Y-71645295D01*
X63666666Y-71645295D02*
X63666666Y-71788152D01*
X63666666Y-71788152D02*
X63714285Y-71883390D01*
X63714285Y-71883390D02*
X63761904Y-71931009D01*
X63761904Y-71931009D02*
X63857142Y-71978628D01*
X63857142Y-71978628D02*
X64238094Y-71978628D01*
X63333332Y-71454819D02*
X62666666Y-71454819D01*
X62666666Y-71454819D02*
X63095237Y-72454819D01*
X65742857Y-128704819D02*
X66076190Y-128228628D01*
X66314285Y-128704819D02*
X66314285Y-127704819D01*
X66314285Y-127704819D02*
X65933333Y-127704819D01*
X65933333Y-127704819D02*
X65838095Y-127752438D01*
X65838095Y-127752438D02*
X65790476Y-127800057D01*
X65790476Y-127800057D02*
X65742857Y-127895295D01*
X65742857Y-127895295D02*
X65742857Y-128038152D01*
X65742857Y-128038152D02*
X65790476Y-128133390D01*
X65790476Y-128133390D02*
X65838095Y-128181009D01*
X65838095Y-128181009D02*
X65933333Y-128228628D01*
X65933333Y-128228628D02*
X66314285Y-128228628D01*
X65409523Y-127704819D02*
X64790476Y-127704819D01*
X64790476Y-127704819D02*
X65123809Y-128085771D01*
X65123809Y-128085771D02*
X64980952Y-128085771D01*
X64980952Y-128085771D02*
X64885714Y-128133390D01*
X64885714Y-128133390D02*
X64838095Y-128181009D01*
X64838095Y-128181009D02*
X64790476Y-128276247D01*
X64790476Y-128276247D02*
X64790476Y-128514342D01*
X64790476Y-128514342D02*
X64838095Y-128609580D01*
X64838095Y-128609580D02*
X64885714Y-128657200D01*
X64885714Y-128657200D02*
X64980952Y-128704819D01*
X64980952Y-128704819D02*
X65266666Y-128704819D01*
X65266666Y-128704819D02*
X65361904Y-128657200D01*
X65361904Y-128657200D02*
X65409523Y-128609580D01*
X63933333Y-127704819D02*
X64123809Y-127704819D01*
X64123809Y-127704819D02*
X64219047Y-127752438D01*
X64219047Y-127752438D02*
X64266666Y-127800057D01*
X64266666Y-127800057D02*
X64361904Y-127942914D01*
X64361904Y-127942914D02*
X64409523Y-128133390D01*
X64409523Y-128133390D02*
X64409523Y-128514342D01*
X64409523Y-128514342D02*
X64361904Y-128609580D01*
X64361904Y-128609580D02*
X64314285Y-128657200D01*
X64314285Y-128657200D02*
X64219047Y-128704819D01*
X64219047Y-128704819D02*
X64028571Y-128704819D01*
X64028571Y-128704819D02*
X63933333Y-128657200D01*
X63933333Y-128657200D02*
X63885714Y-128609580D01*
X63885714Y-128609580D02*
X63838095Y-128514342D01*
X63838095Y-128514342D02*
X63838095Y-128276247D01*
X63838095Y-128276247D02*
X63885714Y-128181009D01*
X63885714Y-128181009D02*
X63933333Y-128133390D01*
X63933333Y-128133390D02*
X64028571Y-128085771D01*
X64028571Y-128085771D02*
X64219047Y-128085771D01*
X64219047Y-128085771D02*
X64314285Y-128133390D01*
X64314285Y-128133390D02*
X64361904Y-128181009D01*
X64361904Y-128181009D02*
X64409523Y-128276247D01*
X62372615Y-75753006D02*
X62372615Y-76564003D01*
X62372615Y-76564003D02*
X62324910Y-76659414D01*
X62324910Y-76659414D02*
X62277204Y-76707120D01*
X62277204Y-76707120D02*
X62181793Y-76754825D01*
X62181793Y-76754825D02*
X61990970Y-76754825D01*
X61990970Y-76754825D02*
X61895559Y-76707120D01*
X61895559Y-76707120D02*
X61847853Y-76659414D01*
X61847853Y-76659414D02*
X61800147Y-76564003D01*
X61800147Y-76564003D02*
X61800147Y-75753006D01*
X61370796Y-75848418D02*
X61323090Y-75800712D01*
X61323090Y-75800712D02*
X61227679Y-75753006D01*
X61227679Y-75753006D02*
X60989151Y-75753006D01*
X60989151Y-75753006D02*
X60893739Y-75800712D01*
X60893739Y-75800712D02*
X60846034Y-75848418D01*
X60846034Y-75848418D02*
X60798328Y-75943829D01*
X60798328Y-75943829D02*
X60798328Y-76039240D01*
X60798328Y-76039240D02*
X60846034Y-76182357D01*
X60846034Y-76182357D02*
X61418502Y-76754825D01*
X61418502Y-76754825D02*
X60798328Y-76754825D01*
X79354819Y-116157142D02*
X78878628Y-115823809D01*
X79354819Y-115585714D02*
X78354819Y-115585714D01*
X78354819Y-115585714D02*
X78354819Y-115966666D01*
X78354819Y-115966666D02*
X78402438Y-116061904D01*
X78402438Y-116061904D02*
X78450057Y-116109523D01*
X78450057Y-116109523D02*
X78545295Y-116157142D01*
X78545295Y-116157142D02*
X78688152Y-116157142D01*
X78688152Y-116157142D02*
X78783390Y-116109523D01*
X78783390Y-116109523D02*
X78831009Y-116061904D01*
X78831009Y-116061904D02*
X78878628Y-115966666D01*
X78878628Y-115966666D02*
X78878628Y-115585714D01*
X78354819Y-117061904D02*
X78354819Y-116585714D01*
X78354819Y-116585714D02*
X78831009Y-116538095D01*
X78831009Y-116538095D02*
X78783390Y-116585714D01*
X78783390Y-116585714D02*
X78735771Y-116680952D01*
X78735771Y-116680952D02*
X78735771Y-116919047D01*
X78735771Y-116919047D02*
X78783390Y-117014285D01*
X78783390Y-117014285D02*
X78831009Y-117061904D01*
X78831009Y-117061904D02*
X78926247Y-117109523D01*
X78926247Y-117109523D02*
X79164342Y-117109523D01*
X79164342Y-117109523D02*
X79259580Y-117061904D01*
X79259580Y-117061904D02*
X79307200Y-117014285D01*
X79307200Y-117014285D02*
X79354819Y-116919047D01*
X79354819Y-116919047D02*
X79354819Y-116680952D01*
X79354819Y-116680952D02*
X79307200Y-116585714D01*
X79307200Y-116585714D02*
X79259580Y-116538095D01*
X78354819Y-117728571D02*
X78354819Y-117823809D01*
X78354819Y-117823809D02*
X78402438Y-117919047D01*
X78402438Y-117919047D02*
X78450057Y-117966666D01*
X78450057Y-117966666D02*
X78545295Y-118014285D01*
X78545295Y-118014285D02*
X78735771Y-118061904D01*
X78735771Y-118061904D02*
X78973866Y-118061904D01*
X78973866Y-118061904D02*
X79164342Y-118014285D01*
X79164342Y-118014285D02*
X79259580Y-117966666D01*
X79259580Y-117966666D02*
X79307200Y-117919047D01*
X79307200Y-117919047D02*
X79354819Y-117823809D01*
X79354819Y-117823809D02*
X79354819Y-117728571D01*
X79354819Y-117728571D02*
X79307200Y-117633333D01*
X79307200Y-117633333D02*
X79259580Y-117585714D01*
X79259580Y-117585714D02*
X79164342Y-117538095D01*
X79164342Y-117538095D02*
X78973866Y-117490476D01*
X78973866Y-117490476D02*
X78735771Y-117490476D01*
X78735771Y-117490476D02*
X78545295Y-117538095D01*
X78545295Y-117538095D02*
X78450057Y-117585714D01*
X78450057Y-117585714D02*
X78402438Y-117633333D01*
X78402438Y-117633333D02*
X78354819Y-117728571D01*
X68059580Y-121033333D02*
X68107200Y-120985714D01*
X68107200Y-120985714D02*
X68154819Y-120842857D01*
X68154819Y-120842857D02*
X68154819Y-120747619D01*
X68154819Y-120747619D02*
X68107200Y-120604762D01*
X68107200Y-120604762D02*
X68011961Y-120509524D01*
X68011961Y-120509524D02*
X67916723Y-120461905D01*
X67916723Y-120461905D02*
X67726247Y-120414286D01*
X67726247Y-120414286D02*
X67583390Y-120414286D01*
X67583390Y-120414286D02*
X67392914Y-120461905D01*
X67392914Y-120461905D02*
X67297676Y-120509524D01*
X67297676Y-120509524D02*
X67202438Y-120604762D01*
X67202438Y-120604762D02*
X67154819Y-120747619D01*
X67154819Y-120747619D02*
X67154819Y-120842857D01*
X67154819Y-120842857D02*
X67202438Y-120985714D01*
X67202438Y-120985714D02*
X67250057Y-121033333D01*
X68154819Y-121509524D02*
X68154819Y-121700000D01*
X68154819Y-121700000D02*
X68107200Y-121795238D01*
X68107200Y-121795238D02*
X68059580Y-121842857D01*
X68059580Y-121842857D02*
X67916723Y-121938095D01*
X67916723Y-121938095D02*
X67726247Y-121985714D01*
X67726247Y-121985714D02*
X67345295Y-121985714D01*
X67345295Y-121985714D02*
X67250057Y-121938095D01*
X67250057Y-121938095D02*
X67202438Y-121890476D01*
X67202438Y-121890476D02*
X67154819Y-121795238D01*
X67154819Y-121795238D02*
X67154819Y-121604762D01*
X67154819Y-121604762D02*
X67202438Y-121509524D01*
X67202438Y-121509524D02*
X67250057Y-121461905D01*
X67250057Y-121461905D02*
X67345295Y-121414286D01*
X67345295Y-121414286D02*
X67583390Y-121414286D01*
X67583390Y-121414286D02*
X67678628Y-121461905D01*
X67678628Y-121461905D02*
X67726247Y-121509524D01*
X67726247Y-121509524D02*
X67773866Y-121604762D01*
X67773866Y-121604762D02*
X67773866Y-121795238D01*
X67773866Y-121795238D02*
X67726247Y-121890476D01*
X67726247Y-121890476D02*
X67678628Y-121938095D01*
X67678628Y-121938095D02*
X67583390Y-121985714D01*
X99654819Y-138257142D02*
X99178628Y-137923809D01*
X99654819Y-137685714D02*
X98654819Y-137685714D01*
X98654819Y-137685714D02*
X98654819Y-138066666D01*
X98654819Y-138066666D02*
X98702438Y-138161904D01*
X98702438Y-138161904D02*
X98750057Y-138209523D01*
X98750057Y-138209523D02*
X98845295Y-138257142D01*
X98845295Y-138257142D02*
X98988152Y-138257142D01*
X98988152Y-138257142D02*
X99083390Y-138209523D01*
X99083390Y-138209523D02*
X99131009Y-138161904D01*
X99131009Y-138161904D02*
X99178628Y-138066666D01*
X99178628Y-138066666D02*
X99178628Y-137685714D01*
X98654819Y-138590476D02*
X98654819Y-139209523D01*
X98654819Y-139209523D02*
X99035771Y-138876190D01*
X99035771Y-138876190D02*
X99035771Y-139019047D01*
X99035771Y-139019047D02*
X99083390Y-139114285D01*
X99083390Y-139114285D02*
X99131009Y-139161904D01*
X99131009Y-139161904D02*
X99226247Y-139209523D01*
X99226247Y-139209523D02*
X99464342Y-139209523D01*
X99464342Y-139209523D02*
X99559580Y-139161904D01*
X99559580Y-139161904D02*
X99607200Y-139114285D01*
X99607200Y-139114285D02*
X99654819Y-139019047D01*
X99654819Y-139019047D02*
X99654819Y-138733333D01*
X99654819Y-138733333D02*
X99607200Y-138638095D01*
X99607200Y-138638095D02*
X99559580Y-138590476D01*
X98654819Y-139542857D02*
X98654819Y-140161904D01*
X98654819Y-140161904D02*
X99035771Y-139828571D01*
X99035771Y-139828571D02*
X99035771Y-139971428D01*
X99035771Y-139971428D02*
X99083390Y-140066666D01*
X99083390Y-140066666D02*
X99131009Y-140114285D01*
X99131009Y-140114285D02*
X99226247Y-140161904D01*
X99226247Y-140161904D02*
X99464342Y-140161904D01*
X99464342Y-140161904D02*
X99559580Y-140114285D01*
X99559580Y-140114285D02*
X99607200Y-140066666D01*
X99607200Y-140066666D02*
X99654819Y-139971428D01*
X99654819Y-139971428D02*
X99654819Y-139685714D01*
X99654819Y-139685714D02*
X99607200Y-139590476D01*
X99607200Y-139590476D02*
X99559580Y-139542857D01*
X58204819Y-116157142D02*
X57728628Y-115823809D01*
X58204819Y-115585714D02*
X57204819Y-115585714D01*
X57204819Y-115585714D02*
X57204819Y-115966666D01*
X57204819Y-115966666D02*
X57252438Y-116061904D01*
X57252438Y-116061904D02*
X57300057Y-116109523D01*
X57300057Y-116109523D02*
X57395295Y-116157142D01*
X57395295Y-116157142D02*
X57538152Y-116157142D01*
X57538152Y-116157142D02*
X57633390Y-116109523D01*
X57633390Y-116109523D02*
X57681009Y-116061904D01*
X57681009Y-116061904D02*
X57728628Y-115966666D01*
X57728628Y-115966666D02*
X57728628Y-115585714D01*
X57204819Y-116490476D02*
X57204819Y-117109523D01*
X57204819Y-117109523D02*
X57585771Y-116776190D01*
X57585771Y-116776190D02*
X57585771Y-116919047D01*
X57585771Y-116919047D02*
X57633390Y-117014285D01*
X57633390Y-117014285D02*
X57681009Y-117061904D01*
X57681009Y-117061904D02*
X57776247Y-117109523D01*
X57776247Y-117109523D02*
X58014342Y-117109523D01*
X58014342Y-117109523D02*
X58109580Y-117061904D01*
X58109580Y-117061904D02*
X58157200Y-117014285D01*
X58157200Y-117014285D02*
X58204819Y-116919047D01*
X58204819Y-116919047D02*
X58204819Y-116633333D01*
X58204819Y-116633333D02*
X58157200Y-116538095D01*
X58157200Y-116538095D02*
X58109580Y-116490476D01*
X58204819Y-117585714D02*
X58204819Y-117776190D01*
X58204819Y-117776190D02*
X58157200Y-117871428D01*
X58157200Y-117871428D02*
X58109580Y-117919047D01*
X58109580Y-117919047D02*
X57966723Y-118014285D01*
X57966723Y-118014285D02*
X57776247Y-118061904D01*
X57776247Y-118061904D02*
X57395295Y-118061904D01*
X57395295Y-118061904D02*
X57300057Y-118014285D01*
X57300057Y-118014285D02*
X57252438Y-117966666D01*
X57252438Y-117966666D02*
X57204819Y-117871428D01*
X57204819Y-117871428D02*
X57204819Y-117680952D01*
X57204819Y-117680952D02*
X57252438Y-117585714D01*
X57252438Y-117585714D02*
X57300057Y-117538095D01*
X57300057Y-117538095D02*
X57395295Y-117490476D01*
X57395295Y-117490476D02*
X57633390Y-117490476D01*
X57633390Y-117490476D02*
X57728628Y-117538095D01*
X57728628Y-117538095D02*
X57776247Y-117585714D01*
X57776247Y-117585714D02*
X57823866Y-117680952D01*
X57823866Y-117680952D02*
X57823866Y-117871428D01*
X57823866Y-117871428D02*
X57776247Y-117966666D01*
X57776247Y-117966666D02*
X57728628Y-118014285D01*
X57728628Y-118014285D02*
X57633390Y-118061904D01*
X99204819Y-94433333D02*
X98728628Y-94100000D01*
X99204819Y-93861905D02*
X98204819Y-93861905D01*
X98204819Y-93861905D02*
X98204819Y-94242857D01*
X98204819Y-94242857D02*
X98252438Y-94338095D01*
X98252438Y-94338095D02*
X98300057Y-94385714D01*
X98300057Y-94385714D02*
X98395295Y-94433333D01*
X98395295Y-94433333D02*
X98538152Y-94433333D01*
X98538152Y-94433333D02*
X98633390Y-94385714D01*
X98633390Y-94385714D02*
X98681009Y-94338095D01*
X98681009Y-94338095D02*
X98728628Y-94242857D01*
X98728628Y-94242857D02*
X98728628Y-93861905D01*
X98300057Y-94814286D02*
X98252438Y-94861905D01*
X98252438Y-94861905D02*
X98204819Y-94957143D01*
X98204819Y-94957143D02*
X98204819Y-95195238D01*
X98204819Y-95195238D02*
X98252438Y-95290476D01*
X98252438Y-95290476D02*
X98300057Y-95338095D01*
X98300057Y-95338095D02*
X98395295Y-95385714D01*
X98395295Y-95385714D02*
X98490533Y-95385714D01*
X98490533Y-95385714D02*
X98633390Y-95338095D01*
X98633390Y-95338095D02*
X99204819Y-94766667D01*
X99204819Y-94766667D02*
X99204819Y-95385714D01*
X90650057Y-60204761D02*
X90602438Y-60109523D01*
X90602438Y-60109523D02*
X90507200Y-60014285D01*
X90507200Y-60014285D02*
X90364342Y-59871428D01*
X90364342Y-59871428D02*
X90316723Y-59776190D01*
X90316723Y-59776190D02*
X90316723Y-59680952D01*
X90554819Y-59728571D02*
X90507200Y-59633333D01*
X90507200Y-59633333D02*
X90411961Y-59538095D01*
X90411961Y-59538095D02*
X90221485Y-59490476D01*
X90221485Y-59490476D02*
X89888152Y-59490476D01*
X89888152Y-59490476D02*
X89697676Y-59538095D01*
X89697676Y-59538095D02*
X89602438Y-59633333D01*
X89602438Y-59633333D02*
X89554819Y-59728571D01*
X89554819Y-59728571D02*
X89554819Y-59919047D01*
X89554819Y-59919047D02*
X89602438Y-60014285D01*
X89602438Y-60014285D02*
X89697676Y-60109523D01*
X89697676Y-60109523D02*
X89888152Y-60157142D01*
X89888152Y-60157142D02*
X90221485Y-60157142D01*
X90221485Y-60157142D02*
X90411961Y-60109523D01*
X90411961Y-60109523D02*
X90507200Y-60014285D01*
X90507200Y-60014285D02*
X90554819Y-59919047D01*
X90554819Y-59919047D02*
X90554819Y-59728571D01*
X90554819Y-61109523D02*
X90554819Y-60538095D01*
X90554819Y-60823809D02*
X89554819Y-60823809D01*
X89554819Y-60823809D02*
X89697676Y-60728571D01*
X89697676Y-60728571D02*
X89792914Y-60633333D01*
X89792914Y-60633333D02*
X89840533Y-60538095D01*
X70538094Y-101354819D02*
X70538094Y-100354819D01*
X70538094Y-100354819D02*
X70299999Y-100354819D01*
X70299999Y-100354819D02*
X70157142Y-100402438D01*
X70157142Y-100402438D02*
X70061904Y-100497676D01*
X70061904Y-100497676D02*
X70014285Y-100592914D01*
X70014285Y-100592914D02*
X69966666Y-100783390D01*
X69966666Y-100783390D02*
X69966666Y-100926247D01*
X69966666Y-100926247D02*
X70014285Y-101116723D01*
X70014285Y-101116723D02*
X70061904Y-101211961D01*
X70061904Y-101211961D02*
X70157142Y-101307200D01*
X70157142Y-101307200D02*
X70299999Y-101354819D01*
X70299999Y-101354819D02*
X70538094Y-101354819D01*
X69395237Y-100783390D02*
X69490475Y-100735771D01*
X69490475Y-100735771D02*
X69538094Y-100688152D01*
X69538094Y-100688152D02*
X69585713Y-100592914D01*
X69585713Y-100592914D02*
X69585713Y-100545295D01*
X69585713Y-100545295D02*
X69538094Y-100450057D01*
X69538094Y-100450057D02*
X69490475Y-100402438D01*
X69490475Y-100402438D02*
X69395237Y-100354819D01*
X69395237Y-100354819D02*
X69204761Y-100354819D01*
X69204761Y-100354819D02*
X69109523Y-100402438D01*
X69109523Y-100402438D02*
X69061904Y-100450057D01*
X69061904Y-100450057D02*
X69014285Y-100545295D01*
X69014285Y-100545295D02*
X69014285Y-100592914D01*
X69014285Y-100592914D02*
X69061904Y-100688152D01*
X69061904Y-100688152D02*
X69109523Y-100735771D01*
X69109523Y-100735771D02*
X69204761Y-100783390D01*
X69204761Y-100783390D02*
X69395237Y-100783390D01*
X69395237Y-100783390D02*
X69490475Y-100831009D01*
X69490475Y-100831009D02*
X69538094Y-100878628D01*
X69538094Y-100878628D02*
X69585713Y-100973866D01*
X69585713Y-100973866D02*
X69585713Y-101164342D01*
X69585713Y-101164342D02*
X69538094Y-101259580D01*
X69538094Y-101259580D02*
X69490475Y-101307200D01*
X69490475Y-101307200D02*
X69395237Y-101354819D01*
X69395237Y-101354819D02*
X69204761Y-101354819D01*
X69204761Y-101354819D02*
X69109523Y-101307200D01*
X69109523Y-101307200D02*
X69061904Y-101259580D01*
X69061904Y-101259580D02*
X69014285Y-101164342D01*
X69014285Y-101164342D02*
X69014285Y-100973866D01*
X69014285Y-100973866D02*
X69061904Y-100878628D01*
X69061904Y-100878628D02*
X69109523Y-100831009D01*
X69109523Y-100831009D02*
X69204761Y-100783390D01*
X66251904Y-101354819D02*
X66251904Y-100354819D01*
X65680476Y-101354819D02*
X66109047Y-100783390D01*
X65680476Y-100354819D02*
X66251904Y-100926247D01*
X90650057Y-67204761D02*
X90602438Y-67109523D01*
X90602438Y-67109523D02*
X90507200Y-67014285D01*
X90507200Y-67014285D02*
X90364342Y-66871428D01*
X90364342Y-66871428D02*
X90316723Y-66776190D01*
X90316723Y-66776190D02*
X90316723Y-66680952D01*
X90554819Y-66728571D02*
X90507200Y-66633333D01*
X90507200Y-66633333D02*
X90411961Y-66538095D01*
X90411961Y-66538095D02*
X90221485Y-66490476D01*
X90221485Y-66490476D02*
X89888152Y-66490476D01*
X89888152Y-66490476D02*
X89697676Y-66538095D01*
X89697676Y-66538095D02*
X89602438Y-66633333D01*
X89602438Y-66633333D02*
X89554819Y-66728571D01*
X89554819Y-66728571D02*
X89554819Y-66919047D01*
X89554819Y-66919047D02*
X89602438Y-67014285D01*
X89602438Y-67014285D02*
X89697676Y-67109523D01*
X89697676Y-67109523D02*
X89888152Y-67157142D01*
X89888152Y-67157142D02*
X90221485Y-67157142D01*
X90221485Y-67157142D02*
X90411961Y-67109523D01*
X90411961Y-67109523D02*
X90507200Y-67014285D01*
X90507200Y-67014285D02*
X90554819Y-66919047D01*
X90554819Y-66919047D02*
X90554819Y-66728571D01*
X89650057Y-67538095D02*
X89602438Y-67585714D01*
X89602438Y-67585714D02*
X89554819Y-67680952D01*
X89554819Y-67680952D02*
X89554819Y-67919047D01*
X89554819Y-67919047D02*
X89602438Y-68014285D01*
X89602438Y-68014285D02*
X89650057Y-68061904D01*
X89650057Y-68061904D02*
X89745295Y-68109523D01*
X89745295Y-68109523D02*
X89840533Y-68109523D01*
X89840533Y-68109523D02*
X89983390Y-68061904D01*
X89983390Y-68061904D02*
X90554819Y-67490476D01*
X90554819Y-67490476D02*
X90554819Y-68109523D01*
X69054819Y-120161905D02*
X69864342Y-120161905D01*
X69864342Y-120161905D02*
X69959580Y-120209524D01*
X69959580Y-120209524D02*
X70007200Y-120257143D01*
X70007200Y-120257143D02*
X70054819Y-120352381D01*
X70054819Y-120352381D02*
X70054819Y-120542857D01*
X70054819Y-120542857D02*
X70007200Y-120638095D01*
X70007200Y-120638095D02*
X69959580Y-120685714D01*
X69959580Y-120685714D02*
X69864342Y-120733333D01*
X69864342Y-120733333D02*
X69054819Y-120733333D01*
X70054819Y-121733333D02*
X70054819Y-121161905D01*
X70054819Y-121447619D02*
X69054819Y-121447619D01*
X69054819Y-121447619D02*
X69197676Y-121352381D01*
X69197676Y-121352381D02*
X69292914Y-121257143D01*
X69292914Y-121257143D02*
X69340533Y-121161905D01*
X69054819Y-122590476D02*
X69054819Y-122400000D01*
X69054819Y-122400000D02*
X69102438Y-122304762D01*
X69102438Y-122304762D02*
X69150057Y-122257143D01*
X69150057Y-122257143D02*
X69292914Y-122161905D01*
X69292914Y-122161905D02*
X69483390Y-122114286D01*
X69483390Y-122114286D02*
X69864342Y-122114286D01*
X69864342Y-122114286D02*
X69959580Y-122161905D01*
X69959580Y-122161905D02*
X70007200Y-122209524D01*
X70007200Y-122209524D02*
X70054819Y-122304762D01*
X70054819Y-122304762D02*
X70054819Y-122495238D01*
X70054819Y-122495238D02*
X70007200Y-122590476D01*
X70007200Y-122590476D02*
X69959580Y-122638095D01*
X69959580Y-122638095D02*
X69864342Y-122685714D01*
X69864342Y-122685714D02*
X69626247Y-122685714D01*
X69626247Y-122685714D02*
X69531009Y-122638095D01*
X69531009Y-122638095D02*
X69483390Y-122590476D01*
X69483390Y-122590476D02*
X69435771Y-122495238D01*
X69435771Y-122495238D02*
X69435771Y-122304762D01*
X69435771Y-122304762D02*
X69483390Y-122209524D01*
X69483390Y-122209524D02*
X69531009Y-122161905D01*
X69531009Y-122161905D02*
X69626247Y-122114286D01*
X45766666Y-72554819D02*
X46099999Y-72078628D01*
X46338094Y-72554819D02*
X46338094Y-71554819D01*
X46338094Y-71554819D02*
X45957142Y-71554819D01*
X45957142Y-71554819D02*
X45861904Y-71602438D01*
X45861904Y-71602438D02*
X45814285Y-71650057D01*
X45814285Y-71650057D02*
X45766666Y-71745295D01*
X45766666Y-71745295D02*
X45766666Y-71888152D01*
X45766666Y-71888152D02*
X45814285Y-71983390D01*
X45814285Y-71983390D02*
X45861904Y-72031009D01*
X45861904Y-72031009D02*
X45957142Y-72078628D01*
X45957142Y-72078628D02*
X46338094Y-72078628D01*
X45290475Y-72554819D02*
X45099999Y-72554819D01*
X45099999Y-72554819D02*
X45004761Y-72507200D01*
X45004761Y-72507200D02*
X44957142Y-72459580D01*
X44957142Y-72459580D02*
X44861904Y-72316723D01*
X44861904Y-72316723D02*
X44814285Y-72126247D01*
X44814285Y-72126247D02*
X44814285Y-71745295D01*
X44814285Y-71745295D02*
X44861904Y-71650057D01*
X44861904Y-71650057D02*
X44909523Y-71602438D01*
X44909523Y-71602438D02*
X45004761Y-71554819D01*
X45004761Y-71554819D02*
X45195237Y-71554819D01*
X45195237Y-71554819D02*
X45290475Y-71602438D01*
X45290475Y-71602438D02*
X45338094Y-71650057D01*
X45338094Y-71650057D02*
X45385713Y-71745295D01*
X45385713Y-71745295D02*
X45385713Y-71983390D01*
X45385713Y-71983390D02*
X45338094Y-72078628D01*
X45338094Y-72078628D02*
X45290475Y-72126247D01*
X45290475Y-72126247D02*
X45195237Y-72173866D01*
X45195237Y-72173866D02*
X45004761Y-72173866D01*
X45004761Y-72173866D02*
X44909523Y-72126247D01*
X44909523Y-72126247D02*
X44861904Y-72078628D01*
X44861904Y-72078628D02*
X44814285Y-71983390D01*
X79359580Y-119757142D02*
X79407200Y-119709523D01*
X79407200Y-119709523D02*
X79454819Y-119566666D01*
X79454819Y-119566666D02*
X79454819Y-119471428D01*
X79454819Y-119471428D02*
X79407200Y-119328571D01*
X79407200Y-119328571D02*
X79311961Y-119233333D01*
X79311961Y-119233333D02*
X79216723Y-119185714D01*
X79216723Y-119185714D02*
X79026247Y-119138095D01*
X79026247Y-119138095D02*
X78883390Y-119138095D01*
X78883390Y-119138095D02*
X78692914Y-119185714D01*
X78692914Y-119185714D02*
X78597676Y-119233333D01*
X78597676Y-119233333D02*
X78502438Y-119328571D01*
X78502438Y-119328571D02*
X78454819Y-119471428D01*
X78454819Y-119471428D02*
X78454819Y-119566666D01*
X78454819Y-119566666D02*
X78502438Y-119709523D01*
X78502438Y-119709523D02*
X78550057Y-119757142D01*
X79454819Y-120709523D02*
X79454819Y-120138095D01*
X79454819Y-120423809D02*
X78454819Y-120423809D01*
X78454819Y-120423809D02*
X78597676Y-120328571D01*
X78597676Y-120328571D02*
X78692914Y-120233333D01*
X78692914Y-120233333D02*
X78740533Y-120138095D01*
X79454819Y-121661904D02*
X79454819Y-121090476D01*
X79454819Y-121376190D02*
X78454819Y-121376190D01*
X78454819Y-121376190D02*
X78597676Y-121280952D01*
X78597676Y-121280952D02*
X78692914Y-121185714D01*
X78692914Y-121185714D02*
X78740533Y-121090476D01*
X105454819Y-130038095D02*
X106264342Y-130038095D01*
X106264342Y-130038095D02*
X106359580Y-130085714D01*
X106359580Y-130085714D02*
X106407200Y-130133333D01*
X106407200Y-130133333D02*
X106454819Y-130228571D01*
X106454819Y-130228571D02*
X106454819Y-130419047D01*
X106454819Y-130419047D02*
X106407200Y-130514285D01*
X106407200Y-130514285D02*
X106359580Y-130561904D01*
X106359580Y-130561904D02*
X106264342Y-130609523D01*
X106264342Y-130609523D02*
X105454819Y-130609523D01*
X105883390Y-131228571D02*
X105835771Y-131133333D01*
X105835771Y-131133333D02*
X105788152Y-131085714D01*
X105788152Y-131085714D02*
X105692914Y-131038095D01*
X105692914Y-131038095D02*
X105645295Y-131038095D01*
X105645295Y-131038095D02*
X105550057Y-131085714D01*
X105550057Y-131085714D02*
X105502438Y-131133333D01*
X105502438Y-131133333D02*
X105454819Y-131228571D01*
X105454819Y-131228571D02*
X105454819Y-131419047D01*
X105454819Y-131419047D02*
X105502438Y-131514285D01*
X105502438Y-131514285D02*
X105550057Y-131561904D01*
X105550057Y-131561904D02*
X105645295Y-131609523D01*
X105645295Y-131609523D02*
X105692914Y-131609523D01*
X105692914Y-131609523D02*
X105788152Y-131561904D01*
X105788152Y-131561904D02*
X105835771Y-131514285D01*
X105835771Y-131514285D02*
X105883390Y-131419047D01*
X105883390Y-131419047D02*
X105883390Y-131228571D01*
X105883390Y-131228571D02*
X105931009Y-131133333D01*
X105931009Y-131133333D02*
X105978628Y-131085714D01*
X105978628Y-131085714D02*
X106073866Y-131038095D01*
X106073866Y-131038095D02*
X106264342Y-131038095D01*
X106264342Y-131038095D02*
X106359580Y-131085714D01*
X106359580Y-131085714D02*
X106407200Y-131133333D01*
X106407200Y-131133333D02*
X106454819Y-131228571D01*
X106454819Y-131228571D02*
X106454819Y-131419047D01*
X106454819Y-131419047D02*
X106407200Y-131514285D01*
X106407200Y-131514285D02*
X106359580Y-131561904D01*
X106359580Y-131561904D02*
X106264342Y-131609523D01*
X106264342Y-131609523D02*
X106073866Y-131609523D01*
X106073866Y-131609523D02*
X105978628Y-131561904D01*
X105978628Y-131561904D02*
X105931009Y-131514285D01*
X105931009Y-131514285D02*
X105883390Y-131419047D01*
X82713819Y-138257142D02*
X82237628Y-137923809D01*
X82713819Y-137685714D02*
X81713819Y-137685714D01*
X81713819Y-137685714D02*
X81713819Y-138066666D01*
X81713819Y-138066666D02*
X81761438Y-138161904D01*
X81761438Y-138161904D02*
X81809057Y-138209523D01*
X81809057Y-138209523D02*
X81904295Y-138257142D01*
X81904295Y-138257142D02*
X82047152Y-138257142D01*
X82047152Y-138257142D02*
X82142390Y-138209523D01*
X82142390Y-138209523D02*
X82190009Y-138161904D01*
X82190009Y-138161904D02*
X82237628Y-138066666D01*
X82237628Y-138066666D02*
X82237628Y-137685714D01*
X81809057Y-138638095D02*
X81761438Y-138685714D01*
X81761438Y-138685714D02*
X81713819Y-138780952D01*
X81713819Y-138780952D02*
X81713819Y-139019047D01*
X81713819Y-139019047D02*
X81761438Y-139114285D01*
X81761438Y-139114285D02*
X81809057Y-139161904D01*
X81809057Y-139161904D02*
X81904295Y-139209523D01*
X81904295Y-139209523D02*
X81999533Y-139209523D01*
X81999533Y-139209523D02*
X82142390Y-139161904D01*
X82142390Y-139161904D02*
X82713819Y-138590476D01*
X82713819Y-138590476D02*
X82713819Y-139209523D01*
X82713819Y-139685714D02*
X82713819Y-139876190D01*
X82713819Y-139876190D02*
X82666200Y-139971428D01*
X82666200Y-139971428D02*
X82618580Y-140019047D01*
X82618580Y-140019047D02*
X82475723Y-140114285D01*
X82475723Y-140114285D02*
X82285247Y-140161904D01*
X82285247Y-140161904D02*
X81904295Y-140161904D01*
X81904295Y-140161904D02*
X81809057Y-140114285D01*
X81809057Y-140114285D02*
X81761438Y-140066666D01*
X81761438Y-140066666D02*
X81713819Y-139971428D01*
X81713819Y-139971428D02*
X81713819Y-139780952D01*
X81713819Y-139780952D02*
X81761438Y-139685714D01*
X81761438Y-139685714D02*
X81809057Y-139638095D01*
X81809057Y-139638095D02*
X81904295Y-139590476D01*
X81904295Y-139590476D02*
X82142390Y-139590476D01*
X82142390Y-139590476D02*
X82237628Y-139638095D01*
X82237628Y-139638095D02*
X82285247Y-139685714D01*
X82285247Y-139685714D02*
X82332866Y-139780952D01*
X82332866Y-139780952D02*
X82332866Y-139971428D01*
X82332866Y-139971428D02*
X82285247Y-140066666D01*
X82285247Y-140066666D02*
X82237628Y-140114285D01*
X82237628Y-140114285D02*
X82142390Y-140161904D01*
X62554819Y-133557142D02*
X62078628Y-133223809D01*
X62554819Y-132985714D02*
X61554819Y-132985714D01*
X61554819Y-132985714D02*
X61554819Y-133366666D01*
X61554819Y-133366666D02*
X61602438Y-133461904D01*
X61602438Y-133461904D02*
X61650057Y-133509523D01*
X61650057Y-133509523D02*
X61745295Y-133557142D01*
X61745295Y-133557142D02*
X61888152Y-133557142D01*
X61888152Y-133557142D02*
X61983390Y-133509523D01*
X61983390Y-133509523D02*
X62031009Y-133461904D01*
X62031009Y-133461904D02*
X62078628Y-133366666D01*
X62078628Y-133366666D02*
X62078628Y-132985714D01*
X61554819Y-133890476D02*
X61554819Y-134509523D01*
X61554819Y-134509523D02*
X61935771Y-134176190D01*
X61935771Y-134176190D02*
X61935771Y-134319047D01*
X61935771Y-134319047D02*
X61983390Y-134414285D01*
X61983390Y-134414285D02*
X62031009Y-134461904D01*
X62031009Y-134461904D02*
X62126247Y-134509523D01*
X62126247Y-134509523D02*
X62364342Y-134509523D01*
X62364342Y-134509523D02*
X62459580Y-134461904D01*
X62459580Y-134461904D02*
X62507200Y-134414285D01*
X62507200Y-134414285D02*
X62554819Y-134319047D01*
X62554819Y-134319047D02*
X62554819Y-134033333D01*
X62554819Y-134033333D02*
X62507200Y-133938095D01*
X62507200Y-133938095D02*
X62459580Y-133890476D01*
X61983390Y-135080952D02*
X61935771Y-134985714D01*
X61935771Y-134985714D02*
X61888152Y-134938095D01*
X61888152Y-134938095D02*
X61792914Y-134890476D01*
X61792914Y-134890476D02*
X61745295Y-134890476D01*
X61745295Y-134890476D02*
X61650057Y-134938095D01*
X61650057Y-134938095D02*
X61602438Y-134985714D01*
X61602438Y-134985714D02*
X61554819Y-135080952D01*
X61554819Y-135080952D02*
X61554819Y-135271428D01*
X61554819Y-135271428D02*
X61602438Y-135366666D01*
X61602438Y-135366666D02*
X61650057Y-135414285D01*
X61650057Y-135414285D02*
X61745295Y-135461904D01*
X61745295Y-135461904D02*
X61792914Y-135461904D01*
X61792914Y-135461904D02*
X61888152Y-135414285D01*
X61888152Y-135414285D02*
X61935771Y-135366666D01*
X61935771Y-135366666D02*
X61983390Y-135271428D01*
X61983390Y-135271428D02*
X61983390Y-135080952D01*
X61983390Y-135080952D02*
X62031009Y-134985714D01*
X62031009Y-134985714D02*
X62078628Y-134938095D01*
X62078628Y-134938095D02*
X62173866Y-134890476D01*
X62173866Y-134890476D02*
X62364342Y-134890476D01*
X62364342Y-134890476D02*
X62459580Y-134938095D01*
X62459580Y-134938095D02*
X62507200Y-134985714D01*
X62507200Y-134985714D02*
X62554819Y-135080952D01*
X62554819Y-135080952D02*
X62554819Y-135271428D01*
X62554819Y-135271428D02*
X62507200Y-135366666D01*
X62507200Y-135366666D02*
X62459580Y-135414285D01*
X62459580Y-135414285D02*
X62364342Y-135461904D01*
X62364342Y-135461904D02*
X62173866Y-135461904D01*
X62173866Y-135461904D02*
X62078628Y-135414285D01*
X62078628Y-135414285D02*
X62031009Y-135366666D01*
X62031009Y-135366666D02*
X61983390Y-135271428D01*
X72609523Y-137406009D02*
X72942856Y-137406009D01*
X72942856Y-137929819D02*
X72942856Y-136929819D01*
X72942856Y-136929819D02*
X72466666Y-136929819D01*
X71561904Y-137929819D02*
X72133332Y-137929819D01*
X71847618Y-137929819D02*
X71847618Y-136929819D01*
X71847618Y-136929819D02*
X71942856Y-137072676D01*
X71942856Y-137072676D02*
X72038094Y-137167914D01*
X72038094Y-137167914D02*
X72133332Y-137215533D01*
X71228570Y-136929819D02*
X70609523Y-136929819D01*
X70609523Y-136929819D02*
X70942856Y-137310771D01*
X70942856Y-137310771D02*
X70799999Y-137310771D01*
X70799999Y-137310771D02*
X70704761Y-137358390D01*
X70704761Y-137358390D02*
X70657142Y-137406009D01*
X70657142Y-137406009D02*
X70609523Y-137501247D01*
X70609523Y-137501247D02*
X70609523Y-137739342D01*
X70609523Y-137739342D02*
X70657142Y-137834580D01*
X70657142Y-137834580D02*
X70704761Y-137882200D01*
X70704761Y-137882200D02*
X70799999Y-137929819D01*
X70799999Y-137929819D02*
X71085713Y-137929819D01*
X71085713Y-137929819D02*
X71180951Y-137882200D01*
X71180951Y-137882200D02*
X71228570Y-137834580D01*
X89554819Y-138257142D02*
X89078628Y-137923809D01*
X89554819Y-137685714D02*
X88554819Y-137685714D01*
X88554819Y-137685714D02*
X88554819Y-138066666D01*
X88554819Y-138066666D02*
X88602438Y-138161904D01*
X88602438Y-138161904D02*
X88650057Y-138209523D01*
X88650057Y-138209523D02*
X88745295Y-138257142D01*
X88745295Y-138257142D02*
X88888152Y-138257142D01*
X88888152Y-138257142D02*
X88983390Y-138209523D01*
X88983390Y-138209523D02*
X89031009Y-138161904D01*
X89031009Y-138161904D02*
X89078628Y-138066666D01*
X89078628Y-138066666D02*
X89078628Y-137685714D01*
X88554819Y-138590476D02*
X88554819Y-139209523D01*
X88554819Y-139209523D02*
X88935771Y-138876190D01*
X88935771Y-138876190D02*
X88935771Y-139019047D01*
X88935771Y-139019047D02*
X88983390Y-139114285D01*
X88983390Y-139114285D02*
X89031009Y-139161904D01*
X89031009Y-139161904D02*
X89126247Y-139209523D01*
X89126247Y-139209523D02*
X89364342Y-139209523D01*
X89364342Y-139209523D02*
X89459580Y-139161904D01*
X89459580Y-139161904D02*
X89507200Y-139114285D01*
X89507200Y-139114285D02*
X89554819Y-139019047D01*
X89554819Y-139019047D02*
X89554819Y-138733333D01*
X89554819Y-138733333D02*
X89507200Y-138638095D01*
X89507200Y-138638095D02*
X89459580Y-138590476D01*
X88554819Y-139828571D02*
X88554819Y-139923809D01*
X88554819Y-139923809D02*
X88602438Y-140019047D01*
X88602438Y-140019047D02*
X88650057Y-140066666D01*
X88650057Y-140066666D02*
X88745295Y-140114285D01*
X88745295Y-140114285D02*
X88935771Y-140161904D01*
X88935771Y-140161904D02*
X89173866Y-140161904D01*
X89173866Y-140161904D02*
X89364342Y-140114285D01*
X89364342Y-140114285D02*
X89459580Y-140066666D01*
X89459580Y-140066666D02*
X89507200Y-140019047D01*
X89507200Y-140019047D02*
X89554819Y-139923809D01*
X89554819Y-139923809D02*
X89554819Y-139828571D01*
X89554819Y-139828571D02*
X89507200Y-139733333D01*
X89507200Y-139733333D02*
X89459580Y-139685714D01*
X89459580Y-139685714D02*
X89364342Y-139638095D01*
X89364342Y-139638095D02*
X89173866Y-139590476D01*
X89173866Y-139590476D02*
X88935771Y-139590476D01*
X88935771Y-139590476D02*
X88745295Y-139638095D01*
X88745295Y-139638095D02*
X88650057Y-139685714D01*
X88650057Y-139685714D02*
X88602438Y-139733333D01*
X88602438Y-139733333D02*
X88554819Y-139828571D01*
X95404819Y-94433333D02*
X94928628Y-94100000D01*
X95404819Y-93861905D02*
X94404819Y-93861905D01*
X94404819Y-93861905D02*
X94404819Y-94242857D01*
X94404819Y-94242857D02*
X94452438Y-94338095D01*
X94452438Y-94338095D02*
X94500057Y-94385714D01*
X94500057Y-94385714D02*
X94595295Y-94433333D01*
X94595295Y-94433333D02*
X94738152Y-94433333D01*
X94738152Y-94433333D02*
X94833390Y-94385714D01*
X94833390Y-94385714D02*
X94881009Y-94338095D01*
X94881009Y-94338095D02*
X94928628Y-94242857D01*
X94928628Y-94242857D02*
X94928628Y-93861905D01*
X94404819Y-94766667D02*
X94404819Y-95385714D01*
X94404819Y-95385714D02*
X94785771Y-95052381D01*
X94785771Y-95052381D02*
X94785771Y-95195238D01*
X94785771Y-95195238D02*
X94833390Y-95290476D01*
X94833390Y-95290476D02*
X94881009Y-95338095D01*
X94881009Y-95338095D02*
X94976247Y-95385714D01*
X94976247Y-95385714D02*
X95214342Y-95385714D01*
X95214342Y-95385714D02*
X95309580Y-95338095D01*
X95309580Y-95338095D02*
X95357200Y-95290476D01*
X95357200Y-95290476D02*
X95404819Y-95195238D01*
X95404819Y-95195238D02*
X95404819Y-94909524D01*
X95404819Y-94909524D02*
X95357200Y-94814286D01*
X95357200Y-94814286D02*
X95309580Y-94766667D01*
X61554819Y-116157142D02*
X61078628Y-115823809D01*
X61554819Y-115585714D02*
X60554819Y-115585714D01*
X60554819Y-115585714D02*
X60554819Y-115966666D01*
X60554819Y-115966666D02*
X60602438Y-116061904D01*
X60602438Y-116061904D02*
X60650057Y-116109523D01*
X60650057Y-116109523D02*
X60745295Y-116157142D01*
X60745295Y-116157142D02*
X60888152Y-116157142D01*
X60888152Y-116157142D02*
X60983390Y-116109523D01*
X60983390Y-116109523D02*
X61031009Y-116061904D01*
X61031009Y-116061904D02*
X61078628Y-115966666D01*
X61078628Y-115966666D02*
X61078628Y-115585714D01*
X60888152Y-117014285D02*
X61554819Y-117014285D01*
X60507200Y-116776190D02*
X61221485Y-116538095D01*
X61221485Y-116538095D02*
X61221485Y-117157142D01*
X60554819Y-117442857D02*
X60554819Y-118061904D01*
X60554819Y-118061904D02*
X60935771Y-117728571D01*
X60935771Y-117728571D02*
X60935771Y-117871428D01*
X60935771Y-117871428D02*
X60983390Y-117966666D01*
X60983390Y-117966666D02*
X61031009Y-118014285D01*
X61031009Y-118014285D02*
X61126247Y-118061904D01*
X61126247Y-118061904D02*
X61364342Y-118061904D01*
X61364342Y-118061904D02*
X61459580Y-118014285D01*
X61459580Y-118014285D02*
X61507200Y-117966666D01*
X61507200Y-117966666D02*
X61554819Y-117871428D01*
X61554819Y-117871428D02*
X61554819Y-117585714D01*
X61554819Y-117585714D02*
X61507200Y-117490476D01*
X61507200Y-117490476D02*
X61459580Y-117442857D01*
X98754819Y-130038095D02*
X99564342Y-130038095D01*
X99564342Y-130038095D02*
X99659580Y-130085714D01*
X99659580Y-130085714D02*
X99707200Y-130133333D01*
X99707200Y-130133333D02*
X99754819Y-130228571D01*
X99754819Y-130228571D02*
X99754819Y-130419047D01*
X99754819Y-130419047D02*
X99707200Y-130514285D01*
X99707200Y-130514285D02*
X99659580Y-130561904D01*
X99659580Y-130561904D02*
X99564342Y-130609523D01*
X99564342Y-130609523D02*
X98754819Y-130609523D01*
X98754819Y-130990476D02*
X98754819Y-131657142D01*
X98754819Y-131657142D02*
X99754819Y-131228571D01*
X92024819Y-130038095D02*
X92834342Y-130038095D01*
X92834342Y-130038095D02*
X92929580Y-130085714D01*
X92929580Y-130085714D02*
X92977200Y-130133333D01*
X92977200Y-130133333D02*
X93024819Y-130228571D01*
X93024819Y-130228571D02*
X93024819Y-130419047D01*
X93024819Y-130419047D02*
X92977200Y-130514285D01*
X92977200Y-130514285D02*
X92929580Y-130561904D01*
X92929580Y-130561904D02*
X92834342Y-130609523D01*
X92834342Y-130609523D02*
X92024819Y-130609523D01*
X92024819Y-131514285D02*
X92024819Y-131323809D01*
X92024819Y-131323809D02*
X92072438Y-131228571D01*
X92072438Y-131228571D02*
X92120057Y-131180952D01*
X92120057Y-131180952D02*
X92262914Y-131085714D01*
X92262914Y-131085714D02*
X92453390Y-131038095D01*
X92453390Y-131038095D02*
X92834342Y-131038095D01*
X92834342Y-131038095D02*
X92929580Y-131085714D01*
X92929580Y-131085714D02*
X92977200Y-131133333D01*
X92977200Y-131133333D02*
X93024819Y-131228571D01*
X93024819Y-131228571D02*
X93024819Y-131419047D01*
X93024819Y-131419047D02*
X92977200Y-131514285D01*
X92977200Y-131514285D02*
X92929580Y-131561904D01*
X92929580Y-131561904D02*
X92834342Y-131609523D01*
X92834342Y-131609523D02*
X92596247Y-131609523D01*
X92596247Y-131609523D02*
X92501009Y-131561904D01*
X92501009Y-131561904D02*
X92453390Y-131514285D01*
X92453390Y-131514285D02*
X92405771Y-131419047D01*
X92405771Y-131419047D02*
X92405771Y-131228571D01*
X92405771Y-131228571D02*
X92453390Y-131133333D01*
X92453390Y-131133333D02*
X92501009Y-131085714D01*
X92501009Y-131085714D02*
X92596247Y-131038095D01*
X69538094Y-114254819D02*
X69538094Y-115064342D01*
X69538094Y-115064342D02*
X69490475Y-115159580D01*
X69490475Y-115159580D02*
X69442856Y-115207200D01*
X69442856Y-115207200D02*
X69347618Y-115254819D01*
X69347618Y-115254819D02*
X69157142Y-115254819D01*
X69157142Y-115254819D02*
X69061904Y-115207200D01*
X69061904Y-115207200D02*
X69014285Y-115159580D01*
X69014285Y-115159580D02*
X68966666Y-115064342D01*
X68966666Y-115064342D02*
X68966666Y-114254819D01*
X67966666Y-115254819D02*
X68538094Y-115254819D01*
X68252380Y-115254819D02*
X68252380Y-114254819D01*
X68252380Y-114254819D02*
X68347618Y-114397676D01*
X68347618Y-114397676D02*
X68442856Y-114492914D01*
X68442856Y-114492914D02*
X68538094Y-114540533D01*
X67061904Y-114254819D02*
X67538094Y-114254819D01*
X67538094Y-114254819D02*
X67585713Y-114731009D01*
X67585713Y-114731009D02*
X67538094Y-114683390D01*
X67538094Y-114683390D02*
X67442856Y-114635771D01*
X67442856Y-114635771D02*
X67204761Y-114635771D01*
X67204761Y-114635771D02*
X67109523Y-114683390D01*
X67109523Y-114683390D02*
X67061904Y-114731009D01*
X67061904Y-114731009D02*
X67014285Y-114826247D01*
X67014285Y-114826247D02*
X67014285Y-115064342D01*
X67014285Y-115064342D02*
X67061904Y-115159580D01*
X67061904Y-115159580D02*
X67109523Y-115207200D01*
X67109523Y-115207200D02*
X67204761Y-115254819D01*
X67204761Y-115254819D02*
X67442856Y-115254819D01*
X67442856Y-115254819D02*
X67538094Y-115207200D01*
X67538094Y-115207200D02*
X67585713Y-115159580D01*
X95142857Y-72639580D02*
X95190476Y-72687200D01*
X95190476Y-72687200D02*
X95333333Y-72734819D01*
X95333333Y-72734819D02*
X95428571Y-72734819D01*
X95428571Y-72734819D02*
X95571428Y-72687200D01*
X95571428Y-72687200D02*
X95666666Y-72591961D01*
X95666666Y-72591961D02*
X95714285Y-72496723D01*
X95714285Y-72496723D02*
X95761904Y-72306247D01*
X95761904Y-72306247D02*
X95761904Y-72163390D01*
X95761904Y-72163390D02*
X95714285Y-71972914D01*
X95714285Y-71972914D02*
X95666666Y-71877676D01*
X95666666Y-71877676D02*
X95571428Y-71782438D01*
X95571428Y-71782438D02*
X95428571Y-71734819D01*
X95428571Y-71734819D02*
X95333333Y-71734819D01*
X95333333Y-71734819D02*
X95190476Y-71782438D01*
X95190476Y-71782438D02*
X95142857Y-71830057D01*
X94190476Y-72734819D02*
X94761904Y-72734819D01*
X94476190Y-72734819D02*
X94476190Y-71734819D01*
X94476190Y-71734819D02*
X94571428Y-71877676D01*
X94571428Y-71877676D02*
X94666666Y-71972914D01*
X94666666Y-71972914D02*
X94761904Y-72020533D01*
X93809523Y-71830057D02*
X93761904Y-71782438D01*
X93761904Y-71782438D02*
X93666666Y-71734819D01*
X93666666Y-71734819D02*
X93428571Y-71734819D01*
X93428571Y-71734819D02*
X93333333Y-71782438D01*
X93333333Y-71782438D02*
X93285714Y-71830057D01*
X93285714Y-71830057D02*
X93238095Y-71925295D01*
X93238095Y-71925295D02*
X93238095Y-72020533D01*
X93238095Y-72020533D02*
X93285714Y-72163390D01*
X93285714Y-72163390D02*
X93857142Y-72734819D01*
X93857142Y-72734819D02*
X93238095Y-72734819D01*
X61342857Y-128704819D02*
X61676190Y-128228628D01*
X61914285Y-128704819D02*
X61914285Y-127704819D01*
X61914285Y-127704819D02*
X61533333Y-127704819D01*
X61533333Y-127704819D02*
X61438095Y-127752438D01*
X61438095Y-127752438D02*
X61390476Y-127800057D01*
X61390476Y-127800057D02*
X61342857Y-127895295D01*
X61342857Y-127895295D02*
X61342857Y-128038152D01*
X61342857Y-128038152D02*
X61390476Y-128133390D01*
X61390476Y-128133390D02*
X61438095Y-128181009D01*
X61438095Y-128181009D02*
X61533333Y-128228628D01*
X61533333Y-128228628D02*
X61914285Y-128228628D01*
X61009523Y-127704819D02*
X60390476Y-127704819D01*
X60390476Y-127704819D02*
X60723809Y-128085771D01*
X60723809Y-128085771D02*
X60580952Y-128085771D01*
X60580952Y-128085771D02*
X60485714Y-128133390D01*
X60485714Y-128133390D02*
X60438095Y-128181009D01*
X60438095Y-128181009D02*
X60390476Y-128276247D01*
X60390476Y-128276247D02*
X60390476Y-128514342D01*
X60390476Y-128514342D02*
X60438095Y-128609580D01*
X60438095Y-128609580D02*
X60485714Y-128657200D01*
X60485714Y-128657200D02*
X60580952Y-128704819D01*
X60580952Y-128704819D02*
X60866666Y-128704819D01*
X60866666Y-128704819D02*
X60961904Y-128657200D01*
X60961904Y-128657200D02*
X61009523Y-128609580D01*
X60057142Y-127704819D02*
X59390476Y-127704819D01*
X59390476Y-127704819D02*
X59819047Y-128704819D01*
X76842857Y-128704819D02*
X77176190Y-128228628D01*
X77414285Y-128704819D02*
X77414285Y-127704819D01*
X77414285Y-127704819D02*
X77033333Y-127704819D01*
X77033333Y-127704819D02*
X76938095Y-127752438D01*
X76938095Y-127752438D02*
X76890476Y-127800057D01*
X76890476Y-127800057D02*
X76842857Y-127895295D01*
X76842857Y-127895295D02*
X76842857Y-128038152D01*
X76842857Y-128038152D02*
X76890476Y-128133390D01*
X76890476Y-128133390D02*
X76938095Y-128181009D01*
X76938095Y-128181009D02*
X77033333Y-128228628D01*
X77033333Y-128228628D02*
X77414285Y-128228628D01*
X75985714Y-128038152D02*
X75985714Y-128704819D01*
X76223809Y-127657200D02*
X76461904Y-128371485D01*
X76461904Y-128371485D02*
X75842857Y-128371485D01*
X75033333Y-127704819D02*
X75223809Y-127704819D01*
X75223809Y-127704819D02*
X75319047Y-127752438D01*
X75319047Y-127752438D02*
X75366666Y-127800057D01*
X75366666Y-127800057D02*
X75461904Y-127942914D01*
X75461904Y-127942914D02*
X75509523Y-128133390D01*
X75509523Y-128133390D02*
X75509523Y-128514342D01*
X75509523Y-128514342D02*
X75461904Y-128609580D01*
X75461904Y-128609580D02*
X75414285Y-128657200D01*
X75414285Y-128657200D02*
X75319047Y-128704819D01*
X75319047Y-128704819D02*
X75128571Y-128704819D01*
X75128571Y-128704819D02*
X75033333Y-128657200D01*
X75033333Y-128657200D02*
X74985714Y-128609580D01*
X74985714Y-128609580D02*
X74938095Y-128514342D01*
X74938095Y-128514342D02*
X74938095Y-128276247D01*
X74938095Y-128276247D02*
X74985714Y-128181009D01*
X74985714Y-128181009D02*
X75033333Y-128133390D01*
X75033333Y-128133390D02*
X75128571Y-128085771D01*
X75128571Y-128085771D02*
X75319047Y-128085771D01*
X75319047Y-128085771D02*
X75414285Y-128133390D01*
X75414285Y-128133390D02*
X75461904Y-128181009D01*
X75461904Y-128181009D02*
X75509523Y-128276247D01*
X79404819Y-138257142D02*
X78928628Y-137923809D01*
X79404819Y-137685714D02*
X78404819Y-137685714D01*
X78404819Y-137685714D02*
X78404819Y-138066666D01*
X78404819Y-138066666D02*
X78452438Y-138161904D01*
X78452438Y-138161904D02*
X78500057Y-138209523D01*
X78500057Y-138209523D02*
X78595295Y-138257142D01*
X78595295Y-138257142D02*
X78738152Y-138257142D01*
X78738152Y-138257142D02*
X78833390Y-138209523D01*
X78833390Y-138209523D02*
X78881009Y-138161904D01*
X78881009Y-138161904D02*
X78928628Y-138066666D01*
X78928628Y-138066666D02*
X78928628Y-137685714D01*
X78500057Y-138638095D02*
X78452438Y-138685714D01*
X78452438Y-138685714D02*
X78404819Y-138780952D01*
X78404819Y-138780952D02*
X78404819Y-139019047D01*
X78404819Y-139019047D02*
X78452438Y-139114285D01*
X78452438Y-139114285D02*
X78500057Y-139161904D01*
X78500057Y-139161904D02*
X78595295Y-139209523D01*
X78595295Y-139209523D02*
X78690533Y-139209523D01*
X78690533Y-139209523D02*
X78833390Y-139161904D01*
X78833390Y-139161904D02*
X79404819Y-138590476D01*
X79404819Y-138590476D02*
X79404819Y-139209523D01*
X78833390Y-139780952D02*
X78785771Y-139685714D01*
X78785771Y-139685714D02*
X78738152Y-139638095D01*
X78738152Y-139638095D02*
X78642914Y-139590476D01*
X78642914Y-139590476D02*
X78595295Y-139590476D01*
X78595295Y-139590476D02*
X78500057Y-139638095D01*
X78500057Y-139638095D02*
X78452438Y-139685714D01*
X78452438Y-139685714D02*
X78404819Y-139780952D01*
X78404819Y-139780952D02*
X78404819Y-139971428D01*
X78404819Y-139971428D02*
X78452438Y-140066666D01*
X78452438Y-140066666D02*
X78500057Y-140114285D01*
X78500057Y-140114285D02*
X78595295Y-140161904D01*
X78595295Y-140161904D02*
X78642914Y-140161904D01*
X78642914Y-140161904D02*
X78738152Y-140114285D01*
X78738152Y-140114285D02*
X78785771Y-140066666D01*
X78785771Y-140066666D02*
X78833390Y-139971428D01*
X78833390Y-139971428D02*
X78833390Y-139780952D01*
X78833390Y-139780952D02*
X78881009Y-139685714D01*
X78881009Y-139685714D02*
X78928628Y-139638095D01*
X78928628Y-139638095D02*
X79023866Y-139590476D01*
X79023866Y-139590476D02*
X79214342Y-139590476D01*
X79214342Y-139590476D02*
X79309580Y-139638095D01*
X79309580Y-139638095D02*
X79357200Y-139685714D01*
X79357200Y-139685714D02*
X79404819Y-139780952D01*
X79404819Y-139780952D02*
X79404819Y-139971428D01*
X79404819Y-139971428D02*
X79357200Y-140066666D01*
X79357200Y-140066666D02*
X79309580Y-140114285D01*
X79309580Y-140114285D02*
X79214342Y-140161904D01*
X79214342Y-140161904D02*
X79023866Y-140161904D01*
X79023866Y-140161904D02*
X78928628Y-140114285D01*
X78928628Y-140114285D02*
X78881009Y-140066666D01*
X78881009Y-140066666D02*
X78833390Y-139971428D01*
X90554819Y-56157142D02*
X90078628Y-55823809D01*
X90554819Y-55585714D02*
X89554819Y-55585714D01*
X89554819Y-55585714D02*
X89554819Y-55966666D01*
X89554819Y-55966666D02*
X89602438Y-56061904D01*
X89602438Y-56061904D02*
X89650057Y-56109523D01*
X89650057Y-56109523D02*
X89745295Y-56157142D01*
X89745295Y-56157142D02*
X89888152Y-56157142D01*
X89888152Y-56157142D02*
X89983390Y-56109523D01*
X89983390Y-56109523D02*
X90031009Y-56061904D01*
X90031009Y-56061904D02*
X90078628Y-55966666D01*
X90078628Y-55966666D02*
X90078628Y-55585714D01*
X89554819Y-57061904D02*
X89554819Y-56585714D01*
X89554819Y-56585714D02*
X90031009Y-56538095D01*
X90031009Y-56538095D02*
X89983390Y-56585714D01*
X89983390Y-56585714D02*
X89935771Y-56680952D01*
X89935771Y-56680952D02*
X89935771Y-56919047D01*
X89935771Y-56919047D02*
X89983390Y-57014285D01*
X89983390Y-57014285D02*
X90031009Y-57061904D01*
X90031009Y-57061904D02*
X90126247Y-57109523D01*
X90126247Y-57109523D02*
X90364342Y-57109523D01*
X90364342Y-57109523D02*
X90459580Y-57061904D01*
X90459580Y-57061904D02*
X90507200Y-57014285D01*
X90507200Y-57014285D02*
X90554819Y-56919047D01*
X90554819Y-56919047D02*
X90554819Y-56680952D01*
X90554819Y-56680952D02*
X90507200Y-56585714D01*
X90507200Y-56585714D02*
X90459580Y-56538095D01*
X89554819Y-57442857D02*
X89554819Y-58061904D01*
X89554819Y-58061904D02*
X89935771Y-57728571D01*
X89935771Y-57728571D02*
X89935771Y-57871428D01*
X89935771Y-57871428D02*
X89983390Y-57966666D01*
X89983390Y-57966666D02*
X90031009Y-58014285D01*
X90031009Y-58014285D02*
X90126247Y-58061904D01*
X90126247Y-58061904D02*
X90364342Y-58061904D01*
X90364342Y-58061904D02*
X90459580Y-58014285D01*
X90459580Y-58014285D02*
X90507200Y-57966666D01*
X90507200Y-57966666D02*
X90554819Y-57871428D01*
X90554819Y-57871428D02*
X90554819Y-57585714D01*
X90554819Y-57585714D02*
X90507200Y-57490476D01*
X90507200Y-57490476D02*
X90459580Y-57442857D01*
X79239580Y-123757142D02*
X79287200Y-123709523D01*
X79287200Y-123709523D02*
X79334819Y-123566666D01*
X79334819Y-123566666D02*
X79334819Y-123471428D01*
X79334819Y-123471428D02*
X79287200Y-123328571D01*
X79287200Y-123328571D02*
X79191961Y-123233333D01*
X79191961Y-123233333D02*
X79096723Y-123185714D01*
X79096723Y-123185714D02*
X78906247Y-123138095D01*
X78906247Y-123138095D02*
X78763390Y-123138095D01*
X78763390Y-123138095D02*
X78572914Y-123185714D01*
X78572914Y-123185714D02*
X78477676Y-123233333D01*
X78477676Y-123233333D02*
X78382438Y-123328571D01*
X78382438Y-123328571D02*
X78334819Y-123471428D01*
X78334819Y-123471428D02*
X78334819Y-123566666D01*
X78334819Y-123566666D02*
X78382438Y-123709523D01*
X78382438Y-123709523D02*
X78430057Y-123757142D01*
X79334819Y-124709523D02*
X79334819Y-124138095D01*
X79334819Y-124423809D02*
X78334819Y-124423809D01*
X78334819Y-124423809D02*
X78477676Y-124328571D01*
X78477676Y-124328571D02*
X78572914Y-124233333D01*
X78572914Y-124233333D02*
X78620533Y-124138095D01*
X78334819Y-125328571D02*
X78334819Y-125423809D01*
X78334819Y-125423809D02*
X78382438Y-125519047D01*
X78382438Y-125519047D02*
X78430057Y-125566666D01*
X78430057Y-125566666D02*
X78525295Y-125614285D01*
X78525295Y-125614285D02*
X78715771Y-125661904D01*
X78715771Y-125661904D02*
X78953866Y-125661904D01*
X78953866Y-125661904D02*
X79144342Y-125614285D01*
X79144342Y-125614285D02*
X79239580Y-125566666D01*
X79239580Y-125566666D02*
X79287200Y-125519047D01*
X79287200Y-125519047D02*
X79334819Y-125423809D01*
X79334819Y-125423809D02*
X79334819Y-125328571D01*
X79334819Y-125328571D02*
X79287200Y-125233333D01*
X79287200Y-125233333D02*
X79239580Y-125185714D01*
X79239580Y-125185714D02*
X79144342Y-125138095D01*
X79144342Y-125138095D02*
X78953866Y-125090476D01*
X78953866Y-125090476D02*
X78715771Y-125090476D01*
X78715771Y-125090476D02*
X78525295Y-125138095D01*
X78525295Y-125138095D02*
X78430057Y-125185714D01*
X78430057Y-125185714D02*
X78382438Y-125233333D01*
X78382438Y-125233333D02*
X78334819Y-125328571D01*
X92904819Y-138257142D02*
X92428628Y-137923809D01*
X92904819Y-137685714D02*
X91904819Y-137685714D01*
X91904819Y-137685714D02*
X91904819Y-138066666D01*
X91904819Y-138066666D02*
X91952438Y-138161904D01*
X91952438Y-138161904D02*
X92000057Y-138209523D01*
X92000057Y-138209523D02*
X92095295Y-138257142D01*
X92095295Y-138257142D02*
X92238152Y-138257142D01*
X92238152Y-138257142D02*
X92333390Y-138209523D01*
X92333390Y-138209523D02*
X92381009Y-138161904D01*
X92381009Y-138161904D02*
X92428628Y-138066666D01*
X92428628Y-138066666D02*
X92428628Y-137685714D01*
X91904819Y-138590476D02*
X91904819Y-139209523D01*
X91904819Y-139209523D02*
X92285771Y-138876190D01*
X92285771Y-138876190D02*
X92285771Y-139019047D01*
X92285771Y-139019047D02*
X92333390Y-139114285D01*
X92333390Y-139114285D02*
X92381009Y-139161904D01*
X92381009Y-139161904D02*
X92476247Y-139209523D01*
X92476247Y-139209523D02*
X92714342Y-139209523D01*
X92714342Y-139209523D02*
X92809580Y-139161904D01*
X92809580Y-139161904D02*
X92857200Y-139114285D01*
X92857200Y-139114285D02*
X92904819Y-139019047D01*
X92904819Y-139019047D02*
X92904819Y-138733333D01*
X92904819Y-138733333D02*
X92857200Y-138638095D01*
X92857200Y-138638095D02*
X92809580Y-138590476D01*
X92904819Y-140161904D02*
X92904819Y-139590476D01*
X92904819Y-139876190D02*
X91904819Y-139876190D01*
X91904819Y-139876190D02*
X92047676Y-139780952D01*
X92047676Y-139780952D02*
X92142914Y-139685714D01*
X92142914Y-139685714D02*
X92190533Y-139590476D01*
X60425094Y-93533819D02*
X60425094Y-92533819D01*
X60425094Y-92533819D02*
X60186999Y-92533819D01*
X60186999Y-92533819D02*
X60044142Y-92581438D01*
X60044142Y-92581438D02*
X59948904Y-92676676D01*
X59948904Y-92676676D02*
X59901285Y-92771914D01*
X59901285Y-92771914D02*
X59853666Y-92962390D01*
X59853666Y-92962390D02*
X59853666Y-93105247D01*
X59853666Y-93105247D02*
X59901285Y-93295723D01*
X59901285Y-93295723D02*
X59948904Y-93390961D01*
X59948904Y-93390961D02*
X60044142Y-93486200D01*
X60044142Y-93486200D02*
X60186999Y-93533819D01*
X60186999Y-93533819D02*
X60425094Y-93533819D01*
X59472713Y-92629057D02*
X59425094Y-92581438D01*
X59425094Y-92581438D02*
X59329856Y-92533819D01*
X59329856Y-92533819D02*
X59091761Y-92533819D01*
X59091761Y-92533819D02*
X58996523Y-92581438D01*
X58996523Y-92581438D02*
X58948904Y-92629057D01*
X58948904Y-92629057D02*
X58901285Y-92724295D01*
X58901285Y-92724295D02*
X58901285Y-92819533D01*
X58901285Y-92819533D02*
X58948904Y-92962390D01*
X58948904Y-92962390D02*
X59520332Y-93533819D01*
X59520332Y-93533819D02*
X58901285Y-93533819D01*
X56138904Y-93213819D02*
X56138904Y-92213819D01*
X55567476Y-93213819D02*
X55996047Y-92642390D01*
X55567476Y-92213819D02*
X56138904Y-92785247D01*
X68039580Y-125433333D02*
X68087200Y-125385714D01*
X68087200Y-125385714D02*
X68134819Y-125242857D01*
X68134819Y-125242857D02*
X68134819Y-125147619D01*
X68134819Y-125147619D02*
X68087200Y-125004762D01*
X68087200Y-125004762D02*
X67991961Y-124909524D01*
X67991961Y-124909524D02*
X67896723Y-124861905D01*
X67896723Y-124861905D02*
X67706247Y-124814286D01*
X67706247Y-124814286D02*
X67563390Y-124814286D01*
X67563390Y-124814286D02*
X67372914Y-124861905D01*
X67372914Y-124861905D02*
X67277676Y-124909524D01*
X67277676Y-124909524D02*
X67182438Y-125004762D01*
X67182438Y-125004762D02*
X67134819Y-125147619D01*
X67134819Y-125147619D02*
X67134819Y-125242857D01*
X67134819Y-125242857D02*
X67182438Y-125385714D01*
X67182438Y-125385714D02*
X67230057Y-125433333D01*
X67230057Y-125814286D02*
X67182438Y-125861905D01*
X67182438Y-125861905D02*
X67134819Y-125957143D01*
X67134819Y-125957143D02*
X67134819Y-126195238D01*
X67134819Y-126195238D02*
X67182438Y-126290476D01*
X67182438Y-126290476D02*
X67230057Y-126338095D01*
X67230057Y-126338095D02*
X67325295Y-126385714D01*
X67325295Y-126385714D02*
X67420533Y-126385714D01*
X67420533Y-126385714D02*
X67563390Y-126338095D01*
X67563390Y-126338095D02*
X68134819Y-125766667D01*
X68134819Y-125766667D02*
X68134819Y-126385714D01*
D11*
X64290000Y-142761252D02*
X64290000Y-139988748D01*
X67710000Y-142761252D02*
X67710000Y-139988748D01*
X74490000Y-142761252D02*
X74490000Y-139988748D01*
X77910000Y-142761252D02*
X77910000Y-139988748D01*
X65265000Y-117027064D02*
X65265000Y-116572936D01*
X66735000Y-117027064D02*
X66735000Y-116572936D01*
X68165000Y-74172936D02*
X68165000Y-74627064D01*
X69635000Y-74172936D02*
X69635000Y-74627064D01*
X76090000Y-134927064D02*
X76090000Y-133472936D01*
X77910000Y-134927064D02*
X77910000Y-133472936D01*
X78380000Y-107280000D02*
X78380000Y-111520000D01*
X78380000Y-111520000D02*
X80620000Y-111520000D01*
X79500000Y-107280000D02*
X79500000Y-106630000D01*
X79500000Y-111520000D02*
X79500000Y-112170000D01*
X80620000Y-107280000D02*
X78380000Y-107280000D01*
X80620000Y-107880000D02*
X78380000Y-107880000D01*
X80620000Y-108000000D02*
X78380000Y-108000000D01*
X80620000Y-108120000D02*
X78380000Y-108120000D01*
X80620000Y-111520000D02*
X80620000Y-107280000D01*
X59190000Y-142686252D02*
X59190000Y-139913748D01*
X62610000Y-142686252D02*
X62610000Y-139913748D01*
X58403748Y-87510000D02*
X58926252Y-87510000D01*
X58403748Y-88980000D02*
X58926252Y-88980000D01*
X59040000Y-121850000D02*
X59040000Y-123800000D01*
X59040000Y-125750000D02*
X59040000Y-123800000D01*
X64160000Y-121850000D02*
X64160000Y-123800000D01*
X64160000Y-125750000D02*
X64160000Y-123800000D01*
X59135000Y-121100000D02*
X58805000Y-121340000D01*
X58805000Y-120860000D01*
X59135000Y-121100000D01*
G36*
X59135000Y-121100000D02*
G01*
X58805000Y-121340000D01*
X58805000Y-120860000D01*
X59135000Y-121100000D01*
G37*
X103365000Y-139127064D02*
X103365000Y-138672936D01*
X104835000Y-139127064D02*
X104835000Y-138672936D01*
X62332936Y-87498000D02*
X62787064Y-87498000D01*
X62332936Y-88968000D02*
X62787064Y-88968000D01*
X65465000Y-74172936D02*
X65465000Y-74627064D01*
X66935000Y-74172936D02*
X66935000Y-74627064D01*
X70540000Y-134150000D02*
X70540000Y-134800000D01*
X70540000Y-135450000D02*
X70540000Y-134800000D01*
X73660000Y-134150000D02*
X73660000Y-134800000D01*
X73660000Y-135450000D02*
X73660000Y-134800000D01*
X70590000Y-133637500D02*
X70260000Y-133877500D01*
X70260000Y-133397500D01*
X70590000Y-133637500D01*
G36*
X70590000Y-133637500D02*
G01*
X70260000Y-133877500D01*
X70260000Y-133397500D01*
X70590000Y-133637500D01*
G37*
X71872936Y-129165000D02*
X72327064Y-129165000D01*
X71872936Y-130635000D02*
X72327064Y-130635000D01*
X87272936Y-63065000D02*
X87727064Y-63065000D01*
X87272936Y-64535000D02*
X87727064Y-64535000D01*
X74572936Y-104865000D02*
X75027064Y-104865000D01*
X74572936Y-106335000D02*
X75027064Y-106335000D01*
X48178000Y-74619064D02*
X48178000Y-74164936D01*
X49648000Y-74619064D02*
X49648000Y-74164936D01*
X92550000Y-58740000D02*
X94500000Y-58740000D01*
X92550000Y-68860000D02*
X94500000Y-68860000D01*
X96450000Y-58740000D02*
X94500000Y-58740000D01*
X96450000Y-68860000D02*
X94500000Y-68860000D01*
X97225000Y-58795000D02*
X96985000Y-58465000D01*
X97465000Y-58465000D01*
X97225000Y-58795000D01*
G36*
X97225000Y-58795000D02*
G01*
X96985000Y-58465000D01*
X97465000Y-58465000D01*
X97225000Y-58795000D01*
G37*
X73165000Y-117027064D02*
X73165000Y-116572936D01*
X74635000Y-117027064D02*
X74635000Y-116572936D01*
X96665000Y-139127064D02*
X96665000Y-138672936D01*
X98135000Y-139127064D02*
X98135000Y-138672936D01*
X63440000Y-134150000D02*
X63440000Y-134800000D01*
X63440000Y-135450000D02*
X63440000Y-134800000D01*
X66560000Y-134150000D02*
X66560000Y-134800000D01*
X66560000Y-135450000D02*
X66560000Y-134800000D01*
X63490000Y-133637500D02*
X63160000Y-133877500D01*
X63160000Y-133397500D01*
X63490000Y-133637500D01*
G36*
X63490000Y-133637500D02*
G01*
X63160000Y-133877500D01*
X63160000Y-133397500D01*
X63490000Y-133637500D01*
G37*
D12*
X44725000Y-86750000D02*
X44725000Y-79250000D01*
X56275000Y-86750000D02*
X56275000Y-79250000D01*
D13*
X45300000Y-78303000D02*
G75*
G02*
X45100000Y-78303000I-100000J0D01*
G01*
X45100000Y-78303000D02*
G75*
G02*
X45300000Y-78303000I100000J0D01*
G01*
D14*
X45900000Y-80203000D02*
G75*
G02*
X45500000Y-80203000I-200000J0D01*
G01*
X45500000Y-80203000D02*
G75*
G02*
X45900000Y-80203000I200000J0D01*
G01*
D11*
X79800000Y-127565000D02*
X79800000Y-134035000D01*
X79800000Y-134035000D02*
X85000000Y-134035000D01*
X85000000Y-127565000D02*
X79800000Y-127565000D01*
X85000000Y-129800000D02*
X85000000Y-127565000D01*
X85000000Y-134035000D02*
X85000000Y-131800000D01*
X85000000Y-131800000D02*
G75*
G02*
X85000000Y-129800000I0J1000000D01*
G01*
X58400748Y-84069000D02*
X58923252Y-84069000D01*
X58400748Y-85539000D02*
X58923252Y-85539000D01*
X86635000Y-138672936D02*
X86635000Y-139127064D01*
X88105000Y-138672936D02*
X88105000Y-139127064D01*
X62765000Y-74172936D02*
X62765000Y-74627064D01*
X64235000Y-74172936D02*
X64235000Y-74627064D01*
X64872936Y-129165000D02*
X65327064Y-129165000D01*
X64872936Y-130635000D02*
X65327064Y-130635000D01*
D15*
X58978000Y-77566000D02*
X62778000Y-77566000D01*
X62778000Y-82566000D02*
X58978000Y-82566000D01*
D13*
X64478000Y-77416000D02*
G75*
G02*
X64278000Y-77416000I-100000J0D01*
G01*
X64278000Y-77416000D02*
G75*
G02*
X64478000Y-77416000I100000J0D01*
G01*
D11*
X76465000Y-117027064D02*
X76465000Y-116572936D01*
X77935000Y-117027064D02*
X77935000Y-116572936D01*
X65265000Y-121461252D02*
X65265000Y-120938748D01*
X66735000Y-121461252D02*
X66735000Y-120938748D01*
X100065000Y-138672936D02*
X100065000Y-139127064D01*
X101535000Y-138672936D02*
X101535000Y-139127064D01*
X58665000Y-117027064D02*
X58665000Y-116572936D01*
X60135000Y-117027064D02*
X60135000Y-116572936D01*
X96365000Y-94372936D02*
X96365000Y-94827064D01*
X97835000Y-94372936D02*
X97835000Y-94827064D01*
X85940000Y-58720000D02*
X86740000Y-58720000D01*
X85940000Y-59650000D02*
X85940000Y-58720000D01*
X85940000Y-60950000D02*
X85940000Y-61880000D01*
X87400000Y-61880000D02*
X85940000Y-61880000D01*
X87540000Y-58720000D02*
X86740000Y-58720000D01*
X88040000Y-58690000D02*
X87800000Y-58360000D01*
X88280000Y-58360000D01*
X88040000Y-58690000D01*
G36*
X88040000Y-58690000D02*
G01*
X87800000Y-58360000D01*
X88280000Y-58360000D01*
X88040000Y-58690000D01*
G37*
X67680000Y-101680000D02*
X67680000Y-103920000D01*
X67680000Y-102800000D02*
X67030000Y-102800000D01*
X67680000Y-103920000D02*
X71920000Y-103920000D01*
X68280000Y-101680000D02*
X68280000Y-103920000D01*
X68400000Y-101680000D02*
X68400000Y-103920000D01*
X68520000Y-101680000D02*
X68520000Y-103920000D01*
X71920000Y-101680000D02*
X67680000Y-101680000D01*
X71920000Y-102800000D02*
X72570000Y-102800000D01*
X71920000Y-103920000D02*
X71920000Y-101680000D01*
X85940000Y-65720000D02*
X86740000Y-65720000D01*
X85940000Y-66650000D02*
X85940000Y-65720000D01*
X85940000Y-67950000D02*
X85940000Y-68880000D01*
X87400000Y-68880000D02*
X85940000Y-68880000D01*
X87540000Y-65720000D02*
X86740000Y-65720000D01*
X88040000Y-65690000D02*
X87800000Y-65360000D01*
X88280000Y-65360000D01*
X88040000Y-65690000D01*
G36*
X88040000Y-65690000D02*
G01*
X87800000Y-65360000D01*
X88280000Y-65360000D01*
X88040000Y-65690000D01*
G37*
X70440000Y-121850000D02*
X70440000Y-123800000D01*
X70440000Y-125750000D02*
X70440000Y-123800000D01*
X75560000Y-121850000D02*
X75560000Y-123800000D01*
X75560000Y-125750000D02*
X75560000Y-123800000D01*
X70535000Y-121100000D02*
X70205000Y-121340000D01*
X70205000Y-120860000D01*
X70535000Y-121100000D01*
G36*
X70535000Y-121100000D02*
G01*
X70205000Y-121340000D01*
X70205000Y-120860000D01*
X70535000Y-121100000D01*
G37*
X44865000Y-74627064D02*
X44865000Y-74172936D01*
X46335000Y-74627064D02*
X46335000Y-74172936D01*
X76465000Y-121461252D02*
X76465000Y-120938748D01*
X77935000Y-121461252D02*
X77935000Y-120938748D01*
X100000000Y-127565000D02*
X100000000Y-134035000D01*
X100000000Y-134035000D02*
X105200000Y-134035000D01*
X105200000Y-127565000D02*
X100000000Y-127565000D01*
X105200000Y-129800000D02*
X105200000Y-127565000D01*
X105200000Y-134035000D02*
X105200000Y-131800000D01*
X105200000Y-131800000D02*
G75*
G02*
X105200000Y-129800000I0J1000000D01*
G01*
X83165000Y-139127064D02*
X83165000Y-138672936D01*
X84635000Y-139127064D02*
X84635000Y-138672936D01*
X59190000Y-133472936D02*
X59190000Y-134927064D01*
X61010000Y-133472936D02*
X61010000Y-134927064D01*
X69390000Y-142761252D02*
X69390000Y-139988748D01*
X72810000Y-142761252D02*
X72810000Y-139988748D01*
X89965000Y-139127064D02*
X89965000Y-138672936D01*
X91435000Y-139127064D02*
X91435000Y-138672936D01*
X92565000Y-94372936D02*
X92565000Y-94827064D01*
X94035000Y-94372936D02*
X94035000Y-94827064D01*
X61865000Y-116572936D02*
X61865000Y-117027064D01*
X63335000Y-116572936D02*
X63335000Y-117027064D01*
X93300000Y-127565000D02*
X93300000Y-134035000D01*
X93300000Y-134035000D02*
X98500000Y-134035000D01*
X98500000Y-127565000D02*
X93300000Y-127565000D01*
X98500000Y-129800000D02*
X98500000Y-127565000D01*
X98500000Y-134035000D02*
X98500000Y-131800000D01*
X98500000Y-131800000D02*
G75*
G02*
X98500000Y-129800000I0J1000000D01*
G01*
X86570000Y-127565000D02*
X86570000Y-134035000D01*
X86570000Y-134035000D02*
X91770000Y-134035000D01*
X91770000Y-127565000D02*
X86570000Y-127565000D01*
X91770000Y-129800000D02*
X91770000Y-127565000D01*
X91770000Y-134035000D02*
X91770000Y-131800000D01*
X91770000Y-131800000D02*
G75*
G02*
X91770000Y-129800000I0J1000000D01*
G01*
X66450000Y-104965000D02*
X68400000Y-104965000D01*
X66450000Y-113835000D02*
X68400000Y-113835000D01*
X70350000Y-104965000D02*
X68400000Y-104965000D01*
X70350000Y-113835000D02*
X68400000Y-113835000D01*
X71100000Y-105030000D02*
X70860000Y-104700000D01*
X71340000Y-104700000D01*
X71100000Y-105030000D01*
G36*
X71100000Y-105030000D02*
G01*
X70860000Y-104700000D01*
X71340000Y-104700000D01*
X71100000Y-105030000D01*
G37*
X94761252Y-69865000D02*
X94238748Y-69865000D01*
X94761252Y-71335000D02*
X94238748Y-71335000D01*
X60472936Y-129165000D02*
X60927064Y-129165000D01*
X60472936Y-130635000D02*
X60927064Y-130635000D01*
X75972936Y-129165000D02*
X76427064Y-129165000D01*
X75972936Y-130635000D02*
X76427064Y-130635000D01*
X79865000Y-138672936D02*
X79865000Y-139127064D01*
X81335000Y-138672936D02*
X81335000Y-139127064D01*
X87272936Y-56065000D02*
X87727064Y-56065000D01*
X87272936Y-57535000D02*
X87727064Y-57535000D01*
X76465000Y-125338748D02*
X76465000Y-125861252D01*
X77935000Y-125338748D02*
X77935000Y-125861252D01*
X93365000Y-138672936D02*
X93365000Y-139127064D01*
X94835000Y-138672936D02*
X94835000Y-139127064D01*
X57567000Y-89839000D02*
X57567000Y-92079000D01*
X57567000Y-90959000D02*
X56917000Y-90959000D01*
X57567000Y-92079000D02*
X61807000Y-92079000D01*
X58167000Y-89839000D02*
X58167000Y-92079000D01*
X58287000Y-89839000D02*
X58287000Y-92079000D01*
X58407000Y-89839000D02*
X58407000Y-92079000D01*
X61807000Y-89839000D02*
X57567000Y-89839000D01*
X61807000Y-90959000D02*
X62457000Y-90959000D01*
X61807000Y-92079000D02*
X61807000Y-89839000D01*
X65265000Y-125338748D02*
X65265000Y-125861252D01*
X66735000Y-125338748D02*
X66735000Y-125861252D01*
%LPC*%
D16*
X71200000Y-67100000D03*
D17*
X73740000Y-67100000D03*
X76280000Y-67100000D03*
X78820000Y-67100000D03*
X78820000Y-59480000D03*
X76280000Y-59480000D03*
X73740000Y-59480000D03*
X71200000Y-59480000D03*
D18*
X69789087Y-83000000D03*
D19*
X49789087Y-83000000D03*
D20*
X103505000Y-122535000D03*
X100965000Y-122535000D03*
X98425000Y-122535000D03*
X95885000Y-122535000D03*
X93345000Y-122535000D03*
X90805000Y-122535000D03*
X90805000Y-142855000D03*
X93345000Y-142855000D03*
X95885000Y-142855000D03*
X98425000Y-142855000D03*
X100965000Y-142855000D03*
X103505000Y-142855000D03*
D21*
X107465000Y-126245000D03*
X107465000Y-139153000D03*
D22*
X104100000Y-66600000D03*
X104100000Y-62200000D03*
D23*
X50200000Y-137700000D03*
D24*
X56200000Y-137700000D03*
X44200000Y-104100000D03*
X62200000Y-104100000D03*
D25*
X47060000Y-148122500D03*
D26*
X52140000Y-148122500D03*
X57220000Y-148122500D03*
X62300000Y-148122500D03*
X67380000Y-148122500D03*
X72460000Y-148122500D03*
X77540000Y-148122500D03*
X82620000Y-148122500D03*
X87700000Y-148122500D03*
X92780000Y-148122500D03*
X97860000Y-148122500D03*
X102940000Y-148122500D03*
D27*
X105978145Y-106984968D03*
X105978145Y-114984968D03*
D28*
X102940000Y-41777500D03*
D26*
X97860000Y-41777500D03*
X92780000Y-41777500D03*
X87700000Y-41777500D03*
X82620000Y-41777500D03*
X77540000Y-41777500D03*
X72460000Y-41777500D03*
X67380000Y-41777500D03*
X62300000Y-41777500D03*
X57220000Y-41777500D03*
X52140000Y-41777500D03*
X47060000Y-41777500D03*
D29*
X47100000Y-142700000D03*
X52100000Y-142700000D03*
D30*
X66000000Y-139150000D03*
X66000000Y-143600000D03*
X76200000Y-139150000D03*
X76200000Y-143600000D03*
D31*
X66000000Y-115800000D03*
X66000000Y-117800000D03*
D32*
X68900000Y-75312500D03*
X68900000Y-73487500D03*
D33*
X77000000Y-132650000D03*
X77000000Y-135750000D03*
D16*
X79500000Y-105590000D03*
D17*
X79500000Y-113210000D03*
D30*
X60900000Y-139075000D03*
X60900000Y-143525000D03*
D34*
X59615000Y-88245000D03*
X57715000Y-88245000D03*
D35*
X59695000Y-121325000D03*
X60965000Y-121325000D03*
X62235000Y-121325000D03*
X63505000Y-121325000D03*
X63505000Y-126275000D03*
X62235000Y-126275000D03*
X60965000Y-126275000D03*
X59695000Y-126275000D03*
D32*
X104100000Y-139812500D03*
X104100000Y-137987500D03*
D36*
X63472500Y-88233000D03*
X61647500Y-88233000D03*
D32*
X66200000Y-75312500D03*
X66200000Y-73487500D03*
D37*
X71150000Y-133862500D03*
X73050000Y-133862500D03*
X72100000Y-135737500D03*
D38*
X73100000Y-129900000D03*
X71100000Y-129900000D03*
X88500000Y-63800000D03*
X86500000Y-63800000D03*
X75800000Y-105600000D03*
X73800000Y-105600000D03*
D39*
X48913000Y-73479500D03*
X48913000Y-75304500D03*
D40*
X97000000Y-59355000D03*
X97000000Y-60625000D03*
X97000000Y-61895000D03*
X97000000Y-63165000D03*
X97000000Y-64435000D03*
X97000000Y-65705000D03*
X97000000Y-66975000D03*
X97000000Y-68245000D03*
X92000000Y-68245000D03*
X92000000Y-66975000D03*
X92000000Y-65705000D03*
X92000000Y-64435000D03*
X92000000Y-63165000D03*
X92000000Y-61895000D03*
X92000000Y-60625000D03*
X92000000Y-59355000D03*
D31*
X73900000Y-115800000D03*
X73900000Y-117800000D03*
D32*
X97400000Y-139812500D03*
X97400000Y-137987500D03*
D37*
X64050000Y-133862500D03*
X65950000Y-133862500D03*
X65000000Y-135737500D03*
D41*
X46055000Y-78345000D03*
X47325000Y-78345000D03*
X48595000Y-78345000D03*
X49865000Y-78345000D03*
X51135000Y-78345000D03*
X52405000Y-78345000D03*
X53675000Y-78345000D03*
X54945000Y-78345000D03*
X54945000Y-87655000D03*
X53675000Y-87655000D03*
X52405000Y-87655000D03*
X51135000Y-87655000D03*
X49865000Y-87655000D03*
X48595000Y-87655000D03*
X47325000Y-87655000D03*
X46055000Y-87655000D03*
D42*
X83670000Y-135565000D03*
X81130000Y-135565000D03*
X81130000Y-126035000D03*
X83670000Y-126035000D03*
D34*
X59612000Y-84804000D03*
X57712000Y-84804000D03*
D39*
X87370000Y-137987500D03*
X87370000Y-139812500D03*
D32*
X63500000Y-75312500D03*
X63500000Y-73487500D03*
D38*
X66100000Y-129900000D03*
X64100000Y-129900000D03*
D43*
X63478000Y-78161000D03*
X63478000Y-79431000D03*
X63478000Y-80701000D03*
X63478000Y-81971000D03*
X58278000Y-81971000D03*
X58278000Y-80701000D03*
X58278000Y-79431000D03*
X58278000Y-78161000D03*
D31*
X77200000Y-115800000D03*
X77200000Y-117800000D03*
D44*
X66000000Y-120162500D03*
X66000000Y-122237500D03*
D39*
X100800000Y-137987500D03*
X100800000Y-139812500D03*
D31*
X59400000Y-115800000D03*
X59400000Y-117800000D03*
D32*
X97100000Y-95512500D03*
X97100000Y-93687500D03*
D45*
X88200000Y-59350000D03*
X88200000Y-61250000D03*
X85200000Y-60300000D03*
D16*
X65990000Y-102800000D03*
D17*
X73610000Y-102800000D03*
D45*
X88200000Y-66350000D03*
X88200000Y-68250000D03*
X85200000Y-67300000D03*
D35*
X71095000Y-121325000D03*
X72365000Y-121325000D03*
X73635000Y-121325000D03*
X74905000Y-121325000D03*
X74905000Y-126275000D03*
X73635000Y-126275000D03*
X72365000Y-126275000D03*
X71095000Y-126275000D03*
D39*
X45600000Y-73487500D03*
X45600000Y-75312500D03*
D44*
X77200000Y-120162500D03*
X77200000Y-122237500D03*
D42*
X103870000Y-135565000D03*
X101330000Y-135565000D03*
X101330000Y-126035000D03*
X103870000Y-126035000D03*
D32*
X83900000Y-139812500D03*
X83900000Y-137987500D03*
D46*
X60100000Y-135750000D03*
X60100000Y-132650000D03*
D30*
X71100000Y-139150000D03*
X71100000Y-143600000D03*
D32*
X90700000Y-139812500D03*
X90700000Y-137987500D03*
X93300000Y-95512500D03*
X93300000Y-93687500D03*
D47*
X62600000Y-117800000D03*
X62600000Y-115800000D03*
D42*
X97170000Y-135565000D03*
X94630000Y-135565000D03*
X94630000Y-126035000D03*
X97170000Y-126035000D03*
X90440000Y-135565000D03*
X87900000Y-135565000D03*
X87900000Y-126035000D03*
X90440000Y-126035000D03*
D48*
X70875000Y-105590000D03*
X70875000Y-106860000D03*
X70875000Y-108130000D03*
X70875000Y-109400000D03*
X70875000Y-110670000D03*
X70875000Y-111940000D03*
X70875000Y-113210000D03*
X65925000Y-113210000D03*
X65925000Y-111940000D03*
X65925000Y-110670000D03*
X65925000Y-109400000D03*
X65925000Y-108130000D03*
X65925000Y-106860000D03*
X65925000Y-105590000D03*
D49*
X93462500Y-70600000D03*
X95537500Y-70600000D03*
D38*
X61700000Y-129900000D03*
X59700000Y-129900000D03*
X77200000Y-129900000D03*
X75200000Y-129900000D03*
D39*
X80600000Y-137987500D03*
X80600000Y-139812500D03*
D38*
X88500000Y-56800000D03*
X86500000Y-56800000D03*
D50*
X77200000Y-126637500D03*
X77200000Y-124562500D03*
D39*
X94100000Y-137987500D03*
X94100000Y-139812500D03*
D16*
X55877000Y-90959000D03*
D17*
X63497000Y-90959000D03*
D50*
X66000000Y-126637500D03*
X66000000Y-124562500D03*
%LPD*%
M02*
