G04 #@! TF.GenerationSoftware,KiCad,Pcbnew,8.0.4*
G04 #@! TF.CreationDate,2024-11-14T12:53:51+07:00*
G04 #@! TF.ProjectId,Ver04,56657230-342e-46b6-9963-61645f706362,rev?*
G04 #@! TF.SameCoordinates,Original*
G04 #@! TF.FileFunction,Legend,Top*
G04 #@! TF.FilePolarity,Positive*
%FSLAX46Y46*%
G04 Gerber Fmt 4.6, Leading zero omitted, Abs format (unit mm)*
G04 Created by KiCad (PCBNEW 8.0.4) date 2024-11-14 12:53:51*
%MOMM*%
%LPD*%
G01*
G04 APERTURE LIST*
G04 Aperture macros list*
%AMRoundRect*
0 Rectangle with rounded corners*
0 $1 Rounding radius*
0 $2 $3 $4 $5 $6 $7 $8 $9 X,Y pos of 4 corners*
0 Add a 4 corners polygon primitive as box body*
4,1,4,$2,$3,$4,$5,$6,$7,$8,$9,$2,$3,0*
0 Add four circle primitives for the rounded corners*
1,1,$1+$1,$2,$3*
1,1,$1+$1,$4,$5*
1,1,$1+$1,$6,$7*
1,1,$1+$1,$8,$9*
0 Add four rect primitives between the rounded corners*
20,1,$1+$1,$2,$3,$4,$5,0*
20,1,$1+$1,$4,$5,$6,$7,0*
20,1,$1+$1,$6,$7,$8,$9,0*
20,1,$1+$1,$8,$9,$2,$3,0*%
G04 Aperture macros list end*
%ADD10C,0.300000*%
%ADD11C,0.150000*%
%ADD12C,0.120000*%
%ADD13C,0.127000*%
%ADD14C,0.200000*%
%ADD15RoundRect,0.250000X-0.450000X0.350000X-0.450000X-0.350000X0.450000X-0.350000X0.450000X0.350000X0*%
%ADD16RoundRect,0.250000X1.050000X0.550000X-1.050000X0.550000X-1.050000X-0.550000X1.050000X-0.550000X0*%
%ADD17R,1.600000X1.600000*%
%ADD18O,1.600000X1.600000*%
%ADD19RoundRect,0.250000X-0.350000X-0.450000X0.350000X-0.450000X0.350000X0.450000X-0.350000X0.450000X0*%
%ADD20RoundRect,0.250000X-0.625000X0.400000X-0.625000X-0.400000X0.625000X-0.400000X0.625000X0.400000X0*%
%ADD21R,2.100000X2.100000*%
%ADD22C,2.100000*%
%ADD23RoundRect,0.243750X0.456250X-0.243750X0.456250X0.243750X-0.456250X0.243750X-0.456250X-0.243750X0*%
%ADD24R,1.500000X2.000000*%
%ADD25R,3.800000X2.000000*%
%ADD26C,2.200000*%
%ADD27C,3.200000*%
%ADD28RoundRect,0.250000X1.500000X0.900000X-1.500000X0.900000X-1.500000X-0.900000X1.500000X-0.900000X0*%
%ADD29R,0.250000X1.100000*%
%ADD30RoundRect,0.250000X0.450000X-0.350000X0.450000X0.350000X-0.450000X0.350000X-0.450000X-0.350000X0*%
%ADD31R,0.900000X1.700000*%
%ADD32RoundRect,0.250000X-1.050000X-0.550000X1.050000X-0.550000X1.050000X0.550000X-1.050000X0.550000X0*%
%ADD33R,0.900000X2.000000*%
%ADD34R,2.000000X0.900000*%
%ADD35R,5.000000X5.000000*%
%ADD36C,1.000000*%
%ADD37R,2.000000X0.500000*%
%ADD38R,1.700000X2.000000*%
%ADD39RoundRect,0.102000X0.750000X-0.750000X0.750000X0.750000X-0.750000X0.750000X-0.750000X-0.750000X0*%
%ADD40C,1.704000*%
%ADD41RoundRect,0.249999X-0.790001X-1.550001X0.790001X-1.550001X0.790001X1.550001X-0.790001X1.550001X0*%
%ADD42O,2.080000X3.600000*%
%ADD43RoundRect,0.250000X-0.475000X0.250000X-0.475000X-0.250000X0.475000X-0.250000X0.475000X0.250000X0*%
%ADD44C,0.900000*%
%ADD45R,1.600000X0.700000*%
%ADD46R,2.200000X1.200000*%
%ADD47R,1.400000X1.600000*%
%ADD48R,1.400000X1.200000*%
%ADD49RoundRect,0.249999X0.790001X1.550001X-0.790001X1.550001X-0.790001X-1.550001X0.790001X-1.550001X0*%
%ADD50C,1.600000*%
%ADD51RoundRect,0.056280X0.345720X-1.030720X0.345720X1.030720X-0.345720X1.030720X-0.345720X-1.030720X0*%
%ADD52RoundRect,0.250000X-0.450000X0.262500X-0.450000X-0.262500X0.450000X-0.262500X0.450000X0.262500X0*%
G04 APERTURE END LIST*
D10*
G36*
X106899075Y-81252407D02*
G01*
X106899075Y-81538904D01*
X105375000Y-81538904D01*
X105375000Y-81252407D01*
X106899075Y-81252407D01*
G37*
G36*
X106016147Y-81779914D02*
G01*
X106091418Y-81794028D01*
X106162449Y-81817552D01*
X106229241Y-81850485D01*
X106291793Y-81892828D01*
X106350105Y-81944581D01*
X106372243Y-81967916D01*
X106423789Y-82033029D01*
X106464670Y-82101697D01*
X106494886Y-82173919D01*
X106514438Y-82249696D01*
X106523325Y-82329029D01*
X106523918Y-82356263D01*
X106518972Y-82434390D01*
X106504134Y-82510136D01*
X106479405Y-82583500D01*
X106444783Y-82654483D01*
X106401873Y-82720589D01*
X106351910Y-82778955D01*
X106294894Y-82829582D01*
X106230826Y-82872470D01*
X106161881Y-82906771D01*
X106090234Y-82931271D01*
X106015885Y-82945972D01*
X105938834Y-82950872D01*
X105861165Y-82945949D01*
X105786060Y-82931180D01*
X105713520Y-82906565D01*
X105643545Y-82872103D01*
X105578606Y-82829124D01*
X105521179Y-82778955D01*
X105471262Y-82721596D01*
X105428855Y-82657048D01*
X105395035Y-82587347D01*
X105370878Y-82514166D01*
X105356384Y-82437504D01*
X105351685Y-82359560D01*
X105609473Y-82359560D01*
X105618489Y-82437663D01*
X105645537Y-82507107D01*
X105690617Y-82567894D01*
X105701796Y-82579012D01*
X105764651Y-82625187D01*
X105837809Y-82654260D01*
X105912462Y-82665804D01*
X105939200Y-82666573D01*
X106016667Y-82659763D01*
X106092545Y-82636221D01*
X106157689Y-82595864D01*
X106175139Y-82580478D01*
X106223053Y-82522017D01*
X106253220Y-82454254D01*
X106265642Y-82377188D01*
X106265997Y-82360659D01*
X106257017Y-82282978D01*
X106230077Y-82213884D01*
X106185175Y-82153377D01*
X106174040Y-82142306D01*
X106111751Y-82096517D01*
X106039372Y-82067688D01*
X105965606Y-82056241D01*
X105939200Y-82055478D01*
X105860790Y-82062288D01*
X105784068Y-82085830D01*
X105718295Y-82126187D01*
X105700697Y-82141573D01*
X105652591Y-82199855D01*
X105622301Y-82267082D01*
X105609829Y-82343252D01*
X105609473Y-82359560D01*
X105351685Y-82359560D01*
X105351552Y-82357362D01*
X105355711Y-82283745D01*
X105371683Y-82199940D01*
X105399632Y-82121080D01*
X105439560Y-82047166D01*
X105491466Y-81978198D01*
X105521912Y-81945568D01*
X105577052Y-81896490D01*
X105647944Y-81848577D01*
X105723987Y-81812641D01*
X105805183Y-81788685D01*
X105891530Y-81776706D01*
X105936636Y-81775209D01*
X106016147Y-81779914D01*
G37*
G36*
X106899075Y-83055286D02*
G01*
X106899075Y-83892794D01*
X106617707Y-83892794D01*
X106617707Y-83616922D01*
X105375000Y-83616922D01*
X105375000Y-83324197D01*
X106617707Y-83324197D01*
X106617707Y-83055286D01*
X106899075Y-83055286D01*
G37*
G36*
X106899075Y-84673883D02*
G01*
X106899075Y-84950122D01*
X105895969Y-85600418D01*
X106899075Y-85600418D01*
X106899075Y-85888747D01*
X105375000Y-85888747D01*
X105375000Y-85611775D01*
X106374808Y-84962578D01*
X105375000Y-84962578D01*
X105375000Y-84673883D01*
X106899075Y-84673883D01*
G37*
G36*
X106016147Y-86145510D02*
G01*
X106091418Y-86159625D01*
X106162449Y-86183148D01*
X106229241Y-86216082D01*
X106291793Y-86258425D01*
X106350105Y-86310177D01*
X106372243Y-86333513D01*
X106423789Y-86398626D01*
X106464670Y-86467293D01*
X106494886Y-86539516D01*
X106514438Y-86615293D01*
X106523325Y-86694625D01*
X106523918Y-86721859D01*
X106518972Y-86799986D01*
X106504134Y-86875732D01*
X106479405Y-86949097D01*
X106444783Y-87020080D01*
X106401873Y-87086186D01*
X106351910Y-87144552D01*
X106294894Y-87195179D01*
X106230826Y-87238066D01*
X106161881Y-87272367D01*
X106090234Y-87296868D01*
X106015885Y-87311568D01*
X105938834Y-87316468D01*
X105861165Y-87311545D01*
X105786060Y-87296776D01*
X105713520Y-87272161D01*
X105643545Y-87237700D01*
X105578606Y-87194721D01*
X105521179Y-87144552D01*
X105471262Y-87087193D01*
X105428855Y-87022644D01*
X105395035Y-86952943D01*
X105370878Y-86879762D01*
X105356384Y-86803101D01*
X105351685Y-86725157D01*
X105609473Y-86725157D01*
X105618489Y-86803259D01*
X105645537Y-86872704D01*
X105690617Y-86933490D01*
X105701796Y-86944609D01*
X105764651Y-86990783D01*
X105837809Y-87019856D01*
X105912462Y-87031400D01*
X105939200Y-87032170D01*
X106016667Y-87025359D01*
X106092545Y-87001818D01*
X106157689Y-86961460D01*
X106175139Y-86946074D01*
X106223053Y-86887613D01*
X106253220Y-86819850D01*
X106265642Y-86742785D01*
X106265997Y-86726256D01*
X106257017Y-86648575D01*
X106230077Y-86579481D01*
X106185175Y-86518974D01*
X106174040Y-86507903D01*
X106111751Y-86462114D01*
X106039372Y-86433284D01*
X105965606Y-86421837D01*
X105939200Y-86421074D01*
X105860790Y-86427884D01*
X105784068Y-86451426D01*
X105718295Y-86491784D01*
X105700697Y-86507170D01*
X105652591Y-86565452D01*
X105622301Y-86632678D01*
X105609829Y-86708849D01*
X105609473Y-86725157D01*
X105351685Y-86725157D01*
X105351552Y-86722958D01*
X105355711Y-86649342D01*
X105371683Y-86565536D01*
X105399632Y-86486676D01*
X105439560Y-86412762D01*
X105491466Y-86343794D01*
X105521912Y-86311165D01*
X105577052Y-86262087D01*
X105647944Y-86214173D01*
X105723987Y-86178238D01*
X105805183Y-86154281D01*
X105891530Y-86142303D01*
X105936636Y-86140806D01*
X106016147Y-86145510D01*
G37*
G36*
X106013971Y-87491675D02*
G01*
X106087843Y-87502918D01*
X106170468Y-87526304D01*
X106246524Y-87560483D01*
X106316012Y-87605455D01*
X106358688Y-87641434D01*
X106414840Y-87701317D01*
X106459375Y-87765837D01*
X106492292Y-87834994D01*
X106513591Y-87908788D01*
X106523272Y-87987218D01*
X106523918Y-88014392D01*
X106518611Y-88088255D01*
X106500886Y-88164435D01*
X106486182Y-88203803D01*
X106449234Y-88273602D01*
X106403965Y-88334061D01*
X106372609Y-88367568D01*
X106922522Y-88367568D01*
X106922522Y-88647836D01*
X105375000Y-88647836D01*
X105375000Y-88367568D01*
X105496632Y-88367568D01*
X105448804Y-88310809D01*
X105408180Y-88248693D01*
X105385624Y-88201971D01*
X105362333Y-88126858D01*
X105355144Y-88073011D01*
X105609473Y-88073011D01*
X105618417Y-88151693D01*
X105645250Y-88221503D01*
X105689973Y-88282439D01*
X105701064Y-88293562D01*
X105763818Y-88339737D01*
X105837592Y-88368810D01*
X105913410Y-88380353D01*
X105940666Y-88381123D01*
X106018075Y-88374197D01*
X106093752Y-88350254D01*
X106158552Y-88309210D01*
X106175872Y-88293562D01*
X106223399Y-88234293D01*
X106253323Y-88165936D01*
X106265645Y-88088491D01*
X106265997Y-88071912D01*
X106257053Y-87994496D01*
X106230220Y-87925738D01*
X106185497Y-87865638D01*
X106174406Y-87854658D01*
X106112153Y-87809062D01*
X106039882Y-87780354D01*
X105966273Y-87768956D01*
X105939933Y-87768196D01*
X105862795Y-87775151D01*
X105786603Y-87799193D01*
X105720428Y-87840409D01*
X105702529Y-87856123D01*
X105653456Y-87915242D01*
X105622559Y-87982232D01*
X105609836Y-88057094D01*
X105609473Y-88073011D01*
X105355144Y-88073011D01*
X105352384Y-88052338D01*
X105351552Y-88022452D01*
X105357438Y-87943043D01*
X105375097Y-87867755D01*
X105404528Y-87796589D01*
X105445731Y-87729544D01*
X105498706Y-87666621D01*
X105518981Y-87646563D01*
X105584750Y-87592651D01*
X105656213Y-87549894D01*
X105733368Y-87518291D01*
X105816217Y-87497842D01*
X105889606Y-87489321D01*
X105935537Y-87487927D01*
X106013971Y-87491675D01*
G37*
G36*
X106009186Y-88877184D02*
G01*
X106082625Y-88889286D01*
X106165156Y-88914458D01*
X106241581Y-88951247D01*
X106311902Y-88999655D01*
X106355390Y-89038381D01*
X106412663Y-89103416D01*
X106458087Y-89174325D01*
X106491661Y-89251106D01*
X106513385Y-89333762D01*
X106522437Y-89407128D01*
X106523918Y-89453105D01*
X106519866Y-89533465D01*
X106507711Y-89608996D01*
X106487451Y-89679696D01*
X106452444Y-89758161D01*
X106405766Y-89829671D01*
X106357955Y-89883949D01*
X106291984Y-89940351D01*
X106218542Y-89985083D01*
X106137630Y-90018146D01*
X106064496Y-90036784D01*
X105986175Y-90047319D01*
X105919783Y-90049912D01*
X105867393Y-90048813D01*
X105867393Y-89766346D01*
X106078419Y-89766346D01*
X106148818Y-89734775D01*
X106207608Y-89685305D01*
X106230826Y-89656437D01*
X106266547Y-89591453D01*
X106285781Y-89519050D01*
X106289445Y-89466660D01*
X106281652Y-89389228D01*
X106258275Y-89318636D01*
X106223499Y-89260397D01*
X106166713Y-89206816D01*
X106103446Y-89169396D01*
X106078419Y-89157449D01*
X106078419Y-89766346D01*
X105867393Y-89766346D01*
X105867393Y-89144993D01*
X105791945Y-89163533D01*
X105720853Y-89198720D01*
X105662229Y-89249406D01*
X105618844Y-89313383D01*
X105593467Y-89388442D01*
X105586025Y-89466294D01*
X105593467Y-89542452D01*
X105615792Y-89613023D01*
X105653001Y-89678007D01*
X105705094Y-89737404D01*
X105595184Y-89974441D01*
X105536955Y-89927913D01*
X105481137Y-89870314D01*
X105435577Y-89807150D01*
X105410903Y-89761950D01*
X105382213Y-89688821D01*
X105364593Y-89617637D01*
X105354392Y-89540638D01*
X105351552Y-89468492D01*
X105355586Y-89388448D01*
X105367688Y-89313181D01*
X105387858Y-89242690D01*
X105422711Y-89164405D01*
X105469182Y-89092998D01*
X105516782Y-89038747D01*
X105581818Y-88982470D01*
X105652727Y-88937836D01*
X105729508Y-88904846D01*
X105812164Y-88883500D01*
X105885530Y-88874606D01*
X105931507Y-88873150D01*
X106009186Y-88877184D01*
G37*
G36*
X106899075Y-91192969D02*
G01*
X106897957Y-91267202D01*
X106893663Y-91347333D01*
X106884585Y-91428479D01*
X106868843Y-91504947D01*
X106853279Y-91550907D01*
X106815380Y-91620971D01*
X106764147Y-91680040D01*
X106706001Y-91724197D01*
X106638603Y-91757621D01*
X106563262Y-91778665D01*
X106488664Y-91787021D01*
X106462369Y-91787578D01*
X106386921Y-91782380D01*
X106309979Y-91764107D01*
X106241441Y-91732676D01*
X106200418Y-91704413D01*
X106146699Y-91653145D01*
X106103007Y-91592486D01*
X106069342Y-91522438D01*
X106054972Y-91479466D01*
X106041622Y-91405847D01*
X106035394Y-91331968D01*
X106032879Y-91266974D01*
X106312892Y-91266974D01*
X106315371Y-91344141D01*
X106327913Y-91417550D01*
X106369707Y-91477897D01*
X106378105Y-91484228D01*
X106447628Y-91507818D01*
X106462735Y-91508408D01*
X106537199Y-91491372D01*
X106588398Y-91440265D01*
X106610380Y-91369648D01*
X106616992Y-91296553D01*
X106617707Y-91256716D01*
X106617707Y-91175383D01*
X106312892Y-91175383D01*
X106312892Y-91266974D01*
X106032879Y-91266974D01*
X106032349Y-91253273D01*
X106031524Y-91175383D01*
X105375000Y-91175383D01*
X105375000Y-90887055D01*
X106899075Y-90887055D01*
X106899075Y-91192969D01*
G37*
G36*
X106620272Y-93456367D02*
G01*
X106429396Y-93254501D01*
X106490401Y-93188791D01*
X106541065Y-93120577D01*
X106581391Y-93049859D01*
X106611376Y-92976636D01*
X106631021Y-92900909D01*
X106640327Y-92822677D01*
X106641154Y-92790683D01*
X106636067Y-92711609D01*
X106620804Y-92637326D01*
X106595366Y-92567834D01*
X106559753Y-92503133D01*
X106513964Y-92443224D01*
X106496441Y-92424319D01*
X106439927Y-92373769D01*
X106367972Y-92328013D01*
X106289531Y-92296492D01*
X106217132Y-92280804D01*
X106139968Y-92275575D01*
X106059526Y-92280792D01*
X105984300Y-92296441D01*
X105914291Y-92322523D01*
X105877651Y-92341521D01*
X105811004Y-92388068D01*
X105753946Y-92445276D01*
X105710792Y-92505880D01*
X105698133Y-92528000D01*
X105666609Y-92597916D01*
X105645402Y-92672063D01*
X105634512Y-92750441D01*
X105632920Y-92795812D01*
X105637356Y-92872241D01*
X105650666Y-92944448D01*
X105675554Y-93018999D01*
X105678349Y-93025523D01*
X105714270Y-93092592D01*
X105759079Y-93156441D01*
X105808836Y-93215970D01*
X105844678Y-93254501D01*
X105641346Y-93450139D01*
X105583588Y-93387860D01*
X105532862Y-93326869D01*
X105489169Y-93267166D01*
X105447082Y-93199140D01*
X105414567Y-93132868D01*
X105386998Y-93055496D01*
X105369337Y-92983476D01*
X105357706Y-92907423D01*
X105352106Y-92827339D01*
X105351552Y-92791782D01*
X105355004Y-92705401D01*
X105365360Y-92623026D01*
X105382619Y-92544658D01*
X105406782Y-92470298D01*
X105437848Y-92399944D01*
X105475818Y-92333598D01*
X105520692Y-92271259D01*
X105572470Y-92212927D01*
X105629737Y-92160205D01*
X105690897Y-92114512D01*
X105755950Y-92075849D01*
X105824895Y-92044216D01*
X105897733Y-92019613D01*
X105974463Y-92002038D01*
X106055086Y-91991494D01*
X106139602Y-91987979D01*
X106221780Y-91991586D01*
X106300430Y-92002405D01*
X106375550Y-92020437D01*
X106447142Y-92045682D01*
X106515204Y-92078139D01*
X106537107Y-92090561D01*
X106599957Y-92132134D01*
X106657990Y-92179914D01*
X106711206Y-92233903D01*
X106759605Y-92294100D01*
X106803186Y-92360504D01*
X106816643Y-92384019D01*
X106852625Y-92456765D01*
X106881163Y-92531572D01*
X106902256Y-92608440D01*
X106915905Y-92687369D01*
X106922109Y-92768358D01*
X106922522Y-92795812D01*
X106918753Y-92877212D01*
X106907445Y-92957279D01*
X106888599Y-93036014D01*
X106862215Y-93113416D01*
X106843754Y-93157048D01*
X106806262Y-93230726D01*
X106762390Y-93299811D01*
X106712135Y-93364303D01*
X106655500Y-93424202D01*
X106620272Y-93456367D01*
G37*
G36*
X106899075Y-93938503D02*
G01*
X106898148Y-94012211D01*
X106894721Y-94088306D01*
X106887715Y-94162220D01*
X106874320Y-94235034D01*
X106872697Y-94241120D01*
X106847690Y-94313170D01*
X106808621Y-94382894D01*
X106757673Y-94441741D01*
X106740073Y-94457274D01*
X106676260Y-94499778D01*
X106605720Y-94526540D01*
X106528454Y-94537560D01*
X106512194Y-94537875D01*
X106435365Y-94529825D01*
X106365620Y-94505675D01*
X106356856Y-94501238D01*
X106293449Y-94456829D01*
X106241491Y-94402062D01*
X106226064Y-94382170D01*
X106190847Y-94446581D01*
X106146301Y-94507932D01*
X106090689Y-94562300D01*
X106060467Y-94584036D01*
X105994872Y-94617846D01*
X105922193Y-94639134D01*
X105842430Y-94647900D01*
X105825628Y-94648150D01*
X105746559Y-94641710D01*
X105671926Y-94622390D01*
X105601730Y-94590190D01*
X105588224Y-94582205D01*
X105526621Y-94537268D01*
X105471008Y-94479242D01*
X105428122Y-94412212D01*
X105400108Y-94339454D01*
X105383767Y-94260757D01*
X105376296Y-94180294D01*
X105375000Y-94124982D01*
X105375000Y-94060868D01*
X105656367Y-94060868D01*
X105659275Y-94143300D01*
X105669499Y-94218519D01*
X105694580Y-94289960D01*
X105702896Y-94302669D01*
X105759957Y-94349380D01*
X105832584Y-94364890D01*
X105838084Y-94364951D01*
X105912869Y-94352858D01*
X105977584Y-94312787D01*
X105996720Y-94291678D01*
X106032217Y-94223122D01*
X106049283Y-94145212D01*
X106054744Y-94069283D01*
X106054936Y-94051709D01*
X106312892Y-94051709D01*
X106319845Y-94128192D01*
X106347494Y-94197755D01*
X106355024Y-94207780D01*
X106416082Y-94250300D01*
X106470062Y-94258705D01*
X106544079Y-94239814D01*
X106577773Y-94210345D01*
X106610064Y-94139943D01*
X106617707Y-94063066D01*
X106617707Y-93988695D01*
X106312892Y-93988695D01*
X106312892Y-94051709D01*
X106054936Y-94051709D01*
X106054972Y-94048412D01*
X106054972Y-93988695D01*
X105656367Y-93988695D01*
X105656367Y-94060868D01*
X105375000Y-94060868D01*
X105375000Y-93700366D01*
X106899075Y-93700366D01*
X106899075Y-93938503D01*
G37*
G36*
X106899075Y-95390404D02*
G01*
X106899075Y-95687159D01*
X105816468Y-96068178D01*
X106899075Y-96454692D01*
X106899075Y-96751448D01*
X105375000Y-96205198D01*
X105375000Y-95927128D01*
X106899075Y-95390404D01*
G37*
G36*
X106383234Y-97170202D02*
G01*
X106383234Y-96888834D01*
X106459153Y-96895585D01*
X106543336Y-96912140D01*
X106619972Y-96937918D01*
X106689060Y-96972917D01*
X106750601Y-97017138D01*
X106778541Y-97042707D01*
X106827472Y-97099121D01*
X106871763Y-97172101D01*
X106898760Y-97240794D01*
X106915632Y-97315155D01*
X106922382Y-97395182D01*
X106922522Y-97409071D01*
X106917914Y-97484184D01*
X106901986Y-97561593D01*
X106874681Y-97632633D01*
X106864270Y-97652704D01*
X106822782Y-97714728D01*
X106771134Y-97768452D01*
X106709324Y-97813875D01*
X106695743Y-97821964D01*
X106626692Y-97855387D01*
X106549909Y-97877856D01*
X106472260Y-97885345D01*
X106394565Y-97879259D01*
X106322729Y-97863631D01*
X106248283Y-97838387D01*
X106181001Y-97808408D01*
X106110145Y-97768808D01*
X106045058Y-97725154D01*
X105975953Y-97672535D01*
X105915295Y-97621837D01*
X105851847Y-97564915D01*
X105812438Y-97527773D01*
X105632920Y-97357780D01*
X105632920Y-97897801D01*
X105375000Y-97897801D01*
X105375000Y-96847801D01*
X105511287Y-96847801D01*
X105982798Y-97316381D01*
X106044064Y-97376123D01*
X106100641Y-97427853D01*
X106160723Y-97478080D01*
X106221574Y-97522129D01*
X106255373Y-97542428D01*
X106324021Y-97574550D01*
X106399011Y-97595322D01*
X106441852Y-97598848D01*
X106516309Y-97586049D01*
X106581179Y-97544180D01*
X106584734Y-97540596D01*
X106625231Y-97478659D01*
X106640934Y-97402072D01*
X106641154Y-97390753D01*
X106627831Y-97315540D01*
X106587860Y-97252107D01*
X106571545Y-97236147D01*
X106507062Y-97195394D01*
X106432942Y-97174735D01*
X106383234Y-97170202D01*
G37*
G36*
X105679815Y-98273691D02*
G01*
X105663024Y-98346026D01*
X105632187Y-98387630D01*
X105568268Y-98427397D01*
X105516050Y-98435258D01*
X105442104Y-98418467D01*
X105399546Y-98387630D01*
X105359473Y-98324663D01*
X105351552Y-98273691D01*
X105368472Y-98200921D01*
X105399546Y-98159019D01*
X105463948Y-98119558D01*
X105516050Y-98111758D01*
X105590044Y-98128419D01*
X105632187Y-98159019D01*
X105671954Y-98222422D01*
X105679815Y-98273691D01*
G37*
G36*
X106197601Y-98625069D02*
G01*
X106291690Y-98630106D01*
X106378693Y-98639174D01*
X106458609Y-98652271D01*
X106531439Y-98669399D01*
X106612509Y-98696475D01*
X106682507Y-98729849D01*
X106719190Y-98752896D01*
X106777767Y-98800398D01*
X106834954Y-98864626D01*
X106877845Y-98936737D01*
X106906438Y-99016730D01*
X106919345Y-99089413D01*
X106922522Y-99151500D01*
X106917485Y-99231619D01*
X106902372Y-99306014D01*
X106873328Y-99382866D01*
X106841922Y-99437630D01*
X106790067Y-99500878D01*
X106732685Y-99549799D01*
X106664679Y-99591850D01*
X106596458Y-99623011D01*
X106517981Y-99648563D01*
X106440864Y-99665471D01*
X106354654Y-99677767D01*
X106275866Y-99684491D01*
X106190764Y-99688013D01*
X106136671Y-99688590D01*
X106046715Y-99686962D01*
X105963235Y-99682078D01*
X105886230Y-99673939D01*
X105802373Y-99659874D01*
X105727840Y-99641121D01*
X105672854Y-99621912D01*
X105604595Y-99590691D01*
X105536846Y-99549601D01*
X105480043Y-99502741D01*
X105429221Y-99443126D01*
X105391676Y-99375400D01*
X105366419Y-99298342D01*
X105354283Y-99222012D01*
X105351552Y-99159926D01*
X105351617Y-99158827D01*
X105632920Y-99158827D01*
X105646985Y-99231608D01*
X105689180Y-99292230D01*
X105732937Y-99325889D01*
X105803371Y-99358748D01*
X105881680Y-99379797D01*
X105961192Y-99392119D01*
X106036190Y-99398354D01*
X106119130Y-99400921D01*
X106136671Y-99400994D01*
X106221969Y-99399348D01*
X106298572Y-99394411D01*
X106379021Y-99384141D01*
X106457054Y-99366169D01*
X106525370Y-99337730D01*
X106532344Y-99333583D01*
X106589725Y-99287551D01*
X106630528Y-99222018D01*
X106641154Y-99158827D01*
X106628436Y-99085628D01*
X106596092Y-99028768D01*
X106539597Y-98981670D01*
X106467584Y-98950228D01*
X106441120Y-98942306D01*
X106362673Y-98926657D01*
X106285542Y-98918310D01*
X106207571Y-98914050D01*
X106132953Y-98912659D01*
X106119818Y-98912630D01*
X106037662Y-98914303D01*
X105963841Y-98919321D01*
X105886261Y-98929758D01*
X105810922Y-98948023D01*
X105738066Y-98981140D01*
X105678203Y-99033046D01*
X105641237Y-99100632D01*
X105632920Y-99158827D01*
X105351617Y-99158827D01*
X105356429Y-99077792D01*
X105371061Y-99002481D01*
X105399181Y-98925913D01*
X105429588Y-98872330D01*
X105480122Y-98810796D01*
X105535844Y-98762814D01*
X105601732Y-98721151D01*
X105667725Y-98689881D01*
X105744078Y-98664185D01*
X105819820Y-98647184D01*
X105905069Y-98634819D01*
X105983370Y-98628057D01*
X106068273Y-98624515D01*
X106122383Y-98623935D01*
X106197601Y-98625069D01*
G37*
G36*
X104379075Y-81511427D02*
G01*
X104378148Y-81585134D01*
X104374721Y-81661229D01*
X104367715Y-81735143D01*
X104354320Y-81807958D01*
X104352697Y-81814043D01*
X104327690Y-81886094D01*
X104288621Y-81955818D01*
X104237673Y-82014665D01*
X104220073Y-82030198D01*
X104156260Y-82072702D01*
X104085720Y-82099464D01*
X104008454Y-82110484D01*
X103992194Y-82110799D01*
X103915365Y-82102749D01*
X103845620Y-82078599D01*
X103836856Y-82074162D01*
X103773449Y-82029753D01*
X103721491Y-81974986D01*
X103706064Y-81955094D01*
X103670847Y-82019505D01*
X103626301Y-82080856D01*
X103570689Y-82135224D01*
X103540467Y-82156960D01*
X103474872Y-82190770D01*
X103402193Y-82212058D01*
X103322430Y-82220824D01*
X103305628Y-82221074D01*
X103226559Y-82214634D01*
X103151926Y-82195314D01*
X103081730Y-82163114D01*
X103068224Y-82155129D01*
X103006621Y-82110192D01*
X102951008Y-82052166D01*
X102908122Y-81985136D01*
X102880108Y-81912378D01*
X102863767Y-81833681D01*
X102856296Y-81753218D01*
X102855000Y-81697906D01*
X102855000Y-81633792D01*
X103136367Y-81633792D01*
X103139275Y-81716224D01*
X103149499Y-81791443D01*
X103174580Y-81862884D01*
X103182896Y-81875593D01*
X103239957Y-81922304D01*
X103312584Y-81937814D01*
X103318084Y-81937875D01*
X103392869Y-81925782D01*
X103457584Y-81885711D01*
X103476720Y-81864602D01*
X103512217Y-81796046D01*
X103529283Y-81718136D01*
X103534744Y-81642207D01*
X103534936Y-81624633D01*
X103792892Y-81624633D01*
X103799845Y-81701116D01*
X103827494Y-81770679D01*
X103835024Y-81780704D01*
X103896082Y-81823224D01*
X103950062Y-81831629D01*
X104024079Y-81812738D01*
X104057773Y-81783269D01*
X104090064Y-81712867D01*
X104097707Y-81635990D01*
X104097707Y-81561618D01*
X103792892Y-81561618D01*
X103792892Y-81624633D01*
X103534936Y-81624633D01*
X103534972Y-81621336D01*
X103534972Y-81561618D01*
X103136367Y-81561618D01*
X103136367Y-81633792D01*
X102855000Y-81633792D01*
X102855000Y-81273290D01*
X104379075Y-81273290D01*
X104379075Y-81511427D01*
G37*
G36*
X103980471Y-82335380D02*
G01*
X103980471Y-82622976D01*
X103282913Y-82914235D01*
X103980471Y-83235903D01*
X103980471Y-83524232D01*
X102456395Y-82821545D01*
X102456395Y-82531018D01*
X102958681Y-82761828D01*
X103980471Y-82335380D01*
G37*
G36*
X104003918Y-84419260D02*
G01*
X103986869Y-84491595D01*
X103955558Y-84533199D01*
X103891462Y-84572966D01*
X103839420Y-84580826D01*
X103766086Y-84564036D01*
X103723649Y-84533199D01*
X103683576Y-84470231D01*
X103675655Y-84419260D01*
X103692446Y-84346490D01*
X103723283Y-84304588D01*
X103787202Y-84265127D01*
X103839420Y-84257327D01*
X103913237Y-84273988D01*
X103955558Y-84304588D01*
X103995937Y-84367991D01*
X104003918Y-84419260D01*
G37*
G36*
X103159815Y-84419260D02*
G01*
X103143024Y-84491595D01*
X103112187Y-84533199D01*
X103048268Y-84572966D01*
X102996050Y-84580826D01*
X102922104Y-84564036D01*
X102879546Y-84533199D01*
X102839473Y-84470231D01*
X102831552Y-84419260D01*
X102848472Y-84346490D01*
X102879546Y-84304588D01*
X102943948Y-84265127D01*
X102996050Y-84257327D01*
X103070044Y-84273988D01*
X103112187Y-84304588D01*
X103151954Y-84367991D01*
X103159815Y-84419260D01*
G37*
G36*
X104120055Y-86870969D02*
G01*
X103921486Y-86668004D01*
X103979008Y-86606226D01*
X104026780Y-86541336D01*
X104064803Y-86473333D01*
X104093076Y-86402218D01*
X104111600Y-86327990D01*
X104120374Y-86250649D01*
X104121154Y-86218841D01*
X104116067Y-86137461D01*
X104100804Y-86061207D01*
X104075366Y-85990080D01*
X104039753Y-85924078D01*
X103993964Y-85863203D01*
X103976441Y-85844050D01*
X103919983Y-85792754D01*
X103848582Y-85746321D01*
X103771219Y-85714335D01*
X103687896Y-85696793D01*
X103624731Y-85693108D01*
X103546665Y-85698608D01*
X103473211Y-85715107D01*
X103404367Y-85742606D01*
X103340134Y-85781104D01*
X103280513Y-85830602D01*
X103261664Y-85849546D01*
X103211114Y-85910910D01*
X103171023Y-85977401D01*
X103141390Y-86049018D01*
X103122216Y-86125762D01*
X103113501Y-86207631D01*
X103112920Y-86236060D01*
X103117412Y-86316402D01*
X103130888Y-86389268D01*
X103156397Y-86461460D01*
X103169706Y-86487752D01*
X103211459Y-86548002D01*
X103265734Y-86600524D01*
X103332531Y-86645318D01*
X103347393Y-86653349D01*
X103347393Y-86214445D01*
X103628761Y-86214445D01*
X103628761Y-86976849D01*
X103565746Y-86979047D01*
X103480655Y-86974121D01*
X103397528Y-86959342D01*
X103316364Y-86934711D01*
X103248357Y-86905757D01*
X103192787Y-86876099D01*
X103129766Y-86835342D01*
X103063631Y-86782355D01*
X103005455Y-86723514D01*
X102955238Y-86658816D01*
X102924242Y-86609019D01*
X102888126Y-86534655D01*
X102860880Y-86454856D01*
X102844587Y-86382131D01*
X102834811Y-86305413D01*
X102831552Y-86224703D01*
X102835107Y-86138016D01*
X102845772Y-86054910D01*
X102863546Y-85975385D01*
X102888430Y-85899440D01*
X102920424Y-85827076D01*
X102932669Y-85803750D01*
X102973614Y-85737212D01*
X103020613Y-85676084D01*
X103073666Y-85620365D01*
X103132772Y-85570056D01*
X103197932Y-85525156D01*
X103220997Y-85511392D01*
X103292232Y-85474787D01*
X103365528Y-85445755D01*
X103440885Y-85424297D01*
X103518302Y-85410413D01*
X103597780Y-85404101D01*
X103624731Y-85403681D01*
X103715588Y-85408537D01*
X103802689Y-85423108D01*
X103886034Y-85447392D01*
X103965621Y-85481390D01*
X104041452Y-85525101D01*
X104113527Y-85578527D01*
X104141304Y-85602616D01*
X104202527Y-85663822D01*
X104255587Y-85729470D01*
X104300484Y-85799560D01*
X104337218Y-85874092D01*
X104365788Y-85953067D01*
X104386196Y-86036483D01*
X104398441Y-86124342D01*
X104402522Y-86216643D01*
X104399972Y-86289930D01*
X104390550Y-86373153D01*
X104374186Y-86453921D01*
X104350880Y-86532235D01*
X104329982Y-86586671D01*
X104294055Y-86658845D01*
X104253566Y-86721396D01*
X104204627Y-86783386D01*
X104147237Y-86844815D01*
X104120055Y-86870969D01*
G37*
G36*
X104379075Y-87539584D02*
G01*
X104377957Y-87613818D01*
X104373663Y-87693949D01*
X104364585Y-87775095D01*
X104348843Y-87851562D01*
X104333279Y-87897522D01*
X104295380Y-87967587D01*
X104244147Y-88026656D01*
X104186001Y-88070812D01*
X104118603Y-88104236D01*
X104043262Y-88125281D01*
X103968664Y-88133636D01*
X103942369Y-88134193D01*
X103866921Y-88128996D01*
X103789979Y-88110722D01*
X103721441Y-88079292D01*
X103680418Y-88051029D01*
X103626699Y-87999760D01*
X103583007Y-87939102D01*
X103549342Y-87869054D01*
X103534972Y-87826081D01*
X103521622Y-87752463D01*
X103515394Y-87678583D01*
X103512879Y-87613590D01*
X103792892Y-87613590D01*
X103795371Y-87690756D01*
X103807913Y-87764166D01*
X103849707Y-87824513D01*
X103858105Y-87830844D01*
X103927628Y-87854434D01*
X103942735Y-87855024D01*
X104017199Y-87837988D01*
X104068398Y-87786880D01*
X104090380Y-87716263D01*
X104096992Y-87643168D01*
X104097707Y-87603332D01*
X104097707Y-87521999D01*
X103792892Y-87521999D01*
X103792892Y-87613590D01*
X103512879Y-87613590D01*
X103512349Y-87599888D01*
X103511524Y-87521999D01*
X102855000Y-87521999D01*
X102855000Y-87233670D01*
X104379075Y-87233670D01*
X104379075Y-87539584D01*
G37*
G36*
X104379075Y-88410799D02*
G01*
X104379075Y-89238415D01*
X104097707Y-89238415D01*
X104097707Y-88697295D01*
X103816339Y-88697295D01*
X103816339Y-89238415D01*
X103534972Y-89238415D01*
X103534972Y-88697295D01*
X103136367Y-88697295D01*
X103136367Y-89238415D01*
X102855000Y-89238415D01*
X102855000Y-88410799D01*
X104379075Y-88410799D01*
G37*
D11*
X66354819Y-117442857D02*
X65878628Y-117776190D01*
X66354819Y-118014285D02*
X65354819Y-118014285D01*
X65354819Y-118014285D02*
X65354819Y-117633333D01*
X65354819Y-117633333D02*
X65402438Y-117538095D01*
X65402438Y-117538095D02*
X65450057Y-117490476D01*
X65450057Y-117490476D02*
X65545295Y-117442857D01*
X65545295Y-117442857D02*
X65688152Y-117442857D01*
X65688152Y-117442857D02*
X65783390Y-117490476D01*
X65783390Y-117490476D02*
X65831009Y-117538095D01*
X65831009Y-117538095D02*
X65878628Y-117633333D01*
X65878628Y-117633333D02*
X65878628Y-118014285D01*
X65688152Y-116585714D02*
X66354819Y-116585714D01*
X65307200Y-116823809D02*
X66021485Y-117061904D01*
X66021485Y-117061904D02*
X66021485Y-116442857D01*
X65354819Y-115871428D02*
X65354819Y-115776190D01*
X65354819Y-115776190D02*
X65402438Y-115680952D01*
X65402438Y-115680952D02*
X65450057Y-115633333D01*
X65450057Y-115633333D02*
X65545295Y-115585714D01*
X65545295Y-115585714D02*
X65735771Y-115538095D01*
X65735771Y-115538095D02*
X65973866Y-115538095D01*
X65973866Y-115538095D02*
X66164342Y-115585714D01*
X66164342Y-115585714D02*
X66259580Y-115633333D01*
X66259580Y-115633333D02*
X66307200Y-115680952D01*
X66307200Y-115680952D02*
X66354819Y-115776190D01*
X66354819Y-115776190D02*
X66354819Y-115871428D01*
X66354819Y-115871428D02*
X66307200Y-115966666D01*
X66307200Y-115966666D02*
X66259580Y-116014285D01*
X66259580Y-116014285D02*
X66164342Y-116061904D01*
X66164342Y-116061904D02*
X65973866Y-116109523D01*
X65973866Y-116109523D02*
X65735771Y-116109523D01*
X65735771Y-116109523D02*
X65545295Y-116061904D01*
X65545295Y-116061904D02*
X65450057Y-116014285D01*
X65450057Y-116014285D02*
X65402438Y-115966666D01*
X65402438Y-115966666D02*
X65354819Y-115871428D01*
X81354819Y-117442857D02*
X80878628Y-117776190D01*
X81354819Y-118014285D02*
X80354819Y-118014285D01*
X80354819Y-118014285D02*
X80354819Y-117633333D01*
X80354819Y-117633333D02*
X80402438Y-117538095D01*
X80402438Y-117538095D02*
X80450057Y-117490476D01*
X80450057Y-117490476D02*
X80545295Y-117442857D01*
X80545295Y-117442857D02*
X80688152Y-117442857D01*
X80688152Y-117442857D02*
X80783390Y-117490476D01*
X80783390Y-117490476D02*
X80831009Y-117538095D01*
X80831009Y-117538095D02*
X80878628Y-117633333D01*
X80878628Y-117633333D02*
X80878628Y-118014285D01*
X80688152Y-116585714D02*
X81354819Y-116585714D01*
X80307200Y-116823809D02*
X81021485Y-117061904D01*
X81021485Y-117061904D02*
X81021485Y-116442857D01*
X81354819Y-116014285D02*
X81354819Y-115823809D01*
X81354819Y-115823809D02*
X81307200Y-115728571D01*
X81307200Y-115728571D02*
X81259580Y-115680952D01*
X81259580Y-115680952D02*
X81116723Y-115585714D01*
X81116723Y-115585714D02*
X80926247Y-115538095D01*
X80926247Y-115538095D02*
X80545295Y-115538095D01*
X80545295Y-115538095D02*
X80450057Y-115585714D01*
X80450057Y-115585714D02*
X80402438Y-115633333D01*
X80402438Y-115633333D02*
X80354819Y-115728571D01*
X80354819Y-115728571D02*
X80354819Y-115919047D01*
X80354819Y-115919047D02*
X80402438Y-116014285D01*
X80402438Y-116014285D02*
X80450057Y-116061904D01*
X80450057Y-116061904D02*
X80545295Y-116109523D01*
X80545295Y-116109523D02*
X80783390Y-116109523D01*
X80783390Y-116109523D02*
X80878628Y-116061904D01*
X80878628Y-116061904D02*
X80926247Y-116014285D01*
X80926247Y-116014285D02*
X80973866Y-115919047D01*
X80973866Y-115919047D02*
X80973866Y-115728571D01*
X80973866Y-115728571D02*
X80926247Y-115633333D01*
X80926247Y-115633333D02*
X80878628Y-115585714D01*
X80878628Y-115585714D02*
X80783390Y-115538095D01*
X43233333Y-96759580D02*
X43185714Y-96807200D01*
X43185714Y-96807200D02*
X43042857Y-96854819D01*
X43042857Y-96854819D02*
X42947619Y-96854819D01*
X42947619Y-96854819D02*
X42804762Y-96807200D01*
X42804762Y-96807200D02*
X42709524Y-96711961D01*
X42709524Y-96711961D02*
X42661905Y-96616723D01*
X42661905Y-96616723D02*
X42614286Y-96426247D01*
X42614286Y-96426247D02*
X42614286Y-96283390D01*
X42614286Y-96283390D02*
X42661905Y-96092914D01*
X42661905Y-96092914D02*
X42709524Y-95997676D01*
X42709524Y-95997676D02*
X42804762Y-95902438D01*
X42804762Y-95902438D02*
X42947619Y-95854819D01*
X42947619Y-95854819D02*
X43042857Y-95854819D01*
X43042857Y-95854819D02*
X43185714Y-95902438D01*
X43185714Y-95902438D02*
X43233333Y-95950057D01*
X43804762Y-96283390D02*
X43709524Y-96235771D01*
X43709524Y-96235771D02*
X43661905Y-96188152D01*
X43661905Y-96188152D02*
X43614286Y-96092914D01*
X43614286Y-96092914D02*
X43614286Y-96045295D01*
X43614286Y-96045295D02*
X43661905Y-95950057D01*
X43661905Y-95950057D02*
X43709524Y-95902438D01*
X43709524Y-95902438D02*
X43804762Y-95854819D01*
X43804762Y-95854819D02*
X43995238Y-95854819D01*
X43995238Y-95854819D02*
X44090476Y-95902438D01*
X44090476Y-95902438D02*
X44138095Y-95950057D01*
X44138095Y-95950057D02*
X44185714Y-96045295D01*
X44185714Y-96045295D02*
X44185714Y-96092914D01*
X44185714Y-96092914D02*
X44138095Y-96188152D01*
X44138095Y-96188152D02*
X44090476Y-96235771D01*
X44090476Y-96235771D02*
X43995238Y-96283390D01*
X43995238Y-96283390D02*
X43804762Y-96283390D01*
X43804762Y-96283390D02*
X43709524Y-96331009D01*
X43709524Y-96331009D02*
X43661905Y-96378628D01*
X43661905Y-96378628D02*
X43614286Y-96473866D01*
X43614286Y-96473866D02*
X43614286Y-96664342D01*
X43614286Y-96664342D02*
X43661905Y-96759580D01*
X43661905Y-96759580D02*
X43709524Y-96807200D01*
X43709524Y-96807200D02*
X43804762Y-96854819D01*
X43804762Y-96854819D02*
X43995238Y-96854819D01*
X43995238Y-96854819D02*
X44090476Y-96807200D01*
X44090476Y-96807200D02*
X44138095Y-96759580D01*
X44138095Y-96759580D02*
X44185714Y-96664342D01*
X44185714Y-96664342D02*
X44185714Y-96473866D01*
X44185714Y-96473866D02*
X44138095Y-96378628D01*
X44138095Y-96378628D02*
X44090476Y-96331009D01*
X44090476Y-96331009D02*
X43995238Y-96283390D01*
X71354819Y-73442857D02*
X70878628Y-73776190D01*
X71354819Y-74014285D02*
X70354819Y-74014285D01*
X70354819Y-74014285D02*
X70354819Y-73633333D01*
X70354819Y-73633333D02*
X70402438Y-73538095D01*
X70402438Y-73538095D02*
X70450057Y-73490476D01*
X70450057Y-73490476D02*
X70545295Y-73442857D01*
X70545295Y-73442857D02*
X70688152Y-73442857D01*
X70688152Y-73442857D02*
X70783390Y-73490476D01*
X70783390Y-73490476D02*
X70831009Y-73538095D01*
X70831009Y-73538095D02*
X70878628Y-73633333D01*
X70878628Y-73633333D02*
X70878628Y-74014285D01*
X70354819Y-73109523D02*
X70354819Y-72490476D01*
X70354819Y-72490476D02*
X70735771Y-72823809D01*
X70735771Y-72823809D02*
X70735771Y-72680952D01*
X70735771Y-72680952D02*
X70783390Y-72585714D01*
X70783390Y-72585714D02*
X70831009Y-72538095D01*
X70831009Y-72538095D02*
X70926247Y-72490476D01*
X70926247Y-72490476D02*
X71164342Y-72490476D01*
X71164342Y-72490476D02*
X71259580Y-72538095D01*
X71259580Y-72538095D02*
X71307200Y-72585714D01*
X71307200Y-72585714D02*
X71354819Y-72680952D01*
X71354819Y-72680952D02*
X71354819Y-72966666D01*
X71354819Y-72966666D02*
X71307200Y-73061904D01*
X71307200Y-73061904D02*
X71259580Y-73109523D01*
X70354819Y-71585714D02*
X70354819Y-72061904D01*
X70354819Y-72061904D02*
X70831009Y-72109523D01*
X70831009Y-72109523D02*
X70783390Y-72061904D01*
X70783390Y-72061904D02*
X70735771Y-71966666D01*
X70735771Y-71966666D02*
X70735771Y-71728571D01*
X70735771Y-71728571D02*
X70783390Y-71633333D01*
X70783390Y-71633333D02*
X70831009Y-71585714D01*
X70831009Y-71585714D02*
X70926247Y-71538095D01*
X70926247Y-71538095D02*
X71164342Y-71538095D01*
X71164342Y-71538095D02*
X71259580Y-71585714D01*
X71259580Y-71585714D02*
X71307200Y-71633333D01*
X71307200Y-71633333D02*
X71354819Y-71728571D01*
X71354819Y-71728571D02*
X71354819Y-71966666D01*
X71354819Y-71966666D02*
X71307200Y-72061904D01*
X71307200Y-72061904D02*
X71259580Y-72109523D01*
X68497200Y-64623332D02*
X68544819Y-64480475D01*
X68544819Y-64480475D02*
X68544819Y-64242380D01*
X68544819Y-64242380D02*
X68497200Y-64147142D01*
X68497200Y-64147142D02*
X68449580Y-64099523D01*
X68449580Y-64099523D02*
X68354342Y-64051904D01*
X68354342Y-64051904D02*
X68259104Y-64051904D01*
X68259104Y-64051904D02*
X68163866Y-64099523D01*
X68163866Y-64099523D02*
X68116247Y-64147142D01*
X68116247Y-64147142D02*
X68068628Y-64242380D01*
X68068628Y-64242380D02*
X68021009Y-64432856D01*
X68021009Y-64432856D02*
X67973390Y-64528094D01*
X67973390Y-64528094D02*
X67925771Y-64575713D01*
X67925771Y-64575713D02*
X67830533Y-64623332D01*
X67830533Y-64623332D02*
X67735295Y-64623332D01*
X67735295Y-64623332D02*
X67640057Y-64575713D01*
X67640057Y-64575713D02*
X67592438Y-64528094D01*
X67592438Y-64528094D02*
X67544819Y-64432856D01*
X67544819Y-64432856D02*
X67544819Y-64194761D01*
X67544819Y-64194761D02*
X67592438Y-64051904D01*
X67544819Y-63718570D02*
X68544819Y-63480475D01*
X68544819Y-63480475D02*
X67830533Y-63289999D01*
X67830533Y-63289999D02*
X68544819Y-63099523D01*
X68544819Y-63099523D02*
X67544819Y-62861428D01*
X67640057Y-62528094D02*
X67592438Y-62480475D01*
X67592438Y-62480475D02*
X67544819Y-62385237D01*
X67544819Y-62385237D02*
X67544819Y-62147142D01*
X67544819Y-62147142D02*
X67592438Y-62051904D01*
X67592438Y-62051904D02*
X67640057Y-62004285D01*
X67640057Y-62004285D02*
X67735295Y-61956666D01*
X67735295Y-61956666D02*
X67830533Y-61956666D01*
X67830533Y-61956666D02*
X67973390Y-62004285D01*
X67973390Y-62004285D02*
X68544819Y-62575713D01*
X68544819Y-62575713D02*
X68544819Y-61956666D01*
X44757142Y-51554819D02*
X44423809Y-51078628D01*
X44185714Y-51554819D02*
X44185714Y-50554819D01*
X44185714Y-50554819D02*
X44566666Y-50554819D01*
X44566666Y-50554819D02*
X44661904Y-50602438D01*
X44661904Y-50602438D02*
X44709523Y-50650057D01*
X44709523Y-50650057D02*
X44757142Y-50745295D01*
X44757142Y-50745295D02*
X44757142Y-50888152D01*
X44757142Y-50888152D02*
X44709523Y-50983390D01*
X44709523Y-50983390D02*
X44661904Y-51031009D01*
X44661904Y-51031009D02*
X44566666Y-51078628D01*
X44566666Y-51078628D02*
X44185714Y-51078628D01*
X45709523Y-51554819D02*
X45138095Y-51554819D01*
X45423809Y-51554819D02*
X45423809Y-50554819D01*
X45423809Y-50554819D02*
X45328571Y-50697676D01*
X45328571Y-50697676D02*
X45233333Y-50792914D01*
X45233333Y-50792914D02*
X45138095Y-50840533D01*
X46042857Y-50554819D02*
X46661904Y-50554819D01*
X46661904Y-50554819D02*
X46328571Y-50935771D01*
X46328571Y-50935771D02*
X46471428Y-50935771D01*
X46471428Y-50935771D02*
X46566666Y-50983390D01*
X46566666Y-50983390D02*
X46614285Y-51031009D01*
X46614285Y-51031009D02*
X46661904Y-51126247D01*
X46661904Y-51126247D02*
X46661904Y-51364342D01*
X46661904Y-51364342D02*
X46614285Y-51459580D01*
X46614285Y-51459580D02*
X46566666Y-51507200D01*
X46566666Y-51507200D02*
X46471428Y-51554819D01*
X46471428Y-51554819D02*
X46185714Y-51554819D01*
X46185714Y-51554819D02*
X46090476Y-51507200D01*
X46090476Y-51507200D02*
X46042857Y-51459580D01*
X69366666Y-44831009D02*
X69033333Y-44831009D01*
X69033333Y-45354819D02*
X69033333Y-44354819D01*
X69033333Y-44354819D02*
X69509523Y-44354819D01*
X69795238Y-44354819D02*
X70414285Y-44354819D01*
X70414285Y-44354819D02*
X70080952Y-44735771D01*
X70080952Y-44735771D02*
X70223809Y-44735771D01*
X70223809Y-44735771D02*
X70319047Y-44783390D01*
X70319047Y-44783390D02*
X70366666Y-44831009D01*
X70366666Y-44831009D02*
X70414285Y-44926247D01*
X70414285Y-44926247D02*
X70414285Y-45164342D01*
X70414285Y-45164342D02*
X70366666Y-45259580D01*
X70366666Y-45259580D02*
X70319047Y-45307200D01*
X70319047Y-45307200D02*
X70223809Y-45354819D01*
X70223809Y-45354819D02*
X69938095Y-45354819D01*
X69938095Y-45354819D02*
X69842857Y-45307200D01*
X69842857Y-45307200D02*
X69795238Y-45259580D01*
X68903372Y-89551009D02*
X69046229Y-89598628D01*
X69046229Y-89598628D02*
X69093848Y-89646247D01*
X69093848Y-89646247D02*
X69141467Y-89741485D01*
X69141467Y-89741485D02*
X69141467Y-89884342D01*
X69141467Y-89884342D02*
X69093848Y-89979580D01*
X69093848Y-89979580D02*
X69046229Y-90027200D01*
X69046229Y-90027200D02*
X68950991Y-90074819D01*
X68950991Y-90074819D02*
X68570039Y-90074819D01*
X68570039Y-90074819D02*
X68570039Y-89074819D01*
X68570039Y-89074819D02*
X68903372Y-89074819D01*
X68903372Y-89074819D02*
X68998610Y-89122438D01*
X68998610Y-89122438D02*
X69046229Y-89170057D01*
X69046229Y-89170057D02*
X69093848Y-89265295D01*
X69093848Y-89265295D02*
X69093848Y-89360533D01*
X69093848Y-89360533D02*
X69046229Y-89455771D01*
X69046229Y-89455771D02*
X68998610Y-89503390D01*
X68998610Y-89503390D02*
X68903372Y-89551009D01*
X68903372Y-89551009D02*
X68570039Y-89551009D01*
X69427182Y-89074819D02*
X69998610Y-89074819D01*
X69712896Y-90074819D02*
X69712896Y-89074819D01*
X70855753Y-90074819D02*
X70284325Y-90074819D01*
X70570039Y-90074819D02*
X70570039Y-89074819D01*
X70570039Y-89074819D02*
X70474801Y-89217676D01*
X70474801Y-89217676D02*
X70379563Y-89312914D01*
X70379563Y-89312914D02*
X70284325Y-89360533D01*
X60457142Y-51554819D02*
X60123809Y-51078628D01*
X59885714Y-51554819D02*
X59885714Y-50554819D01*
X59885714Y-50554819D02*
X60266666Y-50554819D01*
X60266666Y-50554819D02*
X60361904Y-50602438D01*
X60361904Y-50602438D02*
X60409523Y-50650057D01*
X60409523Y-50650057D02*
X60457142Y-50745295D01*
X60457142Y-50745295D02*
X60457142Y-50888152D01*
X60457142Y-50888152D02*
X60409523Y-50983390D01*
X60409523Y-50983390D02*
X60361904Y-51031009D01*
X60361904Y-51031009D02*
X60266666Y-51078628D01*
X60266666Y-51078628D02*
X59885714Y-51078628D01*
X61409523Y-51554819D02*
X60838095Y-51554819D01*
X61123809Y-51554819D02*
X61123809Y-50554819D01*
X61123809Y-50554819D02*
X61028571Y-50697676D01*
X61028571Y-50697676D02*
X60933333Y-50792914D01*
X60933333Y-50792914D02*
X60838095Y-50840533D01*
X61742857Y-50554819D02*
X62409523Y-50554819D01*
X62409523Y-50554819D02*
X61980952Y-51554819D01*
X71304819Y-122314285D02*
X70304819Y-122314285D01*
X70304819Y-122314285D02*
X70304819Y-122076190D01*
X70304819Y-122076190D02*
X70352438Y-121933333D01*
X70352438Y-121933333D02*
X70447676Y-121838095D01*
X70447676Y-121838095D02*
X70542914Y-121790476D01*
X70542914Y-121790476D02*
X70733390Y-121742857D01*
X70733390Y-121742857D02*
X70876247Y-121742857D01*
X70876247Y-121742857D02*
X71066723Y-121790476D01*
X71066723Y-121790476D02*
X71161961Y-121838095D01*
X71161961Y-121838095D02*
X71257200Y-121933333D01*
X71257200Y-121933333D02*
X71304819Y-122076190D01*
X71304819Y-122076190D02*
X71304819Y-122314285D01*
X71304819Y-120790476D02*
X71304819Y-121361904D01*
X71304819Y-121076190D02*
X70304819Y-121076190D01*
X70304819Y-121076190D02*
X70447676Y-121171428D01*
X70447676Y-121171428D02*
X70542914Y-121266666D01*
X70542914Y-121266666D02*
X70590533Y-121361904D01*
X71304819Y-119838095D02*
X71304819Y-120409523D01*
X71304819Y-120123809D02*
X70304819Y-120123809D01*
X70304819Y-120123809D02*
X70447676Y-120219047D01*
X70447676Y-120219047D02*
X70542914Y-120314285D01*
X70542914Y-120314285D02*
X70590533Y-120409523D01*
X79154819Y-89238094D02*
X79964342Y-89238094D01*
X79964342Y-89238094D02*
X80059580Y-89190475D01*
X80059580Y-89190475D02*
X80107200Y-89142856D01*
X80107200Y-89142856D02*
X80154819Y-89047618D01*
X80154819Y-89047618D02*
X80154819Y-88857142D01*
X80154819Y-88857142D02*
X80107200Y-88761904D01*
X80107200Y-88761904D02*
X80059580Y-88714285D01*
X80059580Y-88714285D02*
X79964342Y-88666666D01*
X79964342Y-88666666D02*
X79154819Y-88666666D01*
X80154819Y-87666666D02*
X80154819Y-88238094D01*
X80154819Y-87952380D02*
X79154819Y-87952380D01*
X79154819Y-87952380D02*
X79297676Y-88047618D01*
X79297676Y-88047618D02*
X79392914Y-88142856D01*
X79392914Y-88142856D02*
X79440533Y-88238094D01*
X80154819Y-86714285D02*
X80154819Y-87285713D01*
X80154819Y-86999999D02*
X79154819Y-86999999D01*
X79154819Y-86999999D02*
X79297676Y-87095237D01*
X79297676Y-87095237D02*
X79392914Y-87190475D01*
X79392914Y-87190475D02*
X79440533Y-87285713D01*
X85548388Y-119009423D02*
X85548388Y-120339260D01*
X85548388Y-120339260D02*
X85626614Y-120495712D01*
X85626614Y-120495712D02*
X85704840Y-120573938D01*
X85704840Y-120573938D02*
X85861291Y-120652163D01*
X85861291Y-120652163D02*
X86174194Y-120652163D01*
X86174194Y-120652163D02*
X86330645Y-120573938D01*
X86330645Y-120573938D02*
X86408871Y-120495712D01*
X86408871Y-120495712D02*
X86487097Y-120339260D01*
X86487097Y-120339260D02*
X86487097Y-119009423D01*
X87347580Y-120652163D02*
X87660483Y-120652163D01*
X87660483Y-120652163D02*
X87816934Y-120573938D01*
X87816934Y-120573938D02*
X87895160Y-120495712D01*
X87895160Y-120495712D02*
X88051611Y-120261035D01*
X88051611Y-120261035D02*
X88129837Y-119948132D01*
X88129837Y-119948132D02*
X88129837Y-119322326D01*
X88129837Y-119322326D02*
X88051611Y-119165875D01*
X88051611Y-119165875D02*
X87973386Y-119087649D01*
X87973386Y-119087649D02*
X87816934Y-119009423D01*
X87816934Y-119009423D02*
X87504031Y-119009423D01*
X87504031Y-119009423D02*
X87347580Y-119087649D01*
X87347580Y-119087649D02*
X87269354Y-119165875D01*
X87269354Y-119165875D02*
X87191128Y-119322326D01*
X87191128Y-119322326D02*
X87191128Y-119713455D01*
X87191128Y-119713455D02*
X87269354Y-119869906D01*
X87269354Y-119869906D02*
X87347580Y-119948132D01*
X87347580Y-119948132D02*
X87504031Y-120026358D01*
X87504031Y-120026358D02*
X87816934Y-120026358D01*
X87816934Y-120026358D02*
X87973386Y-119948132D01*
X87973386Y-119948132D02*
X88051611Y-119869906D01*
X88051611Y-119869906D02*
X88129837Y-119713455D01*
X96857142Y-45354819D02*
X96523809Y-44878628D01*
X96285714Y-45354819D02*
X96285714Y-44354819D01*
X96285714Y-44354819D02*
X96666666Y-44354819D01*
X96666666Y-44354819D02*
X96761904Y-44402438D01*
X96761904Y-44402438D02*
X96809523Y-44450057D01*
X96809523Y-44450057D02*
X96857142Y-44545295D01*
X96857142Y-44545295D02*
X96857142Y-44688152D01*
X96857142Y-44688152D02*
X96809523Y-44783390D01*
X96809523Y-44783390D02*
X96761904Y-44831009D01*
X96761904Y-44831009D02*
X96666666Y-44878628D01*
X96666666Y-44878628D02*
X96285714Y-44878628D01*
X97238095Y-44450057D02*
X97285714Y-44402438D01*
X97285714Y-44402438D02*
X97380952Y-44354819D01*
X97380952Y-44354819D02*
X97619047Y-44354819D01*
X97619047Y-44354819D02*
X97714285Y-44402438D01*
X97714285Y-44402438D02*
X97761904Y-44450057D01*
X97761904Y-44450057D02*
X97809523Y-44545295D01*
X97809523Y-44545295D02*
X97809523Y-44640533D01*
X97809523Y-44640533D02*
X97761904Y-44783390D01*
X97761904Y-44783390D02*
X97190476Y-45354819D01*
X97190476Y-45354819D02*
X97809523Y-45354819D01*
X98666666Y-44688152D02*
X98666666Y-45354819D01*
X98428571Y-44307200D02*
X98190476Y-45021485D01*
X98190476Y-45021485D02*
X98809523Y-45021485D01*
X94861905Y-57654819D02*
X94861905Y-56654819D01*
X94861905Y-56654819D02*
X95100000Y-56654819D01*
X95100000Y-56654819D02*
X95242857Y-56702438D01*
X95242857Y-56702438D02*
X95338095Y-56797676D01*
X95338095Y-56797676D02*
X95385714Y-56892914D01*
X95385714Y-56892914D02*
X95433333Y-57083390D01*
X95433333Y-57083390D02*
X95433333Y-57226247D01*
X95433333Y-57226247D02*
X95385714Y-57416723D01*
X95385714Y-57416723D02*
X95338095Y-57511961D01*
X95338095Y-57511961D02*
X95242857Y-57607200D01*
X95242857Y-57607200D02*
X95100000Y-57654819D01*
X95100000Y-57654819D02*
X94861905Y-57654819D01*
X96290476Y-56654819D02*
X96100000Y-56654819D01*
X96100000Y-56654819D02*
X96004762Y-56702438D01*
X96004762Y-56702438D02*
X95957143Y-56750057D01*
X95957143Y-56750057D02*
X95861905Y-56892914D01*
X95861905Y-56892914D02*
X95814286Y-57083390D01*
X95814286Y-57083390D02*
X95814286Y-57464342D01*
X95814286Y-57464342D02*
X95861905Y-57559580D01*
X95861905Y-57559580D02*
X95909524Y-57607200D01*
X95909524Y-57607200D02*
X96004762Y-57654819D01*
X96004762Y-57654819D02*
X96195238Y-57654819D01*
X96195238Y-57654819D02*
X96290476Y-57607200D01*
X96290476Y-57607200D02*
X96338095Y-57559580D01*
X96338095Y-57559580D02*
X96385714Y-57464342D01*
X96385714Y-57464342D02*
X96385714Y-57226247D01*
X96385714Y-57226247D02*
X96338095Y-57131009D01*
X96338095Y-57131009D02*
X96290476Y-57083390D01*
X96290476Y-57083390D02*
X96195238Y-57035771D01*
X96195238Y-57035771D02*
X96004762Y-57035771D01*
X96004762Y-57035771D02*
X95909524Y-57083390D01*
X95909524Y-57083390D02*
X95861905Y-57131009D01*
X95861905Y-57131009D02*
X95814286Y-57226247D01*
X65157142Y-45354819D02*
X64823809Y-44878628D01*
X64585714Y-45354819D02*
X64585714Y-44354819D01*
X64585714Y-44354819D02*
X64966666Y-44354819D01*
X64966666Y-44354819D02*
X65061904Y-44402438D01*
X65061904Y-44402438D02*
X65109523Y-44450057D01*
X65109523Y-44450057D02*
X65157142Y-44545295D01*
X65157142Y-44545295D02*
X65157142Y-44688152D01*
X65157142Y-44688152D02*
X65109523Y-44783390D01*
X65109523Y-44783390D02*
X65061904Y-44831009D01*
X65061904Y-44831009D02*
X64966666Y-44878628D01*
X64966666Y-44878628D02*
X64585714Y-44878628D01*
X66109523Y-45354819D02*
X65538095Y-45354819D01*
X65823809Y-45354819D02*
X65823809Y-44354819D01*
X65823809Y-44354819D02*
X65728571Y-44497676D01*
X65728571Y-44497676D02*
X65633333Y-44592914D01*
X65633333Y-44592914D02*
X65538095Y-44640533D01*
X66966666Y-44354819D02*
X66776190Y-44354819D01*
X66776190Y-44354819D02*
X66680952Y-44402438D01*
X66680952Y-44402438D02*
X66633333Y-44450057D01*
X66633333Y-44450057D02*
X66538095Y-44592914D01*
X66538095Y-44592914D02*
X66490476Y-44783390D01*
X66490476Y-44783390D02*
X66490476Y-45164342D01*
X66490476Y-45164342D02*
X66538095Y-45259580D01*
X66538095Y-45259580D02*
X66585714Y-45307200D01*
X66585714Y-45307200D02*
X66680952Y-45354819D01*
X66680952Y-45354819D02*
X66871428Y-45354819D01*
X66871428Y-45354819D02*
X66966666Y-45307200D01*
X66966666Y-45307200D02*
X67014285Y-45259580D01*
X67014285Y-45259580D02*
X67061904Y-45164342D01*
X67061904Y-45164342D02*
X67061904Y-44926247D01*
X67061904Y-44926247D02*
X67014285Y-44831009D01*
X67014285Y-44831009D02*
X66966666Y-44783390D01*
X66966666Y-44783390D02*
X66871428Y-44735771D01*
X66871428Y-44735771D02*
X66680952Y-44735771D01*
X66680952Y-44735771D02*
X66585714Y-44783390D01*
X66585714Y-44783390D02*
X66538095Y-44831009D01*
X66538095Y-44831009D02*
X66490476Y-44926247D01*
X44104819Y-64438094D02*
X44914342Y-64438094D01*
X44914342Y-64438094D02*
X45009580Y-64390475D01*
X45009580Y-64390475D02*
X45057200Y-64342856D01*
X45057200Y-64342856D02*
X45104819Y-64247618D01*
X45104819Y-64247618D02*
X45104819Y-64057142D01*
X45104819Y-64057142D02*
X45057200Y-63961904D01*
X45057200Y-63961904D02*
X45009580Y-63914285D01*
X45009580Y-63914285D02*
X44914342Y-63866666D01*
X44914342Y-63866666D02*
X44104819Y-63866666D01*
X45104819Y-62866666D02*
X45104819Y-63438094D01*
X45104819Y-63152380D02*
X44104819Y-63152380D01*
X44104819Y-63152380D02*
X44247676Y-63247618D01*
X44247676Y-63247618D02*
X44342914Y-63342856D01*
X44342914Y-63342856D02*
X44390533Y-63438094D01*
X44104819Y-62533332D02*
X44104819Y-61914285D01*
X44104819Y-61914285D02*
X44485771Y-62247618D01*
X44485771Y-62247618D02*
X44485771Y-62104761D01*
X44485771Y-62104761D02*
X44533390Y-62009523D01*
X44533390Y-62009523D02*
X44581009Y-61961904D01*
X44581009Y-61961904D02*
X44676247Y-61914285D01*
X44676247Y-61914285D02*
X44914342Y-61914285D01*
X44914342Y-61914285D02*
X45009580Y-61961904D01*
X45009580Y-61961904D02*
X45057200Y-62009523D01*
X45057200Y-62009523D02*
X45104819Y-62104761D01*
X45104819Y-62104761D02*
X45104819Y-62390475D01*
X45104819Y-62390475D02*
X45057200Y-62485713D01*
X45057200Y-62485713D02*
X45009580Y-62533332D01*
X76304819Y-72966666D02*
X75828628Y-73299999D01*
X76304819Y-73538094D02*
X75304819Y-73538094D01*
X75304819Y-73538094D02*
X75304819Y-73157142D01*
X75304819Y-73157142D02*
X75352438Y-73061904D01*
X75352438Y-73061904D02*
X75400057Y-73014285D01*
X75400057Y-73014285D02*
X75495295Y-72966666D01*
X75495295Y-72966666D02*
X75638152Y-72966666D01*
X75638152Y-72966666D02*
X75733390Y-73014285D01*
X75733390Y-73014285D02*
X75781009Y-73061904D01*
X75781009Y-73061904D02*
X75828628Y-73157142D01*
X75828628Y-73157142D02*
X75828628Y-73538094D01*
X75638152Y-72109523D02*
X76304819Y-72109523D01*
X75257200Y-72347618D02*
X75971485Y-72585713D01*
X75971485Y-72585713D02*
X75971485Y-71966666D01*
X88766667Y-75607200D02*
X88909524Y-75654819D01*
X88909524Y-75654819D02*
X89147619Y-75654819D01*
X89147619Y-75654819D02*
X89242857Y-75607200D01*
X89242857Y-75607200D02*
X89290476Y-75559580D01*
X89290476Y-75559580D02*
X89338095Y-75464342D01*
X89338095Y-75464342D02*
X89338095Y-75369104D01*
X89338095Y-75369104D02*
X89290476Y-75273866D01*
X89290476Y-75273866D02*
X89242857Y-75226247D01*
X89242857Y-75226247D02*
X89147619Y-75178628D01*
X89147619Y-75178628D02*
X88957143Y-75131009D01*
X88957143Y-75131009D02*
X88861905Y-75083390D01*
X88861905Y-75083390D02*
X88814286Y-75035771D01*
X88814286Y-75035771D02*
X88766667Y-74940533D01*
X88766667Y-74940533D02*
X88766667Y-74845295D01*
X88766667Y-74845295D02*
X88814286Y-74750057D01*
X88814286Y-74750057D02*
X88861905Y-74702438D01*
X88861905Y-74702438D02*
X88957143Y-74654819D01*
X88957143Y-74654819D02*
X89195238Y-74654819D01*
X89195238Y-74654819D02*
X89338095Y-74702438D01*
X89671429Y-74654819D02*
X89909524Y-75654819D01*
X89909524Y-75654819D02*
X90100000Y-74940533D01*
X90100000Y-74940533D02*
X90290476Y-75654819D01*
X90290476Y-75654819D02*
X90528572Y-74654819D01*
X90814286Y-74654819D02*
X91433333Y-74654819D01*
X91433333Y-74654819D02*
X91100000Y-75035771D01*
X91100000Y-75035771D02*
X91242857Y-75035771D01*
X91242857Y-75035771D02*
X91338095Y-75083390D01*
X91338095Y-75083390D02*
X91385714Y-75131009D01*
X91385714Y-75131009D02*
X91433333Y-75226247D01*
X91433333Y-75226247D02*
X91433333Y-75464342D01*
X91433333Y-75464342D02*
X91385714Y-75559580D01*
X91385714Y-75559580D02*
X91338095Y-75607200D01*
X91338095Y-75607200D02*
X91242857Y-75654819D01*
X91242857Y-75654819D02*
X90957143Y-75654819D01*
X90957143Y-75654819D02*
X90861905Y-75607200D01*
X90861905Y-75607200D02*
X90814286Y-75559580D01*
X88466666Y-44831009D02*
X88133333Y-44831009D01*
X88133333Y-45354819D02*
X88133333Y-44354819D01*
X88133333Y-44354819D02*
X88609523Y-44354819D01*
X89419047Y-44354819D02*
X89228571Y-44354819D01*
X89228571Y-44354819D02*
X89133333Y-44402438D01*
X89133333Y-44402438D02*
X89085714Y-44450057D01*
X89085714Y-44450057D02*
X88990476Y-44592914D01*
X88990476Y-44592914D02*
X88942857Y-44783390D01*
X88942857Y-44783390D02*
X88942857Y-45164342D01*
X88942857Y-45164342D02*
X88990476Y-45259580D01*
X88990476Y-45259580D02*
X89038095Y-45307200D01*
X89038095Y-45307200D02*
X89133333Y-45354819D01*
X89133333Y-45354819D02*
X89323809Y-45354819D01*
X89323809Y-45354819D02*
X89419047Y-45307200D01*
X89419047Y-45307200D02*
X89466666Y-45259580D01*
X89466666Y-45259580D02*
X89514285Y-45164342D01*
X89514285Y-45164342D02*
X89514285Y-44926247D01*
X89514285Y-44926247D02*
X89466666Y-44831009D01*
X89466666Y-44831009D02*
X89419047Y-44783390D01*
X89419047Y-44783390D02*
X89323809Y-44735771D01*
X89323809Y-44735771D02*
X89133333Y-44735771D01*
X89133333Y-44735771D02*
X89038095Y-44783390D01*
X89038095Y-44783390D02*
X88990476Y-44831009D01*
X88990476Y-44831009D02*
X88942857Y-44926247D01*
X78433333Y-98059580D02*
X78385714Y-98107200D01*
X78385714Y-98107200D02*
X78242857Y-98154819D01*
X78242857Y-98154819D02*
X78147619Y-98154819D01*
X78147619Y-98154819D02*
X78004762Y-98107200D01*
X78004762Y-98107200D02*
X77909524Y-98011961D01*
X77909524Y-98011961D02*
X77861905Y-97916723D01*
X77861905Y-97916723D02*
X77814286Y-97726247D01*
X77814286Y-97726247D02*
X77814286Y-97583390D01*
X77814286Y-97583390D02*
X77861905Y-97392914D01*
X77861905Y-97392914D02*
X77909524Y-97297676D01*
X77909524Y-97297676D02*
X78004762Y-97202438D01*
X78004762Y-97202438D02*
X78147619Y-97154819D01*
X78147619Y-97154819D02*
X78242857Y-97154819D01*
X78242857Y-97154819D02*
X78385714Y-97202438D01*
X78385714Y-97202438D02*
X78433333Y-97250057D01*
X78766667Y-97154819D02*
X79433333Y-97154819D01*
X79433333Y-97154819D02*
X79004762Y-98154819D01*
X92157142Y-45354819D02*
X91823809Y-44878628D01*
X91585714Y-45354819D02*
X91585714Y-44354819D01*
X91585714Y-44354819D02*
X91966666Y-44354819D01*
X91966666Y-44354819D02*
X92061904Y-44402438D01*
X92061904Y-44402438D02*
X92109523Y-44450057D01*
X92109523Y-44450057D02*
X92157142Y-44545295D01*
X92157142Y-44545295D02*
X92157142Y-44688152D01*
X92157142Y-44688152D02*
X92109523Y-44783390D01*
X92109523Y-44783390D02*
X92061904Y-44831009D01*
X92061904Y-44831009D02*
X91966666Y-44878628D01*
X91966666Y-44878628D02*
X91585714Y-44878628D01*
X92538095Y-44450057D02*
X92585714Y-44402438D01*
X92585714Y-44402438D02*
X92680952Y-44354819D01*
X92680952Y-44354819D02*
X92919047Y-44354819D01*
X92919047Y-44354819D02*
X93014285Y-44402438D01*
X93014285Y-44402438D02*
X93061904Y-44450057D01*
X93061904Y-44450057D02*
X93109523Y-44545295D01*
X93109523Y-44545295D02*
X93109523Y-44640533D01*
X93109523Y-44640533D02*
X93061904Y-44783390D01*
X93061904Y-44783390D02*
X92490476Y-45354819D01*
X92490476Y-45354819D02*
X93109523Y-45354819D01*
X93442857Y-44354819D02*
X94061904Y-44354819D01*
X94061904Y-44354819D02*
X93728571Y-44735771D01*
X93728571Y-44735771D02*
X93871428Y-44735771D01*
X93871428Y-44735771D02*
X93966666Y-44783390D01*
X93966666Y-44783390D02*
X94014285Y-44831009D01*
X94014285Y-44831009D02*
X94061904Y-44926247D01*
X94061904Y-44926247D02*
X94061904Y-45164342D01*
X94061904Y-45164342D02*
X94014285Y-45259580D01*
X94014285Y-45259580D02*
X93966666Y-45307200D01*
X93966666Y-45307200D02*
X93871428Y-45354819D01*
X93871428Y-45354819D02*
X93585714Y-45354819D01*
X93585714Y-45354819D02*
X93490476Y-45307200D01*
X93490476Y-45307200D02*
X93442857Y-45259580D01*
X81304819Y-121838094D02*
X80304819Y-121838094D01*
X80304819Y-121838094D02*
X80304819Y-121599999D01*
X80304819Y-121599999D02*
X80352438Y-121457142D01*
X80352438Y-121457142D02*
X80447676Y-121361904D01*
X80447676Y-121361904D02*
X80542914Y-121314285D01*
X80542914Y-121314285D02*
X80733390Y-121266666D01*
X80733390Y-121266666D02*
X80876247Y-121266666D01*
X80876247Y-121266666D02*
X81066723Y-121314285D01*
X81066723Y-121314285D02*
X81161961Y-121361904D01*
X81161961Y-121361904D02*
X81257200Y-121457142D01*
X81257200Y-121457142D02*
X81304819Y-121599999D01*
X81304819Y-121599999D02*
X81304819Y-121838094D01*
X81304819Y-120790475D02*
X81304819Y-120599999D01*
X81304819Y-120599999D02*
X81257200Y-120504761D01*
X81257200Y-120504761D02*
X81209580Y-120457142D01*
X81209580Y-120457142D02*
X81066723Y-120361904D01*
X81066723Y-120361904D02*
X80876247Y-120314285D01*
X80876247Y-120314285D02*
X80495295Y-120314285D01*
X80495295Y-120314285D02*
X80400057Y-120361904D01*
X80400057Y-120361904D02*
X80352438Y-120409523D01*
X80352438Y-120409523D02*
X80304819Y-120504761D01*
X80304819Y-120504761D02*
X80304819Y-120695237D01*
X80304819Y-120695237D02*
X80352438Y-120790475D01*
X80352438Y-120790475D02*
X80400057Y-120838094D01*
X80400057Y-120838094D02*
X80495295Y-120885713D01*
X80495295Y-120885713D02*
X80733390Y-120885713D01*
X80733390Y-120885713D02*
X80828628Y-120838094D01*
X80828628Y-120838094D02*
X80876247Y-120790475D01*
X80876247Y-120790475D02*
X80923866Y-120695237D01*
X80923866Y-120695237D02*
X80923866Y-120504761D01*
X80923866Y-120504761D02*
X80876247Y-120409523D01*
X80876247Y-120409523D02*
X80828628Y-120361904D01*
X80828628Y-120361904D02*
X80733390Y-120314285D01*
X63161905Y-57654819D02*
X63161905Y-56654819D01*
X63161905Y-56654819D02*
X63400000Y-56654819D01*
X63400000Y-56654819D02*
X63542857Y-56702438D01*
X63542857Y-56702438D02*
X63638095Y-56797676D01*
X63638095Y-56797676D02*
X63685714Y-56892914D01*
X63685714Y-56892914D02*
X63733333Y-57083390D01*
X63733333Y-57083390D02*
X63733333Y-57226247D01*
X63733333Y-57226247D02*
X63685714Y-57416723D01*
X63685714Y-57416723D02*
X63638095Y-57511961D01*
X63638095Y-57511961D02*
X63542857Y-57607200D01*
X63542857Y-57607200D02*
X63400000Y-57654819D01*
X63400000Y-57654819D02*
X63161905Y-57654819D01*
X64590476Y-56988152D02*
X64590476Y-57654819D01*
X64352381Y-56607200D02*
X64114286Y-57321485D01*
X64114286Y-57321485D02*
X64733333Y-57321485D01*
X85166666Y-44831009D02*
X84833333Y-44831009D01*
X84833333Y-45354819D02*
X84833333Y-44354819D01*
X84833333Y-44354819D02*
X85309523Y-44354819D01*
X86166666Y-44354819D02*
X85690476Y-44354819D01*
X85690476Y-44354819D02*
X85642857Y-44831009D01*
X85642857Y-44831009D02*
X85690476Y-44783390D01*
X85690476Y-44783390D02*
X85785714Y-44735771D01*
X85785714Y-44735771D02*
X86023809Y-44735771D01*
X86023809Y-44735771D02*
X86119047Y-44783390D01*
X86119047Y-44783390D02*
X86166666Y-44831009D01*
X86166666Y-44831009D02*
X86214285Y-44926247D01*
X86214285Y-44926247D02*
X86214285Y-45164342D01*
X86214285Y-45164342D02*
X86166666Y-45259580D01*
X86166666Y-45259580D02*
X86119047Y-45307200D01*
X86119047Y-45307200D02*
X86023809Y-45354819D01*
X86023809Y-45354819D02*
X85785714Y-45354819D01*
X85785714Y-45354819D02*
X85690476Y-45307200D01*
X85690476Y-45307200D02*
X85642857Y-45259580D01*
X80857142Y-45354819D02*
X80523809Y-44878628D01*
X80285714Y-45354819D02*
X80285714Y-44354819D01*
X80285714Y-44354819D02*
X80666666Y-44354819D01*
X80666666Y-44354819D02*
X80761904Y-44402438D01*
X80761904Y-44402438D02*
X80809523Y-44450057D01*
X80809523Y-44450057D02*
X80857142Y-44545295D01*
X80857142Y-44545295D02*
X80857142Y-44688152D01*
X80857142Y-44688152D02*
X80809523Y-44783390D01*
X80809523Y-44783390D02*
X80761904Y-44831009D01*
X80761904Y-44831009D02*
X80666666Y-44878628D01*
X80666666Y-44878628D02*
X80285714Y-44878628D01*
X81238095Y-44450057D02*
X81285714Y-44402438D01*
X81285714Y-44402438D02*
X81380952Y-44354819D01*
X81380952Y-44354819D02*
X81619047Y-44354819D01*
X81619047Y-44354819D02*
X81714285Y-44402438D01*
X81714285Y-44402438D02*
X81761904Y-44450057D01*
X81761904Y-44450057D02*
X81809523Y-44545295D01*
X81809523Y-44545295D02*
X81809523Y-44640533D01*
X81809523Y-44640533D02*
X81761904Y-44783390D01*
X81761904Y-44783390D02*
X81190476Y-45354819D01*
X81190476Y-45354819D02*
X81809523Y-45354819D01*
X82428571Y-44354819D02*
X82523809Y-44354819D01*
X82523809Y-44354819D02*
X82619047Y-44402438D01*
X82619047Y-44402438D02*
X82666666Y-44450057D01*
X82666666Y-44450057D02*
X82714285Y-44545295D01*
X82714285Y-44545295D02*
X82761904Y-44735771D01*
X82761904Y-44735771D02*
X82761904Y-44973866D01*
X82761904Y-44973866D02*
X82714285Y-45164342D01*
X82714285Y-45164342D02*
X82666666Y-45259580D01*
X82666666Y-45259580D02*
X82619047Y-45307200D01*
X82619047Y-45307200D02*
X82523809Y-45354819D01*
X82523809Y-45354819D02*
X82428571Y-45354819D01*
X82428571Y-45354819D02*
X82333333Y-45307200D01*
X82333333Y-45307200D02*
X82285714Y-45259580D01*
X82285714Y-45259580D02*
X82238095Y-45164342D01*
X82238095Y-45164342D02*
X82190476Y-44973866D01*
X82190476Y-44973866D02*
X82190476Y-44735771D01*
X82190476Y-44735771D02*
X82238095Y-44545295D01*
X82238095Y-44545295D02*
X82285714Y-44450057D01*
X82285714Y-44450057D02*
X82333333Y-44402438D01*
X82333333Y-44402438D02*
X82428571Y-44354819D01*
X76304819Y-77638094D02*
X75304819Y-77638094D01*
X75304819Y-77638094D02*
X75304819Y-77399999D01*
X75304819Y-77399999D02*
X75352438Y-77257142D01*
X75352438Y-77257142D02*
X75447676Y-77161904D01*
X75447676Y-77161904D02*
X75542914Y-77114285D01*
X75542914Y-77114285D02*
X75733390Y-77066666D01*
X75733390Y-77066666D02*
X75876247Y-77066666D01*
X75876247Y-77066666D02*
X76066723Y-77114285D01*
X76066723Y-77114285D02*
X76161961Y-77161904D01*
X76161961Y-77161904D02*
X76257200Y-77257142D01*
X76257200Y-77257142D02*
X76304819Y-77399999D01*
X76304819Y-77399999D02*
X76304819Y-77638094D01*
X76304819Y-76114285D02*
X76304819Y-76685713D01*
X76304819Y-76399999D02*
X75304819Y-76399999D01*
X75304819Y-76399999D02*
X75447676Y-76495237D01*
X75447676Y-76495237D02*
X75542914Y-76590475D01*
X75542914Y-76590475D02*
X75590533Y-76685713D01*
X101354819Y-83881904D02*
X102164342Y-83881904D01*
X102164342Y-83881904D02*
X102259580Y-83834285D01*
X102259580Y-83834285D02*
X102307200Y-83786666D01*
X102307200Y-83786666D02*
X102354819Y-83691428D01*
X102354819Y-83691428D02*
X102354819Y-83500952D01*
X102354819Y-83500952D02*
X102307200Y-83405714D01*
X102307200Y-83405714D02*
X102259580Y-83358095D01*
X102259580Y-83358095D02*
X102164342Y-83310476D01*
X102164342Y-83310476D02*
X101354819Y-83310476D01*
X102354819Y-82310476D02*
X102354819Y-82881904D01*
X102354819Y-82596190D02*
X101354819Y-82596190D01*
X101354819Y-82596190D02*
X101497676Y-82691428D01*
X101497676Y-82691428D02*
X101592914Y-82786666D01*
X101592914Y-82786666D02*
X101640533Y-82881904D01*
X53666666Y-44831009D02*
X53333333Y-44831009D01*
X53333333Y-45354819D02*
X53333333Y-44354819D01*
X53333333Y-44354819D02*
X53809523Y-44354819D01*
X54714285Y-45354819D02*
X54142857Y-45354819D01*
X54428571Y-45354819D02*
X54428571Y-44354819D01*
X54428571Y-44354819D02*
X54333333Y-44497676D01*
X54333333Y-44497676D02*
X54238095Y-44592914D01*
X54238095Y-44592914D02*
X54142857Y-44640533D01*
X96857142Y-51654819D02*
X96523809Y-51178628D01*
X96285714Y-51654819D02*
X96285714Y-50654819D01*
X96285714Y-50654819D02*
X96666666Y-50654819D01*
X96666666Y-50654819D02*
X96761904Y-50702438D01*
X96761904Y-50702438D02*
X96809523Y-50750057D01*
X96809523Y-50750057D02*
X96857142Y-50845295D01*
X96857142Y-50845295D02*
X96857142Y-50988152D01*
X96857142Y-50988152D02*
X96809523Y-51083390D01*
X96809523Y-51083390D02*
X96761904Y-51131009D01*
X96761904Y-51131009D02*
X96666666Y-51178628D01*
X96666666Y-51178628D02*
X96285714Y-51178628D01*
X97238095Y-50750057D02*
X97285714Y-50702438D01*
X97285714Y-50702438D02*
X97380952Y-50654819D01*
X97380952Y-50654819D02*
X97619047Y-50654819D01*
X97619047Y-50654819D02*
X97714285Y-50702438D01*
X97714285Y-50702438D02*
X97761904Y-50750057D01*
X97761904Y-50750057D02*
X97809523Y-50845295D01*
X97809523Y-50845295D02*
X97809523Y-50940533D01*
X97809523Y-50940533D02*
X97761904Y-51083390D01*
X97761904Y-51083390D02*
X97190476Y-51654819D01*
X97190476Y-51654819D02*
X97809523Y-51654819D01*
X98666666Y-50654819D02*
X98476190Y-50654819D01*
X98476190Y-50654819D02*
X98380952Y-50702438D01*
X98380952Y-50702438D02*
X98333333Y-50750057D01*
X98333333Y-50750057D02*
X98238095Y-50892914D01*
X98238095Y-50892914D02*
X98190476Y-51083390D01*
X98190476Y-51083390D02*
X98190476Y-51464342D01*
X98190476Y-51464342D02*
X98238095Y-51559580D01*
X98238095Y-51559580D02*
X98285714Y-51607200D01*
X98285714Y-51607200D02*
X98380952Y-51654819D01*
X98380952Y-51654819D02*
X98571428Y-51654819D01*
X98571428Y-51654819D02*
X98666666Y-51607200D01*
X98666666Y-51607200D02*
X98714285Y-51559580D01*
X98714285Y-51559580D02*
X98761904Y-51464342D01*
X98761904Y-51464342D02*
X98761904Y-51226247D01*
X98761904Y-51226247D02*
X98714285Y-51131009D01*
X98714285Y-51131009D02*
X98666666Y-51083390D01*
X98666666Y-51083390D02*
X98571428Y-51035771D01*
X98571428Y-51035771D02*
X98380952Y-51035771D01*
X98380952Y-51035771D02*
X98285714Y-51083390D01*
X98285714Y-51083390D02*
X98238095Y-51131009D01*
X98238095Y-51131009D02*
X98190476Y-51226247D01*
X76157142Y-45354819D02*
X75823809Y-44878628D01*
X75585714Y-45354819D02*
X75585714Y-44354819D01*
X75585714Y-44354819D02*
X75966666Y-44354819D01*
X75966666Y-44354819D02*
X76061904Y-44402438D01*
X76061904Y-44402438D02*
X76109523Y-44450057D01*
X76109523Y-44450057D02*
X76157142Y-44545295D01*
X76157142Y-44545295D02*
X76157142Y-44688152D01*
X76157142Y-44688152D02*
X76109523Y-44783390D01*
X76109523Y-44783390D02*
X76061904Y-44831009D01*
X76061904Y-44831009D02*
X75966666Y-44878628D01*
X75966666Y-44878628D02*
X75585714Y-44878628D01*
X77109523Y-45354819D02*
X76538095Y-45354819D01*
X76823809Y-45354819D02*
X76823809Y-44354819D01*
X76823809Y-44354819D02*
X76728571Y-44497676D01*
X76728571Y-44497676D02*
X76633333Y-44592914D01*
X76633333Y-44592914D02*
X76538095Y-44640533D01*
X77585714Y-45354819D02*
X77776190Y-45354819D01*
X77776190Y-45354819D02*
X77871428Y-45307200D01*
X77871428Y-45307200D02*
X77919047Y-45259580D01*
X77919047Y-45259580D02*
X78014285Y-45116723D01*
X78014285Y-45116723D02*
X78061904Y-44926247D01*
X78061904Y-44926247D02*
X78061904Y-44545295D01*
X78061904Y-44545295D02*
X78014285Y-44450057D01*
X78014285Y-44450057D02*
X77966666Y-44402438D01*
X77966666Y-44402438D02*
X77871428Y-44354819D01*
X77871428Y-44354819D02*
X77680952Y-44354819D01*
X77680952Y-44354819D02*
X77585714Y-44402438D01*
X77585714Y-44402438D02*
X77538095Y-44450057D01*
X77538095Y-44450057D02*
X77490476Y-44545295D01*
X77490476Y-44545295D02*
X77490476Y-44783390D01*
X77490476Y-44783390D02*
X77538095Y-44878628D01*
X77538095Y-44878628D02*
X77585714Y-44926247D01*
X77585714Y-44926247D02*
X77680952Y-44973866D01*
X77680952Y-44973866D02*
X77871428Y-44973866D01*
X77871428Y-44973866D02*
X77966666Y-44926247D01*
X77966666Y-44926247D02*
X78014285Y-44878628D01*
X78014285Y-44878628D02*
X78061904Y-44783390D01*
X103766666Y-58754819D02*
X103766666Y-59469104D01*
X103766666Y-59469104D02*
X103719047Y-59611961D01*
X103719047Y-59611961D02*
X103623809Y-59707200D01*
X103623809Y-59707200D02*
X103480952Y-59754819D01*
X103480952Y-59754819D02*
X103385714Y-59754819D01*
X104195238Y-58850057D02*
X104242857Y-58802438D01*
X104242857Y-58802438D02*
X104338095Y-58754819D01*
X104338095Y-58754819D02*
X104576190Y-58754819D01*
X104576190Y-58754819D02*
X104671428Y-58802438D01*
X104671428Y-58802438D02*
X104719047Y-58850057D01*
X104719047Y-58850057D02*
X104766666Y-58945295D01*
X104766666Y-58945295D02*
X104766666Y-59040533D01*
X104766666Y-59040533D02*
X104719047Y-59183390D01*
X104719047Y-59183390D02*
X104147619Y-59754819D01*
X104147619Y-59754819D02*
X104766666Y-59754819D01*
X41585714Y-101254819D02*
X41585714Y-100254819D01*
X41585714Y-100254819D02*
X41966666Y-100254819D01*
X41966666Y-100254819D02*
X42061904Y-100302438D01*
X42061904Y-100302438D02*
X42109523Y-100350057D01*
X42109523Y-100350057D02*
X42157142Y-100445295D01*
X42157142Y-100445295D02*
X42157142Y-100588152D01*
X42157142Y-100588152D02*
X42109523Y-100683390D01*
X42109523Y-100683390D02*
X42061904Y-100731009D01*
X42061904Y-100731009D02*
X41966666Y-100778628D01*
X41966666Y-100778628D02*
X41585714Y-100778628D01*
X42538095Y-101207200D02*
X42680952Y-101254819D01*
X42680952Y-101254819D02*
X42919047Y-101254819D01*
X42919047Y-101254819D02*
X43014285Y-101207200D01*
X43014285Y-101207200D02*
X43061904Y-101159580D01*
X43061904Y-101159580D02*
X43109523Y-101064342D01*
X43109523Y-101064342D02*
X43109523Y-100969104D01*
X43109523Y-100969104D02*
X43061904Y-100873866D01*
X43061904Y-100873866D02*
X43014285Y-100826247D01*
X43014285Y-100826247D02*
X42919047Y-100778628D01*
X42919047Y-100778628D02*
X42728571Y-100731009D01*
X42728571Y-100731009D02*
X42633333Y-100683390D01*
X42633333Y-100683390D02*
X42585714Y-100635771D01*
X42585714Y-100635771D02*
X42538095Y-100540533D01*
X42538095Y-100540533D02*
X42538095Y-100445295D01*
X42538095Y-100445295D02*
X42585714Y-100350057D01*
X42585714Y-100350057D02*
X42633333Y-100302438D01*
X42633333Y-100302438D02*
X42728571Y-100254819D01*
X42728571Y-100254819D02*
X42966666Y-100254819D01*
X42966666Y-100254819D02*
X43109523Y-100302438D01*
X44061904Y-101254819D02*
X43490476Y-101254819D01*
X43776190Y-101254819D02*
X43776190Y-100254819D01*
X43776190Y-100254819D02*
X43680952Y-100397676D01*
X43680952Y-100397676D02*
X43585714Y-100492914D01*
X43585714Y-100492914D02*
X43490476Y-100540533D01*
X72566666Y-44831009D02*
X72233333Y-44831009D01*
X72233333Y-45354819D02*
X72233333Y-44354819D01*
X72233333Y-44354819D02*
X72709523Y-44354819D01*
X73519047Y-44688152D02*
X73519047Y-45354819D01*
X73280952Y-44307200D02*
X73042857Y-45021485D01*
X73042857Y-45021485D02*
X73661904Y-45021485D01*
X76304819Y-122314285D02*
X75304819Y-122314285D01*
X75304819Y-122314285D02*
X75304819Y-122076190D01*
X75304819Y-122076190D02*
X75352438Y-121933333D01*
X75352438Y-121933333D02*
X75447676Y-121838095D01*
X75447676Y-121838095D02*
X75542914Y-121790476D01*
X75542914Y-121790476D02*
X75733390Y-121742857D01*
X75733390Y-121742857D02*
X75876247Y-121742857D01*
X75876247Y-121742857D02*
X76066723Y-121790476D01*
X76066723Y-121790476D02*
X76161961Y-121838095D01*
X76161961Y-121838095D02*
X76257200Y-121933333D01*
X76257200Y-121933333D02*
X76304819Y-122076190D01*
X76304819Y-122076190D02*
X76304819Y-122314285D01*
X76304819Y-120790476D02*
X76304819Y-121361904D01*
X76304819Y-121076190D02*
X75304819Y-121076190D01*
X75304819Y-121076190D02*
X75447676Y-121171428D01*
X75447676Y-121171428D02*
X75542914Y-121266666D01*
X75542914Y-121266666D02*
X75590533Y-121361904D01*
X75400057Y-120409523D02*
X75352438Y-120361904D01*
X75352438Y-120361904D02*
X75304819Y-120266666D01*
X75304819Y-120266666D02*
X75304819Y-120028571D01*
X75304819Y-120028571D02*
X75352438Y-119933333D01*
X75352438Y-119933333D02*
X75400057Y-119885714D01*
X75400057Y-119885714D02*
X75495295Y-119838095D01*
X75495295Y-119838095D02*
X75590533Y-119838095D01*
X75590533Y-119838095D02*
X75733390Y-119885714D01*
X75733390Y-119885714D02*
X76304819Y-120457142D01*
X76304819Y-120457142D02*
X76304819Y-119838095D01*
X105633333Y-75859580D02*
X105585714Y-75907200D01*
X105585714Y-75907200D02*
X105442857Y-75954819D01*
X105442857Y-75954819D02*
X105347619Y-75954819D01*
X105347619Y-75954819D02*
X105204762Y-75907200D01*
X105204762Y-75907200D02*
X105109524Y-75811961D01*
X105109524Y-75811961D02*
X105061905Y-75716723D01*
X105061905Y-75716723D02*
X105014286Y-75526247D01*
X105014286Y-75526247D02*
X105014286Y-75383390D01*
X105014286Y-75383390D02*
X105061905Y-75192914D01*
X105061905Y-75192914D02*
X105109524Y-75097676D01*
X105109524Y-75097676D02*
X105204762Y-75002438D01*
X105204762Y-75002438D02*
X105347619Y-74954819D01*
X105347619Y-74954819D02*
X105442857Y-74954819D01*
X105442857Y-74954819D02*
X105585714Y-75002438D01*
X105585714Y-75002438D02*
X105633333Y-75050057D01*
X106585714Y-75954819D02*
X106014286Y-75954819D01*
X106300000Y-75954819D02*
X106300000Y-74954819D01*
X106300000Y-74954819D02*
X106204762Y-75097676D01*
X106204762Y-75097676D02*
X106109524Y-75192914D01*
X106109524Y-75192914D02*
X106014286Y-75240533D01*
X44757142Y-45354819D02*
X44423809Y-44878628D01*
X44185714Y-45354819D02*
X44185714Y-44354819D01*
X44185714Y-44354819D02*
X44566666Y-44354819D01*
X44566666Y-44354819D02*
X44661904Y-44402438D01*
X44661904Y-44402438D02*
X44709523Y-44450057D01*
X44709523Y-44450057D02*
X44757142Y-44545295D01*
X44757142Y-44545295D02*
X44757142Y-44688152D01*
X44757142Y-44688152D02*
X44709523Y-44783390D01*
X44709523Y-44783390D02*
X44661904Y-44831009D01*
X44661904Y-44831009D02*
X44566666Y-44878628D01*
X44566666Y-44878628D02*
X44185714Y-44878628D01*
X45709523Y-45354819D02*
X45138095Y-45354819D01*
X45423809Y-45354819D02*
X45423809Y-44354819D01*
X45423809Y-44354819D02*
X45328571Y-44497676D01*
X45328571Y-44497676D02*
X45233333Y-44592914D01*
X45233333Y-44592914D02*
X45138095Y-44640533D01*
X46661904Y-45354819D02*
X46090476Y-45354819D01*
X46376190Y-45354819D02*
X46376190Y-44354819D01*
X46376190Y-44354819D02*
X46280952Y-44497676D01*
X46280952Y-44497676D02*
X46185714Y-44592914D01*
X46185714Y-44592914D02*
X46090476Y-44640533D01*
X101066666Y-44831009D02*
X100733333Y-44831009D01*
X100733333Y-45354819D02*
X100733333Y-44354819D01*
X100733333Y-44354819D02*
X101209523Y-44354819D01*
X101495238Y-44354819D02*
X102161904Y-44354819D01*
X102161904Y-44354819D02*
X101733333Y-45354819D01*
X49357142Y-51554819D02*
X49023809Y-51078628D01*
X48785714Y-51554819D02*
X48785714Y-50554819D01*
X48785714Y-50554819D02*
X49166666Y-50554819D01*
X49166666Y-50554819D02*
X49261904Y-50602438D01*
X49261904Y-50602438D02*
X49309523Y-50650057D01*
X49309523Y-50650057D02*
X49357142Y-50745295D01*
X49357142Y-50745295D02*
X49357142Y-50888152D01*
X49357142Y-50888152D02*
X49309523Y-50983390D01*
X49309523Y-50983390D02*
X49261904Y-51031009D01*
X49261904Y-51031009D02*
X49166666Y-51078628D01*
X49166666Y-51078628D02*
X48785714Y-51078628D01*
X50309523Y-51554819D02*
X49738095Y-51554819D01*
X50023809Y-51554819D02*
X50023809Y-50554819D01*
X50023809Y-50554819D02*
X49928571Y-50697676D01*
X49928571Y-50697676D02*
X49833333Y-50792914D01*
X49833333Y-50792914D02*
X49738095Y-50840533D01*
X51166666Y-50888152D02*
X51166666Y-51554819D01*
X50928571Y-50507200D02*
X50690476Y-51221485D01*
X50690476Y-51221485D02*
X51309523Y-51221485D01*
X71304819Y-77638094D02*
X70304819Y-77638094D01*
X70304819Y-77638094D02*
X70304819Y-77399999D01*
X70304819Y-77399999D02*
X70352438Y-77257142D01*
X70352438Y-77257142D02*
X70447676Y-77161904D01*
X70447676Y-77161904D02*
X70542914Y-77114285D01*
X70542914Y-77114285D02*
X70733390Y-77066666D01*
X70733390Y-77066666D02*
X70876247Y-77066666D01*
X70876247Y-77066666D02*
X71066723Y-77114285D01*
X71066723Y-77114285D02*
X71161961Y-77161904D01*
X71161961Y-77161904D02*
X71257200Y-77257142D01*
X71257200Y-77257142D02*
X71304819Y-77399999D01*
X71304819Y-77399999D02*
X71304819Y-77638094D01*
X70304819Y-76733332D02*
X70304819Y-76066666D01*
X70304819Y-76066666D02*
X71304819Y-76495237D01*
X99748478Y-102025891D02*
X99718002Y-102056368D01*
X99718002Y-102056368D02*
X99626573Y-102086844D01*
X99626573Y-102086844D02*
X99565621Y-102086844D01*
X99565621Y-102086844D02*
X99474192Y-102056368D01*
X99474192Y-102056368D02*
X99413240Y-101995415D01*
X99413240Y-101995415D02*
X99382763Y-101934463D01*
X99382763Y-101934463D02*
X99352287Y-101812558D01*
X99352287Y-101812558D02*
X99352287Y-101721129D01*
X99352287Y-101721129D02*
X99382763Y-101599225D01*
X99382763Y-101599225D02*
X99413240Y-101538272D01*
X99413240Y-101538272D02*
X99474192Y-101477320D01*
X99474192Y-101477320D02*
X99565621Y-101446844D01*
X99565621Y-101446844D02*
X99626573Y-101446844D01*
X99626573Y-101446844D02*
X99718002Y-101477320D01*
X99718002Y-101477320D02*
X99748478Y-101507796D01*
X99961811Y-101446844D02*
X100358002Y-101446844D01*
X100358002Y-101446844D02*
X100144668Y-101690653D01*
X100144668Y-101690653D02*
X100236097Y-101690653D01*
X100236097Y-101690653D02*
X100297049Y-101721129D01*
X100297049Y-101721129D02*
X100327525Y-101751606D01*
X100327525Y-101751606D02*
X100358002Y-101812558D01*
X100358002Y-101812558D02*
X100358002Y-101964939D01*
X100358002Y-101964939D02*
X100327525Y-102025891D01*
X100327525Y-102025891D02*
X100297049Y-102056368D01*
X100297049Y-102056368D02*
X100236097Y-102086844D01*
X100236097Y-102086844D02*
X100053240Y-102086844D01*
X100053240Y-102086844D02*
X99992287Y-102056368D01*
X99992287Y-102056368D02*
X99961811Y-102025891D01*
X60457142Y-45354819D02*
X60123809Y-44878628D01*
X59885714Y-45354819D02*
X59885714Y-44354819D01*
X59885714Y-44354819D02*
X60266666Y-44354819D01*
X60266666Y-44354819D02*
X60361904Y-44402438D01*
X60361904Y-44402438D02*
X60409523Y-44450057D01*
X60409523Y-44450057D02*
X60457142Y-44545295D01*
X60457142Y-44545295D02*
X60457142Y-44688152D01*
X60457142Y-44688152D02*
X60409523Y-44783390D01*
X60409523Y-44783390D02*
X60361904Y-44831009D01*
X60361904Y-44831009D02*
X60266666Y-44878628D01*
X60266666Y-44878628D02*
X59885714Y-44878628D01*
X61409523Y-45354819D02*
X60838095Y-45354819D01*
X61123809Y-45354819D02*
X61123809Y-44354819D01*
X61123809Y-44354819D02*
X61028571Y-44497676D01*
X61028571Y-44497676D02*
X60933333Y-44592914D01*
X60933333Y-44592914D02*
X60838095Y-44640533D01*
X62314285Y-44354819D02*
X61838095Y-44354819D01*
X61838095Y-44354819D02*
X61790476Y-44831009D01*
X61790476Y-44831009D02*
X61838095Y-44783390D01*
X61838095Y-44783390D02*
X61933333Y-44735771D01*
X61933333Y-44735771D02*
X62171428Y-44735771D01*
X62171428Y-44735771D02*
X62266666Y-44783390D01*
X62266666Y-44783390D02*
X62314285Y-44831009D01*
X62314285Y-44831009D02*
X62361904Y-44926247D01*
X62361904Y-44926247D02*
X62361904Y-45164342D01*
X62361904Y-45164342D02*
X62314285Y-45259580D01*
X62314285Y-45259580D02*
X62266666Y-45307200D01*
X62266666Y-45307200D02*
X62171428Y-45354819D01*
X62171428Y-45354819D02*
X61933333Y-45354819D01*
X61933333Y-45354819D02*
X61838095Y-45307200D01*
X61838095Y-45307200D02*
X61790476Y-45259580D01*
X80857142Y-51554819D02*
X80523809Y-51078628D01*
X80285714Y-51554819D02*
X80285714Y-50554819D01*
X80285714Y-50554819D02*
X80666666Y-50554819D01*
X80666666Y-50554819D02*
X80761904Y-50602438D01*
X80761904Y-50602438D02*
X80809523Y-50650057D01*
X80809523Y-50650057D02*
X80857142Y-50745295D01*
X80857142Y-50745295D02*
X80857142Y-50888152D01*
X80857142Y-50888152D02*
X80809523Y-50983390D01*
X80809523Y-50983390D02*
X80761904Y-51031009D01*
X80761904Y-51031009D02*
X80666666Y-51078628D01*
X80666666Y-51078628D02*
X80285714Y-51078628D01*
X81238095Y-50650057D02*
X81285714Y-50602438D01*
X81285714Y-50602438D02*
X81380952Y-50554819D01*
X81380952Y-50554819D02*
X81619047Y-50554819D01*
X81619047Y-50554819D02*
X81714285Y-50602438D01*
X81714285Y-50602438D02*
X81761904Y-50650057D01*
X81761904Y-50650057D02*
X81809523Y-50745295D01*
X81809523Y-50745295D02*
X81809523Y-50840533D01*
X81809523Y-50840533D02*
X81761904Y-50983390D01*
X81761904Y-50983390D02*
X81190476Y-51554819D01*
X81190476Y-51554819D02*
X81809523Y-51554819D01*
X82190476Y-50650057D02*
X82238095Y-50602438D01*
X82238095Y-50602438D02*
X82333333Y-50554819D01*
X82333333Y-50554819D02*
X82571428Y-50554819D01*
X82571428Y-50554819D02*
X82666666Y-50602438D01*
X82666666Y-50602438D02*
X82714285Y-50650057D01*
X82714285Y-50650057D02*
X82761904Y-50745295D01*
X82761904Y-50745295D02*
X82761904Y-50840533D01*
X82761904Y-50840533D02*
X82714285Y-50983390D01*
X82714285Y-50983390D02*
X82142857Y-51554819D01*
X82142857Y-51554819D02*
X82761904Y-51554819D01*
X41666666Y-35454819D02*
X41666666Y-36169104D01*
X41666666Y-36169104D02*
X41619047Y-36311961D01*
X41619047Y-36311961D02*
X41523809Y-36407200D01*
X41523809Y-36407200D02*
X41380952Y-36454819D01*
X41380952Y-36454819D02*
X41285714Y-36454819D01*
X42571428Y-35788152D02*
X42571428Y-36454819D01*
X42333333Y-35407200D02*
X42095238Y-36121485D01*
X42095238Y-36121485D02*
X42714285Y-36121485D01*
X45031009Y-143033333D02*
X45031009Y-143366666D01*
X45554819Y-143366666D02*
X44554819Y-143366666D01*
X44554819Y-143366666D02*
X44554819Y-142890476D01*
X45554819Y-142461904D02*
X45554819Y-142271428D01*
X45554819Y-142271428D02*
X45507200Y-142176190D01*
X45507200Y-142176190D02*
X45459580Y-142128571D01*
X45459580Y-142128571D02*
X45316723Y-142033333D01*
X45316723Y-142033333D02*
X45126247Y-141985714D01*
X45126247Y-141985714D02*
X44745295Y-141985714D01*
X44745295Y-141985714D02*
X44650057Y-142033333D01*
X44650057Y-142033333D02*
X44602438Y-142080952D01*
X44602438Y-142080952D02*
X44554819Y-142176190D01*
X44554819Y-142176190D02*
X44554819Y-142366666D01*
X44554819Y-142366666D02*
X44602438Y-142461904D01*
X44602438Y-142461904D02*
X44650057Y-142509523D01*
X44650057Y-142509523D02*
X44745295Y-142557142D01*
X44745295Y-142557142D02*
X44983390Y-142557142D01*
X44983390Y-142557142D02*
X45078628Y-142509523D01*
X45078628Y-142509523D02*
X45126247Y-142461904D01*
X45126247Y-142461904D02*
X45173866Y-142366666D01*
X45173866Y-142366666D02*
X45173866Y-142176190D01*
X45173866Y-142176190D02*
X45126247Y-142080952D01*
X45126247Y-142080952D02*
X45078628Y-142033333D01*
X45078628Y-142033333D02*
X44983390Y-141985714D01*
X49457142Y-45354819D02*
X49123809Y-44878628D01*
X48885714Y-45354819D02*
X48885714Y-44354819D01*
X48885714Y-44354819D02*
X49266666Y-44354819D01*
X49266666Y-44354819D02*
X49361904Y-44402438D01*
X49361904Y-44402438D02*
X49409523Y-44450057D01*
X49409523Y-44450057D02*
X49457142Y-44545295D01*
X49457142Y-44545295D02*
X49457142Y-44688152D01*
X49457142Y-44688152D02*
X49409523Y-44783390D01*
X49409523Y-44783390D02*
X49361904Y-44831009D01*
X49361904Y-44831009D02*
X49266666Y-44878628D01*
X49266666Y-44878628D02*
X48885714Y-44878628D01*
X50409523Y-45354819D02*
X49838095Y-45354819D01*
X50123809Y-45354819D02*
X50123809Y-44354819D01*
X50123809Y-44354819D02*
X50028571Y-44497676D01*
X50028571Y-44497676D02*
X49933333Y-44592914D01*
X49933333Y-44592914D02*
X49838095Y-44640533D01*
X50790476Y-44450057D02*
X50838095Y-44402438D01*
X50838095Y-44402438D02*
X50933333Y-44354819D01*
X50933333Y-44354819D02*
X51171428Y-44354819D01*
X51171428Y-44354819D02*
X51266666Y-44402438D01*
X51266666Y-44402438D02*
X51314285Y-44450057D01*
X51314285Y-44450057D02*
X51361904Y-44545295D01*
X51361904Y-44545295D02*
X51361904Y-44640533D01*
X51361904Y-44640533D02*
X51314285Y-44783390D01*
X51314285Y-44783390D02*
X50742857Y-45354819D01*
X50742857Y-45354819D02*
X51361904Y-45354819D01*
X49612819Y-65456904D02*
X50422342Y-65456904D01*
X50422342Y-65456904D02*
X50517580Y-65409285D01*
X50517580Y-65409285D02*
X50565200Y-65361666D01*
X50565200Y-65361666D02*
X50612819Y-65266428D01*
X50612819Y-65266428D02*
X50612819Y-65075952D01*
X50612819Y-65075952D02*
X50565200Y-64980714D01*
X50565200Y-64980714D02*
X50517580Y-64933095D01*
X50517580Y-64933095D02*
X50422342Y-64885476D01*
X50422342Y-64885476D02*
X49612819Y-64885476D01*
X49946152Y-63980714D02*
X50612819Y-63980714D01*
X49565200Y-64218809D02*
X50279485Y-64456904D01*
X50279485Y-64456904D02*
X50279485Y-63837857D01*
X104266666Y-44831009D02*
X103933333Y-44831009D01*
X103933333Y-45354819D02*
X103933333Y-44354819D01*
X103933333Y-44354819D02*
X104409523Y-44354819D01*
X104933333Y-44783390D02*
X104838095Y-44735771D01*
X104838095Y-44735771D02*
X104790476Y-44688152D01*
X104790476Y-44688152D02*
X104742857Y-44592914D01*
X104742857Y-44592914D02*
X104742857Y-44545295D01*
X104742857Y-44545295D02*
X104790476Y-44450057D01*
X104790476Y-44450057D02*
X104838095Y-44402438D01*
X104838095Y-44402438D02*
X104933333Y-44354819D01*
X104933333Y-44354819D02*
X105123809Y-44354819D01*
X105123809Y-44354819D02*
X105219047Y-44402438D01*
X105219047Y-44402438D02*
X105266666Y-44450057D01*
X105266666Y-44450057D02*
X105314285Y-44545295D01*
X105314285Y-44545295D02*
X105314285Y-44592914D01*
X105314285Y-44592914D02*
X105266666Y-44688152D01*
X105266666Y-44688152D02*
X105219047Y-44735771D01*
X105219047Y-44735771D02*
X105123809Y-44783390D01*
X105123809Y-44783390D02*
X104933333Y-44783390D01*
X104933333Y-44783390D02*
X104838095Y-44831009D01*
X104838095Y-44831009D02*
X104790476Y-44878628D01*
X104790476Y-44878628D02*
X104742857Y-44973866D01*
X104742857Y-44973866D02*
X104742857Y-45164342D01*
X104742857Y-45164342D02*
X104790476Y-45259580D01*
X104790476Y-45259580D02*
X104838095Y-45307200D01*
X104838095Y-45307200D02*
X104933333Y-45354819D01*
X104933333Y-45354819D02*
X105123809Y-45354819D01*
X105123809Y-45354819D02*
X105219047Y-45307200D01*
X105219047Y-45307200D02*
X105266666Y-45259580D01*
X105266666Y-45259580D02*
X105314285Y-45164342D01*
X105314285Y-45164342D02*
X105314285Y-44973866D01*
X105314285Y-44973866D02*
X105266666Y-44878628D01*
X105266666Y-44878628D02*
X105219047Y-44831009D01*
X105219047Y-44831009D02*
X105123809Y-44783390D01*
X65157142Y-51554819D02*
X64823809Y-51078628D01*
X64585714Y-51554819D02*
X64585714Y-50554819D01*
X64585714Y-50554819D02*
X64966666Y-50554819D01*
X64966666Y-50554819D02*
X65061904Y-50602438D01*
X65061904Y-50602438D02*
X65109523Y-50650057D01*
X65109523Y-50650057D02*
X65157142Y-50745295D01*
X65157142Y-50745295D02*
X65157142Y-50888152D01*
X65157142Y-50888152D02*
X65109523Y-50983390D01*
X65109523Y-50983390D02*
X65061904Y-51031009D01*
X65061904Y-51031009D02*
X64966666Y-51078628D01*
X64966666Y-51078628D02*
X64585714Y-51078628D01*
X66109523Y-51554819D02*
X65538095Y-51554819D01*
X65823809Y-51554819D02*
X65823809Y-50554819D01*
X65823809Y-50554819D02*
X65728571Y-50697676D01*
X65728571Y-50697676D02*
X65633333Y-50792914D01*
X65633333Y-50792914D02*
X65538095Y-50840533D01*
X66680952Y-50983390D02*
X66585714Y-50935771D01*
X66585714Y-50935771D02*
X66538095Y-50888152D01*
X66538095Y-50888152D02*
X66490476Y-50792914D01*
X66490476Y-50792914D02*
X66490476Y-50745295D01*
X66490476Y-50745295D02*
X66538095Y-50650057D01*
X66538095Y-50650057D02*
X66585714Y-50602438D01*
X66585714Y-50602438D02*
X66680952Y-50554819D01*
X66680952Y-50554819D02*
X66871428Y-50554819D01*
X66871428Y-50554819D02*
X66966666Y-50602438D01*
X66966666Y-50602438D02*
X67014285Y-50650057D01*
X67014285Y-50650057D02*
X67061904Y-50745295D01*
X67061904Y-50745295D02*
X67061904Y-50792914D01*
X67061904Y-50792914D02*
X67014285Y-50888152D01*
X67014285Y-50888152D02*
X66966666Y-50935771D01*
X66966666Y-50935771D02*
X66871428Y-50983390D01*
X66871428Y-50983390D02*
X66680952Y-50983390D01*
X66680952Y-50983390D02*
X66585714Y-51031009D01*
X66585714Y-51031009D02*
X66538095Y-51078628D01*
X66538095Y-51078628D02*
X66490476Y-51173866D01*
X66490476Y-51173866D02*
X66490476Y-51364342D01*
X66490476Y-51364342D02*
X66538095Y-51459580D01*
X66538095Y-51459580D02*
X66585714Y-51507200D01*
X66585714Y-51507200D02*
X66680952Y-51554819D01*
X66680952Y-51554819D02*
X66871428Y-51554819D01*
X66871428Y-51554819D02*
X66966666Y-51507200D01*
X66966666Y-51507200D02*
X67014285Y-51459580D01*
X67014285Y-51459580D02*
X67061904Y-51364342D01*
X67061904Y-51364342D02*
X67061904Y-51173866D01*
X67061904Y-51173866D02*
X67014285Y-51078628D01*
X67014285Y-51078628D02*
X66966666Y-51031009D01*
X66966666Y-51031009D02*
X66871428Y-50983390D01*
X78861905Y-57654819D02*
X78861905Y-56654819D01*
X78861905Y-56654819D02*
X79100000Y-56654819D01*
X79100000Y-56654819D02*
X79242857Y-56702438D01*
X79242857Y-56702438D02*
X79338095Y-56797676D01*
X79338095Y-56797676D02*
X79385714Y-56892914D01*
X79385714Y-56892914D02*
X79433333Y-57083390D01*
X79433333Y-57083390D02*
X79433333Y-57226247D01*
X79433333Y-57226247D02*
X79385714Y-57416723D01*
X79385714Y-57416723D02*
X79338095Y-57511961D01*
X79338095Y-57511961D02*
X79242857Y-57607200D01*
X79242857Y-57607200D02*
X79100000Y-57654819D01*
X79100000Y-57654819D02*
X78861905Y-57654819D01*
X80338095Y-56654819D02*
X79861905Y-56654819D01*
X79861905Y-56654819D02*
X79814286Y-57131009D01*
X79814286Y-57131009D02*
X79861905Y-57083390D01*
X79861905Y-57083390D02*
X79957143Y-57035771D01*
X79957143Y-57035771D02*
X80195238Y-57035771D01*
X80195238Y-57035771D02*
X80290476Y-57083390D01*
X80290476Y-57083390D02*
X80338095Y-57131009D01*
X80338095Y-57131009D02*
X80385714Y-57226247D01*
X80385714Y-57226247D02*
X80385714Y-57464342D01*
X80385714Y-57464342D02*
X80338095Y-57559580D01*
X80338095Y-57559580D02*
X80290476Y-57607200D01*
X80290476Y-57607200D02*
X80195238Y-57654819D01*
X80195238Y-57654819D02*
X79957143Y-57654819D01*
X79957143Y-57654819D02*
X79861905Y-57607200D01*
X79861905Y-57607200D02*
X79814286Y-57559580D01*
X76157142Y-51554819D02*
X75823809Y-51078628D01*
X75585714Y-51554819D02*
X75585714Y-50554819D01*
X75585714Y-50554819D02*
X75966666Y-50554819D01*
X75966666Y-50554819D02*
X76061904Y-50602438D01*
X76061904Y-50602438D02*
X76109523Y-50650057D01*
X76109523Y-50650057D02*
X76157142Y-50745295D01*
X76157142Y-50745295D02*
X76157142Y-50888152D01*
X76157142Y-50888152D02*
X76109523Y-50983390D01*
X76109523Y-50983390D02*
X76061904Y-51031009D01*
X76061904Y-51031009D02*
X75966666Y-51078628D01*
X75966666Y-51078628D02*
X75585714Y-51078628D01*
X76538095Y-50650057D02*
X76585714Y-50602438D01*
X76585714Y-50602438D02*
X76680952Y-50554819D01*
X76680952Y-50554819D02*
X76919047Y-50554819D01*
X76919047Y-50554819D02*
X77014285Y-50602438D01*
X77014285Y-50602438D02*
X77061904Y-50650057D01*
X77061904Y-50650057D02*
X77109523Y-50745295D01*
X77109523Y-50745295D02*
X77109523Y-50840533D01*
X77109523Y-50840533D02*
X77061904Y-50983390D01*
X77061904Y-50983390D02*
X76490476Y-51554819D01*
X76490476Y-51554819D02*
X77109523Y-51554819D01*
X78061904Y-51554819D02*
X77490476Y-51554819D01*
X77776190Y-51554819D02*
X77776190Y-50554819D01*
X77776190Y-50554819D02*
X77680952Y-50697676D01*
X77680952Y-50697676D02*
X77585714Y-50792914D01*
X77585714Y-50792914D02*
X77490476Y-50840533D01*
X92157142Y-51654819D02*
X91823809Y-51178628D01*
X91585714Y-51654819D02*
X91585714Y-50654819D01*
X91585714Y-50654819D02*
X91966666Y-50654819D01*
X91966666Y-50654819D02*
X92061904Y-50702438D01*
X92061904Y-50702438D02*
X92109523Y-50750057D01*
X92109523Y-50750057D02*
X92157142Y-50845295D01*
X92157142Y-50845295D02*
X92157142Y-50988152D01*
X92157142Y-50988152D02*
X92109523Y-51083390D01*
X92109523Y-51083390D02*
X92061904Y-51131009D01*
X92061904Y-51131009D02*
X91966666Y-51178628D01*
X91966666Y-51178628D02*
X91585714Y-51178628D01*
X92538095Y-50750057D02*
X92585714Y-50702438D01*
X92585714Y-50702438D02*
X92680952Y-50654819D01*
X92680952Y-50654819D02*
X92919047Y-50654819D01*
X92919047Y-50654819D02*
X93014285Y-50702438D01*
X93014285Y-50702438D02*
X93061904Y-50750057D01*
X93061904Y-50750057D02*
X93109523Y-50845295D01*
X93109523Y-50845295D02*
X93109523Y-50940533D01*
X93109523Y-50940533D02*
X93061904Y-51083390D01*
X93061904Y-51083390D02*
X92490476Y-51654819D01*
X92490476Y-51654819D02*
X93109523Y-51654819D01*
X94014285Y-50654819D02*
X93538095Y-50654819D01*
X93538095Y-50654819D02*
X93490476Y-51131009D01*
X93490476Y-51131009D02*
X93538095Y-51083390D01*
X93538095Y-51083390D02*
X93633333Y-51035771D01*
X93633333Y-51035771D02*
X93871428Y-51035771D01*
X93871428Y-51035771D02*
X93966666Y-51083390D01*
X93966666Y-51083390D02*
X94014285Y-51131009D01*
X94014285Y-51131009D02*
X94061904Y-51226247D01*
X94061904Y-51226247D02*
X94061904Y-51464342D01*
X94061904Y-51464342D02*
X94014285Y-51559580D01*
X94014285Y-51559580D02*
X93966666Y-51607200D01*
X93966666Y-51607200D02*
X93871428Y-51654819D01*
X93871428Y-51654819D02*
X93633333Y-51654819D01*
X93633333Y-51654819D02*
X93538095Y-51607200D01*
X93538095Y-51607200D02*
X93490476Y-51559580D01*
X94066667Y-75607200D02*
X94209524Y-75654819D01*
X94209524Y-75654819D02*
X94447619Y-75654819D01*
X94447619Y-75654819D02*
X94542857Y-75607200D01*
X94542857Y-75607200D02*
X94590476Y-75559580D01*
X94590476Y-75559580D02*
X94638095Y-75464342D01*
X94638095Y-75464342D02*
X94638095Y-75369104D01*
X94638095Y-75369104D02*
X94590476Y-75273866D01*
X94590476Y-75273866D02*
X94542857Y-75226247D01*
X94542857Y-75226247D02*
X94447619Y-75178628D01*
X94447619Y-75178628D02*
X94257143Y-75131009D01*
X94257143Y-75131009D02*
X94161905Y-75083390D01*
X94161905Y-75083390D02*
X94114286Y-75035771D01*
X94114286Y-75035771D02*
X94066667Y-74940533D01*
X94066667Y-74940533D02*
X94066667Y-74845295D01*
X94066667Y-74845295D02*
X94114286Y-74750057D01*
X94114286Y-74750057D02*
X94161905Y-74702438D01*
X94161905Y-74702438D02*
X94257143Y-74654819D01*
X94257143Y-74654819D02*
X94495238Y-74654819D01*
X94495238Y-74654819D02*
X94638095Y-74702438D01*
X94971429Y-74654819D02*
X95209524Y-75654819D01*
X95209524Y-75654819D02*
X95400000Y-74940533D01*
X95400000Y-74940533D02*
X95590476Y-75654819D01*
X95590476Y-75654819D02*
X95828572Y-74654819D01*
X96733333Y-75654819D02*
X96161905Y-75654819D01*
X96447619Y-75654819D02*
X96447619Y-74654819D01*
X96447619Y-74654819D02*
X96352381Y-74797676D01*
X96352381Y-74797676D02*
X96257143Y-74892914D01*
X96257143Y-74892914D02*
X96161905Y-74940533D01*
X76254819Y-117442857D02*
X75778628Y-117776190D01*
X76254819Y-118014285D02*
X75254819Y-118014285D01*
X75254819Y-118014285D02*
X75254819Y-117633333D01*
X75254819Y-117633333D02*
X75302438Y-117538095D01*
X75302438Y-117538095D02*
X75350057Y-117490476D01*
X75350057Y-117490476D02*
X75445295Y-117442857D01*
X75445295Y-117442857D02*
X75588152Y-117442857D01*
X75588152Y-117442857D02*
X75683390Y-117490476D01*
X75683390Y-117490476D02*
X75731009Y-117538095D01*
X75731009Y-117538095D02*
X75778628Y-117633333D01*
X75778628Y-117633333D02*
X75778628Y-118014285D01*
X75588152Y-116585714D02*
X76254819Y-116585714D01*
X75207200Y-116823809D02*
X75921485Y-117061904D01*
X75921485Y-117061904D02*
X75921485Y-116442857D01*
X75588152Y-115633333D02*
X76254819Y-115633333D01*
X75207200Y-115871428D02*
X75921485Y-116109523D01*
X75921485Y-116109523D02*
X75921485Y-115490476D01*
X47461905Y-57654819D02*
X47461905Y-56654819D01*
X47461905Y-56654819D02*
X47700000Y-56654819D01*
X47700000Y-56654819D02*
X47842857Y-56702438D01*
X47842857Y-56702438D02*
X47938095Y-56797676D01*
X47938095Y-56797676D02*
X47985714Y-56892914D01*
X47985714Y-56892914D02*
X48033333Y-57083390D01*
X48033333Y-57083390D02*
X48033333Y-57226247D01*
X48033333Y-57226247D02*
X47985714Y-57416723D01*
X47985714Y-57416723D02*
X47938095Y-57511961D01*
X47938095Y-57511961D02*
X47842857Y-57607200D01*
X47842857Y-57607200D02*
X47700000Y-57654819D01*
X47700000Y-57654819D02*
X47461905Y-57654819D01*
X48366667Y-56654819D02*
X48985714Y-56654819D01*
X48985714Y-56654819D02*
X48652381Y-57035771D01*
X48652381Y-57035771D02*
X48795238Y-57035771D01*
X48795238Y-57035771D02*
X48890476Y-57083390D01*
X48890476Y-57083390D02*
X48938095Y-57131009D01*
X48938095Y-57131009D02*
X48985714Y-57226247D01*
X48985714Y-57226247D02*
X48985714Y-57464342D01*
X48985714Y-57464342D02*
X48938095Y-57559580D01*
X48938095Y-57559580D02*
X48890476Y-57607200D01*
X48890476Y-57607200D02*
X48795238Y-57654819D01*
X48795238Y-57654819D02*
X48509524Y-57654819D01*
X48509524Y-57654819D02*
X48414286Y-57607200D01*
X48414286Y-57607200D02*
X48366667Y-57559580D01*
X66304819Y-122314285D02*
X65304819Y-122314285D01*
X65304819Y-122314285D02*
X65304819Y-122076190D01*
X65304819Y-122076190D02*
X65352438Y-121933333D01*
X65352438Y-121933333D02*
X65447676Y-121838095D01*
X65447676Y-121838095D02*
X65542914Y-121790476D01*
X65542914Y-121790476D02*
X65733390Y-121742857D01*
X65733390Y-121742857D02*
X65876247Y-121742857D01*
X65876247Y-121742857D02*
X66066723Y-121790476D01*
X66066723Y-121790476D02*
X66161961Y-121838095D01*
X66161961Y-121838095D02*
X66257200Y-121933333D01*
X66257200Y-121933333D02*
X66304819Y-122076190D01*
X66304819Y-122076190D02*
X66304819Y-122314285D01*
X66304819Y-120790476D02*
X66304819Y-121361904D01*
X66304819Y-121076190D02*
X65304819Y-121076190D01*
X65304819Y-121076190D02*
X65447676Y-121171428D01*
X65447676Y-121171428D02*
X65542914Y-121266666D01*
X65542914Y-121266666D02*
X65590533Y-121361904D01*
X65304819Y-120171428D02*
X65304819Y-120076190D01*
X65304819Y-120076190D02*
X65352438Y-119980952D01*
X65352438Y-119980952D02*
X65400057Y-119933333D01*
X65400057Y-119933333D02*
X65495295Y-119885714D01*
X65495295Y-119885714D02*
X65685771Y-119838095D01*
X65685771Y-119838095D02*
X65923866Y-119838095D01*
X65923866Y-119838095D02*
X66114342Y-119885714D01*
X66114342Y-119885714D02*
X66209580Y-119933333D01*
X66209580Y-119933333D02*
X66257200Y-119980952D01*
X66257200Y-119980952D02*
X66304819Y-120076190D01*
X66304819Y-120076190D02*
X66304819Y-120171428D01*
X66304819Y-120171428D02*
X66257200Y-120266666D01*
X66257200Y-120266666D02*
X66209580Y-120314285D01*
X66209580Y-120314285D02*
X66114342Y-120361904D01*
X66114342Y-120361904D02*
X65923866Y-120409523D01*
X65923866Y-120409523D02*
X65685771Y-120409523D01*
X65685771Y-120409523D02*
X65495295Y-120361904D01*
X65495295Y-120361904D02*
X65400057Y-120314285D01*
X65400057Y-120314285D02*
X65352438Y-120266666D01*
X65352438Y-120266666D02*
X65304819Y-120171428D01*
X56866666Y-44831009D02*
X56533333Y-44831009D01*
X56533333Y-45354819D02*
X56533333Y-44354819D01*
X56533333Y-44354819D02*
X57009523Y-44354819D01*
X57342857Y-44450057D02*
X57390476Y-44402438D01*
X57390476Y-44402438D02*
X57485714Y-44354819D01*
X57485714Y-44354819D02*
X57723809Y-44354819D01*
X57723809Y-44354819D02*
X57819047Y-44402438D01*
X57819047Y-44402438D02*
X57866666Y-44450057D01*
X57866666Y-44450057D02*
X57914285Y-44545295D01*
X57914285Y-44545295D02*
X57914285Y-44640533D01*
X57914285Y-44640533D02*
X57866666Y-44783390D01*
X57866666Y-44783390D02*
X57295238Y-45354819D01*
X57295238Y-45354819D02*
X57914285Y-45354819D01*
X71354819Y-117342857D02*
X70878628Y-117676190D01*
X71354819Y-117914285D02*
X70354819Y-117914285D01*
X70354819Y-117914285D02*
X70354819Y-117533333D01*
X70354819Y-117533333D02*
X70402438Y-117438095D01*
X70402438Y-117438095D02*
X70450057Y-117390476D01*
X70450057Y-117390476D02*
X70545295Y-117342857D01*
X70545295Y-117342857D02*
X70688152Y-117342857D01*
X70688152Y-117342857D02*
X70783390Y-117390476D01*
X70783390Y-117390476D02*
X70831009Y-117438095D01*
X70831009Y-117438095D02*
X70878628Y-117533333D01*
X70878628Y-117533333D02*
X70878628Y-117914285D01*
X70688152Y-116485714D02*
X71354819Y-116485714D01*
X70307200Y-116723809D02*
X71021485Y-116961904D01*
X71021485Y-116961904D02*
X71021485Y-116342857D01*
X70450057Y-116009523D02*
X70402438Y-115961904D01*
X70402438Y-115961904D02*
X70354819Y-115866666D01*
X70354819Y-115866666D02*
X70354819Y-115628571D01*
X70354819Y-115628571D02*
X70402438Y-115533333D01*
X70402438Y-115533333D02*
X70450057Y-115485714D01*
X70450057Y-115485714D02*
X70545295Y-115438095D01*
X70545295Y-115438095D02*
X70640533Y-115438095D01*
X70640533Y-115438095D02*
X70783390Y-115485714D01*
X70783390Y-115485714D02*
X71354819Y-116057142D01*
X71354819Y-116057142D02*
X71354819Y-115438095D01*
X102833333Y-76054819D02*
X102500000Y-75578628D01*
X102261905Y-76054819D02*
X102261905Y-75054819D01*
X102261905Y-75054819D02*
X102642857Y-75054819D01*
X102642857Y-75054819D02*
X102738095Y-75102438D01*
X102738095Y-75102438D02*
X102785714Y-75150057D01*
X102785714Y-75150057D02*
X102833333Y-75245295D01*
X102833333Y-75245295D02*
X102833333Y-75388152D01*
X102833333Y-75388152D02*
X102785714Y-75483390D01*
X102785714Y-75483390D02*
X102738095Y-75531009D01*
X102738095Y-75531009D02*
X102642857Y-75578628D01*
X102642857Y-75578628D02*
X102261905Y-75578628D01*
X103785714Y-76054819D02*
X103214286Y-76054819D01*
X103500000Y-76054819D02*
X103500000Y-75054819D01*
X103500000Y-75054819D02*
X103404762Y-75197676D01*
X103404762Y-75197676D02*
X103309524Y-75292914D01*
X103309524Y-75292914D02*
X103214286Y-75340533D01*
D12*
X66765000Y-116572936D02*
X66765000Y-117027064D01*
X68235000Y-116572936D02*
X68235000Y-117027064D01*
X81765000Y-116572936D02*
X81765000Y-117027064D01*
X83235000Y-116572936D02*
X83235000Y-117027064D01*
X44740000Y-96040000D02*
X44740000Y-97240000D01*
X44740000Y-100560000D02*
X44740000Y-99360000D01*
X48195563Y-96040000D02*
X44740000Y-96040000D01*
X48195563Y-100560000D02*
X44740000Y-100560000D01*
X49260000Y-97104437D02*
X48195563Y-96040000D01*
X49260000Y-97104437D02*
X49260000Y-97240000D01*
X49260000Y-99495563D02*
X48195563Y-100560000D01*
X49260000Y-99495563D02*
X49260000Y-99360000D01*
X49750000Y-100110000D02*
X49750000Y-99610000D01*
X50000000Y-99860000D02*
X49500000Y-99860000D01*
X71765000Y-72572936D02*
X71765000Y-73027064D01*
X73235000Y-72572936D02*
X73235000Y-73027064D01*
X68850000Y-66940000D02*
X68850000Y-65557000D01*
X68850000Y-66940000D02*
X70160000Y-66940000D01*
X69090000Y-59879000D02*
X70210000Y-59879000D01*
X69090000Y-66700000D02*
X69090000Y-59879000D01*
X69090000Y-66700000D02*
X70160000Y-66700000D01*
X70565000Y-61480000D02*
X70565000Y-65100000D01*
X70565000Y-63893333D02*
X71835000Y-63893333D01*
X70565000Y-65100000D02*
X71835000Y-65100000D01*
X70685000Y-65100000D02*
X70685000Y-63893333D01*
X70805000Y-65100000D02*
X70805000Y-63893333D01*
X70925000Y-65100000D02*
X70925000Y-63893333D01*
X71045000Y-65100000D02*
X71045000Y-63893333D01*
X71165000Y-65100000D02*
X71165000Y-63893333D01*
X71285000Y-65100000D02*
X71285000Y-63893333D01*
X71405000Y-65100000D02*
X71405000Y-63893333D01*
X71525000Y-65100000D02*
X71525000Y-63893333D01*
X71645000Y-65100000D02*
X71645000Y-63893333D01*
X71765000Y-65100000D02*
X71765000Y-63893333D01*
X71835000Y-61480000D02*
X70565000Y-61480000D01*
X71835000Y-65100000D02*
X71835000Y-61480000D01*
X72190000Y-59879000D02*
X72751000Y-59879000D01*
X72240000Y-66700000D02*
X72751000Y-66700000D01*
X73105000Y-61480000D02*
X73105000Y-65100000D01*
X73105000Y-63893333D02*
X74375000Y-63893333D01*
X73105000Y-65100000D02*
X74375000Y-65100000D01*
X73225000Y-65100000D02*
X73225000Y-63893333D01*
X73345000Y-65100000D02*
X73345000Y-63893333D01*
X73465000Y-65100000D02*
X73465000Y-63893333D01*
X73585000Y-65100000D02*
X73585000Y-63893333D01*
X73705000Y-65100000D02*
X73705000Y-63893333D01*
X73825000Y-65100000D02*
X73825000Y-63893333D01*
X73945000Y-65100000D02*
X73945000Y-63893333D01*
X74065000Y-65100000D02*
X74065000Y-63893333D01*
X74185000Y-65100000D02*
X74185000Y-63893333D01*
X74305000Y-65100000D02*
X74305000Y-63893333D01*
X74375000Y-61480000D02*
X73105000Y-61480000D01*
X74375000Y-65100000D02*
X74375000Y-61480000D01*
X74730000Y-59879000D02*
X75291000Y-59879000D01*
X74730000Y-66700000D02*
X75291000Y-66700000D01*
X75645000Y-61480000D02*
X75645000Y-65100000D01*
X75645000Y-63893333D02*
X76915000Y-63893333D01*
X75645000Y-65100000D02*
X76915000Y-65100000D01*
X75765000Y-65100000D02*
X75765000Y-63893333D01*
X75885000Y-65100000D02*
X75885000Y-63893333D01*
X76005000Y-65100000D02*
X76005000Y-63893333D01*
X76125000Y-65100000D02*
X76125000Y-63893333D01*
X76245000Y-65100000D02*
X76245000Y-63893333D01*
X76365000Y-65100000D02*
X76365000Y-63893333D01*
X76485000Y-65100000D02*
X76485000Y-63893333D01*
X76605000Y-65100000D02*
X76605000Y-63893333D01*
X76725000Y-65100000D02*
X76725000Y-63893333D01*
X76845000Y-65100000D02*
X76845000Y-63893333D01*
X76915000Y-61480000D02*
X75645000Y-61480000D01*
X76915000Y-65100000D02*
X76915000Y-61480000D01*
X77270000Y-59879000D02*
X77831000Y-59879000D01*
X77270000Y-66700000D02*
X77831000Y-66700000D01*
X78185000Y-61480000D02*
X78185000Y-65100000D01*
X78185000Y-63893333D02*
X79455000Y-63893333D01*
X78185000Y-65100000D02*
X79455000Y-65100000D01*
X78305000Y-65100000D02*
X78305000Y-63893333D01*
X78425000Y-65100000D02*
X78425000Y-63893333D01*
X78545000Y-65100000D02*
X78545000Y-63893333D01*
X78665000Y-65100000D02*
X78665000Y-63893333D01*
X78785000Y-65100000D02*
X78785000Y-63893333D01*
X78905000Y-65100000D02*
X78905000Y-63893333D01*
X79025000Y-65100000D02*
X79025000Y-63893333D01*
X79145000Y-65100000D02*
X79145000Y-63893333D01*
X79265000Y-65100000D02*
X79265000Y-63893333D01*
X79385000Y-65100000D02*
X79385000Y-63893333D01*
X79455000Y-61480000D02*
X78185000Y-61480000D01*
X79455000Y-65100000D02*
X79455000Y-61480000D01*
X79810000Y-59879000D02*
X80930000Y-59879000D01*
X79810000Y-66700000D02*
X80930000Y-66700000D01*
X80930000Y-66700000D02*
X80930000Y-59879000D01*
X45172936Y-48665000D02*
X45627064Y-48665000D01*
X45172936Y-50135000D02*
X45627064Y-50135000D01*
X68790000Y-47272936D02*
X68790000Y-48727064D01*
X70610000Y-47272936D02*
X70610000Y-48727064D01*
X67944087Y-88610000D02*
X71119087Y-88610000D01*
X71119087Y-77390000D02*
X67944087Y-77390000D01*
X71119087Y-88610000D02*
X71119087Y-77390000D01*
X67944087Y-88610000D02*
G75*
G02*
X67944087Y-77390000I-12435000J5610000D01*
G01*
X60872936Y-48665000D02*
X61327064Y-48665000D01*
X60872936Y-50135000D02*
X61327064Y-50135000D01*
X71540000Y-120100000D02*
X71540000Y-122785000D01*
X71540000Y-122785000D02*
X73460000Y-122785000D01*
X73460000Y-122785000D02*
X73460000Y-120100000D01*
X71890000Y-90110000D02*
X71890000Y-86350000D01*
X73150000Y-90110000D02*
X71890000Y-90110000D01*
X77450000Y-90110000D02*
X78710000Y-90110000D01*
X78710000Y-90110000D02*
X78710000Y-84100000D01*
X85005000Y-121195000D02*
X90805000Y-121195000D01*
X85005000Y-121195000D02*
X103505000Y-121195000D01*
X110005000Y-121195000D02*
X85005000Y-121195000D01*
X85005000Y-144195000D01*
X110005000Y-144195000D01*
X110005000Y-121195000D01*
X97272936Y-45765000D02*
X97727064Y-45765000D01*
X97272936Y-47235000D02*
X97727064Y-47235000D01*
X100310000Y-52050000D02*
X92900000Y-52050000D01*
X100310000Y-56350000D02*
X92900000Y-56350000D01*
X100310000Y-56350000D02*
X100310000Y-52050000D01*
X65572936Y-45765000D02*
X66027064Y-45765000D01*
X65572936Y-47235000D02*
X66027064Y-47235000D01*
D11*
X45575000Y-61575000D02*
X45800000Y-61575000D01*
X45575000Y-64825000D02*
X45575000Y-61575000D01*
X45575000Y-64825000D02*
X45800000Y-64825000D01*
X48825000Y-61575000D02*
X48600000Y-61575000D01*
X48825000Y-64825000D02*
X48600000Y-64825000D01*
X48825000Y-64825000D02*
X48825000Y-61575000D01*
D12*
X45800000Y-65300000D02*
X45470000Y-65540000D01*
X45470000Y-65060000D01*
X45800000Y-65300000D01*
G36*
X45800000Y-65300000D02*
G01*
X45470000Y-65540000D01*
X45470000Y-65060000D01*
X45800000Y-65300000D01*
G37*
X76765000Y-73027064D02*
X76765000Y-72572936D01*
X78235000Y-73027064D02*
X78235000Y-72572936D01*
X88450000Y-76200000D02*
X91750000Y-76200000D01*
X88450000Y-76500000D02*
X88450000Y-76200000D01*
X88450000Y-78700000D02*
X88450000Y-79000000D01*
X88450000Y-79000000D02*
X91750000Y-79000000D01*
X91750000Y-76200000D02*
X91750000Y-76500000D01*
X91750000Y-79000000D02*
X91750000Y-78700000D01*
X87890000Y-47272936D02*
X87890000Y-48727064D01*
X89710000Y-47272936D02*
X89710000Y-48727064D01*
X72100000Y-94140000D02*
X72600000Y-94140000D01*
X72350000Y-93890000D02*
X72350000Y-94390000D01*
X72840000Y-94504437D02*
X72840000Y-94640000D01*
X72840000Y-94504437D02*
X73904437Y-93440000D01*
X72840000Y-96895563D02*
X72840000Y-96760000D01*
X72840000Y-96895563D02*
X73904437Y-97960000D01*
X73904437Y-93440000D02*
X77360000Y-93440000D01*
X73904437Y-97960000D02*
X77360000Y-97960000D01*
X77360000Y-93440000D02*
X77360000Y-94640000D01*
X77360000Y-97960000D02*
X77360000Y-96760000D01*
X92572936Y-45765000D02*
X93027064Y-45765000D01*
X92572936Y-47235000D02*
X93027064Y-47235000D01*
X81540000Y-120100000D02*
X81540000Y-122785000D01*
X81540000Y-122785000D02*
X83460000Y-122785000D01*
X83460000Y-122785000D02*
X83460000Y-120100000D01*
X68610000Y-52050000D02*
X61200000Y-52050000D01*
X68610000Y-56350000D02*
X61200000Y-56350000D01*
X68610000Y-56350000D02*
X68610000Y-52050000D01*
X84590000Y-47272936D02*
X84590000Y-48727064D01*
X86410000Y-47272936D02*
X86410000Y-48727064D01*
X81272936Y-45765000D02*
X81727064Y-45765000D01*
X81272936Y-47235000D02*
X81727064Y-47235000D01*
X76540000Y-75900000D02*
X76540000Y-78585000D01*
X76540000Y-78585000D02*
X78460000Y-78585000D01*
X78460000Y-78585000D02*
X78460000Y-75900000D01*
X81680000Y-81580000D02*
X82300000Y-81580000D01*
X81680000Y-82580000D02*
X81680000Y-81580000D01*
X81680000Y-98820000D02*
X81680000Y-99820000D01*
X81680000Y-99820000D02*
X82300000Y-99820000D01*
X100700000Y-81200000D02*
X100700000Y-81580000D01*
X100700000Y-81580000D02*
X101120000Y-81580000D01*
X100700000Y-99820000D02*
X101120000Y-99820000D01*
X101120000Y-99820000D02*
X101120000Y-81580000D01*
X53090000Y-47272936D02*
X53090000Y-48727064D01*
X54910000Y-47272936D02*
X54910000Y-48727064D01*
X97272936Y-48665000D02*
X97727064Y-48665000D01*
X97272936Y-50135000D02*
X97727064Y-50135000D01*
X76572936Y-45765000D02*
X77027064Y-45765000D01*
X76572936Y-47235000D02*
X77027064Y-47235000D01*
X100690000Y-62290000D02*
X100690000Y-61210000D01*
X100690000Y-66510000D02*
X100260000Y-66510000D01*
X100690000Y-67590000D02*
X100690000Y-66510000D01*
X105840000Y-60490000D02*
X102610000Y-60490000D01*
X105840000Y-68310000D02*
X102610000Y-68310000D01*
X110010000Y-60490000D02*
X108060000Y-60490000D01*
X110010000Y-60490000D02*
X110010000Y-68310000D01*
X110010000Y-68310000D02*
X108060000Y-68310000D01*
D13*
X41700000Y-101900000D02*
X41700000Y-139900000D01*
X41700000Y-139900000D02*
X64700000Y-139900000D01*
X64700000Y-101900000D02*
X41700000Y-101900000D01*
X64700000Y-139900000D02*
X64700000Y-101900000D01*
D14*
X50100000Y-140700000D02*
G75*
G02*
X49900000Y-140700000I-100000J0D01*
G01*
X49900000Y-140700000D02*
G75*
G02*
X50100000Y-140700000I100000J0D01*
G01*
D12*
X71990000Y-47272936D02*
X71990000Y-48727064D01*
X73810000Y-47272936D02*
X73810000Y-48727064D01*
X43410000Y-146012500D02*
X43410000Y-158232500D01*
X43410000Y-154932500D02*
X106590000Y-154932500D01*
X43410000Y-156732500D02*
X43410000Y-154932500D01*
X43410000Y-158232500D02*
X106590000Y-158232500D01*
X46060000Y-158232500D02*
X48060000Y-158232500D01*
X46310000Y-156732500D02*
X46060000Y-158232500D01*
X46760000Y-145212500D02*
X47360000Y-145212500D01*
X47060000Y-145812500D02*
X46760000Y-145212500D01*
X47360000Y-145212500D02*
X47060000Y-145812500D01*
X47810000Y-156732500D02*
X46310000Y-156732500D01*
X48060000Y-158232500D02*
X47810000Y-156732500D01*
X51140000Y-158232500D02*
X53140000Y-158232500D01*
X51390000Y-156732500D02*
X51140000Y-158232500D01*
X52890000Y-156732500D02*
X51390000Y-156732500D01*
X53140000Y-158232500D02*
X52890000Y-156732500D01*
X56220000Y-158232500D02*
X58220000Y-158232500D01*
X56470000Y-156732500D02*
X56220000Y-158232500D01*
X57970000Y-156732500D02*
X56470000Y-156732500D01*
X58220000Y-158232500D02*
X57970000Y-156732500D01*
X61300000Y-158232500D02*
X63300000Y-158232500D01*
X61550000Y-156732500D02*
X61300000Y-158232500D01*
X63050000Y-156732500D02*
X61550000Y-156732500D01*
X63300000Y-158232500D02*
X63050000Y-156732500D01*
X66380000Y-158232500D02*
X68380000Y-158232500D01*
X66630000Y-156732500D02*
X66380000Y-158232500D01*
X68130000Y-156732500D02*
X66630000Y-156732500D01*
X68380000Y-158232500D02*
X68130000Y-156732500D01*
X71460000Y-158232500D02*
X73460000Y-158232500D01*
X71710000Y-156732500D02*
X71460000Y-158232500D01*
X73210000Y-156732500D02*
X71710000Y-156732500D01*
X73460000Y-158232500D02*
X73210000Y-156732500D01*
X76540000Y-158232500D02*
X78540000Y-158232500D01*
X76790000Y-156732500D02*
X76540000Y-158232500D01*
X78290000Y-156732500D02*
X76790000Y-156732500D01*
X78540000Y-158232500D02*
X78290000Y-156732500D01*
X81620000Y-158232500D02*
X83620000Y-158232500D01*
X81870000Y-156732500D02*
X81620000Y-158232500D01*
X83370000Y-156732500D02*
X81870000Y-156732500D01*
X83620000Y-158232500D02*
X83370000Y-156732500D01*
X86700000Y-158232500D02*
X88700000Y-158232500D01*
X86950000Y-156732500D02*
X86700000Y-158232500D01*
X88450000Y-156732500D02*
X86950000Y-156732500D01*
X88700000Y-158232500D02*
X88450000Y-156732500D01*
X91780000Y-158232500D02*
X93780000Y-158232500D01*
X92030000Y-156732500D02*
X91780000Y-158232500D01*
X93530000Y-156732500D02*
X92030000Y-156732500D01*
X93780000Y-158232500D02*
X93530000Y-156732500D01*
X96860000Y-158232500D02*
X98860000Y-158232500D01*
X97110000Y-156732500D02*
X96860000Y-158232500D01*
X98610000Y-156732500D02*
X97110000Y-156732500D01*
X98860000Y-158232500D02*
X98610000Y-156732500D01*
X101940000Y-158232500D02*
X103940000Y-158232500D01*
X102190000Y-156732500D02*
X101940000Y-158232500D01*
X103690000Y-156732500D02*
X102190000Y-156732500D01*
X103940000Y-158232500D02*
X103690000Y-156732500D01*
X106590000Y-146012500D02*
X43410000Y-146012500D01*
X106590000Y-154932500D02*
X106590000Y-156732500D01*
X106590000Y-156732500D02*
X43410000Y-156732500D01*
X106590000Y-158232500D02*
X106590000Y-146012500D01*
X76540000Y-120100000D02*
X76540000Y-122785000D01*
X76540000Y-122785000D02*
X78460000Y-122785000D01*
X78460000Y-122785000D02*
X78460000Y-120100000D01*
X105065000Y-78161252D02*
X105065000Y-77638748D01*
X106535000Y-78161252D02*
X106535000Y-77638748D01*
X45172936Y-45765000D02*
X45627064Y-45765000D01*
X45172936Y-47235000D02*
X45627064Y-47235000D01*
X100490000Y-47272936D02*
X100490000Y-48727064D01*
X102310000Y-47272936D02*
X102310000Y-48727064D01*
X49872936Y-48665000D02*
X50327064Y-48665000D01*
X49872936Y-50135000D02*
X50327064Y-50135000D01*
X71540000Y-75900000D02*
X71540000Y-78585000D01*
X71540000Y-78585000D02*
X73460000Y-78585000D01*
X73460000Y-78585000D02*
X73460000Y-75900000D01*
D11*
X95500000Y-104250000D02*
X95500000Y-107000000D01*
X104250000Y-102750000D02*
X97000000Y-102750000D01*
X104250000Y-117500000D02*
X97000000Y-117500000D01*
X107478145Y-102750000D02*
X107000000Y-102750000D01*
X107478145Y-104150000D02*
X107478145Y-102750000D01*
X107478145Y-116234968D02*
X107478145Y-117500000D01*
X107489073Y-117500000D02*
X107010928Y-117500000D01*
X108778145Y-110984968D02*
X109978145Y-110984968D01*
X109978145Y-102750000D02*
X107478145Y-102750000D01*
X109978145Y-105550000D02*
X109978145Y-102750000D01*
X109978145Y-110984968D02*
X109978145Y-105484968D01*
X109978145Y-116484968D02*
X109978145Y-110984968D01*
X109978145Y-117500000D02*
X107478145Y-117500000D01*
X109978145Y-117500000D02*
X109978145Y-116484968D01*
D12*
X60872936Y-45765000D02*
X61327064Y-45765000D01*
X60872936Y-47235000D02*
X61327064Y-47235000D01*
X81272936Y-48665000D02*
X81727064Y-48665000D01*
X81272936Y-50135000D02*
X81727064Y-50135000D01*
X43410000Y-31667500D02*
X43410000Y-43887500D01*
X43410000Y-33167500D02*
X106590000Y-33167500D01*
X43410000Y-34967500D02*
X43410000Y-33167500D01*
X43410000Y-43887500D02*
X106590000Y-43887500D01*
X46060000Y-31667500D02*
X46310000Y-33167500D01*
X46310000Y-33167500D02*
X47810000Y-33167500D01*
X47810000Y-33167500D02*
X48060000Y-31667500D01*
X48060000Y-31667500D02*
X46060000Y-31667500D01*
X51140000Y-31667500D02*
X51390000Y-33167500D01*
X51390000Y-33167500D02*
X52890000Y-33167500D01*
X52890000Y-33167500D02*
X53140000Y-31667500D01*
X53140000Y-31667500D02*
X51140000Y-31667500D01*
X56220000Y-31667500D02*
X56470000Y-33167500D01*
X56470000Y-33167500D02*
X57970000Y-33167500D01*
X57970000Y-33167500D02*
X58220000Y-31667500D01*
X58220000Y-31667500D02*
X56220000Y-31667500D01*
X61300000Y-31667500D02*
X61550000Y-33167500D01*
X61550000Y-33167500D02*
X63050000Y-33167500D01*
X63050000Y-33167500D02*
X63300000Y-31667500D01*
X63300000Y-31667500D02*
X61300000Y-31667500D01*
X66380000Y-31667500D02*
X66630000Y-33167500D01*
X66630000Y-33167500D02*
X68130000Y-33167500D01*
X68130000Y-33167500D02*
X68380000Y-31667500D01*
X68380000Y-31667500D02*
X66380000Y-31667500D01*
X71460000Y-31667500D02*
X71710000Y-33167500D01*
X71710000Y-33167500D02*
X73210000Y-33167500D01*
X73210000Y-33167500D02*
X73460000Y-31667500D01*
X73460000Y-31667500D02*
X71460000Y-31667500D01*
X76540000Y-31667500D02*
X76790000Y-33167500D01*
X76790000Y-33167500D02*
X78290000Y-33167500D01*
X78290000Y-33167500D02*
X78540000Y-31667500D01*
X78540000Y-31667500D02*
X76540000Y-31667500D01*
X81620000Y-31667500D02*
X81870000Y-33167500D01*
X81870000Y-33167500D02*
X83370000Y-33167500D01*
X83370000Y-33167500D02*
X83620000Y-31667500D01*
X83620000Y-31667500D02*
X81620000Y-31667500D01*
X86700000Y-31667500D02*
X86950000Y-33167500D01*
X86950000Y-33167500D02*
X88450000Y-33167500D01*
X88450000Y-33167500D02*
X88700000Y-31667500D01*
X88700000Y-31667500D02*
X86700000Y-31667500D01*
X91780000Y-31667500D02*
X92030000Y-33167500D01*
X92030000Y-33167500D02*
X93530000Y-33167500D01*
X93530000Y-33167500D02*
X93780000Y-31667500D01*
X93780000Y-31667500D02*
X91780000Y-31667500D01*
X96860000Y-31667500D02*
X97110000Y-33167500D01*
X97110000Y-33167500D02*
X98610000Y-33167500D01*
X98610000Y-33167500D02*
X98860000Y-31667500D01*
X98860000Y-31667500D02*
X96860000Y-31667500D01*
X101940000Y-31667500D02*
X102190000Y-33167500D01*
X102190000Y-33167500D02*
X103690000Y-33167500D01*
X102640000Y-44687500D02*
X102940000Y-44087500D01*
X102940000Y-44087500D02*
X103240000Y-44687500D01*
X103240000Y-44687500D02*
X102640000Y-44687500D01*
X103690000Y-33167500D02*
X103940000Y-31667500D01*
X103940000Y-31667500D02*
X101940000Y-31667500D01*
X106590000Y-31667500D02*
X43410000Y-31667500D01*
X106590000Y-33167500D02*
X106590000Y-34967500D01*
X106590000Y-34967500D02*
X43410000Y-34967500D01*
X106590000Y-43887500D02*
X106590000Y-31667500D01*
X45980000Y-141330000D02*
X45980000Y-144070000D01*
X45980000Y-141330000D02*
X53220000Y-141330000D01*
X45980000Y-144070000D02*
X53220000Y-144070000D01*
X53220000Y-141330000D02*
X53220000Y-144070000D01*
X49872936Y-45765000D02*
X50327064Y-45765000D01*
X49872936Y-47235000D02*
X50327064Y-47235000D01*
D13*
X50970000Y-65900000D02*
X50970000Y-61900000D01*
X59830000Y-65900000D02*
X59830000Y-61900000D01*
D14*
X51290000Y-67945000D02*
G75*
G02*
X51090000Y-67945000I-100000J0D01*
G01*
X51090000Y-67945000D02*
G75*
G02*
X51290000Y-67945000I100000J0D01*
G01*
D12*
X103690000Y-47272936D02*
X103690000Y-48727064D01*
X105510000Y-47272936D02*
X105510000Y-48727064D01*
X65572936Y-48665000D02*
X66027064Y-48665000D01*
X65572936Y-50135000D02*
X66027064Y-50135000D01*
X84310000Y-52050000D02*
X76900000Y-52050000D01*
X84310000Y-56350000D02*
X76900000Y-56350000D01*
X84310000Y-56350000D02*
X84310000Y-52050000D01*
X76572936Y-48665000D02*
X77027064Y-48665000D01*
X76572936Y-50135000D02*
X77027064Y-50135000D01*
X92572936Y-48665000D02*
X93027064Y-48665000D01*
X92572936Y-50135000D02*
X93027064Y-50135000D01*
X93750000Y-76200000D02*
X93750000Y-76500000D01*
X93750000Y-79000000D02*
X93750000Y-78700000D01*
X97050000Y-76200000D02*
X93750000Y-76200000D01*
X97050000Y-76500000D02*
X97050000Y-76200000D01*
X97050000Y-78700000D02*
X97050000Y-79000000D01*
X97050000Y-79000000D02*
X93750000Y-79000000D01*
X76765000Y-116572936D02*
X76765000Y-117027064D01*
X78235000Y-116572936D02*
X78235000Y-117027064D01*
X52910000Y-52050000D02*
X45500000Y-52050000D01*
X52910000Y-56350000D02*
X45500000Y-56350000D01*
X52910000Y-56350000D02*
X52910000Y-52050000D01*
X66540000Y-120100000D02*
X66540000Y-122785000D01*
X66540000Y-122785000D02*
X68460000Y-122785000D01*
X68460000Y-122785000D02*
X68460000Y-120100000D01*
X56290000Y-47272936D02*
X56290000Y-48727064D01*
X58110000Y-47272936D02*
X58110000Y-48727064D01*
X71765000Y-116572936D02*
X71765000Y-117027064D01*
X73235000Y-116572936D02*
X73235000Y-117027064D01*
X102265000Y-78127064D02*
X102265000Y-77672936D01*
X103735000Y-78127064D02*
X103735000Y-77672936D01*
%LPC*%
D15*
X67500000Y-115800000D03*
X67500000Y-117800000D03*
X82500000Y-115800000D03*
X82500000Y-117800000D03*
D16*
X48800000Y-98300000D03*
X45200000Y-98300000D03*
D15*
X72500000Y-71800000D03*
X72500000Y-73800000D03*
D17*
X71200000Y-67100000D03*
D18*
X73740000Y-67100000D03*
X76280000Y-67100000D03*
X78820000Y-67100000D03*
X78820000Y-59480000D03*
X76280000Y-59480000D03*
X73740000Y-59480000D03*
X71200000Y-59480000D03*
D19*
X44400000Y-49400000D03*
X46400000Y-49400000D03*
D20*
X69700000Y-46450000D03*
X69700000Y-49550000D03*
D21*
X69789087Y-83000000D03*
D22*
X49789087Y-83000000D03*
D19*
X60100000Y-49400000D03*
X62100000Y-49400000D03*
D23*
X72500000Y-122037500D03*
X72500000Y-120162500D03*
D24*
X77600000Y-85050000D03*
X75300000Y-85050000D03*
D25*
X75300000Y-91350000D03*
D24*
X73000000Y-85050000D03*
D26*
X103505000Y-122535000D03*
X100965000Y-122535000D03*
X98425000Y-122535000D03*
X95885000Y-122535000D03*
X93345000Y-122535000D03*
X90805000Y-122535000D03*
X90805000Y-142855000D03*
X93345000Y-142855000D03*
X95885000Y-142855000D03*
X98425000Y-142855000D03*
X100965000Y-142855000D03*
X103505000Y-142855000D03*
D27*
X107465000Y-126245000D03*
X107465000Y-139153000D03*
D19*
X96500000Y-46500000D03*
X98500000Y-46500000D03*
D28*
X98300000Y-54200000D03*
X92900000Y-54200000D03*
D19*
X64800000Y-46500000D03*
X66800000Y-46500000D03*
D29*
X46200000Y-65350000D03*
X46700000Y-65350000D03*
X47200000Y-65350000D03*
X47700000Y-65350000D03*
X48200000Y-65350000D03*
X48200000Y-61050000D03*
X47700000Y-61050000D03*
X47200000Y-61050000D03*
X46700000Y-61050000D03*
X46200000Y-61050000D03*
D30*
X77500000Y-73800000D03*
X77500000Y-71800000D03*
D31*
X88400000Y-77600000D03*
X91800000Y-77600000D03*
D20*
X88800000Y-46450000D03*
X88800000Y-49550000D03*
D32*
X73300000Y-95700000D03*
X76900000Y-95700000D03*
D19*
X91800000Y-46500000D03*
X93800000Y-46500000D03*
D23*
X82500000Y-122037500D03*
X82500000Y-120162500D03*
D28*
X66600000Y-54200000D03*
X61200000Y-54200000D03*
D20*
X85500000Y-46450000D03*
X85500000Y-49550000D03*
D19*
X80500000Y-46500000D03*
X82500000Y-46500000D03*
D23*
X77500000Y-77837500D03*
X77500000Y-75962500D03*
D33*
X99655000Y-82200000D03*
X98385000Y-82200000D03*
X97115000Y-82200000D03*
X95845000Y-82200000D03*
X94575000Y-82200000D03*
X93305000Y-82200000D03*
X92035000Y-82200000D03*
X90765000Y-82200000D03*
X89495000Y-82200000D03*
X88225000Y-82200000D03*
X86955000Y-82200000D03*
X85685000Y-82200000D03*
X84415000Y-82200000D03*
X83145000Y-82200000D03*
D34*
X82145000Y-84985000D03*
X82145000Y-86255000D03*
X82145000Y-87525000D03*
X82145000Y-88795000D03*
X82145000Y-90065000D03*
X82145000Y-91335000D03*
X82145000Y-92605000D03*
X82145000Y-93875000D03*
X82145000Y-95145000D03*
X82145000Y-96415000D03*
D33*
X83145000Y-99200000D03*
X84415000Y-99200000D03*
X85685000Y-99200000D03*
X86955000Y-99200000D03*
X88225000Y-99200000D03*
X89495000Y-99200000D03*
X90765000Y-99200000D03*
X92035000Y-99200000D03*
X93305000Y-99200000D03*
X94575000Y-99200000D03*
X95845000Y-99200000D03*
X97115000Y-99200000D03*
X98385000Y-99200000D03*
X99655000Y-99200000D03*
D35*
X92155000Y-89700000D03*
D20*
X54000000Y-46450000D03*
X54000000Y-49550000D03*
D19*
X96500000Y-49400000D03*
X98500000Y-49400000D03*
X75800000Y-46500000D03*
X77800000Y-46500000D03*
D36*
X104100000Y-66600000D03*
X104100000Y-62200000D03*
D37*
X101400000Y-66000000D03*
X101400000Y-65200000D03*
X101400000Y-64400000D03*
X101400000Y-63600000D03*
X101400000Y-62800000D03*
D38*
X101500000Y-68850000D03*
X106950000Y-68850000D03*
X101500000Y-59950000D03*
X106950000Y-59950000D03*
D39*
X50200000Y-137700000D03*
D40*
X56200000Y-137700000D03*
X44200000Y-104100000D03*
X62200000Y-104100000D03*
D20*
X72900000Y-46450000D03*
X72900000Y-49550000D03*
D41*
X47060000Y-148122500D03*
D42*
X52140000Y-148122500D03*
X57220000Y-148122500D03*
X62300000Y-148122500D03*
X67380000Y-148122500D03*
X72460000Y-148122500D03*
X77540000Y-148122500D03*
X82620000Y-148122500D03*
X87700000Y-148122500D03*
X92780000Y-148122500D03*
X97860000Y-148122500D03*
X102940000Y-148122500D03*
D23*
X77500000Y-122037500D03*
X77500000Y-120162500D03*
D43*
X105800000Y-76950000D03*
X105800000Y-78850000D03*
D19*
X44400000Y-46500000D03*
X46400000Y-46500000D03*
D20*
X101400000Y-46450000D03*
X101400000Y-49550000D03*
D19*
X49100000Y-49400000D03*
X51100000Y-49400000D03*
D23*
X72500000Y-77837500D03*
X72500000Y-75962500D03*
D44*
X105978145Y-106984968D03*
X105978145Y-114984968D03*
D45*
X95478145Y-107784968D03*
X95478145Y-108884968D03*
X95478145Y-109984968D03*
X95478145Y-111084968D03*
X95478145Y-112184968D03*
X95478145Y-113284968D03*
X95478145Y-114384968D03*
X95478145Y-115484968D03*
X95478145Y-116584968D03*
D46*
X105578145Y-102284968D03*
D47*
X95978145Y-103184968D03*
D46*
X105578145Y-117784968D03*
D48*
X95978145Y-117784968D03*
D19*
X60100000Y-46500000D03*
X62100000Y-46500000D03*
X80500000Y-49400000D03*
X82500000Y-49400000D03*
D49*
X102940000Y-41777500D03*
D42*
X97860000Y-41777500D03*
X92780000Y-41777500D03*
X87700000Y-41777500D03*
X82620000Y-41777500D03*
X77540000Y-41777500D03*
X72460000Y-41777500D03*
X67380000Y-41777500D03*
X62300000Y-41777500D03*
X57220000Y-41777500D03*
X52140000Y-41777500D03*
X47060000Y-41777500D03*
D50*
X47100000Y-142700000D03*
X52100000Y-142700000D03*
D19*
X49100000Y-46500000D03*
X51100000Y-46500000D03*
D51*
X51590000Y-66375000D03*
X52860000Y-66375000D03*
X54130000Y-66375000D03*
X55400000Y-66375000D03*
X56670000Y-66375000D03*
X57940000Y-66375000D03*
X59210000Y-66375000D03*
X59210000Y-61425000D03*
X57940000Y-61425000D03*
X56670000Y-61425000D03*
X55400000Y-61425000D03*
X54130000Y-61425000D03*
X52860000Y-61425000D03*
X51590000Y-61425000D03*
D20*
X104600000Y-46450000D03*
X104600000Y-49550000D03*
D19*
X64800000Y-49400000D03*
X66800000Y-49400000D03*
D28*
X82300000Y-54200000D03*
X76900000Y-54200000D03*
D19*
X75800000Y-49400000D03*
X77800000Y-49400000D03*
X91800000Y-49400000D03*
X93800000Y-49400000D03*
D31*
X97100000Y-77600000D03*
X93700000Y-77600000D03*
D15*
X77500000Y-115800000D03*
X77500000Y-117800000D03*
D28*
X50900000Y-54200000D03*
X45500000Y-54200000D03*
D23*
X67500000Y-122037500D03*
X67500000Y-120162500D03*
D20*
X57200000Y-46450000D03*
X57200000Y-49550000D03*
D15*
X72500000Y-115800000D03*
X72500000Y-117800000D03*
D52*
X103000000Y-76987500D03*
X103000000Y-78812500D03*
D17*
X79500000Y-105590000D03*
D18*
X79500000Y-113210000D03*
D17*
X65990000Y-102800000D03*
D18*
X73610000Y-102800000D03*
D17*
X55877000Y-90959000D03*
D18*
X63497000Y-90959000D03*
%LPD*%
M02*
