M48
; DRILL file {KiCad 8.0.4} date 2024-11-14T12:54:45+0700
; FORMAT={-:-/ absolute / inch / decimal}
; #@! TF.CreationDate,2024-11-14T12:54:45+07:00
; #@! TF.GenerationSoftware,Kicad,Pcbnew,8.0.4
; #@! TF.FileFunction,Plated,1,2,PTH
FMAT,2
INCH
; #@! TA.AperFunction,Plated,PTH,ViaDrill
T1C0.0157
; #@! TA.AperFunction,Plated,PTH,ViaDrill
T2C0.0236
; #@! TA.AperFunction,Plated,PTH,ComponentDrill
T3C0.0315
; #@! TA.AperFunction,Plated,PTH,ComponentDrill
T4C0.0394
; #@! TA.AperFunction,Plated,PTH,ComponentDrill
T5C0.0433
; #@! TA.AperFunction,Plated,PTH,ComponentDrill
T6C0.0512
; #@! TA.AperFunction,Plated,PTH,ComponentDrill
T7C0.0551
; #@! TA.AperFunction,Plated,PTH,ComponentDrill
T8C0.0591
%
G90
G05
T1
X1.7874Y-2.3465
X1.8268Y-2.3268
X1.8622Y-3.5787
X1.8819Y-2.3031
X1.9528Y-2.4528
X2.1732Y-2.1339
X2.1811Y-2.3386
X2.1811Y-2.6929
X2.3228Y-4.1457
X2.3386Y-4.7008
X2.4961Y-4.252
X2.5039Y-3.9764
X2.5079Y-4.4291
X2.5591Y-5.4094
X2.6614Y-4.3543
X2.6614Y-4.5
X2.748Y-5.3819
X2.8386Y-5.4094
X2.874Y-4.4488
X2.8898Y-4.685
X3.0236Y-4.3583
X3.0551Y-4.2598
X3.063Y-4.1575
X3.0945Y-3.1299
X3.2283Y-2.8071
X3.2677Y-3.1575
X3.2992Y-2.2835
X3.2992Y-2.4646
X3.311Y-2.8071
X3.311Y-3.0
X3.3228Y-3.9882
X3.374Y-3.0
X3.374Y-3.1654
X3.374Y-3.9882
X3.4213Y-3.9882
X3.4213Y-4.6024
X3.4252Y-3.1654
X3.4764Y-3.1654
X3.5236Y-3.1654
X3.5236Y-3.9882
X3.5236Y-4.4167
X3.5236Y-4.6024
X3.5709Y-3.8228
X3.5748Y-3.1654
X3.5748Y-3.9882
X3.5748Y-4.5039
X3.6732Y-3.8228
X3.7244Y-3.1575
X3.7756Y-3.1575
X3.7913Y-3.5669
X3.8228Y-3.8228
X3.8543Y-3.5669
X3.8701Y-2.252
X3.9016Y-2.3858
X3.9016Y-2.437
X3.9016Y-2.5354
X3.9016Y-2.5866
X4.126Y-3.8268
X4.1654Y-2.8937
T2
X2.2835Y-5.0079
X2.3937Y-3.1181
X2.7008Y-5.0079
X2.748Y-6.0
X2.8543Y-4.8898
X2.874Y-3.248
X2.9488Y-2.8268
X2.9528Y-2.7244
X2.9921Y-3.2165
X3.0039Y-4.0236
X3.1417Y-5.0433
X3.2795Y-4.8583
X3.374Y-4.4606
X3.622Y-4.374
X3.626Y-3.3307
X3.8976Y-2.937
X4.1024Y-2.2441
T3
X1.8543Y-5.6181
X2.0512Y-5.6181
X2.1999Y-3.5811
X2.4999Y-3.5811
X2.598Y-4.0472
X2.8031Y-2.3417
X2.8031Y-2.6417
X2.898Y-4.0472
X2.9031Y-2.3417
X2.9031Y-2.6417
X3.0031Y-2.3417
X3.0031Y-2.6417
X3.1031Y-2.3417
X3.1031Y-2.6417
X3.1299Y-4.1571
X3.1299Y-4.4571
T4
X1.7402Y-4.0984
X1.9764Y-5.4213
X2.2126Y-5.4213
X2.4488Y-4.0984
T5
X3.575Y-4.8242
X3.575Y-5.6242
X3.675Y-4.8242
X3.675Y-5.6242
X3.775Y-4.8242
X3.775Y-5.6242
X3.875Y-4.8242
X3.875Y-5.6242
X3.975Y-4.8242
X3.975Y-5.6242
X4.075Y-4.8242
X4.075Y-5.6242
T6
X1.9602Y-3.2677
X2.7476Y-3.2677
T7
X1.8528Y-1.6448
X1.8528Y-5.8316
X2.0528Y-1.6448
X2.0528Y-5.8316
X2.2528Y-1.6448
X2.2528Y-5.8316
X2.4528Y-1.6448
X2.4528Y-5.8316
X2.6528Y-1.6448
X2.6528Y-5.8316
X2.8528Y-1.6448
X2.8528Y-5.8316
X3.0528Y-1.6448
X3.0528Y-5.8316
X3.2528Y-1.6448
X3.2528Y-5.8316
X3.4528Y-1.6448
X3.4528Y-5.8316
X3.6528Y-1.6448
X3.6528Y-5.8316
X3.8528Y-1.6448
X3.8528Y-5.8316
X4.0528Y-1.6448
X4.0528Y-5.8316
T8
X4.2309Y-4.9703
X4.2309Y-5.4785
M30
