G04 #@! TF.GenerationSoftware,KiCad,Pcbnew,8.0.4*
G04 #@! TF.CreationDate,2024-11-14T12:54:13+07:00*
G04 #@! TF.ProjectId,Ver04,56657230-342e-46b6-9963-61645f706362,rev?*
G04 #@! TF.SameCoordinates,Original*
G04 #@! TF.FileFunction,Soldermask,Top*
G04 #@! TF.FilePolarity,Negative*
%FSLAX46Y46*%
G04 Gerber Fmt 4.6, Leading zero omitted, Abs format (unit mm)*
G04 Created by KiCad (PCBNEW 8.0.4) date 2024-11-14 12:54:13*
%MOMM*%
%LPD*%
G01*
G04 APERTURE LIST*
G04 Aperture macros list*
%AMRoundRect*
0 Rectangle with rounded corners*
0 $1 Rounding radius*
0 $2 $3 $4 $5 $6 $7 $8 $9 X,Y pos of 4 corners*
0 Add a 4 corners polygon primitive as box body*
4,1,4,$2,$3,$4,$5,$6,$7,$8,$9,$2,$3,0*
0 Add four circle primitives for the rounded corners*
1,1,$1+$1,$2,$3*
1,1,$1+$1,$4,$5*
1,1,$1+$1,$6,$7*
1,1,$1+$1,$8,$9*
0 Add four rect primitives between the rounded corners*
20,1,$1+$1,$2,$3,$4,$5,0*
20,1,$1+$1,$4,$5,$6,$7,0*
20,1,$1+$1,$6,$7,$8,$9,0*
20,1,$1+$1,$8,$9,$2,$3,0*%
G04 Aperture macros list end*
%ADD10RoundRect,0.250000X-0.450000X0.350000X-0.450000X-0.350000X0.450000X-0.350000X0.450000X0.350000X0*%
%ADD11RoundRect,0.250000X1.050000X0.550000X-1.050000X0.550000X-1.050000X-0.550000X1.050000X-0.550000X0*%
%ADD12R,1.600000X1.600000*%
%ADD13O,1.600000X1.600000*%
%ADD14RoundRect,0.250000X-0.350000X-0.450000X0.350000X-0.450000X0.350000X0.450000X-0.350000X0.450000X0*%
%ADD15RoundRect,0.250000X-0.625000X0.400000X-0.625000X-0.400000X0.625000X-0.400000X0.625000X0.400000X0*%
%ADD16R,2.100000X2.100000*%
%ADD17C,2.100000*%
%ADD18RoundRect,0.243750X0.456250X-0.243750X0.456250X0.243750X-0.456250X0.243750X-0.456250X-0.243750X0*%
%ADD19R,1.500000X2.000000*%
%ADD20R,3.800000X2.000000*%
%ADD21C,2.200000*%
%ADD22C,3.200000*%
%ADD23RoundRect,0.250000X1.500000X0.900000X-1.500000X0.900000X-1.500000X-0.900000X1.500000X-0.900000X0*%
%ADD24R,0.250000X1.100000*%
%ADD25RoundRect,0.250000X0.450000X-0.350000X0.450000X0.350000X-0.450000X0.350000X-0.450000X-0.350000X0*%
%ADD26R,0.900000X1.700000*%
%ADD27RoundRect,0.250000X-1.050000X-0.550000X1.050000X-0.550000X1.050000X0.550000X-1.050000X0.550000X0*%
%ADD28R,0.900000X2.000000*%
%ADD29R,2.000000X0.900000*%
%ADD30R,5.000000X5.000000*%
%ADD31C,1.000000*%
%ADD32R,2.000000X0.500000*%
%ADD33R,1.700000X2.000000*%
%ADD34RoundRect,0.102000X0.750000X-0.750000X0.750000X0.750000X-0.750000X0.750000X-0.750000X-0.750000X0*%
%ADD35C,1.704000*%
%ADD36RoundRect,0.249999X-0.790001X-1.550001X0.790001X-1.550001X0.790001X1.550001X-0.790001X1.550001X0*%
%ADD37O,2.080000X3.600000*%
%ADD38RoundRect,0.250000X-0.475000X0.250000X-0.475000X-0.250000X0.475000X-0.250000X0.475000X0.250000X0*%
%ADD39C,0.900000*%
%ADD40R,1.600000X0.700000*%
%ADD41R,2.200000X1.200000*%
%ADD42R,1.400000X1.600000*%
%ADD43R,1.400000X1.200000*%
%ADD44RoundRect,0.249999X0.790001X1.550001X-0.790001X1.550001X-0.790001X-1.550001X0.790001X-1.550001X0*%
%ADD45C,1.600000*%
%ADD46RoundRect,0.056280X0.345720X-1.030720X0.345720X1.030720X-0.345720X1.030720X-0.345720X-1.030720X0*%
%ADD47RoundRect,0.250000X-0.450000X0.262500X-0.450000X-0.262500X0.450000X-0.262500X0.450000X0.262500X0*%
G04 APERTURE END LIST*
D10*
X67500000Y-115800000D03*
X67500000Y-117800000D03*
X82500000Y-115800000D03*
X82500000Y-117800000D03*
D11*
X48800000Y-98300000D03*
X45200000Y-98300000D03*
D10*
X72500000Y-71800000D03*
X72500000Y-73800000D03*
D12*
X71200000Y-67100000D03*
D13*
X73740000Y-67100000D03*
X76280000Y-67100000D03*
X78820000Y-67100000D03*
X78820000Y-59480000D03*
X76280000Y-59480000D03*
X73740000Y-59480000D03*
X71200000Y-59480000D03*
D14*
X44400000Y-49400000D03*
X46400000Y-49400000D03*
D15*
X69700000Y-46450000D03*
X69700000Y-49550000D03*
D16*
X69789087Y-83000000D03*
D17*
X49789087Y-83000000D03*
D14*
X60100000Y-49400000D03*
X62100000Y-49400000D03*
D18*
X72500000Y-122037500D03*
X72500000Y-120162500D03*
D19*
X77600000Y-85050000D03*
X75300000Y-85050000D03*
D20*
X75300000Y-91350000D03*
D19*
X73000000Y-85050000D03*
D21*
X103505000Y-122535000D03*
X100965000Y-122535000D03*
X98425000Y-122535000D03*
X95885000Y-122535000D03*
X93345000Y-122535000D03*
X90805000Y-122535000D03*
X90805000Y-142855000D03*
X93345000Y-142855000D03*
X95885000Y-142855000D03*
X98425000Y-142855000D03*
X100965000Y-142855000D03*
X103505000Y-142855000D03*
D22*
X107465000Y-126245000D03*
X107465000Y-139153000D03*
D14*
X96500000Y-46500000D03*
X98500000Y-46500000D03*
D23*
X98300000Y-54200000D03*
X92900000Y-54200000D03*
D14*
X64800000Y-46500000D03*
X66800000Y-46500000D03*
D24*
X46200000Y-65350000D03*
X46700000Y-65350000D03*
X47200000Y-65350000D03*
X47700000Y-65350000D03*
X48200000Y-65350000D03*
X48200000Y-61050000D03*
X47700000Y-61050000D03*
X47200000Y-61050000D03*
X46700000Y-61050000D03*
X46200000Y-61050000D03*
D25*
X77500000Y-73800000D03*
X77500000Y-71800000D03*
D26*
X88400000Y-77600000D03*
X91800000Y-77600000D03*
D15*
X88800000Y-46450000D03*
X88800000Y-49550000D03*
D27*
X73300000Y-95700000D03*
X76900000Y-95700000D03*
D14*
X91800000Y-46500000D03*
X93800000Y-46500000D03*
D18*
X82500000Y-122037500D03*
X82500000Y-120162500D03*
D23*
X66600000Y-54200000D03*
X61200000Y-54200000D03*
D15*
X85500000Y-46450000D03*
X85500000Y-49550000D03*
D14*
X80500000Y-46500000D03*
X82500000Y-46500000D03*
D18*
X77500000Y-77837500D03*
X77500000Y-75962500D03*
D28*
X99655000Y-82200000D03*
X98385000Y-82200000D03*
X97115000Y-82200000D03*
X95845000Y-82200000D03*
X94575000Y-82200000D03*
X93305000Y-82200000D03*
X92035000Y-82200000D03*
X90765000Y-82200000D03*
X89495000Y-82200000D03*
X88225000Y-82200000D03*
X86955000Y-82200000D03*
X85685000Y-82200000D03*
X84415000Y-82200000D03*
X83145000Y-82200000D03*
D29*
X82145000Y-84985000D03*
X82145000Y-86255000D03*
X82145000Y-87525000D03*
X82145000Y-88795000D03*
X82145000Y-90065000D03*
X82145000Y-91335000D03*
X82145000Y-92605000D03*
X82145000Y-93875000D03*
X82145000Y-95145000D03*
X82145000Y-96415000D03*
D28*
X83145000Y-99200000D03*
X84415000Y-99200000D03*
X85685000Y-99200000D03*
X86955000Y-99200000D03*
X88225000Y-99200000D03*
X89495000Y-99200000D03*
X90765000Y-99200000D03*
X92035000Y-99200000D03*
X93305000Y-99200000D03*
X94575000Y-99200000D03*
X95845000Y-99200000D03*
X97115000Y-99200000D03*
X98385000Y-99200000D03*
X99655000Y-99200000D03*
D30*
X92155000Y-89700000D03*
D15*
X54000000Y-46450000D03*
X54000000Y-49550000D03*
D14*
X96500000Y-49400000D03*
X98500000Y-49400000D03*
X75800000Y-46500000D03*
X77800000Y-46500000D03*
D31*
X104100000Y-66600000D03*
X104100000Y-62200000D03*
D32*
X101400000Y-66000000D03*
X101400000Y-65200000D03*
X101400000Y-64400000D03*
X101400000Y-63600000D03*
X101400000Y-62800000D03*
D33*
X101500000Y-68850000D03*
X106950000Y-68850000D03*
X101500000Y-59950000D03*
X106950000Y-59950000D03*
D34*
X50200000Y-137700000D03*
D35*
X56200000Y-137700000D03*
X44200000Y-104100000D03*
X62200000Y-104100000D03*
D15*
X72900000Y-46450000D03*
X72900000Y-49550000D03*
D36*
X47060000Y-148122500D03*
D37*
X52140000Y-148122500D03*
X57220000Y-148122500D03*
X62300000Y-148122500D03*
X67380000Y-148122500D03*
X72460000Y-148122500D03*
X77540000Y-148122500D03*
X82620000Y-148122500D03*
X87700000Y-148122500D03*
X92780000Y-148122500D03*
X97860000Y-148122500D03*
X102940000Y-148122500D03*
D18*
X77500000Y-122037500D03*
X77500000Y-120162500D03*
D38*
X105800000Y-76950000D03*
X105800000Y-78850000D03*
D14*
X44400000Y-46500000D03*
X46400000Y-46500000D03*
D15*
X101400000Y-46450000D03*
X101400000Y-49550000D03*
D14*
X49100000Y-49400000D03*
X51100000Y-49400000D03*
D18*
X72500000Y-77837500D03*
X72500000Y-75962500D03*
D39*
X105978145Y-106984968D03*
X105978145Y-114984968D03*
D40*
X95478145Y-107784968D03*
X95478145Y-108884968D03*
X95478145Y-109984968D03*
X95478145Y-111084968D03*
X95478145Y-112184968D03*
X95478145Y-113284968D03*
X95478145Y-114384968D03*
X95478145Y-115484968D03*
X95478145Y-116584968D03*
D41*
X105578145Y-102284968D03*
D42*
X95978145Y-103184968D03*
D41*
X105578145Y-117784968D03*
D43*
X95978145Y-117784968D03*
D14*
X60100000Y-46500000D03*
X62100000Y-46500000D03*
X80500000Y-49400000D03*
X82500000Y-49400000D03*
D44*
X102940000Y-41777500D03*
D37*
X97860000Y-41777500D03*
X92780000Y-41777500D03*
X87700000Y-41777500D03*
X82620000Y-41777500D03*
X77540000Y-41777500D03*
X72460000Y-41777500D03*
X67380000Y-41777500D03*
X62300000Y-41777500D03*
X57220000Y-41777500D03*
X52140000Y-41777500D03*
X47060000Y-41777500D03*
D45*
X47100000Y-142700000D03*
X52100000Y-142700000D03*
D14*
X49100000Y-46500000D03*
X51100000Y-46500000D03*
D46*
X51590000Y-66375000D03*
X52860000Y-66375000D03*
X54130000Y-66375000D03*
X55400000Y-66375000D03*
X56670000Y-66375000D03*
X57940000Y-66375000D03*
X59210000Y-66375000D03*
X59210000Y-61425000D03*
X57940000Y-61425000D03*
X56670000Y-61425000D03*
X55400000Y-61425000D03*
X54130000Y-61425000D03*
X52860000Y-61425000D03*
X51590000Y-61425000D03*
D15*
X104600000Y-46450000D03*
X104600000Y-49550000D03*
D14*
X64800000Y-49400000D03*
X66800000Y-49400000D03*
D23*
X82300000Y-54200000D03*
X76900000Y-54200000D03*
D14*
X75800000Y-49400000D03*
X77800000Y-49400000D03*
X91800000Y-49400000D03*
X93800000Y-49400000D03*
D26*
X97100000Y-77600000D03*
X93700000Y-77600000D03*
D10*
X77500000Y-115800000D03*
X77500000Y-117800000D03*
D23*
X50900000Y-54200000D03*
X45500000Y-54200000D03*
D18*
X67500000Y-122037500D03*
X67500000Y-120162500D03*
D15*
X57200000Y-46450000D03*
X57200000Y-49550000D03*
D10*
X72500000Y-115800000D03*
X72500000Y-117800000D03*
D47*
X103000000Y-76987500D03*
X103000000Y-78812500D03*
D12*
X79500000Y-105590000D03*
D13*
X79500000Y-113210000D03*
D12*
X65990000Y-102800000D03*
D13*
X73610000Y-102800000D03*
D12*
X55877000Y-90959000D03*
D13*
X63497000Y-90959000D03*
M02*
